<svg width="1087" height="256" viewBox="0 0 1087 256" fill="none" xmlns="http://www.w3.org/2000/svg">
<path opacity="0.1" d="M4.44 254H2.44V256H4.44V254ZM4.44 210.2V208.2H2.44V210.2H4.44ZM15.24 210.2H17.24V208.2H15.24V210.2ZM15.24 254V256H17.24V254H15.24ZM14.04 254H12.04V256H14.04V254ZM14.04 244.88V242.88H12.04V244.88H14.04ZM32.52 244.88H34.52V242.88H32.52V244.88ZM32.52 254V256H34.52V254H32.52ZM14.04 236.3H12.04V238.3H14.04V236.3ZM14.04 227.18V225.18H12.04V227.18H14.04ZM31.26 227.18H33.26V225.18H31.26V227.18ZM31.26 236.3V238.3H33.26V236.3H31.26ZM14.04 219.32H12.04V221.32H14.04V219.32ZM14.04 210.2V208.2H12.04V210.2H14.04ZM32.16 210.2H34.16V208.2H32.16V210.2ZM32.16 219.32V221.32H34.16V219.32H32.16ZM6.44 254L6.44 210.2H2.44L2.44 254H6.44ZM4.44 212.2H15.24V208.2H4.44V212.2ZM13.24 210.2L13.24 254H17.24V210.2H13.24ZM15.24 252H4.44V256H15.24V252ZM16.04 254V244.88H12.04V254H16.04ZM14.04 246.88H32.52V242.88H14.04V246.88ZM30.52 244.88V254H34.52V244.88H30.52ZM32.52 252H14.04V256H32.52V252ZM16.04 236.3V227.18H12.04V236.3H16.04ZM14.04 229.18H31.26V225.18H14.04V229.18ZM29.26 227.18V236.3H33.26V227.18H29.26ZM31.26 234.3H14.04V238.3H31.26V234.3ZM16.04 219.32V210.2H12.04V219.32H16.04ZM14.04 212.2H32.16V208.2H14.04V212.2ZM30.16 210.2V219.32H34.16V210.2H30.16ZM32.16 217.32H14.04V221.32H32.16V217.32ZM49.9078 254.24H47.9078V256.24H49.9078V254.24ZM49.9078 243.8V241.8H47.9078V243.8H49.9078ZM62.1478 243.02L62.8108 244.907L62.825 244.902L62.8392 244.897L62.1478 243.02ZM65.9878 240.68L67.374 242.122L67.3882 242.108L67.402 242.094L65.9878 240.68ZM68.3878 236.96L70.2518 237.685L70.2551 237.676L70.2584 237.668L68.3878 236.96ZM68.3878 226.94L66.5172 227.648L66.5205 227.656L66.5238 227.665L68.3878 226.94ZM65.9878 223.28L64.6016 224.722L64.6163 224.736L64.6313 224.75L65.9878 223.28ZM62.1478 221.06L61.4848 222.947L61.515 222.958L61.5456 222.967L62.1478 221.06ZM49.9078 220.28H47.9078V222.28H49.9078V220.28ZM49.9078 209.84V207.84H47.9078V209.84H49.9078ZM67.0078 211.52L66.3 213.391L66.3083 213.394L67.0078 211.52ZM74.5078 216.2L73.0936 217.614L73.1007 217.621L73.108 217.628L74.5078 216.2ZM79.0078 223.04L77.1411 223.758V223.758L79.0078 223.04ZM79.0078 240.56L80.8708 241.288L80.8745 241.278L79.0078 240.56ZM74.5078 247.52L75.936 248.92L75.9428 248.913L75.9495 248.906L74.5078 247.52ZM67.0078 252.44L67.7592 254.294L67.7718 254.288L67.0078 252.44ZM39.9478 254.24H37.9478V256.24H39.9478V254.24ZM39.9478 209.84V207.84H37.9478V209.84H39.9478ZM51.1078 209.84H53.1078V207.84H51.1078V209.84ZM51.1078 254.24V256.24H53.1078V254.24H51.1078ZM51.9078 254.24V243.8H47.9078V254.24H51.9078ZM49.9078 245.8H57.1078V241.8H49.9078V245.8ZM57.1078 245.8C59.1701 245.8 61.0802 245.515 62.8108 244.907L61.4848 241.133C60.2554 241.565 58.8055 241.8 57.1078 241.8V245.8ZM62.8392 244.897C64.5865 244.253 66.1119 243.335 67.374 242.122L64.6016 239.238C63.7838 240.025 62.7491 240.667 61.4564 241.143L62.8392 244.897ZM67.402 242.094C68.648 240.848 69.5965 239.37 70.2518 237.685L66.5238 236.235C66.0591 237.43 65.4076 238.432 64.5736 239.266L67.402 242.094ZM70.2584 237.668C70.9167 235.928 71.2278 234.023 71.2278 231.98H67.2278C67.2278 233.617 66.979 235.032 66.5172 236.252L70.2584 237.668ZM71.2278 231.98C71.2278 229.87 70.9206 227.935 70.2518 226.215L66.5238 227.665C66.9751 228.825 67.2278 230.25 67.2278 231.98H71.2278ZM70.2584 226.232C69.6016 224.496 68.6383 223.005 67.3444 221.81L64.6313 224.75C65.4174 225.475 66.054 226.424 66.5172 227.648L70.2584 226.232ZM67.374 221.838C66.0896 220.603 64.5326 219.716 62.7501 219.153L61.5456 222.967C62.8031 223.364 63.806 223.957 64.6016 224.722L67.374 221.838ZM62.8108 219.173C61.0802 218.565 59.1701 218.28 57.1078 218.28V222.28C58.8055 222.28 60.2554 222.515 61.4848 222.947L62.8108 219.173ZM57.1078 218.28H49.9078V222.28H57.1078V218.28ZM51.9078 220.28V209.84H47.9078V220.28H51.9078ZM49.9078 211.84H56.6278V207.84H49.9078V211.84ZM56.6278 211.84C60.4044 211.84 63.615 212.375 66.3 213.391L67.7156 209.649C64.4806 208.425 60.7712 207.84 56.6278 207.84V211.84ZM66.3083 213.394C69.0754 214.427 71.3214 215.842 73.0936 217.614L75.922 214.786C73.6943 212.558 70.9402 210.853 67.7073 209.646L66.3083 213.394ZM73.108 217.628C74.9043 219.389 76.2446 221.427 77.1411 223.758L80.8745 222.322C79.771 219.453 78.1113 216.931 75.9077 214.772L73.108 217.628ZM77.1411 223.758C78.0488 226.118 78.5078 228.633 78.5078 231.32H82.5078C82.5078 228.167 81.9668 225.162 80.8745 222.322L77.1411 223.758ZM78.5078 231.32V232.64H82.5078V231.32H78.5078ZM78.5078 232.64C78.5078 235.065 78.0565 237.462 77.1411 239.842L80.8745 241.278C81.9591 238.458 82.5078 235.575 82.5078 232.64H78.5078ZM77.1449 239.832C76.2454 242.135 74.893 244.234 73.0661 246.134L75.9495 248.906C78.1226 246.646 79.7703 244.105 80.8707 241.288L77.1449 239.832ZM73.0797 246.12C71.2926 247.943 69.0283 249.441 66.2438 250.592L67.7718 254.288C70.9873 252.959 73.723 251.177 75.936 248.92L73.0797 246.12ZM66.2564 250.587C63.5848 251.67 60.39 252.24 56.6278 252.24V256.24C60.7856 256.24 64.5108 255.61 67.7592 254.293L66.2564 250.587ZM56.6278 252.24H49.9078V256.24H56.6278V252.24ZM41.9478 254.24V209.84H37.9478V254.24H41.9478ZM39.9478 211.84H51.1078V207.84H39.9478V211.84ZM49.1078 209.84V254.24H53.1078V209.84H49.1078ZM51.1078 252.24H39.9478V256.24H51.1078V252.24ZM94.687 252.86L93.7345 254.619L93.7446 254.624L94.687 252.86ZM88.087 246.26L86.3182 247.194L86.3237 247.204L88.087 246.26ZM85.807 210.2V208.2H83.807V210.2H85.807ZM96.967 210.2H98.967V208.2H96.967V210.2ZM97.927 240.8L96.1382 241.694L96.1492 241.717L96.1608 241.738L97.927 240.8ZM100.807 243.74L99.8454 245.494L100.807 243.74ZM109.927 243.74L108.965 241.986V241.986L109.927 243.74ZM112.747 240.86L114.524 241.777L114.53 241.766L114.536 241.754L112.747 240.86ZM113.707 210.2V208.2H111.707V210.2H113.707ZM124.867 210.2H126.867V208.2H124.867V210.2ZM122.587 246.26L120.818 245.326L120.813 245.336L122.587 246.26ZM115.987 252.86L115.045 251.096L115.034 251.101L115.987 252.86ZM105.367 253.2C101.41 253.2 98.1919 252.465 95.6295 251.096L93.7446 254.624C97.0222 256.375 100.925 257.2 105.367 257.2V253.2ZM95.6396 251.101C93.0976 249.725 91.1824 247.805 89.8504 245.316L86.3237 247.204C88.0317 250.395 90.5164 252.875 93.7345 254.619L95.6396 251.101ZM89.8558 245.326C88.5157 242.787 87.807 239.72 87.807 236.06H83.807C83.807 240.24 84.6184 243.973 86.3183 247.194L89.8558 245.326ZM87.807 236.06V210.2H83.807V236.06H87.807ZM85.807 212.2H96.967V208.2H85.807V212.2ZM94.967 210.2V236.3H98.967V210.2H94.967ZM94.967 236.3C94.967 238.268 95.334 240.086 96.1382 241.694L99.7159 239.906C99.24 238.954 98.967 237.772 98.967 236.3H94.967ZM96.1608 241.738C97.0189 243.354 98.2545 244.621 99.8454 245.494L101.769 241.986C100.88 241.499 100.195 240.806 99.6933 239.862L96.1608 241.738ZM99.8454 245.494C101.45 246.374 103.321 246.76 105.367 246.76V242.76C103.814 242.76 102.644 242.466 101.769 241.986L99.8454 245.494ZM105.367 246.76C107.414 246.76 109.284 246.374 110.889 245.494L108.965 241.986C108.09 242.466 106.921 242.76 105.367 242.76V246.76ZM110.889 245.494C112.473 244.625 113.699 243.376 114.524 241.777L110.97 239.943C110.515 240.824 109.861 241.495 108.965 241.986L110.889 245.494ZM114.536 241.754C115.343 240.14 115.707 238.3 115.707 236.3H111.707C111.707 237.82 111.431 239.02 110.958 239.966L114.536 241.754ZM115.707 236.3V210.2H111.707V236.3H115.707ZM113.707 212.2H124.867V208.2H113.707V212.2ZM122.867 210.2V236.06H126.867V210.2H122.867ZM122.867 236.06C122.867 239.72 122.158 242.787 120.818 245.326L124.356 247.194C126.056 243.973 126.867 240.24 126.867 236.06H122.867ZM120.813 245.336C119.526 247.806 117.622 249.719 115.045 251.096L116.929 254.624C120.192 252.881 122.688 250.394 124.361 247.184L120.813 245.336ZM115.034 251.101C112.518 252.464 109.326 253.2 105.367 253.2V257.2C109.808 257.2 113.696 256.376 116.94 254.619L115.034 251.101ZM143.196 253.16L142.312 254.954L142.322 254.959L142.332 254.964L143.196 253.16ZM136.176 247.7L134.62 248.956L134.625 248.963L134.631 248.969L136.176 247.7ZM132.096 240.32L133.993 239.688L132.096 240.32ZM132.096 223.22L130.204 222.571L130.202 222.579L130.199 222.588L132.096 223.22ZM136.236 215.96L134.727 214.647L134.721 214.655L134.714 214.663L136.236 215.96ZM143.256 210.8L142.425 208.981V208.981L143.256 210.8ZM163.716 211.16L162.831 212.953L162.845 212.96L162.859 212.967L163.716 211.16ZM171.216 217.46L169.571 218.597L169.579 218.609L171.216 217.46ZM174.516 226.82V228.82H176.704L176.508 226.641L174.516 226.82ZM163.356 226.82L161.389 227.182L161.691 228.82H163.356V226.82ZM161.556 222.86L163.102 221.591V221.591L161.556 222.86ZM158.016 220.28L157.204 222.108L157.225 222.117L157.247 222.126L158.016 220.28ZM148.416 220.22L147.628 218.382L147.619 218.386L147.609 218.39L148.416 220.22ZM144.936 222.8L143.418 221.498L143.414 221.503L144.936 222.8ZM142.776 226.76L140.879 226.128L140.871 226.15L140.865 226.172L142.776 226.76ZM142.776 237.32L140.865 237.908L140.871 237.93L140.879 237.952L142.776 237.32ZM144.996 241.34L143.478 242.642L143.491 242.657L143.504 242.672L144.996 241.34ZM148.596 243.92L147.808 245.758L147.831 245.768L147.853 245.777L148.596 243.92ZM160.476 242.72L159.336 241.077L159.328 241.082L159.32 241.088L160.476 242.72ZM164.016 237.26V235.26H162.336L162.046 236.914L164.016 237.26ZM175.176 237.26L177.164 237.478L177.408 235.26H175.176V237.26ZM164.436 252.8L165.349 254.58L165.358 254.575L165.367 254.57L164.436 252.8ZM153.396 253.2C149.66 253.2 146.57 252.558 144.06 251.356L142.332 254.964C145.502 256.482 149.212 257.2 153.396 257.2V253.2ZM144.08 251.366C141.472 250.08 139.365 248.431 137.722 246.431L134.631 248.969C136.667 251.449 139.24 253.44 142.312 254.954L144.08 251.366ZM137.732 246.444C136.034 244.34 134.794 242.089 133.993 239.688L130.199 240.952C131.158 243.831 132.638 246.5 134.62 248.956L137.732 246.444ZM133.993 239.688C133.173 237.227 132.776 234.881 132.776 232.64H128.776C128.776 235.359 129.259 238.133 130.199 240.952L133.993 239.688ZM132.776 232.64V231.32H128.776V232.64H132.776ZM132.776 231.32C132.776 228.777 133.181 226.29 133.993 223.852L130.199 222.588C129.251 225.43 128.776 228.343 128.776 231.32H132.776ZM133.988 223.869C134.826 221.427 136.081 219.226 137.759 217.257L134.714 214.663C132.711 217.014 131.206 219.653 130.204 222.571L133.988 223.869ZM137.745 217.273C139.424 215.344 141.527 213.79 144.088 212.619L142.425 208.981C139.385 210.37 136.808 212.256 134.727 214.647L137.745 217.273ZM144.088 212.619C146.575 211.482 149.561 210.88 153.096 210.88V206.88C149.111 206.88 145.537 207.558 142.425 208.981L144.088 212.619ZM153.096 210.88C156.84 210.88 160.068 211.59 162.831 212.953L164.601 209.367C161.204 207.69 157.353 206.88 153.096 206.88V210.88ZM162.859 212.967C165.677 214.304 167.899 216.179 169.571 218.597L172.861 216.323C170.773 213.301 167.995 210.976 164.573 209.353L162.859 212.967ZM169.579 218.609C171.24 220.976 172.232 223.755 172.524 226.999L176.508 226.641C176.16 222.765 174.953 219.304 172.853 216.311L169.579 218.609ZM174.516 224.82H163.356V228.82H174.516V224.82ZM165.323 226.458C164.986 224.627 164.251 222.99 163.102 221.591L160.011 224.129C160.701 224.97 161.166 225.973 161.389 227.182L165.323 226.458ZM163.102 221.591C161.958 220.199 160.504 219.15 158.785 218.434L157.247 222.126C158.408 222.61 159.314 223.281 160.011 224.129L163.102 221.591ZM158.828 218.452C157.093 217.681 155.169 217.32 153.096 217.32V221.32C154.703 221.32 156.059 221.599 157.204 222.108L158.828 218.452ZM153.096 217.32C151.14 217.32 149.307 217.662 147.628 218.382L149.204 222.058C150.325 221.578 151.612 221.32 153.096 221.32V217.32ZM147.609 218.39C145.977 219.11 144.574 220.15 143.418 221.498L146.455 224.102C147.218 223.21 148.135 222.53 149.223 222.05L147.609 218.39ZM143.414 221.503C142.303 222.807 141.467 224.362 140.879 226.128L144.673 227.392C145.125 226.038 145.729 224.953 146.459 224.097L143.414 221.503ZM140.865 226.172C140.316 227.956 140.056 229.919 140.056 232.04H144.056C144.056 230.241 144.277 228.684 144.688 227.348L140.865 226.172ZM140.056 232.04C140.056 234.161 140.316 236.124 140.865 237.908L144.688 236.732C144.277 235.396 144.056 233.839 144.056 232.04H140.056ZM140.879 237.952C141.471 239.73 142.331 241.304 143.478 242.642L146.515 240.038C145.741 239.136 145.121 238.03 144.673 236.688L140.879 237.952ZM143.504 242.672C144.702 244.013 146.143 245.045 147.808 245.758L149.384 242.082C148.249 241.595 147.29 240.907 146.488 240.008L143.504 242.672ZM147.853 245.777C149.531 246.448 151.39 246.76 153.396 246.76V242.76C151.802 242.76 150.462 242.512 149.339 242.063L147.853 245.777ZM153.396 246.76C156.53 246.76 159.314 245.994 161.632 244.352L159.32 241.088C157.798 242.166 155.863 242.76 153.396 242.76V246.76ZM161.616 244.363C164 242.709 165.491 240.429 165.986 237.606L162.046 236.914C161.742 238.651 160.872 240.011 159.336 241.077L161.616 244.363ZM164.016 239.26H175.176V235.26H164.016V239.26ZM173.188 237.042C172.863 240 171.876 242.69 170.22 245.139L173.533 247.381C175.556 244.39 176.769 241.08 177.164 237.478L173.188 237.042ZM170.22 245.139C168.578 247.566 166.356 249.532 163.506 251.03L165.367 254.57C168.757 252.788 171.494 250.394 173.533 247.381L170.22 245.139ZM163.523 251.02C160.739 252.448 157.384 253.2 153.396 253.2V257.2C157.888 257.2 161.893 256.352 165.349 254.58L163.523 251.02ZM176.613 254L174.708 253.39L173.871 256H176.613V254ZM190.653 210.2V208.2H189.194L188.748 209.59L190.653 210.2ZM208.533 210.2L210.431 209.571L209.977 208.2H208.533V210.2ZM223.053 254V256H225.823L224.951 253.371L223.053 254ZM211.533 254L209.624 254.598L210.064 256H211.533V254ZM200.253 218L200.959 216.129L197.116 214.679L198.344 218.598L200.253 218ZM203.433 219.2V221.2L204.139 217.329L203.433 219.2ZM195.513 219.2L194.818 217.324L195.513 221.2V219.2ZM198.753 218L200.666 218.583L201.843 214.723L198.058 216.125L198.753 218ZM187.773 254V256H189.254L189.686 254.583L187.773 254ZM188.073 243.86L186.196 243.169L185.205 245.86H188.073V243.86ZM191.433 234.74V232.74H190.038L189.556 234.049L191.433 234.74ZM208.053 234.74L209.93 234.049L209.447 232.74H208.053V234.74ZM211.413 243.86V245.86H214.281L213.29 243.169L211.413 243.86ZM178.517 254.61L192.557 210.81L188.748 209.59L174.708 253.39L178.517 254.61ZM190.653 212.2H208.533V208.2H190.653V212.2ZM206.634 210.829L221.154 254.629L224.951 253.371L210.431 209.571L206.634 210.829ZM223.053 252H211.533V256H223.053V252ZM213.441 253.402L202.161 217.402L198.344 218.598L209.624 254.598L213.441 253.402ZM199.547 219.871L202.727 221.071L204.139 217.329L200.959 216.129L199.547 219.871ZM203.433 217.2H195.513V221.2H203.433V217.2ZM196.207 221.075L199.447 219.875L198.058 216.125L194.818 217.324L196.207 221.075ZM196.84 217.417L185.86 253.417L189.686 254.583L200.666 218.583L196.84 217.417ZM187.773 252H176.613V256H187.773V252ZM189.949 244.551L193.309 235.431L189.556 234.049L186.196 243.169L189.949 244.551ZM191.433 236.74H208.053V232.74H191.433V236.74ZM206.176 235.431L209.536 244.551L213.29 243.169L209.93 234.049L206.176 235.431ZM211.413 241.86H188.073V245.86H211.413V241.86ZM232.634 254H230.634V256H232.634V254ZM232.634 218.72V216.72H230.634V218.72H232.634ZM243.794 218.72H245.794V216.72H243.794V218.72ZM243.794 254V256H245.794V254H243.794ZM220.634 219.92H218.634V221.92H220.634V219.92ZM220.634 210.2V208.2H218.634V210.2H220.634ZM255.794 210.2H257.794V208.2H255.794V210.2ZM255.794 219.92V221.92H257.794V219.92H255.794ZM234.634 254V218.72H230.634V254H234.634ZM232.634 220.72H243.794V216.72H232.634V220.72ZM241.794 218.72V254H245.794V218.72H241.794ZM243.794 252H232.634V256H243.794V252ZM222.634 219.92V210.2H218.634V219.92H222.634ZM220.634 212.2H255.794V208.2H220.634V212.2ZM253.794 210.2V219.92H257.794V210.2H253.794ZM255.794 217.92H220.634V221.92H255.794V217.92ZM261.552 254H259.552V256H261.552V254ZM261.552 210.2V208.2H259.552V210.2H261.552ZM272.712 210.2H274.712V208.2H272.712V210.2ZM272.712 254V256H274.712V254H272.712ZM263.552 254V210.2H259.552V254H263.552ZM261.552 212.2H272.712V208.2H261.552V212.2ZM270.712 210.2V254H274.712V210.2H270.712ZM272.712 252H261.552V256H272.712V252ZM292.746 253.16L291.891 254.968L291.901 254.973L291.911 254.977L292.746 253.16ZM285.366 247.7L283.849 249.004L283.855 249.01L283.86 249.017L285.366 247.7ZM280.986 240.32L282.865 239.637L280.986 240.32ZM281.046 223.22L282.916 223.928L282.919 223.919L281.046 223.22ZM285.546 215.96L287.013 217.319V217.319L285.546 215.96ZM292.926 210.8L292.132 208.964L292.123 208.968L292.926 210.8ZM313.326 210.8L312.523 212.632L312.532 212.636L313.326 210.8ZM320.766 215.96L319.298 217.319V217.319L320.766 215.96ZM325.266 223.22L323.392 223.919L323.398 223.936L323.405 223.953L325.266 223.22ZM325.326 240.32L323.455 239.612L323.451 239.624L323.446 239.637L325.326 240.32ZM320.946 247.7L322.451 249.017L322.457 249.01L322.462 249.004L320.946 247.7ZM313.566 253.16L314.401 254.977L314.411 254.973L314.421 254.968L313.566 253.16ZM308.346 243.8L307.57 241.957V241.957L308.346 243.8ZM312.246 241.1L310.782 239.737L312.246 241.1ZM314.706 237.08L316.582 237.771L316.585 237.764L316.588 237.756L314.706 237.08ZM314.646 226.82L312.763 227.496L312.771 227.517L312.779 227.538L314.646 226.82ZM312.186 222.8L313.625 221.412V221.412L312.186 222.8ZM294.126 222.8L292.686 221.412V221.412L294.126 222.8ZM291.666 226.82L293.548 227.496L291.666 226.82ZM291.666 237.08L289.783 237.756L289.786 237.764L289.789 237.771L291.666 237.08ZM294.126 241.1L292.662 242.463L294.126 241.1ZM298.026 243.8L297.25 245.643L298.026 243.8ZM303.186 253.2C299.41 253.2 296.226 252.558 293.581 251.343L291.911 254.977C295.185 256.482 298.962 257.2 303.186 257.2V253.2ZM293.601 251.352C290.864 250.058 288.633 248.397 286.871 246.383L283.86 249.017C286.019 251.483 288.707 253.462 291.891 254.968L293.601 251.352ZM286.882 246.396C285.069 244.286 283.737 242.034 282.865 239.637L279.106 241.003C280.154 243.886 281.743 246.554 283.849 249.004L286.882 246.396ZM282.865 239.637C281.974 237.187 281.546 234.858 281.546 232.64H277.546C277.546 235.382 278.077 238.173 279.106 241.003L282.865 239.637ZM281.546 232.64V231.32H277.546V232.64H281.546ZM281.546 231.32C281.546 228.808 282 226.347 282.916 223.928L279.175 222.512C278.092 225.373 277.546 228.312 277.546 231.32H281.546ZM282.919 223.919C283.826 221.491 285.185 219.293 287.013 217.319L284.078 214.601C281.906 216.947 280.266 219.589 279.172 222.521L282.919 223.919ZM287.013 217.319C288.811 215.377 291.039 213.811 293.729 212.632L292.123 208.968C288.972 210.349 286.28 212.223 284.078 214.601L287.013 217.319ZM293.719 212.636C296.383 211.484 299.524 210.88 303.186 210.88V206.88C299.087 206.88 295.388 207.556 292.132 208.964L293.719 212.636ZM303.186 210.88C306.805 210.88 309.902 211.483 312.523 212.632L314.129 208.968C310.909 207.557 307.247 206.88 303.186 206.88V210.88ZM312.532 212.636C315.261 213.816 317.504 215.382 319.298 217.319L322.233 214.601C320.027 212.218 317.31 210.344 314.119 208.964L312.532 212.636ZM319.298 217.319C321.126 219.293 322.486 221.491 323.392 223.919L327.139 222.521C326.046 219.589 324.405 216.947 322.233 214.601L319.298 217.319ZM323.405 223.953C324.355 226.366 324.826 228.818 324.826 231.32H328.826C328.826 228.302 328.256 225.354 327.126 222.487L323.405 223.953ZM324.826 231.32V232.64H328.826V231.32H324.826ZM324.826 232.64C324.826 234.847 324.381 237.167 323.455 239.612L327.196 241.028C328.27 238.193 328.826 235.393 328.826 232.64H324.826ZM323.446 239.637C322.574 242.034 321.243 244.286 319.429 246.396L322.462 249.004C324.569 246.554 326.157 243.886 327.205 241.003L323.446 239.637ZM319.44 246.383C317.679 248.397 315.447 250.058 312.711 251.352L314.421 254.968C317.604 253.462 320.293 251.483 322.451 249.017L319.44 246.383ZM312.731 251.343C310.083 252.559 306.918 253.2 303.186 253.2V257.2C307.373 257.2 311.128 256.481 314.401 254.977L312.731 251.343ZM303.186 246.76C305.329 246.76 307.319 246.402 309.122 245.643L307.57 241.957C306.332 242.478 304.882 242.76 303.186 242.76V246.76ZM309.122 245.643C310.892 244.898 312.429 243.838 313.709 242.463L310.782 239.737C309.902 240.682 308.84 241.422 307.57 241.957L309.122 245.643ZM313.709 242.463C314.974 241.104 315.933 239.535 316.582 237.771L312.829 236.389C312.359 237.665 311.677 238.776 310.782 239.737L313.709 242.463ZM316.588 237.756C317.232 235.961 317.546 234.051 317.546 232.04H313.546C313.546 233.629 313.299 235.079 312.823 236.404L316.588 237.756ZM317.546 232.04C317.546 229.911 317.213 227.923 316.512 226.102L312.779 227.538C313.279 228.837 313.546 230.329 313.546 232.04H317.546ZM316.528 226.144C315.879 224.336 314.914 222.748 313.625 221.412L310.746 224.188C311.617 225.092 312.292 226.184 312.763 227.496L316.528 226.144ZM313.625 221.412C312.337 220.075 310.792 219.059 309.02 218.36L307.551 222.08C308.819 222.581 309.875 223.285 310.746 224.188L313.625 221.412ZM309.02 218.36C307.234 217.655 305.28 217.32 303.186 217.32V221.32C304.852 221.32 306.298 221.585 307.551 222.08L309.02 218.36ZM303.186 217.32C301.057 217.32 299.082 217.653 297.291 218.36L298.76 222.08C300.009 221.587 301.474 221.32 303.186 221.32V217.32ZM297.291 218.36C295.519 219.059 293.975 220.075 292.686 221.412L295.565 224.188C296.437 223.285 297.492 222.581 298.76 222.08L297.291 218.36ZM292.686 221.412C291.397 222.748 290.432 224.336 289.783 226.144L293.548 227.496C294.019 226.184 294.694 225.092 295.565 224.188L292.686 221.412ZM289.783 226.144C289.134 227.952 288.826 229.926 288.826 232.04H292.826C292.826 230.314 293.077 228.808 293.548 227.496L289.783 226.144ZM288.826 232.04C288.826 234.051 289.139 235.961 289.783 237.756L293.548 236.404C293.072 235.079 292.826 233.629 292.826 232.04H288.826ZM289.789 237.771C290.439 239.535 291.397 241.104 292.662 242.463L295.589 239.737C294.694 238.776 294.013 237.665 293.542 236.389L289.789 237.771ZM292.662 242.463C293.942 243.838 295.48 244.898 297.25 245.643L298.802 241.957C297.532 241.422 296.469 240.682 295.589 239.737L292.662 242.463ZM297.25 245.643C299.052 246.402 301.042 246.76 303.186 246.76V242.76C301.489 242.76 300.039 242.478 298.802 241.957L297.25 245.643ZM333.561 254H331.561V256H333.561V254ZM333.561 210.2V208.2H331.561V210.2H333.561ZM351.861 210.2L353.707 209.429L353.193 208.2H351.861V210.2ZM366.441 245.12L364.596 245.891L365.109 247.12H366.441V245.12ZM368.541 245.12L369.879 246.607L373.753 243.12H368.541V245.12ZM367.341 246.2H365.341V250.691L368.679 247.687L367.341 246.2ZM367.341 210.2V208.2H365.341V210.2H367.341ZM377.781 210.2H379.781V208.2H377.781V210.2ZM377.781 254V256H379.781V254H377.781ZM359.361 254L357.516 254.771L358.029 256H359.361V254ZM344.781 219.08L346.627 218.309L346.113 217.08H344.781V219.08ZM342.681 219.08L341.343 217.593L337.469 221.08H342.681V219.08ZM343.881 218H345.881V213.509L342.543 216.513L343.881 218ZM343.881 254V256H345.881V254H343.881ZM335.561 254V210.2H331.561V254H335.561ZM333.561 212.2H351.861V208.2H333.561V212.2ZM350.016 210.971L364.596 245.891L368.287 244.349L353.707 209.429L350.016 210.971ZM366.441 247.12H368.541V243.12H366.441V247.12ZM367.203 243.633L366.003 244.713L368.679 247.687L369.879 246.607L367.203 243.633ZM369.341 246.2V210.2H365.341V246.2H369.341ZM367.341 212.2H377.781V208.2H367.341V212.2ZM375.781 210.2V254H379.781V210.2H375.781ZM377.781 252H359.361V256H377.781V252ZM361.207 253.229L346.627 218.309L342.936 219.851L357.516 254.771L361.207 253.229ZM344.781 217.08H342.681V221.08H344.781V217.08ZM344.019 220.567L345.219 219.487L342.543 216.513L341.343 217.593L344.019 220.567ZM341.881 218V254H345.881V218H341.881ZM343.881 252H333.561V256H343.881V252Z" fill="#050C17"/>
<g opacity="0.2">
<path d="M505.005 152C505.557 152 506.005 152.448 506.005 153V160.995H514C514.553 160.995 515 161.443 515 161.995C515 162.547 514.553 162.995 514 162.995H506.005V170.99C506.005 171.542 505.557 171.99 505.005 171.99C504.453 171.99 504.005 171.542 504.005 170.99V162.995H496.01C495.458 162.995 495.01 162.547 495.01 161.995C495.01 161.443 495.458 160.995 496.01 160.995H504.005V153C504.005 152.448 504.453 152 505.005 152Z" fill="url(#paint0_linear_115_74)"/>
<path d="M477.656 179.349C478.209 179.349 478.656 179.797 478.656 180.349V188.307H486.651C487.204 188.307 487.651 188.755 487.651 189.307C487.651 189.86 487.204 190.307 486.651 190.307H478.656V198.302C478.656 198.855 478.209 199.302 477.656 199.302C477.104 199.302 476.656 198.855 476.656 198.302V190.307H468.698C468.146 190.307 467.698 189.86 467.698 189.307C467.698 188.755 468.146 188.307 468.698 188.307H476.656V180.349C476.656 179.797 477.104 179.349 477.656 179.349Z" fill="url(#paint1_linear_115_74)"/>
<path d="M450.343 206.661C450.896 206.661 451.343 207.109 451.343 207.661V215.656H459.339C459.891 215.656 460.339 216.104 460.339 216.656C460.339 217.209 459.891 217.656 459.339 217.656H451.343V225.651C451.343 226.203 450.896 226.651 450.343 226.651C449.791 226.651 449.343 226.203 449.343 225.651V217.656H441.349C440.797 217.656 440.349 217.209 440.349 216.656C440.349 216.104 440.797 215.656 441.349 215.656H449.343V207.661C449.343 207.109 449.791 206.661 450.343 206.661Z" fill="url(#paint2_linear_115_74)"/>
<path d="M423.994 235.01C423.994 234.458 423.547 234.01 422.994 234.01C422.442 234.01 421.994 234.458 421.994 235.01V243.005H414C413.448 243.005 413 243.453 413 244.005C413 244.557 413.448 245.005 414 245.005H421.994V253C421.994 253.552 422.442 254 422.994 254C423.547 254 423.994 253.552 423.994 253V245.005H431.99C432.542 245.005 432.99 244.557 432.99 244.005C432.99 243.453 432.542 243.005 431.99 243.005H423.994V235.01Z" fill="url(#paint3_linear_115_74)"/>
</g>
<path d="M538.033 108H539.967V123.086L545.657 109.121L547.448 109.851L541.723 123.904L552.454 113.172L553.822 114.54L543.02 125.342L557.207 119.632L557.929 121.427L544 127.033H559V128.967H543.927L557.893 134.657L557.163 136.448L543.073 130.708L553.822 141.457L552.454 142.824L541.636 132.006L547.35 146.207L545.556 146.929L539.967 133.041V148H538.033V132.961L532.356 146.895L530.565 146.165L536.317 132.045L525.538 142.824L524.17 141.456L534.952 130.675L520.821 136.363L520.099 134.568L534.015 128.967H519V127.033H534.053L520.119 121.356L520.849 119.565L534.933 125.303L524.17 114.54L525.538 113.173L536.305 123.94L530.624 109.821L532.418 109.099L538.033 123.052V108Z" fill="#050C17"/>
<g opacity="0.2">
<path d="M654.005 2C654.557 2 655.005 2.44772 655.005 3V10.9949H663C663.553 10.9949 664 11.4426 664 11.9949C664 12.5472 663.553 12.9949 663 12.9949H655.005V20.9898C655.005 21.5421 654.557 21.9898 654.005 21.9898C653.453 21.9898 653.005 21.5421 653.005 20.9898V12.9949H645.01C644.458 12.9949 644.01 12.5472 644.01 11.9949C644.01 11.4426 644.458 10.9949 645.01 10.9949H653.005V3C653.005 2.44772 653.453 2 654.005 2Z" fill="url(#paint4_linear_115_74)"/>
<path d="M626.656 29.3489C627.209 29.3489 627.656 29.7966 627.656 30.3489V38.3074H635.651C636.204 38.3074 636.651 38.7551 636.651 39.3074C636.651 39.8597 636.204 40.3074 635.651 40.3074H627.656V48.3023C627.656 48.8546 627.209 49.3023 626.656 49.3023C626.104 49.3023 625.656 48.8546 625.656 48.3023V40.3074H617.698C617.146 40.3074 616.698 39.8597 616.698 39.3074C616.698 38.7551 617.146 38.3074 617.698 38.3074H625.656V30.3489C625.656 29.7966 626.104 29.3489 626.656 29.3489Z" fill="url(#paint5_linear_115_74)"/>
<path d="M599.343 56.6614C599.896 56.6614 600.343 57.1091 600.343 57.6614V65.6562H608.339C608.891 65.6562 609.339 66.104 609.339 66.6562C609.339 67.2085 608.891 67.6562 608.339 67.6562H600.343V75.6512C600.343 76.2035 599.896 76.6512 599.343 76.6512C598.791 76.6512 598.343 76.2035 598.343 75.6512V67.6562H590.349C589.797 67.6562 589.349 67.2085 589.349 66.6562C589.349 66.104 589.797 65.6562 590.349 65.6562H598.343V57.6614C598.343 57.1091 598.791 56.6614 599.343 56.6614Z" fill="url(#paint6_linear_115_74)"/>
<path d="M572.994 85.0103C572.994 84.458 572.547 84.0103 571.994 84.0103C571.442 84.0103 570.994 84.458 570.994 85.0103V93.0051H563C562.448 93.0051 562 93.4528 562 94.0051C562 94.5574 562.448 95.0051 563 95.0051H570.994V103C570.994 103.552 571.442 104 571.994 104C572.547 104 572.994 103.552 572.994 103V95.0051H580.99C581.542 95.0051 581.99 94.5574 581.99 94.0051C581.99 93.4528 581.542 93.0051 580.99 93.0051H572.994V85.0103Z" fill="url(#paint7_linear_115_74)"/>
</g>
<path opacity="0.1" d="M698.44 46H696.44V48H698.44V46ZM698.44 2.2V0.199999L696.44 0.199999V2.2H698.44ZM709.24 2.2H711.24V0.199999L709.24 0.199999V2.2ZM709.24 46V48H711.24V46H709.24ZM708.04 46H706.04V48H708.04V46ZM708.04 36.88V34.88H706.04V36.88H708.04ZM726.52 36.88H728.52V34.88H726.52V36.88ZM726.52 46V48H728.52V46H726.52ZM708.04 28.3H706.04V30.3H708.04V28.3ZM708.04 19.18V17.18H706.04V19.18H708.04ZM725.26 19.18H727.26V17.18H725.26V19.18ZM725.26 28.3V30.3H727.26V28.3H725.26ZM708.04 11.32H706.04V13.32H708.04V11.32ZM708.04 2.2V0.199999H706.04V2.2H708.04ZM726.16 2.2L728.16 2.2V0.199999H726.16V2.2ZM726.16 11.32V13.32H728.16V11.32H726.16ZM700.44 46V2.2H696.44V46H700.44ZM698.44 4.2H709.24V0.199999L698.44 0.199999V4.2ZM707.24 2.2V46H711.24V2.2H707.24ZM709.24 44H698.44V48H709.24V44ZM710.04 46V36.88H706.04V46H710.04ZM708.04 38.88H726.52V34.88H708.04V38.88ZM724.52 36.88V46H728.52V36.88H724.52ZM726.52 44H708.04V48H726.52V44ZM710.04 28.3V19.18H706.04V28.3H710.04ZM708.04 21.18H725.26V17.18H708.04V21.18ZM723.26 19.18V28.3H727.26V19.18H723.26ZM725.26 26.3H708.04V30.3H725.26V26.3ZM710.04 11.32V2.2H706.04V11.32H710.04ZM708.04 4.2L726.16 4.2V0.199999L708.04 0.199999V4.2ZM724.16 2.2V11.32H728.16V2.2L724.16 2.2ZM726.16 9.32H708.04V13.32L726.16 13.32V9.32ZM729.868 46L728.171 44.9416L726.264 48H729.868V46ZM744.388 22.72L746.373 22.4719L745.674 16.8797L742.691 21.6616L744.388 22.72ZM744.508 23.68L742.813 24.7408L746.493 23.4319L744.508 23.68ZM731.068 2.2V0.199999L727.457 0.199999L729.373 3.26085L731.068 2.2ZM743.308 2.2L745.029 1.18062L744.448 0.199999L743.308 0.199999V2.2ZM750.808 14.86L749.087 15.8794L749.668 16.86H750.808V14.86ZM752.368 14.86V16.86H753.527L754.103 15.8549L752.368 14.86ZM759.628 2.2V0.199999H758.469L757.893 1.20507L759.628 2.2ZM771.508 2.2L773.208 3.2532L775.1 0.199999H771.508V2.2ZM758.128 23.8L756.162 24.1686L757.113 29.2372L759.828 24.8532L758.128 23.8ZM757.948 22.84L759.627 21.7528L755.982 23.2086L757.948 22.84ZM772.948 46V48H776.626L774.627 44.9128L772.948 46ZM760.708 46L759.007 47.0517L759.593 48H760.708V46ZM751.768 31.54L753.469 30.4883L752.883 29.54H751.768V31.54ZM750.208 31.54V29.54H749.061L748.482 30.53L750.208 31.54ZM741.748 46V48H742.895L743.474 47.01L741.748 46ZM731.565 47.0584L746.085 23.7784L742.691 21.6616L728.171 44.9416L731.565 47.0584ZM742.403 22.9681L742.524 23.9281L746.493 23.4319L746.373 22.4719L742.403 22.9681ZM746.204 22.6192L732.764 1.13915L729.373 3.26085L742.813 24.7408L746.204 22.6192ZM731.068 4.2H743.308V0.199999L731.068 0.199999V4.2ZM741.587 3.21938L749.087 15.8794L752.529 13.8406L745.029 1.18062L741.587 3.21938ZM750.808 16.86H752.368V12.86H750.808V16.86ZM754.103 15.8549L761.363 3.19493L757.893 1.20507L750.633 13.8651L754.103 15.8549ZM759.628 4.2L771.508 4.2V0.199999L759.628 0.199999V4.2ZM769.808 1.1468L756.428 22.7468L759.828 24.8532L773.208 3.2532L769.808 1.1468ZM760.094 23.4314L759.914 22.4714L755.982 23.2086L756.162 24.1686L760.094 23.4314ZM756.269 23.9272L771.269 47.0872L774.627 44.9128L759.627 21.7528L756.269 23.9272ZM772.948 44H760.708V48H772.948V44ZM762.409 44.9483L753.469 30.4883L750.067 32.5917L759.007 47.0517L762.409 44.9483ZM751.768 29.54H750.208V33.54H751.768V29.54ZM748.482 30.53L740.022 44.99L743.474 47.01L751.934 32.55L748.482 30.53ZM741.748 44H729.868V48H741.748V44ZM787.736 34.36H785.736V36.36H787.736V34.36ZM787.736 24.76V22.76H785.736V24.76H787.736ZM798.476 23.98L799.399 25.7544L799.426 25.7401L799.453 25.725L798.476 23.98ZM800.816 14.5L802.561 13.5228V13.5228L800.816 14.5ZM787.736 11.44H785.736V13.44H787.736V11.44ZM787.736 1.84V-0.160004H785.736V1.84H787.736ZM804.356 3.76L803.505 5.56963L803.521 5.57712L803.537 5.58433L804.356 3.76ZM810.716 26.98L812.411 28.0426H812.411L810.716 26.98ZM804.356 32.44L803.515 30.6256L803.505 30.6304L804.356 32.44ZM777.776 46H775.776V48H777.776V46ZM777.776 1.84V-0.160004H775.776V1.84L777.776 1.84ZM788.936 1.84L790.936 1.84V-0.160004H788.936V1.84ZM788.936 46V48H790.936V46H788.936ZM789.736 34.36V24.76H785.736V34.36H789.736ZM787.736 26.76H794.936V22.76H787.736V26.76ZM794.936 26.76C796.552 26.76 798.061 26.4503 799.399 25.7544L797.553 22.2056C796.892 22.5497 796.041 22.76 794.936 22.76V26.76ZM799.453 25.725C800.775 24.9848 801.821 23.939 802.561 22.6172L799.071 20.6628C798.691 21.3409 798.177 21.8552 797.499 22.235L799.453 25.725ZM802.561 22.6172C803.317 21.2674 803.656 19.7382 803.656 18.1H799.656C799.656 19.1818 799.435 20.0126 799.071 20.6628L802.561 22.6172ZM803.656 18.1C803.656 16.4331 803.322 14.8808 802.561 13.5228L799.071 15.4772C799.431 16.1192 799.656 16.9669 799.656 18.1H803.656ZM802.561 13.5228C801.814 12.1887 800.751 11.1487 799.399 10.4456L797.553 13.9944C798.201 14.3313 798.698 14.8113 799.071 15.4772L802.561 13.5228ZM799.399 10.4456C798.061 9.74974 796.552 9.44 794.936 9.44V13.44C796.041 13.44 796.892 13.6503 797.553 13.9944L799.399 10.4456ZM794.936 9.44H787.736V13.44H794.936V9.44ZM789.736 11.44V1.84H785.736V11.44H789.736ZM787.736 3.84L794.636 3.84V-0.160004L787.736 -0.160004V3.84ZM794.636 3.84C798.174 3.84 801.109 4.44235 803.505 5.56963L805.208 1.95036C802.163 0.517642 798.619 -0.160004 794.636 -0.160004V3.84ZM803.537 5.58433C805.969 6.67699 807.77 8.22627 809.022 10.2226L812.411 8.09742C810.702 5.37373 808.264 3.32301 805.176 1.93566L803.537 5.58433ZM809.022 10.2226C810.269 12.2113 810.936 14.6482 810.936 17.62H814.936C814.936 14.0318 814.123 10.8287 812.411 8.09742L809.022 10.2226ZM810.936 17.62V18.58H814.936V17.62H810.936ZM810.936 18.58C810.936 21.5066 810.271 23.9249 809.022 25.9174L812.411 28.0426C814.121 25.3151 814.936 22.1334 814.936 18.58H810.936ZM809.022 25.9174C807.766 27.9195 805.957 29.4928 803.515 30.6256L805.198 34.2544C808.275 32.8272 810.706 30.7605 812.411 28.0426L809.022 25.9174ZM803.505 30.6304C801.109 31.7576 798.174 32.36 794.636 32.36V36.36C798.619 36.36 802.163 35.6824 805.208 34.2496L803.505 30.6304ZM794.636 32.36H787.736V36.36H794.636V32.36ZM779.776 46V1.84L775.776 1.84V46H779.776ZM777.776 3.84L788.936 3.84V-0.160004L777.776 -0.160004V3.84ZM786.936 1.84V46H790.936V1.84L786.936 1.84ZM788.936 44H777.776V48H788.936V44ZM818.323 46H816.323V48H818.323V46ZM818.323 2.2V0.199999L816.323 0.199999V2.2H818.323ZM829.123 2.2H831.123V0.199999L829.123 0.199999V2.2ZM829.123 46V48H831.123V46H829.123ZM827.923 46H825.923V48H827.923V46ZM827.923 36.88V34.88H825.923V36.88H827.923ZM846.403 36.88H848.403V34.88H846.403V36.88ZM846.403 46V48H848.403V46H846.403ZM827.923 28.3H825.923V30.3H827.923V28.3ZM827.923 19.18V17.18L825.923 17.18V19.18H827.923ZM845.143 19.18H847.143V17.18H845.143V19.18ZM845.143 28.3V30.3H847.143V28.3H845.143ZM827.923 11.32L825.923 11.32V13.32L827.923 13.32V11.32ZM827.923 2.2V0.199999H825.923V2.2H827.923ZM846.043 2.2L848.043 2.2V0.199999H846.043V2.2ZM846.043 11.32V13.32H848.043V11.32H846.043ZM820.323 46V2.2L816.323 2.2V46H820.323ZM818.323 4.2L829.123 4.2V0.199999L818.323 0.199999V4.2ZM827.123 2.2V46H831.123V2.2H827.123ZM829.123 44H818.323V48H829.123V44ZM829.923 46V36.88H825.923V46H829.923ZM827.923 38.88H846.403V34.88H827.923V38.88ZM844.403 36.88V46H848.403V36.88H844.403ZM846.403 44H827.923V48H846.403V44ZM829.923 28.3V19.18H825.923V28.3H829.923ZM827.923 21.18H845.143V17.18H827.923V21.18ZM843.143 19.18V28.3H847.143V19.18H843.143ZM845.143 26.3H827.923V30.3H845.143V26.3ZM829.923 11.32V2.2H825.923V11.32L829.923 11.32ZM827.923 4.2L846.043 4.2V0.199999L827.923 0.199999V4.2ZM844.043 2.2V11.32H848.043V2.2L844.043 2.2ZM846.043 9.32L827.923 9.32V13.32H846.043V9.32ZM853.831 46H851.831V48H853.831V46ZM853.831 1.84V-0.160004H851.831V1.84H853.831ZM864.991 1.84H866.991V-0.160004H864.991V1.84ZM864.991 46V48H866.991V46H864.991ZM880.231 46L878.563 47.1032L879.156 48H880.231V46ZM867.931 27.4V25.4H864.211L866.263 28.5032L867.931 27.4ZM880.051 27.4L881.689 26.2531L881.092 25.4H880.051V27.4ZM893.071 46V48H896.912L894.709 44.8531L893.071 46ZM862.171 32.56H860.171V34.56H862.171V32.56ZM862.171 23.98V21.98H860.171V23.98H862.171ZM876.091 23.2L875.138 21.4414V21.4414L876.091 23.2ZM878.311 20.98L876.583 19.9723L876.567 19.9996L876.552 20.0274L878.311 20.98ZM878.311 14.2L876.552 15.1526L876.567 15.1804L876.583 15.2077L878.311 14.2ZM862.171 11.2H860.171V13.2H862.171V11.2ZM862.171 1.84V-0.160004H860.171V1.84H862.171ZM881.851 3.58L881.076 5.42377L881.087 5.42857L881.099 5.43322L881.851 3.58ZM888.211 8.62L886.542 9.72251L886.547 9.72945L886.551 9.73635L888.211 8.62ZM888.151 26.02L886.505 24.8831L886.501 24.8895L888.151 26.02ZM881.791 30.94L882.529 32.7988L882.536 32.7961L882.543 32.7932L881.791 30.94ZM855.831 46V1.84H851.831V46H855.831ZM853.831 3.84L864.991 3.84V-0.160004L853.831 -0.160004V3.84ZM862.991 1.84V46H866.991V1.84H862.991ZM864.991 44H853.831V48H864.991V44ZM881.899 44.8968L869.599 26.2968L866.263 28.5032L878.563 47.1032L881.899 44.8968ZM867.931 29.4H880.051V25.4H867.931V29.4ZM878.412 28.5469L891.432 47.1469L894.709 44.8531L881.689 26.2531L878.412 28.5469ZM893.071 44H880.231V48H893.071V44ZM864.171 32.56V23.98H860.171V32.56H864.171ZM862.171 25.98H872.671V21.98H862.171V25.98ZM872.671 25.98C874.254 25.98 875.736 25.6669 877.043 24.9586L875.138 21.4414C874.526 21.773 873.727 21.98 872.671 21.98V25.98ZM877.043 24.9586C878.345 24.2538 879.365 23.2337 880.069 21.9326L876.552 20.0274C876.217 20.6463 875.757 21.1062 875.138 21.4414L877.043 24.9586ZM880.038 21.9877C880.802 20.678 881.151 19.1996 881.151 17.62H877.151C877.151 18.6004 876.939 19.362 876.583 19.9723L880.038 21.9877ZM881.151 17.62C881.151 16.0127 880.808 14.5111 880.038 13.1923L876.583 15.2077C876.934 15.8089 877.151 16.5873 877.151 17.62H881.151ZM880.069 13.2474C879.365 11.9463 878.345 10.9262 877.043 10.2214L875.138 13.7386C875.757 14.0738 876.217 14.5337 876.552 15.1526L880.069 13.2474ZM877.043 10.2214C875.736 9.51305 874.254 9.2 872.671 9.2V13.2C873.727 13.2 874.526 13.4069 875.138 13.7386L877.043 10.2214ZM872.671 9.2L862.171 9.2V13.2H872.671V9.2ZM864.171 11.2V1.84L860.171 1.84V11.2H864.171ZM862.171 3.84L872.011 3.84V-0.160004H862.171V3.84ZM872.011 3.84C875.614 3.84 878.618 4.3906 881.076 5.42377L882.626 1.73623C879.564 0.449399 876.008 -0.160004 872.011 -0.160004V3.84ZM881.099 5.43322C883.527 6.41864 885.309 7.85609 886.542 9.72251L889.88 7.51748C888.153 4.90391 885.695 2.98136 882.603 1.72677L881.099 5.43322ZM886.551 9.73635C887.762 11.5356 888.431 13.8629 888.431 16.84H892.431C892.431 13.2571 891.62 10.1044 889.87 7.50364L886.551 9.73635ZM888.431 16.84V17.8H892.431V16.84H888.431ZM888.431 17.8C888.431 20.767 887.747 23.0865 886.505 24.8831L889.796 27.1569C891.595 24.5535 892.431 21.393 892.431 17.8H888.431ZM886.501 24.8895C885.272 26.6827 883.487 28.0934 881.039 29.0868L882.543 32.7932C885.615 31.5466 888.069 29.6773 889.801 27.1505L886.501 24.8895ZM881.053 29.0812C878.626 30.0446 875.63 30.56 872.011 30.56V34.56C875.992 34.56 879.515 33.9954 882.529 32.7988L881.053 29.0812ZM872.011 30.56H862.171V34.56H872.011V30.56ZM898.365 46H896.365V48H898.365V46ZM898.365 2.2V0.199999H896.365V2.2H898.365ZM909.525 2.2H911.525V0.199999L909.525 0.199999V2.2ZM909.525 46V48H911.525V46H909.525ZM900.365 46V2.2L896.365 2.2V46H900.365ZM898.365 4.2H909.525V0.199999L898.365 0.199999V4.2ZM907.525 2.2V46H911.525V2.2H907.525ZM909.525 44H898.365V48H909.525V44ZM918.518 46H916.518V48H918.518V46ZM918.518 2.2V0.199999H916.518V2.2H918.518ZM929.318 2.2H931.318V0.199999L929.318 0.199999V2.2ZM929.318 46V48H931.318V46H929.318ZM928.118 46H926.118V48H928.118V46ZM928.118 36.88V34.88H926.118V36.88H928.118ZM946.598 36.88H948.598V34.88H946.598V36.88ZM946.598 46V48H948.598V46H946.598ZM928.118 28.3H926.118V30.3H928.118V28.3ZM928.118 19.18V17.18H926.118V19.18H928.118ZM945.338 19.18H947.338V17.18H945.338V19.18ZM945.338 28.3V30.3H947.338V28.3H945.338ZM928.118 11.32H926.118V13.32H928.118V11.32ZM928.118 2.2V0.199999H926.118V2.2H928.118ZM946.238 2.2H948.238V0.199999H946.238V2.2ZM946.238 11.32V13.32H948.238V11.32H946.238ZM920.518 46V2.2H916.518V46H920.518ZM918.518 4.2L929.318 4.2V0.199999L918.518 0.199999V4.2ZM927.318 2.2V46H931.318V2.2H927.318ZM929.318 44H918.518V48H929.318V44ZM930.118 46V36.88H926.118V46H930.118ZM928.118 38.88H946.598V34.88H928.118V38.88ZM944.598 36.88V46H948.598V36.88H944.598ZM946.598 44H928.118V48H946.598V44ZM930.118 28.3V19.18H926.118V28.3H930.118ZM928.118 21.18H945.338V17.18H928.118V21.18ZM943.338 19.18V28.3H947.338V19.18H943.338ZM945.338 26.3H928.118V30.3H945.338V26.3ZM930.118 11.32V2.2H926.118V11.32H930.118ZM928.118 4.2L946.238 4.2V0.199999L928.118 0.199999V4.2ZM944.238 2.2V11.32H948.238V2.2H944.238ZM946.238 9.32L928.118 9.32V13.32L946.238 13.32V9.32ZM954.026 46H952.026V48H954.026V46ZM954.026 2.2V0.199999H952.026V2.2L954.026 2.2ZM972.326 2.2L974.172 1.42942L973.658 0.199999H972.326V2.2ZM986.906 37.12L985.061 37.8906L985.574 39.12H986.906V37.12ZM989.006 37.12L990.344 38.6066L994.218 35.12H989.006V37.12ZM987.806 38.2H985.806V42.6907L989.144 39.6866L987.806 38.2ZM987.806 2.2V0.199999H985.806V2.2H987.806ZM998.246 2.2H1000.25V0.199999H998.246V2.2ZM998.246 46V48H1000.25V46H998.246ZM979.826 46L977.981 46.7706L978.494 48H979.826V46ZM965.246 11.08L967.092 10.3094L966.578 9.08H965.246V11.08ZM963.146 11.08L961.808 9.59341L957.934 13.08H963.146V11.08ZM964.346 10H966.346V5.50927L963.008 8.51341L964.346 10ZM964.346 46V48H966.346V46H964.346ZM956.026 46V2.2L952.026 2.2V46H956.026ZM954.026 4.2H972.326V0.199999L954.026 0.199999V4.2ZM970.481 2.97058L985.061 37.8906L988.752 36.3494L974.172 1.42942L970.481 2.97058ZM986.906 39.12H989.006V35.12H986.906V39.12ZM987.668 35.6334L986.468 36.7134L989.144 39.6866L990.344 38.6066L987.668 35.6334ZM989.806 38.2V2.2H985.806V38.2H989.806ZM987.806 4.2L998.246 4.2V0.199999L987.806 0.199999V4.2ZM996.246 2.2V46H1000.25V2.2H996.246ZM998.246 44H979.826V48H998.246V44ZM981.672 45.2294L967.092 10.3094L963.401 11.8506L977.981 46.7706L981.672 45.2294ZM965.246 9.08H963.146V13.08H965.246V9.08ZM964.484 12.5666L965.684 11.4866L963.008 8.51341L961.808 9.59341L964.484 12.5666ZM962.346 10V46H966.346V10H962.346ZM964.346 44H954.026V48H964.346V44ZM1017.37 45.16L1016.49 46.9539L1016.5 46.9589L1016.51 46.9638L1017.37 45.16ZM1010.35 39.7L1008.8 40.956L1008.8 40.9628L1008.81 40.9695L1010.35 39.7ZM1006.27 32.32L1008.17 31.6875L1006.27 32.32ZM1006.27 15.22L1004.38 14.5706L1004.38 14.5791L1004.37 14.5875L1006.27 15.22ZM1010.41 7.96L1008.9 6.64695L1008.9 6.65497L1008.89 6.66307L1010.41 7.96ZM1017.43 2.8L1016.6 0.981049V0.981049L1017.43 2.8ZM1037.89 3.16L1037.01 4.95349L1037.02 4.96035L1037.03 4.967L1037.89 3.16ZM1045.39 9.46L1043.75 10.5972L1043.75 10.6086L1045.39 9.46ZM1048.69 18.82V20.82H1050.88L1050.68 18.6409L1048.69 18.82ZM1037.53 18.82L1035.57 19.1823L1035.87 20.82H1037.53V18.82ZM1035.73 14.86L1037.28 13.5905V13.5905L1035.73 14.86ZM1032.19 12.28L1031.38 14.1076L1031.4 14.1171L1031.42 14.1262L1032.19 12.28ZM1022.59 12.22L1021.8 10.3817L1021.79 10.3859L1021.78 10.3902L1022.59 12.22ZM1019.11 14.8L1017.59 13.4984L1017.59 13.5031L1019.11 14.8ZM1016.95 18.76L1015.05 18.1275L1015.05 18.1496L1015.04 18.1718L1016.95 18.76ZM1016.95 29.32L1015.04 29.9082L1015.05 29.9304L1015.05 29.9525L1016.95 29.32ZM1019.17 33.34L1017.65 34.6416L1017.67 34.6569L1017.68 34.672L1019.17 33.34ZM1022.77 35.92L1021.98 37.7583L1022.01 37.7679L1022.03 37.777L1022.77 35.92ZM1034.65 34.72L1033.51 33.0768L1033.5 33.0823L1033.5 33.0879L1034.65 34.72ZM1038.19 29.26V27.26H1036.51L1036.22 28.9144L1038.19 29.26ZM1049.35 29.26L1051.34 29.4782L1051.58 27.26H1049.35V29.26ZM1038.61 44.8L1039.52 46.5796L1039.53 46.575L1039.54 46.5703L1038.61 44.8ZM1027.57 45.2C1023.84 45.2 1020.75 44.5582 1018.24 43.3562L1016.51 46.9638C1019.68 48.4818 1023.39 49.2 1027.57 49.2V45.2ZM1018.26 43.3661C1015.65 42.0802 1013.54 40.4311 1011.9 38.4305L1008.81 40.9695C1010.84 43.4489 1013.42 45.4398 1016.49 46.9539L1018.26 43.3661ZM1011.91 38.444C1010.21 36.3399 1008.97 34.0892 1008.17 31.6875L1004.37 32.9525C1005.33 35.8308 1006.81 38.5001 1008.8 40.956L1011.91 38.444ZM1008.17 31.6875C1007.35 29.2269 1006.95 26.8805 1006.95 24.64H1002.95C1002.95 27.3595 1003.43 30.1331 1004.37 32.9525L1008.17 31.6875ZM1006.95 24.64V23.32H1002.95V24.64H1006.95ZM1006.95 23.32C1006.95 20.7768 1007.36 18.2902 1008.17 15.8525L1004.37 14.5875C1003.43 17.4298 1002.95 20.3432 1002.95 23.32H1006.95ZM1008.16 15.8694C1009 13.4268 1010.26 11.2264 1011.93 9.25693L1008.89 6.66307C1006.89 9.01361 1005.38 11.6532 1004.38 14.5706L1008.16 15.8694ZM1011.92 9.27305C1013.6 7.34381 1015.7 5.78951 1018.26 4.61895L1016.6 0.981049C1013.56 2.37048 1010.98 4.25619 1008.9 6.64695L1011.92 9.27305ZM1018.26 4.61895C1020.75 3.48163 1023.74 2.88 1027.27 2.88V-1.12C1023.29 -1.12 1019.71 -0.441635 1016.6 0.981049L1018.26 4.61895ZM1027.27 2.88C1031.02 2.88 1034.24 3.59002 1037.01 4.95349L1038.78 1.36651C1035.38 -0.310021 1031.53 -1.12 1027.27 -1.12V2.88ZM1037.03 4.967C1039.85 6.30363 1042.08 8.17873 1043.75 10.5972L1047.04 8.32284C1044.95 5.30126 1042.17 2.97636 1038.75 1.35299L1037.03 4.967ZM1043.75 10.6086C1045.42 12.9761 1046.41 15.7547 1046.7 18.9991L1050.68 18.6409C1050.34 14.7653 1049.13 11.3039 1047.03 8.31143L1043.75 10.6086ZM1048.69 16.82L1037.53 16.82V20.82H1048.69V16.82ZM1039.5 18.4577C1039.16 16.6273 1038.43 14.9897 1037.28 13.5905L1034.19 16.1295C1034.88 16.9703 1035.34 17.9727 1035.57 19.1823L1039.5 18.4577ZM1037.28 13.5905C1036.13 12.1986 1034.68 11.1498 1032.96 10.4338L1031.42 14.1262C1032.58 14.6102 1033.49 15.2814 1034.19 16.1295L1037.28 13.5905ZM1033 10.4524C1031.27 9.68126 1029.35 9.32 1027.27 9.32V13.32C1028.88 13.32 1030.23 13.5987 1031.38 14.1076L1033 10.4524ZM1027.27 9.32C1025.32 9.32 1023.48 9.66206 1021.8 10.3817L1023.38 14.0583C1024.5 13.5779 1025.79 13.32 1027.27 13.32V9.32ZM1021.78 10.3902C1020.15 11.1099 1018.75 12.1496 1017.59 13.4984L1020.63 16.1016C1021.39 15.2104 1022.31 14.5301 1023.4 14.0498L1021.78 10.3902ZM1017.59 13.5031C1016.48 14.807 1015.64 16.3623 1015.05 18.1275L1018.85 19.3925C1019.3 18.0377 1019.91 16.953 1020.63 16.0969L1017.59 13.5031ZM1015.04 18.1718C1014.49 19.9561 1014.23 21.9193 1014.23 24.04H1018.23C1018.23 22.2407 1018.45 20.6839 1018.86 19.3482L1015.04 18.1718ZM1014.23 24.04C1014.23 26.1607 1014.49 28.1239 1015.04 29.9082L1018.86 28.7318C1018.45 27.3961 1018.23 25.8393 1018.23 24.04H1014.23ZM1015.05 29.9525C1015.65 31.7298 1016.51 33.3038 1017.65 34.6416L1020.69 32.0384C1019.92 31.1362 1019.3 30.0302 1018.85 28.6875L1015.05 29.9525ZM1017.68 34.672C1018.88 36.0135 1020.32 37.0448 1021.98 37.7583L1023.56 34.0817C1022.42 33.5952 1021.47 32.9065 1020.66 32.008L1017.68 34.672ZM1022.03 37.777C1023.71 38.4478 1025.57 38.76 1027.57 38.76V34.76C1025.98 34.76 1024.64 34.5122 1023.51 34.063L1022.03 37.777ZM1027.57 38.76C1030.71 38.76 1033.49 37.9942 1035.81 36.3521L1033.5 33.0879C1031.97 34.1658 1030.04 34.76 1027.57 34.76V38.76ZM1035.79 36.3632C1038.18 34.7092 1039.67 32.4293 1040.16 29.6056L1036.22 28.9144C1035.92 30.6507 1035.05 32.0108 1033.51 33.0768L1035.79 36.3632ZM1038.19 31.26H1049.35V27.26H1038.19V31.26ZM1047.36 29.0418C1047.04 32.0001 1046.05 34.6901 1044.4 37.1394L1047.71 39.3806C1049.73 36.3899 1050.94 33.0799 1051.34 29.4782L1047.36 29.0418ZM1044.4 37.1394C1042.75 39.5664 1040.53 41.5315 1037.68 43.0297L1039.54 46.5703C1042.93 44.7885 1045.67 42.3936 1047.71 39.3806L1044.4 37.1394ZM1037.7 43.0204C1034.92 44.4483 1031.56 45.2 1027.57 45.2V49.2C1032.06 49.2 1036.07 48.3517 1039.52 46.5796L1037.7 43.0204ZM1055.22 46H1053.22V48H1055.22V46ZM1055.22 2.2V0.199999H1053.22V2.2H1055.22ZM1066.02 2.2H1068.02V0.199999H1066.02V2.2ZM1066.02 46V48H1068.02V46H1066.02ZM1064.82 46H1062.82V48H1064.82V46ZM1064.82 36.88V34.88H1062.82V36.88H1064.82ZM1083.3 36.88H1085.3V34.88H1083.3V36.88ZM1083.3 46V48H1085.3V46H1083.3ZM1064.82 28.3H1062.82V30.3H1064.82V28.3ZM1064.82 19.18V17.18H1062.82V19.18H1064.82ZM1082.04 19.18H1084.04V17.18H1082.04V19.18ZM1082.04 28.3V30.3H1084.04V28.3H1082.04ZM1064.82 11.32H1062.82V13.32H1064.82V11.32ZM1064.82 2.2V0.199999H1062.82V2.2H1064.82ZM1082.94 2.2L1084.94 2.2V0.199999H1082.94V2.2ZM1082.94 11.32V13.32H1084.94V11.32H1082.94ZM1057.22 46V2.2H1053.22V46H1057.22ZM1055.22 4.2H1066.02V0.199999L1055.22 0.199999V4.2ZM1064.02 2.2V46H1068.02V2.2H1064.02ZM1066.02 44H1055.22V48H1066.02V44ZM1066.82 46V36.88H1062.82V46H1066.82ZM1064.82 38.88H1083.3V34.88H1064.82V38.88ZM1081.3 36.88V46H1085.3V36.88H1081.3ZM1083.3 44H1064.82V48H1083.3V44ZM1066.82 28.3V19.18L1062.82 19.18V28.3L1066.82 28.3ZM1064.82 21.18L1082.04 21.18V17.18H1064.82V21.18ZM1080.04 19.18V28.3H1084.04V19.18H1080.04ZM1082.04 26.3L1064.82 26.3V30.3L1082.04 30.3V26.3ZM1066.82 11.32V2.2H1062.82V11.32H1066.82ZM1064.82 4.2H1082.94V0.199999L1064.82 0.199999V4.2ZM1080.94 2.2V11.32H1084.94V2.2L1080.94 2.2ZM1082.94 9.32L1064.82 9.32V13.32H1082.94V9.32Z" fill="#050C17"/>
<defs>
<linearGradient id="paint0_linear_115_74" x1="515" y1="152" x2="413" y2="254" gradientUnits="userSpaceOnUse">
<stop stop-color="#050C17"/>
<stop offset="1" stop-color="#050C17" stop-opacity="0"/>
</linearGradient>
<linearGradient id="paint1_linear_115_74" x1="515" y1="152" x2="413" y2="254" gradientUnits="userSpaceOnUse">
<stop stop-color="#050C17"/>
<stop offset="1" stop-color="#050C17" stop-opacity="0"/>
</linearGradient>
<linearGradient id="paint2_linear_115_74" x1="515" y1="152" x2="413" y2="254" gradientUnits="userSpaceOnUse">
<stop stop-color="#050C17"/>
<stop offset="1" stop-color="#050C17" stop-opacity="0"/>
</linearGradient>
<linearGradient id="paint3_linear_115_74" x1="515" y1="152" x2="413" y2="254" gradientUnits="userSpaceOnUse">
<stop stop-color="#050C17"/>
<stop offset="1" stop-color="#050C17" stop-opacity="0"/>
</linearGradient>
<linearGradient id="paint4_linear_115_74" x1="664" y1="2" x2="562" y2="104" gradientUnits="userSpaceOnUse">
<stop stop-color="#050C17" stop-opacity="0"/>
<stop offset="1" stop-color="#050C17"/>
</linearGradient>
<linearGradient id="paint5_linear_115_74" x1="664" y1="2" x2="562" y2="104" gradientUnits="userSpaceOnUse">
<stop stop-color="#050C17" stop-opacity="0"/>
<stop offset="1" stop-color="#050C17"/>
</linearGradient>
<linearGradient id="paint6_linear_115_74" x1="664" y1="2" x2="562" y2="104" gradientUnits="userSpaceOnUse">
<stop stop-color="#050C17" stop-opacity="0"/>
<stop offset="1" stop-color="#050C17"/>
</linearGradient>
<linearGradient id="paint7_linear_115_74" x1="664" y1="2" x2="562" y2="104" gradientUnits="userSpaceOnUse">
<stop stop-color="#050C17" stop-opacity="0"/>
<stop offset="1" stop-color="#050C17"/>
</linearGradient>
</defs>
</svg>
