<svg width="24" height="24" viewBox="0 0 24 24" fill="none" xmlns="http://www.w3.org/2000/svg">
<path d="M5.00012 5.33369C5.00012 3.49275 6.4925 2.00037 8.33345 2.00037H11.6668V8.66702H8.33345C6.4925 8.66702 5.00012 7.17464 5.00012 5.33369Z" fill="url(#paint0_linear_70_241)"/>
<path d="M5 12C5 10.159 6.49238 8.66663 8.33333 8.66663H11.6667V15.3333H8.33332C6.49238 15.3333 5 13.8409 5 12Z" fill="url(#paint1_linear_70_241)"/>
<path d="M18.3336 5.33333C18.3336 3.49238 16.8412 2 15.0003 2H11.667V8.66665H15.0003C16.8412 8.66665 18.3336 7.17427 18.3336 5.33333Z" fill="url(#paint2_linear_70_241)"/>
<ellipse cx="14.9997" cy="12" rx="3.33333" ry="3.33333" fill="url(#paint3_linear_70_241)"/>
<path d="M11.6667 18.6667C11.6667 20.5076 10.1743 22 8.33333 22C6.49238 22 5 20.5076 5 18.6667C5 16.8258 6.49238 15.3334 8.33333 15.3334C10.1743 15.3334 11.6667 16.8258 11.6667 18.6667Z" fill="url(#paint4_linear_70_241)"/>
<path d="M8.33333 15.3334C10.1743 15.3334 11.6667 16.8258 11.6667 18.6667V15.3334H8.33333Z" fill="url(#paint5_linear_70_241)"/>
<defs>
<linearGradient id="paint0_linear_70_241" x1="11.1655" y1="2.35124" x2="5.42619" y2="7.68958" gradientUnits="userSpaceOnUse">
<stop stop-color="#FF7262"/>
<stop offset="1" stop-color="#F31808"/>
</linearGradient>
<linearGradient id="paint1_linear_70_241" x1="11.1654" y1="9.0175" x2="5.42606" y2="14.3558" gradientUnits="userSpaceOnUse">
<stop stop-color="#A33FFF"/>
<stop offset="1" stop-color="#6A28FF"/>
</linearGradient>
<linearGradient id="paint2_linear_70_241" x1="17.6319" y1="3.22807" x2="11.667" y2="8.66665" gradientUnits="userSpaceOnUse">
<stop stop-color="#FFA59B"/>
<stop offset="1" stop-color="#FE5B49"/>
</linearGradient>
<linearGradient id="paint3_linear_70_241" x1="17.4558" y1="9.81951" x2="12.318" y2="14.2806" gradientUnits="userSpaceOnUse">
<stop stop-color="#57CEFF"/>
<stop offset="1" stop-color="#09B2FE"/>
</linearGradient>
<linearGradient id="paint4_linear_70_241" x1="11.6667" y1="15.3334" x2="5.87719" y2="21.0226" gradientUnits="userSpaceOnUse">
<stop stop-color="#11DA98"/>
<stop offset="1" stop-color="#01C939"/>
</linearGradient>
<linearGradient id="paint5_linear_70_241" x1="11.6667" y1="15.3334" x2="5.87719" y2="21.0226" gradientUnits="userSpaceOnUse">
<stop stop-color="#11DA98"/>
<stop offset="1" stop-color="#01C939"/>
</linearGradient>
</defs>
</svg>
