<svg width="30" height="30" viewBox="0 0 30 30" fill="none" xmlns="http://www.w3.org/2000/svg">
<g clip-path="url(#clip0_275_18345)">
<path fill-rule="evenodd" clip-rule="evenodd" d="M14.4681 4.80713C8.50032 3.72992 4.06573 10.3651 7.28342 15.4553C11.4154 21.8915 21.3931 18.1552 20.1625 10.5016L18.7792 9.11826L14.7797 10.1899L15.8514 6.19047L14.4681 4.80713Z" fill="#E2C4FF"/>
<path d="M12.2368 11.6206C10.575 12.9314 7.05784 15.2921 5.57301 15.38C5.46408 14.6615 4.42634 14.7218 4.40625 15.4536C4.40625 15.8946 4.61422 16.2491 4.9768 16.4263C5.79779 16.7684 6.79892 16.3825 8.51082 15.4946C9.87647 14.756 11.4968 13.6809 12.9562 12.5449C13.2115 12.3462 13.2573 11.9783 13.0587 11.723C12.8599 11.4678 12.4919 11.4219 12.2368 11.6206Z" fill="#020288"/>
<path d="M28.2932 17.1931C27.1695 14.6859 25.113 10.5639 24.3381 7.96732C24.1182 7.31811 23.8391 6.68513 23.5072 6.08254L24.9357 0.751293C24.9899 0.549181 24.9321 0.333539 24.7841 0.185542C24.6361 0.0375444 24.4204 -0.0203193 24.2184 0.0339718L18.8879 1.46223C11.2597 -2.8598 1.41988 2.94484 1.52922 11.7274C1.52911 14.0159 2.20127 15.6788 2.97962 17.6044C4.07165 20.3061 5.30939 23.3683 5.30875 29.4142C5.30875 29.5695 5.37042 29.7185 5.48029 29.8284C5.5901 29.9382 5.73909 29.9999 5.89441 29.9999H18.5427C18.8662 29.9999 19.1284 29.7377 19.1284 29.4143C19.1284 26.514 19.5897 25.5489 22.3202 25.5489C26.6923 25.6659 25.7107 22.7341 25.8342 19.6337H26.7802C28.0067 19.6537 28.8582 18.2863 28.2932 17.1931ZM21.1829 2.05996L15.9316 5.44217L14.3738 3.88442L21.1829 2.05996ZM16.3586 6.56032L22.1199 2.84967L18.4093 8.61097L15.6081 9.36155L16.3586 6.56032ZM22.9097 3.78667L21.0852 10.5958L19.5274 9.03809L22.9097 3.78667ZM27.219 18.2131C27.1728 18.2881 27.0378 18.4624 26.781 18.4624H25.2484C24.925 18.4624 24.6628 18.7246 24.6628 19.048V22.3277C24.6628 23.5005 24.4367 23.8444 24.2397 24.0131C23.9413 24.2685 23.3672 24.3776 22.3201 24.3776C19.087 24.3385 17.982 25.9326 17.9642 28.8286H6.47615C6.39633 22.9323 5.10751 19.7433 4.06556 17.1654C3.30285 15.2785 2.70043 13.7881 2.70043 11.7273C2.5939 4.40221 10.3835 -0.871113 17.1404 1.93047L13.0908 3.01559C12.6633 3.1196 12.5098 3.69156 12.8283 3.99546L15.1983 6.36547L14.2141 10.0383C14.1599 10.2404 14.2177 10.456 14.3657 10.604C14.5137 10.752 14.7293 10.8098 14.9314 10.7556L18.6043 9.77152L20.9743 12.1415C21.0855 12.2528 21.2351 12.3131 21.3884 12.3131C21.6487 12.3155 21.8892 12.1315 21.9541 11.879L23.0393 7.82905C23.6397 9.48905 24.0003 10.6914 24.7578 12.302L27.2329 17.6908C27.3582 17.9093 27.27 18.1428 27.219 18.2131Z" fill="#020288"/>
</g>
<defs>
<clipPath id="clip0_275_18345">
<rect width="30" height="30" fill="white"/>
</clipPath>
</defs>
</svg>
