<svg width="70" height="70" viewBox="0 0 70 70" fill="none" xmlns="http://www.w3.org/2000/svg">
<g clip-path="url(#clip0_78_539)">
<path d="M30.4843 22.5806H32.7424C32.7424 20.0866 34.7645 18.0645 37.2585 18.0645H38.3876L38.8369 16.7176C39.2434 15.4994 40.3837 14.6774 41.6685 14.6774C42.46 14.6774 43.2187 14.9913 43.7787 15.5513C46.1101 17.8839 49.2726 19.1935 52.5705 19.1935H56.4521C58.3229 19.1935 59.8392 20.7098 59.8392 22.5806H62.0972C63.3674 22.5806 64.5122 23.109 65.3319 23.9535L65.4843 23.8745V19.1935C65.4843 8.61 56.8743 0 46.2908 0C35.7072 0 27.0972 8.61 27.0972 19.1935V23.1181L26.9448 24.3239C27.7713 23.2694 29.0414 22.5806 30.4843 22.5806V22.5806Z" fill="#F0BC5E"/>
<path d="M35.7037 39.3185L35.7104 39.3151C33.8453 37.2772 32.7422 34.5788 32.7422 31.693V31.6128H30.4842C28.6427 31.6128 27.0654 30.5075 26.3621 28.9269L26.2638 29.6991C24.6561 30.9806 23.71 32.9248 23.71 34.9999C23.71 38.7359 26.7482 41.7741 30.4842 41.7741C32.5243 41.7741 34.4121 40.8822 35.7037 39.3185Z" fill="#F0BC5E"/>
<path d="M58.8014 47.1337C62.7677 45.0574 65.4841 40.9071 65.4841 36.129V31.5835C66.8468 30.5516 67.7422 28.9326 67.7422 27.0968C67.7422 23.984 65.2098 21.4516 62.097 21.4516H60.968V19.1935C60.968 11.1006 54.3835 4.51611 46.2906 4.51611C38.1977 4.51611 31.6131 11.1006 31.6131 19.1935V21.4516H30.4841C27.3714 21.4516 24.8389 23.984 24.8389 27.0968C24.8389 30.2095 27.3714 32.7419 30.4841 32.7419H31.6617C32.0681 37.4658 35.1843 41.6376 39.6722 43.3209L40.6454 43.6845V45.3769L36.4409 46.279C34.1636 46.7668 32.0648 47.7851 30.2752 49.2382C27.9573 44.1768 22.8564 40.6451 16.9357 40.6451C8.84282 40.6451 2.2583 47.2297 2.2583 55.3226C2.2583 63.4155 8.84282 70 16.9357 70H67.7422V60.6301C67.7422 54.7016 64.1101 49.4053 58.8014 47.1337V47.1337ZM63.226 36.129C63.226 41.3508 59.2677 45.6637 54.1938 46.2271V45.1613C54.1938 44.3766 53.9149 43.6619 53.4644 43.0872C57.6509 41.2774 60.5288 37.2671 60.9194 32.7419H62.097C62.4831 32.7419 62.8614 32.7024 63.226 32.6279V36.129ZM51.9357 45.1613V46.2903H48.5486C47.9254 46.2903 47.4196 45.7845 47.4196 45.1613C47.4196 44.538 47.9254 44.0322 48.5486 44.0322H50.8067C51.4299 44.0322 51.9357 44.538 51.9357 45.1613ZM65.4841 27.0968C65.4841 28.9642 63.9644 30.4839 62.097 30.4839H60.968V23.7097H62.097C63.9644 23.7097 65.4841 25.2293 65.4841 27.0968ZM46.2906 6.77418C52.9643 6.77418 58.4107 12.0705 58.6839 18.6787C58.0223 18.2982 57.267 18.0645 56.4518 18.0645H52.5702C49.5501 18.0645 46.7128 16.888 44.5767 14.753C43.7988 13.9763 42.7657 13.5484 41.6672 13.5484C39.8946 13.5484 38.3264 14.6785 37.7652 16.3608L37.5733 16.9355H37.2583C36.0096 16.9355 34.8648 17.3566 33.9299 18.0453C34.5114 11.734 39.8302 6.77418 46.2906 6.77418V6.77418ZM27.097 27.0968C27.097 25.2293 28.6167 23.7097 30.4841 23.7097H31.6131V30.4839H30.4841C28.6167 30.4839 27.097 28.9642 27.097 27.0968ZM42.9035 47.2037V43.6822C42.9012 42.7474 42.313 41.8995 41.438 41.5709L40.4659 41.2063C36.5222 39.7272 33.8723 35.9043 33.8712 31.6919V22.5806C33.8712 20.7132 35.3909 19.1935 37.2583 19.1935H39.2014L39.907 17.0755C40.1599 16.3168 40.8678 15.8064 41.6672 15.8064C42.1617 15.8064 42.6291 15.9995 42.9791 16.3495C45.5409 18.9113 48.9472 20.3226 52.5702 20.3226H56.4518C57.6972 20.3226 58.7099 21.3353 58.7099 22.5806V31.6919C58.7088 35.9032 56.0589 39.7272 52.1152 41.2063L51.142 41.5721C51.0043 41.624 50.8756 41.6963 50.7502 41.7742H48.5486C46.6812 41.7742 45.1615 43.2939 45.1615 45.1613C45.1615 47.0287 46.6812 48.5484 48.5486 48.5484H53.0648C53.1517 48.5484 53.2364 48.5371 53.3222 48.5348C51.6275 50.6382 49.0488 51.9355 46.2906 51.9355C43.328 51.9355 40.563 50.4485 38.8909 48.0629L42.9035 47.2037ZM4.51637 55.3226C4.51637 48.475 10.0881 42.9032 16.9357 42.9032C23.7833 42.9032 29.3551 48.475 29.3551 55.3226C29.3551 62.1701 23.7833 67.7419 16.9357 67.7419C10.0881 67.7419 4.51637 62.1701 4.51637 55.3226ZM65.4841 67.7419H58.1194L58.9436 65.6826C59.5375 64.1956 59.8389 62.6308 59.8389 61.0309C59.8389 58.5505 59.1107 56.1479 57.7356 54.084L57.3912 53.568L55.5125 54.8201L55.8568 55.3361C56.9848 57.0285 57.5809 58.9976 57.5809 61.0309C57.5809 62.3429 57.3336 63.6255 56.847 64.8448L55.6875 67.7419H36.8936L35.7341 64.8448C35.2464 63.6255 35.0002 62.3429 35.0002 61.0309C35.0002 58.9976 35.5964 57.0285 36.7243 55.3361L37.0686 54.8201L35.1899 53.568L34.8456 54.084C33.4704 56.1468 32.7422 58.5493 32.7422 61.0309C32.7422 62.6308 33.0436 64.1968 33.6375 65.6826L34.4617 67.7419H24.7215C28.8527 65.1418 31.6131 60.5534 31.6131 55.3226C31.6131 54.0118 31.4246 52.7472 31.1006 51.538C32.6473 50.1053 34.5136 49.0914 36.5673 48.589C38.577 52.0111 42.2836 54.1935 46.2906 54.1935C50.302 54.1935 54.0109 52.0066 56.0194 48.5789C61.5235 49.9314 65.4841 54.9353 65.4841 60.6301V67.7419Z" fill="black"/>
<path d="M52.5004 35.4516L50.432 34.5483C49.7117 36.1945 48.087 37.258 46.2907 37.258C44.4944 37.258 42.8698 36.1945 42.1494 34.5483L40.0811 35.4516C41.1593 37.9208 43.5969 39.5161 46.2907 39.5161C48.9846 39.5161 51.4222 37.9208 52.5004 35.4516Z" fill="black"/>
<path d="M45.6661 33.7524L46.9137 33.1281C47.4533 32.8582 47.8553 32.3953 48.0461 31.8229C48.2369 31.2505 48.194 30.6374 47.9241 30.0989L47.4195 29.0884V27.0968H45.1614V29.3549C45.1614 29.5299 45.2021 29.7037 45.28 29.8595L45.9043 31.1071L44.6567 31.7315L45.6661 33.7524Z" fill="black"/>
<path d="M40.6455 25.9678V28.2258H42.9036V25.9678C42.9036 24.1004 41.3839 22.5807 39.5165 22.5807C37.6491 22.5807 36.1294 24.1004 36.1294 25.9678V28.2258H38.3875V25.9678C38.3875 25.3446 38.8933 24.8388 39.5165 24.8388C40.1397 24.8388 40.6455 25.3446 40.6455 25.9678Z" fill="black"/>
<path d="M51.9358 25.9678C51.9358 25.3446 52.4416 24.8388 53.0648 24.8388C53.6881 24.8388 54.1939 25.3446 54.1939 25.9678V28.2258H56.4519V25.9678C56.4519 24.1004 54.9323 22.5807 53.0648 22.5807C51.1974 22.5807 49.6777 24.1004 49.6777 25.9678V28.2258H51.9358V25.9678Z" fill="black"/>
<path d="M24.3526 47.6203C24.0488 47.4092 23.6616 47.3606 23.3127 47.4916L14.4724 50.8064H9.03271V59.8387H14.4724L23.3138 63.1546C23.4426 63.2021 23.5769 63.2258 23.7101 63.2258C23.9371 63.2258 24.1617 63.1569 24.3526 63.0248C24.6574 62.8137 24.8392 62.4671 24.8392 62.0967V48.5483C24.8392 48.178 24.6574 47.8314 24.3526 47.6203ZM13.5488 57.5806H11.2908V53.0645H13.5488V57.5806ZM22.5811 60.4675L15.8069 57.9272V52.719L22.5811 50.1787V60.4675Z" fill="black"/>
</g>
<defs>
<clipPath id="clip0_78_539">
<rect width="70" height="70" fill="white"/>
</clipPath>
</defs>
</svg>
