<svg width="60" height="43" viewBox="0 0 60 43" fill="none" xmlns="http://www.w3.org/2000/svg">
<path d="M14.837 42.0652C11.0326 42.0652 7.6087 40.5435 4.56522 37.5C1.52174 34.3478 0 29.7283 0 23.6413C0 16.6848 1.84783 11.0326 5.54348 6.68478C9.34783 2.22825 14.7283 0 21.6848 0C24.1848 0 26.1413 0.163038 27.5543 0.489121V7.98912C26.0326 7.77173 24.0761 7.66304 21.6848 7.66304C17.9891 7.66304 15 8.91304 12.7174 11.413C10.5435 13.5869 9.29348 16.4674 8.96739 20.0543C10.3804 18.3152 12.663 17.4456 15.8152 17.4456C19.0761 17.4456 21.8478 18.587 24.1304 20.8696C26.413 23.0435 27.5543 25.9239 27.5543 29.5109C27.5543 33.2065 26.3587 36.25 23.9674 38.6413C21.5761 40.9239 18.5326 42.0652 14.837 42.0652ZM47.2826 42.0652C43.4783 42.0652 40.0543 40.5435 37.0109 37.5C33.9674 34.3478 32.4456 29.7283 32.4456 23.6413C32.4456 16.6848 34.2935 11.0326 37.9891 6.68478C41.7935 2.22825 47.1739 0 54.1304 0C56.6304 0 58.587 0.163038 60 0.489121V7.98912C58.4783 7.77173 56.5217 7.66304 54.1304 7.66304C50.4348 7.66304 47.4456 8.91304 45.163 11.413C42.9891 13.5869 41.7391 16.4674 41.413 20.0543C42.8261 18.3152 45.1087 17.4456 48.2609 17.4456C51.5217 17.4456 54.2935 18.587 56.5761 20.8696C58.8587 23.0435 60 25.9239 60 29.5109C60 33.2065 58.8043 36.25 56.413 38.6413C54.0217 40.9239 50.9783 42.0652 47.2826 42.0652Z" fill="#F8D448"/>
</svg>
