<svg width="684" height="478" viewBox="0 0 684 478" fill="none" xmlns="http://www.w3.org/2000/svg">
<path d="M40.779 477.977C40.779 477.977 -32.9032 426.964 20.2001 318.389C55.319 246.602 93.9791 254.745 87.6442 113.67C82.224 -7.04984 279.127 -17.481 341.359 17.5395C403.591 52.5599 397.772 79.4435 526.299 65.9299C615.741 56.5243 660.976 186.307 627.552 245.594C580.129 329.714 726.204 389.971 670.105 477.977H40.779Z" fill="#EBF3FA"/>
<path d="M454.864 123.811C454.864 123.811 462.008 111.293 479.09 112.676C479.09 112.676 503.89 91.8141 530.337 109.896C530.337 109.896 558.45 105.416 579.266 113.772C593.15 119.339 597.734 125.2 597.734 125.2L454.864 123.811Z" fill="#F8FCFF"/>
<g opacity="0.5">
<path opacity="0.5" d="M272.211 190.787C272.211 190.787 265.882 160.487 248.589 143.58C246.294 141.333 242.433 143.228 242.782 146.422L242.799 146.583C243.48 152.027 263.065 173.54 272.211 190.787Z" fill="#C5DDFF"/>
</g>
<g opacity="0.5">
<path opacity="0.5" d="M274.885 199.387C274.885 199.387 255.904 162.467 227.709 147.878C226.88 147.439 225.915 147.336 225.012 147.59C224.109 147.843 223.339 148.435 222.86 149.241C222.239 150.337 222.06 151.981 223.08 154.436C225.795 160.982 257.572 181.044 274.885 199.387Z" fill="#C5DDFF"/>
</g>
<g opacity="0.5">
<path opacity="0.5" d="M503.535 328.047C503.535 328.047 515.484 299.487 535.661 286.146C538.343 284.388 541.773 286.964 540.829 290.035C540.815 290.084 540.797 290.137 540.779 290.19C539.082 295.432 515.78 312.837 503.535 328.047Z" fill="#C5DDFF"/>
</g>
<g opacity="0.5">
<path opacity="0.5" d="M499.282 335.984C499.282 335.984 524.906 303.331 555.355 294.327C556.251 294.054 557.219 294.135 558.057 294.554C558.895 294.974 559.54 295.699 559.858 296.58C560.259 297.776 560.124 299.423 558.659 301.641C554.751 307.557 519.755 321.249 499.282 335.984Z" fill="#C5DDFF"/>
</g>
<path d="M613.887 337.013C606.831 316.951 572.741 325.879 572.741 325.879C572.741 325.879 551.928 363.428 545.147 364.784C538.367 366.141 556.686 329.204 556.686 329.204C543.365 328.911 510.849 347.585 510.849 347.585C510.849 347.585 516.061 389.221 509.173 388.87C502.284 388.518 506.44 351.766 506.44 351.766C493.92 356.548 483.074 372.353 483.074 372.353C469.929 397.763 503.251 413.318 503.251 413.318C503.251 413.318 504.746 427.787 497.01 445.081C497.01 445.081 495.213 448.304 493.542 453.672L497.033 453.414C497.247 452.458 497.497 451.53 497.781 450.636V450.595C497.98 450.041 498.268 449.247 498.625 448.283C499.54 446.118 500.147 444.524 500.519 443.378C503.23 436.595 507.206 427.726 510.143 425.71C509.789 425.234 509.498 424.714 509.278 424.163L510.143 425.71C517.058 438.063 547.079 437.998 563.472 433.363C579.865 428.728 572.266 424.573 562.742 417.614C553.218 410.655 534.6 414.048 528.828 411.461C523.056 408.873 530.947 405.308 542.105 405.34C553.262 405.372 559.623 416.055 577.669 416.445C595.715 416.834 606.89 382.133 606.89 382.133C594.798 386.883 572.108 381.691 570.941 377.489C569.775 373.288 602.66 371.298 607.684 369.64C612.709 367.981 620.94 357.075 613.887 337.013Z" fill="#DFEBF9"/>
<path d="M518.48 127.236H310.338V476.986H518.48V127.236Z" fill="#CDE0FB"/>
<path d="M535.893 170.188H518.48V170.991H535.893V170.188Z" fill="#163560"/>
<path d="M535.893 255.322H518.48V256.125H535.893V255.322Z" fill="#163560"/>
<path d="M554.338 155.573H542.515C538.361 155.573 534.993 158.939 534.993 163.092V270.102C534.993 274.254 538.361 277.62 542.515 277.62H554.338C558.492 277.62 561.86 274.254 561.86 270.102V163.092C561.86 158.939 558.492 155.573 554.338 155.573Z" fill="#F78248"/>
<path d="M497.048 158.928H457.187V216.642H497.048V158.928Z" fill="#AFCDFB"/>
<path d="M475.543 158.931C475.543 158.931 475.968 178.17 457.187 193.099V158.931H475.543Z" fill="#D9EAFF"/>
<path d="M479.48 158.931C479.48 158.931 479.073 178.17 497.051 193.099V158.931H479.48Z" fill="#D9EAFF"/>
<path d="M478.117 158.928H477.117V216.642H478.117V158.928Z" fill="white"/>
<path d="M497.051 176.013H457.187V176.816H497.051V176.013Z" fill="white"/>
<path d="M497.051 196.934H457.187V197.737H497.051V196.934Z" fill="white"/>
<path d="M497.957 217.55H456.277V158.011H497.957V217.55ZM458.089 215.736H496.136V159.836H458.095L458.089 215.736Z" fill="white"/>
<path d="M434.341 158.928H394.479V216.642H434.341V158.928Z" fill="#AFCDFB"/>
<path d="M412.833 158.931C412.833 158.931 413.261 178.17 394.477 193.099V158.931H412.833Z" fill="#D9EAFF"/>
<path d="M416.77 158.931C416.77 158.931 416.363 178.17 434.341 193.099V158.931H416.77Z" fill="#D9EAFF"/>
<path d="M415.41 158.928H414.41V216.642H415.41V158.928Z" fill="white"/>
<path d="M434.344 176.013H394.479V176.816H434.344V176.013Z" fill="white"/>
<path d="M434.344 196.934H394.479V197.737H434.344V196.934Z" fill="white"/>
<path d="M435.25 217.55H393.57V158.011H435.25V217.55ZM395.382 215.736H433.429V159.836H395.385L395.382 215.736Z" fill="white"/>
<path d="M371.632 158.928H331.77V216.642H371.632V158.928Z" fill="#AFCDFB"/>
<path d="M350.126 158.931C350.126 158.931 350.551 178.17 331.77 193.099V158.931H350.126Z" fill="#D9EAFF"/>
<path d="M354.063 158.931C354.063 158.931 353.656 178.17 371.634 193.099V158.931H354.063Z" fill="#D9EAFF"/>
<path d="M352.701 158.928H351.701V216.642H352.701V158.928Z" fill="white"/>
<path d="M371.634 176.013H331.77V176.816H371.634V176.013Z" fill="white"/>
<path d="M371.634 196.934H331.77V197.737H371.634V196.934Z" fill="white"/>
<path d="M372.541 217.55H330.861V158.011H372.541V217.55ZM332.693 215.733H370.738V159.836H332.693V215.733Z" fill="white"/>
<path d="M497.048 245.594H457.187V303.308H497.048V245.594Z" fill="#AFCDFB"/>
<path d="M475.543 245.594C475.543 245.594 475.968 264.833 457.187 279.762V245.594H475.543Z" fill="#D9EAFF"/>
<path d="M479.48 245.594C479.48 245.594 479.073 264.833 497.051 279.762V245.594H479.48Z" fill="#D9EAFF"/>
<path d="M478.117 245.594H477.117V303.308H478.117V245.594Z" fill="white"/>
<path d="M497.051 262.677H457.187V263.48H497.051V262.677Z" fill="white"/>
<path d="M497.051 283.598H457.187V284.4H497.051V283.598Z" fill="white"/>
<path d="M497.957 304.223H456.277V244.686H497.957V304.223ZM458.089 302.406H496.136V246.5H458.095L458.089 302.406Z" fill="white"/>
<path d="M434.341 245.594H394.479V303.308H434.341V245.594Z" fill="#AFCDFB"/>
<path d="M412.833 245.594C412.833 245.594 413.261 264.833 394.477 279.762V245.594H412.833Z" fill="#D9EAFF"/>
<path d="M416.77 245.594C416.77 245.594 416.363 264.833 434.341 279.762V245.594H416.77Z" fill="#D9EAFF"/>
<path d="M415.41 245.594H414.41V303.308H415.41V245.594Z" fill="white"/>
<path d="M434.344 262.677H394.479V263.48H434.344V262.677Z" fill="white"/>
<path d="M434.344 283.598H394.479V284.4H434.344V283.598Z" fill="white"/>
<path d="M435.25 304.223H393.57V244.686H435.25V304.223ZM395.382 302.406H433.429V246.5H395.385L395.382 302.406Z" fill="white"/>
<path d="M371.632 245.594H331.77V303.308H371.632V245.594Z" fill="#AFCDFB"/>
<path d="M350.126 245.594C350.126 245.594 350.551 264.833 331.77 279.762V245.594H350.126Z" fill="#D9EAFF"/>
<path d="M354.063 245.594C354.063 245.594 353.656 264.833 371.634 279.762V245.594H354.063Z" fill="#D9EAFF"/>
<path d="M352.701 245.594H351.701V303.308H352.701V245.594Z" fill="white"/>
<path d="M371.634 262.677H331.77V263.48H371.634V262.677Z" fill="white"/>
<path d="M371.634 283.598H331.77V284.4H371.634V283.598Z" fill="white"/>
<path d="M372.541 304.223H330.861V244.686H372.541V304.223ZM332.673 302.406H370.718V246.5H332.693L332.673 302.406Z" fill="white"/>
<path d="M434.341 332.257H394.479V389.971H434.341V332.257Z" fill="#AFCDFB"/>
<path d="M412.833 332.257C412.833 332.257 413.261 351.496 394.477 366.425V332.257H412.833Z" fill="#D9EAFF"/>
<path d="M416.77 332.257C416.77 332.257 416.363 351.496 434.341 366.425V332.257H416.77Z" fill="#D9EAFF"/>
<path d="M415.41 332.257H414.41V389.971H415.41V332.257Z" fill="white"/>
<path d="M434.344 349.34H394.479V350.143H434.344V349.34Z" fill="white"/>
<path d="M434.344 370.264H394.479V371.066H434.344V370.264Z" fill="white"/>
<path d="M435.25 390.88H393.57V331.349H435.25V390.88ZM395.382 389.063H433.429V333.166H395.385L395.382 389.063Z" fill="white"/>
<path d="M371.632 332.257H331.77V389.971H371.632V332.257Z" fill="#AFCDFB"/>
<path d="M350.126 332.257C350.126 332.257 350.551 351.496 331.77 366.425V332.257H350.126Z" fill="#D9EAFF"/>
<path d="M354.063 332.257C354.063 332.257 353.656 351.496 371.634 366.425V332.257H354.063Z" fill="#D9EAFF"/>
<path d="M352.701 332.257H351.701V389.971H352.701V332.257Z" fill="white"/>
<path d="M371.634 349.34H331.77V350.143H371.634V349.34Z" fill="white"/>
<path d="M371.634 370.264H331.77V371.066H371.634V370.264Z" fill="white"/>
<path d="M372.541 390.88H330.861V331.349H372.541V390.88ZM332.673 389.063H370.718V333.166H332.693L332.673 389.063Z" fill="white"/>
<path d="M521.88 429.149H308.001V476.977H521.88V429.149Z" fill="#AFCDFB"/>
<path d="M377.714 197.327L377.623 459.432C377.623 461.479 377.219 463.506 376.435 465.397C375.651 467.288 374.502 469.006 373.053 470.454C371.605 471.901 369.885 473.049 367.993 473.832C366.101 474.615 364.073 475.018 362.025 475.017L224.944 474.97C222.896 474.97 220.868 474.566 218.975 473.782C217.083 472.998 215.364 471.85 213.916 470.402C212.468 468.953 211.32 467.234 210.537 465.343C209.754 463.451 209.351 461.424 209.352 459.376L209.442 197.268C209.443 195.221 209.847 193.194 210.632 191.303C211.417 189.412 212.566 187.693 214.015 186.247C215.464 184.8 217.184 183.652 219.077 182.87C220.97 182.087 222.998 181.685 225.047 181.686L362.125 181.733C364.173 181.734 366.2 182.138 368.092 182.922C369.984 183.706 371.703 184.855 373.15 186.303C374.598 187.751 375.746 189.47 376.529 191.361C377.312 193.253 377.715 195.28 377.714 197.327Z" fill="#739AF0"/>
<path d="M362.022 476.974L224.944 476.927C220.291 476.917 215.832 475.065 212.542 471.775C209.253 468.486 207.401 464.027 207.394 459.376L207.484 197.268C207.495 192.617 209.35 188.16 212.641 184.873C215.933 181.585 220.394 179.735 225.047 179.729L362.125 179.775C366.778 179.785 371.238 181.639 374.528 184.929C377.817 188.219 379.668 192.678 379.675 197.33L379.584 459.435C379.574 464.086 377.719 468.543 374.428 471.83C371.136 475.118 366.675 476.967 362.022 476.974ZM225.044 183.643C221.427 183.645 217.959 185.082 215.401 187.638C212.844 190.193 211.405 193.659 211.401 197.274L211.31 459.379C211.312 462.994 212.749 466.46 215.305 469.017C217.861 471.574 221.328 473.013 224.944 473.019L362.025 473.066C365.641 473.062 369.109 471.626 371.667 469.07C374.224 466.515 375.663 463.049 375.668 459.435L375.759 197.33C375.756 193.715 374.319 190.25 371.763 187.694C369.207 185.137 365.741 183.698 362.125 183.693L225.044 183.643Z" fill="#163560"/>
<path d="M362.867 348.991V445.977C362.867 449.066 361.639 452.029 359.454 454.213C357.268 456.397 354.304 457.624 351.214 457.624H238.332C236.802 457.624 235.287 457.323 233.873 456.738C232.46 456.152 231.175 455.294 230.094 454.213C229.012 453.131 228.154 451.847 227.569 450.434C226.983 449.021 226.682 447.507 226.683 445.977V348.991C226.682 347.462 226.983 345.947 227.569 344.534C228.154 343.121 229.012 341.837 230.094 340.756C231.175 339.674 232.46 338.816 233.873 338.231C235.287 337.646 236.802 337.344 238.332 337.344H351.214C352.744 337.343 354.26 337.644 355.674 338.229C357.088 338.814 358.373 339.672 359.455 340.754C360.537 341.836 361.396 343.12 361.981 344.533C362.566 345.947 362.867 347.462 362.867 348.991Z" fill="#EBF2FF"/>
<path d="M354.949 272.038H234.6C230.228 272.038 226.683 275.581 226.683 279.952V319.667C226.683 324.038 230.228 327.581 234.6 327.581H354.949C359.321 327.581 362.866 324.038 362.866 319.667V279.952C362.866 275.581 359.321 272.038 354.949 272.038Z" fill="#EBF2FF"/>
<path d="M308.391 293.791H275.53C275.335 293.791 275.147 293.714 275.009 293.576C274.871 293.438 274.794 293.251 274.794 293.056C274.794 292.861 274.871 292.674 275.009 292.536C275.147 292.398 275.335 292.32 275.53 292.32H308.391C308.586 292.321 308.773 292.399 308.911 292.537C309.049 292.674 309.126 292.861 309.127 293.056C309.127 293.251 309.05 293.438 308.912 293.576C308.774 293.714 308.587 293.791 308.391 293.791Z" fill="#2B478B"/>
<path d="M330.374 299.104H275.53C275.433 299.104 275.338 299.085 275.248 299.049C275.159 299.012 275.078 298.958 275.01 298.89C274.941 298.822 274.887 298.741 274.85 298.652C274.813 298.563 274.794 298.468 274.794 298.371C274.794 298.176 274.871 297.989 275.009 297.851C275.147 297.713 275.335 297.636 275.53 297.636H330.374C330.57 297.636 330.757 297.713 330.895 297.851C331.033 297.989 331.11 298.176 331.11 298.371C331.11 298.468 331.091 298.563 331.054 298.652C331.017 298.741 330.963 298.822 330.894 298.89C330.826 298.958 330.745 299.012 330.656 299.049C330.566 299.085 330.471 299.104 330.374 299.104Z" fill="#2B478B"/>
<path d="M267.538 285.408H236.113V316.819H267.538V285.408Z" fill="#C2CFFF"/>
<path d="M241.941 308.591L248.804 296.226L253.852 303.103L256.37 300.352L261.711 308.591H241.941Z" fill="#AABDF2"/>
<path d="M252.078 294.45C252.078 294.099 252.182 293.756 252.377 293.464C252.573 293.172 252.85 292.944 253.175 292.81C253.499 292.676 253.857 292.64 254.201 292.709C254.546 292.777 254.862 292.947 255.111 293.195C255.359 293.443 255.528 293.76 255.597 294.104C255.665 294.448 255.63 294.805 255.496 295.13C255.361 295.454 255.134 295.732 254.842 295.927C254.549 296.122 254.206 296.226 253.855 296.226C253.383 296.226 252.932 296.039 252.598 295.706C252.265 295.373 252.078 294.921 252.078 294.45Z" fill="#AABDF2"/>
<path d="M329.342 285.408H275.436C275.03 285.408 274.7 285.737 274.7 286.144V287.893C274.7 288.299 275.03 288.629 275.436 288.629H329.342C329.749 288.629 330.078 288.299 330.078 287.893V286.144C330.078 285.737 329.749 285.408 329.342 285.408Z" fill="#2B478B"/>
<path d="M282.75 308.025L287.276 308.679L284.005 311.873L284.782 316.376L280.731 314.255L276.685 316.385L277.453 311.879L274.176 308.691L278.702 308.028L280.722 303.926L282.75 308.025Z" fill="#F78248"/>
<path d="M298.427 308.025L302.953 308.679L299.682 311.873L300.459 316.376L296.407 314.255L292.362 316.385L293.13 311.879L289.853 308.691L294.379 308.028L296.398 303.926L298.427 308.025Z" fill="#F78248"/>
<path d="M314.102 308.025L318.631 308.679L315.357 311.873L316.136 316.376L312.085 314.255L308.04 316.385L308.808 311.879L305.53 308.691L310.054 308.028L312.076 303.926L314.102 308.025Z" fill="#F78248"/>
<path d="M329.78 308.025L334.306 308.679L331.034 311.873L331.811 316.376L327.763 314.255L323.717 316.385L324.485 311.879L321.205 308.691L325.731 308.028L327.751 303.926L329.78 308.025Z" fill="#F78248"/>
<path d="M345.456 308.025L349.983 308.679L346.711 311.873L347.488 316.376L343.44 314.255L339.391 316.385L340.162 311.879L336.882 308.691L341.408 308.028L343.428 303.926L345.456 308.025Z" fill="#F78248"/>
<path d="M354.949 207.682H234.6C230.228 207.682 226.683 211.225 226.683 215.596V255.31C226.683 259.681 230.228 263.224 234.6 263.224H354.949C359.321 263.224 362.866 259.681 362.866 255.31V215.596C362.866 211.225 359.321 207.682 354.949 207.682Z" fill="#EBF2FF"/>
<path d="M308.391 229.435H275.53C275.335 229.435 275.147 229.357 275.009 229.219C274.871 229.081 274.794 228.894 274.794 228.699C274.794 228.504 274.871 228.317 275.009 228.179C275.147 228.041 275.335 227.964 275.53 227.964H308.391C308.586 227.965 308.773 228.042 308.911 228.18C309.049 228.318 309.126 228.505 309.127 228.699C309.126 228.894 309.049 229.081 308.911 229.219C308.773 229.356 308.586 229.434 308.391 229.435Z" fill="#2B478B"/>
<path d="M330.374 234.747H275.53C275.335 234.747 275.147 234.669 275.009 234.531C274.871 234.393 274.794 234.206 274.794 234.011C274.794 233.915 274.813 233.819 274.85 233.73C274.887 233.641 274.941 233.56 275.01 233.492C275.078 233.424 275.159 233.37 275.248 233.334C275.338 233.297 275.433 233.278 275.53 233.279H330.374C330.471 233.278 330.566 233.297 330.656 233.334C330.745 233.37 330.826 233.424 330.894 233.492C330.963 233.56 331.017 233.641 331.054 233.73C331.091 233.819 331.11 233.915 331.11 234.011C331.11 234.206 331.033 234.393 330.895 234.531C330.757 234.669 330.57 234.747 330.374 234.747Z" fill="#2B478B"/>
<path d="M267.538 221.052H236.113V252.462H267.538V221.052Z" fill="#C2CFFF"/>
<path d="M241.941 244.235L248.804 231.867L253.852 238.747L256.37 235.995L261.711 244.235H241.941Z" fill="#AABDF2"/>
<path d="M252.078 230.091C252.078 229.74 252.182 229.397 252.377 229.105C252.573 228.813 252.85 228.585 253.175 228.451C253.499 228.316 253.857 228.281 254.201 228.35C254.546 228.418 254.862 228.587 255.111 228.835C255.359 229.084 255.528 229.4 255.597 229.745C255.665 230.089 255.63 230.446 255.496 230.771C255.361 231.095 255.134 231.372 254.842 231.567C254.549 231.763 254.206 231.867 253.855 231.867C253.383 231.867 252.932 231.68 252.598 231.347C252.265 231.014 252.078 230.562 252.078 230.091Z" fill="#AABDF2"/>
<path d="M329.342 221.052H275.436C275.03 221.052 274.7 221.381 274.7 221.787V223.536C274.7 223.943 275.03 224.272 275.436 224.272H329.342C329.749 224.272 330.078 223.943 330.078 223.536V221.787C330.078 221.381 329.749 221.052 329.342 221.052Z" fill="#2B478B"/>
<path d="M282.75 243.669L287.276 244.322L284.005 247.516L284.782 252.02L280.731 249.898L276.685 252.029L277.453 247.522L274.176 244.334L278.702 243.672L280.722 239.57L282.75 243.669Z" fill="#F78248"/>
<path d="M298.427 243.669L302.953 244.322L299.682 247.516L300.459 252.02L296.407 249.898L292.362 252.029L293.13 247.522L289.853 244.334L294.379 243.672L296.398 239.57L298.427 243.669Z" fill="#F78248"/>
<path d="M314.102 243.669L318.631 244.322L315.357 247.516L316.136 252.02L312.085 249.898L308.04 252.029L308.808 247.522L305.53 244.334L310.054 243.672L312.076 239.57L314.102 243.669Z" fill="#F78248"/>
<path d="M329.78 243.669L334.306 244.322L331.034 247.516L331.811 252.02L327.763 249.898L323.717 252.029L324.485 247.522L321.205 244.334L325.731 243.672L327.751 239.57L329.78 243.669Z" fill="#F78248"/>
<path d="M345.456 243.669L349.983 244.322L346.711 247.516L347.488 252.02L343.44 249.898L339.391 252.029L340.162 247.522L336.882 244.334L341.408 243.672L343.428 239.57L345.456 243.669Z" fill="#F78248"/>
<g opacity="0.3">
<path opacity="0.3" d="M277.582 374.328C276.673 374.206 275.758 374.146 274.841 374.146C274.689 374.146 274.548 374.146 274.39 374.146C269.024 374.274 263.921 376.495 260.171 380.333C256.421 384.172 254.322 389.324 254.322 394.689C254.322 400.054 256.421 405.206 260.171 409.044C263.921 412.883 269.024 415.104 274.39 415.232H274.841C275.758 415.234 276.674 415.173 277.582 415.05C281.973 414.461 286.057 412.472 289.226 409.377C292.395 406.282 294.48 402.248 295.171 397.874C295.332 396.818 295.414 395.751 295.414 394.683C295.41 389.708 293.6 384.902 290.321 381.159C287.042 377.416 282.516 374.989 277.582 374.328ZM277.582 408.267C276.68 408.448 275.762 408.54 274.841 408.539H274.39C270.804 408.412 267.408 406.898 264.916 404.317C262.424 401.736 261.032 398.29 261.032 394.704C261.032 391.117 262.424 387.671 264.916 385.09C267.408 382.509 270.804 380.995 274.39 380.868H274.841C278.277 380.866 281.59 382.141 284.138 384.444C286.685 386.748 288.286 389.916 288.627 393.333C288.969 396.75 288.028 400.171 285.987 402.933C283.945 405.696 280.95 407.601 277.582 408.279V408.267Z" fill="#739AF0"/>
<path opacity="0.3" d="M260.993 394.698C260.991 395.772 261.115 396.843 261.362 397.889H235.876V394.698H260.993Z" fill="#739AF0"/>
<path opacity="0.3" d="M353.67 394.698V397.889H288.319C288.565 396.843 288.689 395.772 288.689 394.698H353.67Z" fill="#739AF0"/>
<path opacity="0.3" d="M277.582 341.728V381.123C276.68 380.941 275.762 380.85 274.841 380.85H274.39V341.728H277.582Z" fill="#739AF0"/>
<path opacity="0.3" d="M277.582 408.267V450.856H274.39V408.534H274.841C275.761 408.536 276.679 408.447 277.582 408.267Z" fill="#739AF0"/>
<path opacity="0.3" d="M350.476 341.73V396.866V399.852H353.671V396.866V341.98L350.476 341.73Z" fill="#739AF0"/>
<path opacity="0.3" d="M317.638 341.73H314.442V450.853H317.638V341.73Z" fill="#739AF0"/>
<path opacity="0.3" d="M297.559 345.777H281.768V370.29H297.559V345.777Z" fill="#739AF0"/>
<path opacity="0.3" d="M251.272 364.225H235.879V381.84H251.272V364.225Z" fill="#739AF0"/>
<path opacity="0.3" d="M266.856 345.777H235.879V361.163H266.856V345.777Z" fill="#739AF0"/>
<path opacity="0.3" d="M311.273 345.777H300.228V361.013H311.273V345.777Z" fill="#739AF0"/>
<path opacity="0.3" d="M311.273 364.225H300.228V389.69H311.273V364.225Z" fill="#739AF0"/>
<path opacity="0.3" d="M311.273 400.91H300.228V415.985H311.273V400.91Z" fill="#739AF0"/>
<path opacity="0.3" d="M333.643 345.777H324.731V389.69H333.643V345.777Z" fill="#739AF0"/>
<path opacity="0.3" d="M347.582 345.777H336.536V389.69H347.582V345.777Z" fill="#739AF0"/>
<path opacity="0.3" d="M353.671 402.515H323.04V450.853H353.671V402.515Z" fill="#739AF0"/>
<path opacity="0.3" d="M311.273 432.572H280.789V450.853H311.273V432.572Z" fill="#739AF0"/>
<path opacity="0.3" d="M311.273 419.434H280.789V429.123H311.273V419.434Z" fill="#739AF0"/>
<path opacity="0.3" d="M263.262 419.434H235.879V450.853H263.262V419.434Z" fill="#739AF0"/>
<path opacity="0.3" d="M247.408 399.597H235.879V416.527H247.408V399.597Z" fill="#739AF0"/>
</g>
<path d="M170.404 464.179H165.251V471.196H170.404V464.179Z" fill="#163560"/>
<path d="M199.561 464.179H194.407V471.196H199.561V464.179Z" fill="#163560"/>
<path d="M164.16 472.26C164.16 471.535 164.375 470.826 164.778 470.223C165.181 469.621 165.754 469.151 166.424 468.873C167.094 468.596 167.831 468.523 168.543 468.665C169.254 468.806 169.908 469.155 170.421 469.668C170.933 470.18 171.283 470.834 171.424 471.545C171.566 472.256 171.493 472.993 171.215 473.663C170.938 474.332 170.468 474.905 169.865 475.308C169.262 475.71 168.553 475.925 167.827 475.925C166.855 475.925 165.923 475.538 165.235 474.851C164.548 474.164 164.161 473.232 164.16 472.26Z" fill="#1F4777"/>
<path d="M165.6 472.26C165.6 471.82 165.73 471.389 165.975 471.023C166.22 470.657 166.568 470.371 166.975 470.203C167.382 470.034 167.83 469.99 168.262 470.076C168.694 470.162 169.091 470.374 169.403 470.685C169.714 470.997 169.927 471.394 170.013 471.826C170.099 472.258 170.054 472.705 169.886 473.112C169.717 473.519 169.432 473.867 169.065 474.112C168.699 474.356 168.268 474.487 167.827 474.487C167.237 474.487 166.67 474.252 166.252 473.835C165.834 473.417 165.6 472.851 165.6 472.26Z" fill="#163560"/>
<path d="M193.32 472.26C193.321 471.535 193.536 470.827 193.94 470.224C194.343 469.622 194.916 469.152 195.586 468.875C196.256 468.598 196.994 468.526 197.705 468.668C198.416 468.81 199.069 469.159 199.582 469.672C200.094 470.185 200.443 470.838 200.585 471.549C200.726 472.26 200.653 472.996 200.375 473.666C200.098 474.336 199.628 474.908 199.025 475.311C198.422 475.713 197.713 475.928 196.988 475.928C196.015 475.927 195.082 475.541 194.394 474.853C193.707 474.165 193.32 473.232 193.32 472.26Z" fill="#1F4777"/>
<path d="M194.759 472.26C194.759 471.82 194.889 471.389 195.134 471.023C195.379 470.657 195.727 470.371 196.134 470.203C196.541 470.034 196.989 469.99 197.421 470.076C197.854 470.162 198.25 470.374 198.562 470.685C198.874 470.997 199.086 471.394 199.172 471.826C199.258 472.258 199.214 472.705 199.045 473.112C198.876 473.519 198.591 473.867 198.224 474.112C197.858 474.356 197.427 474.487 196.987 474.487C196.396 474.487 195.829 474.252 195.411 473.835C194.994 473.417 194.759 472.851 194.759 472.26Z" fill="#163560"/>
<path d="M146.73 457.639H217.944V459.546C217.944 461.818 217.042 463.996 215.435 465.602C213.828 467.209 211.648 468.111 209.376 468.111H155.997C153.54 468.111 151.183 467.135 149.446 465.399C147.708 463.663 146.731 461.308 146.73 458.852V457.642V457.639Z" fill="#C65528"/>
<path d="M220.386 369.707V454.656C220.387 455.66 220.275 456.66 220.055 457.639H210.088C209.06 457.639 208.042 457.842 207.093 458.236C206.144 458.629 205.281 459.206 204.555 459.933C203.829 460.659 203.253 461.522 202.86 462.471C202.467 463.421 202.266 464.438 202.266 465.465V468.102H163.214V465.465C163.216 464.438 163.015 463.42 162.622 462.47C162.23 461.52 161.654 460.657 160.928 459.93C160.201 459.203 159.338 458.626 158.388 458.233C157.439 457.84 156.42 457.638 155.392 457.639H144.616C144.395 456.66 144.284 455.66 144.285 454.656V369.707C144.284 367.941 144.631 366.191 145.306 364.559C145.982 362.927 146.972 361.444 148.221 360.194C149.47 358.945 150.953 357.954 152.586 357.277C154.218 356.601 155.968 356.252 157.735 356.252H206.933C208.701 356.252 210.451 356.6 212.083 357.276C213.716 357.953 215.199 358.944 216.449 360.193C217.698 361.443 218.689 362.926 219.364 364.559C220.04 366.191 220.387 367.94 220.386 369.707Z" fill="#F99746"/>
<path d="M196.674 356.208C187.463 352.578 179.789 352.759 174.981 353.55C169.757 354.409 166.67 356.149 166.641 356.167L166.005 355.059C166.137 354.986 169.279 353.205 174.708 352.302C179.692 351.473 187.639 351.274 197.149 355.021L196.674 356.208Z" fill="#163560"/>
<path d="M159.696 356.252V458.931C159.09 458.53 158.429 458.217 157.735 457.999V356.252H159.696Z" fill="#ED7D2B"/>
<path d="M175.391 356.252H173.43V468.114H175.391V356.252Z" fill="#ED7D2B"/>
<path d="M190.036 356.252H188.075V468.114H190.036V356.252Z" fill="#ED7D2B"/>
<path d="M205.881 356.252V458.87C205.13 459.346 204.466 459.949 203.92 460.651V356.252H205.881Z" fill="#ED7D2B"/>
<path d="M101.779 312.268C101.779 312.125 103.925 307.688 103.245 307.346C102.565 307.003 101.34 307.053 101.193 307.835C101.047 308.617 101.779 312.268 101.779 312.268Z" fill="#FFB27D"/>
<path d="M102.588 314.917C102.588 314.48 102.084 307.841 100.964 306.519C99.8444 305.198 97.5549 303.317 96.8367 303.375C96.1185 303.434 93.3013 307.184 94.1485 310.035C94.9957 312.886 98.5662 316.775 98.5662 316.775L102.588 314.917Z" fill="#FFB27D"/>
<path d="M106.86 306.86L100.337 308.814C100.233 308.845 100.121 308.833 100.025 308.782C99.9295 308.73 99.8583 308.643 99.827 308.539L96.0982 296.103C96.0672 296 96.0785 295.889 96.1296 295.793C96.1808 295.698 96.2675 295.628 96.3709 295.596L102.896 293.639C103 293.608 103.113 293.62 103.208 293.671C103.304 293.723 103.375 293.81 103.406 293.914L107.135 306.35C107.166 306.454 107.155 306.566 107.103 306.662C107.051 306.757 106.964 306.828 106.86 306.86Z" fill="#F1A34F"/>
<path d="M101.181 294.181L95.2648 295.953C94.8802 296.068 94.6618 296.473 94.777 296.857L98.3227 308.685C98.438 309.07 98.8432 309.288 99.2278 309.173L105.144 307.401C105.529 307.285 105.747 306.88 105.632 306.496L102.087 294.668C101.971 294.284 101.566 294.065 101.181 294.181Z" fill="#D86713"/>
<path d="M96.1621 303.859C96.1621 303.859 98.8796 299.681 99.5421 299.912C100.492 300.243 97.0797 305.547 97.0797 305.547C97.0797 305.547 99.6066 301.585 100.011 301.881C100.911 302.561 99.4776 305.052 98.0588 306.959C98.0588 306.959 100.6 304.632 100.682 305.052C100.976 306.517 97.8917 310.074 97.8917 310.074L96.1709 306.144L96.1621 303.859Z" fill="#FFB27D"/>
<path d="M94.125 307.739C94.2569 307.226 94.9194 297.249 95.2038 298.195C95.4881 299.142 96.1624 304.375 96.1624 304.375L94.125 307.739Z" fill="#FFB27D"/>
<path d="M137.485 304.99C137.485 304.99 137.191 315.832 134.069 324.595C131.598 331.508 127.348 337.119 120.063 335.047C119.315 334.833 118.597 334.608 117.894 334.361C103.09 329.207 98.2998 317.408 98.2998 317.408C99.402 315.591 102.597 314.92 102.597 314.92C105.579 315.081 118.679 320.643 119.515 320.813C122.546 321.419 124.994 304.776 126.964 299.01C128.934 293.244 136.992 290.662 136.992 290.662L137.485 304.99Z" fill="#739AF0"/>
<path d="M134.354 316.778L134.061 324.595C131.589 331.507 127.339 337.119 120.054 335.047C119.307 334.833 118.588 334.607 117.885 334.361C118.119 334.391 122.575 334.994 124.445 333.128C126.365 331.209 126.163 324.847 129.699 320.608C133.234 316.368 134.354 316.778 134.354 316.778Z" fill="#5283DB"/>
<path d="M134.761 459.739C134.761 459.739 138.404 463.065 137.692 465.427C136.98 467.788 133.694 469.362 133.248 472.248C132.802 475.134 131.026 476.708 129.437 476.708H121.815C121.815 476.708 120.643 474.677 123.48 474.071C126.318 473.464 127.385 470.065 127.197 466.912C127.01 463.76 127.464 459.567 127.464 459.567L133.506 458.166L134.761 459.739Z" fill="#0B2442"/>
<path d="M94.6172 476.104H117.072C117.495 476.105 117.902 475.941 118.206 475.647C118.51 475.352 118.687 474.951 118.699 474.528C118.734 473.212 118.626 471.305 117.896 469.688C116.697 467.03 115.941 466.564 121.003 458.846C119.482 460.414 115.378 459.699 111.916 459.233C111.491 459.919 105.065 469.843 103.649 470.86C102.081 471.973 95.0979 471.572 94.6172 476.104Z" fill="#0B2442"/>
<path d="M129.604 351.637C129.604 351.637 113.326 382.345 108.899 399.254C105.467 412.378 126.424 463.156 126.424 463.156C126.424 463.156 128.136 463.045 130.932 461.946C133.676 460.868 134.72 457.976 134.72 457.976C134.72 457.976 133.477 421.669 129.235 404.103C128.282 400.16 133.849 387.443 143.241 380.475C152.634 373.507 156.544 351.104 150.942 349.583C145.34 348.063 129.604 351.637 129.604 351.637Z" fill="#163560"/>
<path d="M143.544 342.92C143.544 342.92 126.43 405.624 121.236 419.715C116.041 433.805 107.81 463.686 107.81 463.686C111.568 465.218 115.682 465.664 119.682 464.973C119.682 464.973 144.711 428.329 145.798 412.132C146.303 404.642 171.478 374.963 168.664 355.61L143.544 342.92Z" fill="#1C468A"/>
<path d="M168.631 362.487C168.631 362.487 164.987 364.324 158.549 364.863C151.177 365.481 140.134 364.397 126.687 356.914C126.687 356.914 122.935 353.823 127.543 340.684C131.032 330.739 132.732 309.769 136.989 290.659C136.989 290.659 150.802 286.328 161.882 290.073C170.349 292.935 169.504 305.922 171.07 319.444C171.213 320.707 171.38 321.975 171.577 323.253C173.884 338.038 168.631 362.487 168.631 362.487Z" fill="#739AF0"/>
<path d="M132.114 262.366C132.114 262.366 141.542 247.03 148.841 254.924C148.841 254.924 153.614 256.143 156.349 263.567C159.136 271.145 154.792 277.837 151.893 276.753C150.031 276.058 149.161 279.264 149.161 279.264L132.114 262.366Z" fill="#233862"/>
<path d="M147.396 253.714C147.396 253.714 148.043 247.364 157.327 247.982C157.327 247.982 152.93 248.059 151.995 249.89C151.995 249.89 155.187 247.839 157.515 248.835C159.842 249.831 160.83 254.188 160.704 255.574C160.578 256.96 158.79 261.291 157.225 261.516C155.659 261.742 153.61 260.637 153.61 260.637L147.396 253.714Z" fill="#233862"/>
<path d="M152.071 289.683C151.192 287.36 149.902 284.922 148.847 277.503L148.29 277.699L138.909 280.999C138.909 280.999 139.566 284.002 139.985 286.859C140.155 288.031 140.278 290.111 140.357 291.931C140.439 293.794 142.272 293.982 144.133 293.882C149.111 293.654 151.843 291.808 152.071 289.683Z" fill="#FFB27D"/>
<path d="M138.924 280.998C138.924 280.998 139.58 284.002 140 286.859C145.376 285.927 147.519 280.597 148.293 277.699L138.924 280.998Z" fill="#E8945B"/>
<path d="M149.146 276.507C149.146 276.507 151.333 271.631 151.459 267.717C151.55 264.921 148.703 255.012 138.751 257.933C136.745 258.511 134.895 259.532 133.337 260.922C131.346 262.73 128.626 266.404 133.457 274.711L134.82 277.559L149.146 276.507Z" fill="#233862"/>
<path d="M137.52 283.964C137.52 283.964 150.321 282.335 149.184 274.382C148.046 266.43 148.932 260.866 140.709 261.569C132.486 262.272 131.328 265.534 131.073 268.279C130.818 271.024 134.16 284.183 137.52 283.964Z" fill="#FFB27D"/>
<path d="M134.866 262.211C134.866 262.211 139.706 271.036 145.273 271.643C150.84 272.249 152.956 270.471 152.956 270.471C149.973 268.528 147.759 265.609 146.692 262.214C146.692 262.214 136.871 257.391 134.866 262.211Z" fill="#233862"/>
<path d="M135.84 262.843C135.84 262.843 133.53 265.302 133.187 267.42C132.844 269.539 133.154 273.746 131.92 273.779C131.92 273.779 128.37 267.819 130.815 263.816C133.407 259.55 135.84 262.843 135.84 262.843Z" fill="#233862"/>
<path d="M135.406 263.231C135.406 263.231 139.305 272.639 146.525 274.793C146.525 274.793 138.903 269.765 137.385 263.401C135.866 257.036 135.406 263.231 135.406 263.231Z" fill="#233862"/>
<path d="M168.631 362.487C168.631 362.487 164.987 364.324 158.549 364.863C158.549 364.863 153.273 358.233 159.159 350.799C165.046 343.365 158.699 329.661 163.246 322.204C166.409 317.018 169.487 318.225 171.07 319.435C171.213 320.698 171.38 321.967 171.577 323.244C173.884 338.038 168.631 362.487 168.631 362.487Z" fill="#5283DB"/>
<path d="M191.851 351.47C191.851 351.47 192.637 353.295 193.733 353.418C195.521 353.618 198.93 355.118 199.467 355.434C200.933 356.296 200.818 360.146 199.367 360.509C197.916 360.872 197.192 357.638 192.66 356.773C191.124 356.48 188.881 357.541 187.97 353.861L191.851 351.47Z" fill="#FFB27D"/>
<path d="M161.877 290.07C175.068 294.917 175.543 318.255 181.421 328.533C187.48 339.134 193.381 353.088 193.381 353.088C193.381 353.088 193.276 353.504 191.016 354.151C189.955 354.428 188.853 354.517 187.762 354.415C187.762 354.415 175.309 343.155 171.932 338.713C168.555 334.271 160.572 313.663 160.572 313.663C160.572 313.663 156.644 288.148 161.877 290.07Z" fill="#739AF0"/>
<path d="M188.301 354.772C188.301 354.772 188.62 356.34 190.564 357.609C192.507 358.878 194.067 360.146 194.255 359.367C194.442 358.587 193.173 357.735 192.871 356.287C192.569 354.84 188.301 354.772 188.301 354.772Z" fill="#FFB27D"/>
<path d="M526.299 139.466H303.584L315.459 86.7188H514.426L526.299 139.466Z" fill="#F78248"/>
<path d="M364.488 102.375H344.062V122.791H364.488V102.375Z" fill="#BDD1F9"/>
<path d="M343.114 101.434V123.729H365.434V101.434H343.114ZM363.541 121.848H345.005V103.321H363.538L363.541 121.848Z" fill="#163560"/>
<path d="M355.197 122.791V102.375H353.348V122.791H355.197Z" fill="#163560"/>
<path d="M368.627 97.6099H339.058V101.891H368.627V97.6099Z" fill="#163560"/>
<path d="M425.28 102.375H404.854V122.791H425.28V102.375Z" fill="#BDD1F9"/>
<path d="M403.907 101.434V123.729H426.227V101.434H403.907ZM424.334 121.848H405.798V103.321H424.334V121.848Z" fill="#163560"/>
<path d="M415.99 122.794V102.377H414.14V122.794H415.99Z" fill="#163560"/>
<path d="M429.194 97.6099H399.624V101.891H429.194V97.6099Z" fill="#163560"/>
<path d="M485.847 102.375H465.421V122.791H485.847V102.375Z" fill="#BDD1F9"/>
<path d="M464.474 101.434V123.729H486.794V101.434H464.474ZM484.9 121.848H466.367V103.321H484.903L484.9 121.848Z" fill="#163560"/>
<path d="M476.558 122.794V102.377H474.708V122.794H476.558Z" fill="#163560"/>
<path d="M489.761 97.6099H460.191V101.891H489.761V97.6099Z" fill="#163560"/>
<path d="M50.9505 476.605H80.0393C81.5989 475.284 78.9605 472.281 76.205 472.081C75.0089 471.991 73.4963 472.24 71.7667 472.606C71.3651 467.291 69.0786 443.399 60.463 444.36C50.7746 445.435 60.4631 454.882 63.201 460.475C65.2296 464.618 67.3696 470.558 68.3487 473.368C67.563 473.538 66.7481 473.705 65.9156 473.86C64.6316 469.919 59.8533 456.663 53.7793 457.434C46.6442 458.339 49.5111 463.654 54.5679 466.81C58.2791 469.128 62.8317 472.427 64.998 474.018C63.1194 474.345 61.2147 474.498 59.3081 474.475C54.3246 474.346 51.8915 475.814 50.9505 476.605Z" fill="#A8D29F"/>
<path d="M649.821 476.133H627.891C626.718 475.137 628.703 472.875 630.778 472.726C631.681 472.655 632.83 472.846 634.126 473.121C634.419 469.116 636.148 451.113 642.642 451.837C649.941 452.649 642.642 459.766 640.59 463.979C639.059 467.1 637.447 471.577 636.711 473.69C637.298 473.819 637.916 473.942 638.543 474.059C639.511 471.091 643.111 461.102 647.69 461.685C653.063 462.365 650.914 466.373 647.103 468.747C644.307 470.505 640.877 472.978 639.244 474.179C640.66 474.426 642.096 474.541 643.533 474.522C647.276 474.434 649.108 475.539 649.821 476.133Z" fill="#A8D29F"/>
<path d="M417.368 286.756C418.397 289.522 420.18 292.733 422.059 293.53C424.181 294.436 425.066 295.716 425.066 295.716L426.781 294.72L428.833 293.53C428.833 293.53 428.783 293.305 428.684 292.944C428.584 292.584 428.432 292.065 428.224 291.479C428.039 291.218 427.921 290.916 427.878 290.599C427.836 290.282 427.871 289.96 427.98 289.66C428.367 288.649 428.273 287.084 427.631 286.144C426.989 285.203 426.342 282.838 425.946 282.92C424.99 283.085 426.418 286.316 426.007 286.914C425.924 287.075 425.781 287.197 425.61 287.255C425.439 287.314 425.251 287.304 425.087 287.228H425.072C422.387 286.056 419.13 279.686 417.688 280.544C417.137 280.834 416.929 285.578 417.368 286.756Z" fill="#FFB27D"/>
<path d="M426.658 290.609L423.293 292.971C423.178 293.051 423.037 293.083 422.899 293.059C422.761 293.036 422.638 292.959 422.557 292.845L413.942 280.585C413.902 280.529 413.873 280.466 413.858 280.398C413.842 280.331 413.841 280.261 413.852 280.193C413.864 280.125 413.889 280.06 413.926 280.002C413.963 279.943 414.011 279.893 414.068 279.853L417.433 277.488C417.548 277.409 417.69 277.377 417.827 277.402C417.965 277.426 418.088 277.503 418.169 277.617L426.793 289.865C426.834 289.923 426.862 289.988 426.878 290.056C426.893 290.125 426.894 290.196 426.882 290.266C426.869 290.335 426.843 290.401 426.805 290.46C426.766 290.519 426.716 290.57 426.658 290.609Z" fill="#2B478B"/>
<path d="M414.354 279.672L412.382 281.057C412.201 281.184 412.157 281.435 412.285 281.616L421.048 294.079C421.176 294.261 421.426 294.304 421.608 294.177L423.579 292.792C423.76 292.664 423.804 292.414 423.677 292.233L414.913 279.769C414.786 279.588 414.535 279.544 414.354 279.672Z" fill="#233862"/>
<path d="M474.922 273.02C474.922 273.02 457.803 302.865 451.594 308.356L428.822 291.385C428.822 291.385 425.518 292.399 424.07 295.713C424.07 295.713 441.571 323.904 451.515 325.07C465.087 326.658 484.25 291.33 484.25 291.33L474.922 273.02Z" fill="#233862"/>
<path d="M506.907 476.512H516.789C518.032 475.838 519.134 474.291 519.491 471.982C519.975 468.797 523.546 467.062 524.32 464.454C525.094 461.846 521.133 458.184 521.133 458.184L520.471 457.331L519.782 456.452L513.218 457.999C513.218 457.999 513.054 459.561 512.957 461.55C512.871 463.067 512.861 464.587 512.928 466.104C513.121 469.576 511.958 473.318 508.868 473.995C506.596 474.478 506.699 475.832 506.907 476.512Z" fill="#2D4C7F"/>
<path d="M456.258 476.005H478.877C479.964 474.677 479.566 469.781 479.402 468.181C479.366 467.859 479.343 467.672 479.343 467.672C479.343 467.672 471.619 461.495 470.549 466.224C470.516 466.373 470.478 466.517 470.434 466.661C469.098 471.085 463.106 473.107 459.641 473.655C457.398 474.018 456.566 475.187 456.258 476.005Z" fill="#2D4C7F"/>
<path d="M460.566 349.803C460.566 349.803 461.739 364.43 463.12 382.01C464.993 405.893 467.244 435.232 467.467 440.788C467.854 450.439 469.399 465.875 469.399 465.875C469.399 465.875 473.066 469.543 480.404 467.999C480.404 467.999 486.944 445.962 488.811 422.645C488.84 422.264 488.87 421.877 488.899 421.493C490.637 397.759 493.337 347.775 493.337 347.775L460.566 349.803Z" fill="#F99746"/>
<path d="M460.566 349.803C460.566 349.803 461.739 364.43 463.12 382.01L488.811 422.645C488.84 422.264 488.87 421.877 488.899 421.493C490.637 397.759 493.337 347.775 493.337 347.775L460.566 349.803Z" fill="#ED7D2B"/>
<path d="M466.298 347.418C466.298 347.418 484.03 401.466 496.248 427.084C508.467 452.702 512.33 459.877 512.33 459.877C512.33 459.877 520.307 457.135 521.125 455.008C521.125 455.008 516.892 410.048 508.432 397.841C503.65 390.941 500.438 367.454 500.543 360.5C500.649 353.547 499.86 339.732 499.86 339.732L466.298 347.418Z" fill="#F99746"/>
<path d="M471.188 274.318C479.448 276.923 493.742 269.891 493.742 269.891C493.742 269.891 486.12 264.177 486.525 252.31L480.146 257.444L475.807 260.936C475.867 262.835 476.031 264.728 476.297 266.609C476.297 266.609 476.297 266.626 476.297 266.638C476.415 267.521 476.297 268.42 475.956 269.243C475.614 270.067 475.062 270.785 474.353 271.326C473.184 272.195 472.121 273.199 471.188 274.318Z" fill="#FFB27D"/>
<path d="M475.799 260.936C475.859 262.834 476.022 264.728 476.288 266.609C481.099 265.782 486.548 258.018 486.548 258.018C484.476 257.369 482.29 257.17 480.134 257.432L475.799 260.936Z" fill="#ED975D"/>
<path d="M473.271 260.743C473.271 260.743 486.917 263.008 488.198 254.493C489.479 245.978 492.103 240.534 483.443 238.726C474.784 236.918 472.597 239.916 471.48 242.652C470.363 245.389 469.753 259.934 473.271 260.743Z" fill="#FFB27D"/>
<path d="M459.655 351.021C459.899 351.233 460.211 351.351 460.534 351.353C463.636 351.309 472.682 353.031 480.336 352.246C486.786 351.628 492.502 349.715 498.635 346.972C499.45 346.609 501.323 345.61 501.273 344.698C501.247 343.702 501.147 342.258 501.021 340.438C500.587 334.109 499.831 323.224 500.569 310.668C500.701 308.324 500.772 306.009 500.78 303.727C500.842 286.709 497.468 271.739 490.682 266.673C490.095 266.26 486.545 267.997 483.277 269.603C480.257 271.092 477.939 271.238 475.069 270.661L471.516 273.198C468.039 276.421 464.234 280.817 462.581 287.465C461.171 293.129 460.344 303.343 459.889 313.929C459.684 318.726 459.517 323.564 459.476 328.155V328.319C459.435 328.773 459.435 329.271 459.435 329.726C459.283 341.51 459.45 350.854 459.655 351.021Z" fill="#2B478B"/>
<path d="M501.021 340.432C500.587 334.103 499.831 323.218 500.569 310.663C500.701 308.319 500.772 306.004 500.78 303.721C497.955 296.868 495.645 291.898 495.645 291.898H488.521C488.521 291.898 483.297 327.555 501.021 340.432Z" fill="#233862"/>
<path d="M488.207 253.672C488.207 253.672 486.809 253.438 487.035 251.51C487.26 249.582 487.257 247.062 485.689 247.534C484.121 248.006 484.042 249.257 483.4 248.524C482.758 247.792 482.743 244.715 478.076 244.49C473.409 244.264 471.515 245.896 469.343 244.944C467.171 243.991 467.06 240.707 467.06 240.707C467.06 240.707 467.678 241.879 468.61 242.254C468.61 242.254 464.99 237.305 469.179 233.909C473.368 230.513 477.645 232.737 480.069 232.886C485.414 233.209 488.864 233.528 490.623 237.038C492.382 240.549 491.637 250.309 488.207 253.672Z" fill="#2B478B"/>
<path d="M592.128 470.065C591.703 472.703 593.687 475.779 596.56 476.907C599.433 478.035 602.106 476.799 602.531 474.15C602.956 471.501 600.972 468.436 598.099 467.311C595.226 466.186 592.556 467.411 592.128 470.065Z" fill="#1C468A"/>
<path d="M555.654 470.133C555.229 472.77 557.213 475.843 560.086 476.972C562.959 478.1 565.633 476.866 566.058 474.214C566.483 471.563 564.498 468.504 561.625 467.376C558.752 466.247 556.07 467.481 555.654 470.133Z" fill="#1C468A"/>
<path d="M602.481 469.391L595.932 472.069C595.24 472.348 594.5 472.484 593.754 472.471L552.617 472.116L546.183 464.498L602.481 469.391Z" fill="#739AF0"/>
<path d="M560.362 381.284L544.62 358.247L544.6 358.204C544.5 357.998 541.991 353.07 528.667 351.728H528.606L517.633 350.245C516.212 349.988 512.119 349.525 510.305 350.468C509.496 350.887 509.191 351.561 509.373 352.519C509.73 354.433 520.19 369.373 527.131 378.949L525.079 379.467C523.297 377.009 507.64 355.358 507.124 352.604C506.854 351.163 507.417 350.067 508.807 349.352C511.785 347.811 517.522 348.766 518.132 348.874L528.955 350.339C543.301 351.79 546.461 357.219 546.781 357.843L562.467 380.8L560.362 381.284Z" fill="#1C468A"/>
<path d="M533.369 376.719L512.391 381.304C512.391 381.304 506.625 384.012 510.885 395.612C514.634 405.817 534.284 463.092 534.284 463.092C534.284 463.092 538.388 475.011 562.314 471.501L533.369 376.719Z" fill="#739AF0"/>
<path d="M525.141 392.503L547.57 456.642C548.501 459.244 549.969 461.621 551.879 463.619C555.397 467.323 560.204 469.716 564.924 469.737L585.491 469.825H585.998L598.882 469.881C600.1 469.893 601.312 469.727 602.482 469.388C602.743 469.315 602.992 469.23 603.238 469.139C607.301 467.616 609.772 463.891 609.869 459.318C609.887 457.191 609.469 455.083 608.641 453.123L583.553 391.759C580.877 385.216 574.393 380.205 567.8 379.587L564.08 379.238L563.2 379.156L562.456 379.089L550.026 377.917L548.502 377.776L536.506 376.654C534.778 376.472 533.03 376.645 531.37 377.161L531.077 377.263L530.462 377.504C525.241 379.725 522.767 385.708 525.141 392.503Z" fill="#83B0FF"/>
<g opacity="0.5">
<path opacity="0.5" d="M551.879 463.619C555.397 467.323 560.204 469.717 564.924 469.737L585.491 469.825H585.998L598.882 469.881C600.099 469.893 601.312 469.727 602.482 469.388C602.743 469.315 602.992 469.23 603.238 469.139C607.301 467.616 611.015 462.078 609.582 456.212C609.582 456.212 565.994 455.723 557.284 457.179C552.791 457.932 552.26 461.293 551.879 463.619Z" fill="#739AF0"/>
</g>
<path d="M562.446 379.092C562.552 379.147 573.603 385.078 576.198 390.305C578.865 395.676 603.548 458.283 603.798 458.931C603.818 458.981 605.606 465.034 601.872 469.552L602.481 469.391C602.742 469.318 602.991 469.233 603.238 469.142C606.635 464.454 604.63 459.057 604.536 458.819C603.519 456.235 579.587 395.53 576.904 390.115C574.559 385.377 566.621 380.662 564.079 379.241L563.2 379.159L562.446 379.092Z" fill="#739AF0"/>
<path d="M548.493 377.785C550.108 378.732 556.385 382.799 559.43 390.32C563.007 399.145 584.579 463.241 584.796 463.886L584.814 463.933L584.837 463.977C584.855 464.009 586.473 467.466 584.975 469.837H585.998C587.367 467.314 585.775 464.22 585.538 463.786C584.872 461.805 563.713 398.961 560.166 390.212C557.528 383.727 552.612 379.704 550.018 377.935L548.493 377.785Z" fill="#739AF0"/>
<path d="M530.447 377.513C532.078 378.377 533.6 379.434 534.979 380.66C537.862 383.23 540.118 386.425 541.575 390.001C545.152 398.82 565.613 462.705 565.815 463.347L565.83 463.4L565.856 463.443C565.877 463.476 567.058 467.384 565.563 469.74H566.859C567.917 467.587 566.821 463.704 566.566 463.244C565.912 461.193 545.864 398.624 542.317 389.872C538.984 381.644 532.684 377.879 531.368 377.164L531.075 377.267L530.447 377.513Z" fill="#739AF0"/>
<path d="M515.49 337.742C515.49 337.742 516.405 344.279 516.469 345.129C516.897 350.884 516.085 351.437 519.219 352.454C520.098 352.747 522.444 352.747 523.807 351.077C523.807 351.077 521.614 350.936 521.992 347.778C522.429 344.136 522.2 345.17 519.993 342.211L519.48 336.749L515.49 337.742Z" fill="#FFB27D"/>
<path d="M518.465 343.286C516.7 343.588 514.906 343.686 513.118 343.579C513.118 343.579 505.497 320.065 504.523 317.918C503.55 315.77 481.904 290.345 481.904 290.345L490.919 267.784C490.919 267.784 514.326 306.862 516.701 312.353C520.629 321.437 521.992 341.771 521.992 341.771C520.928 342.504 519.729 343.019 518.465 343.286Z" fill="#2B478B"/>
<path d="M516.469 345.129C516.469 345.129 515.915 346.565 515.898 347.239C515.836 349.399 515.235 350.398 515.605 350.588C516.399 350.981 517.193 349.293 517.495 347.828C517.797 346.363 516.469 345.129 516.469 345.129Z" fill="#FFB27D"/>
<path d="M356.807 199.806C356.807 199.458 356.704 199.118 356.51 198.829C356.317 198.54 356.042 198.315 355.721 198.182C355.4 198.049 355.046 198.014 354.705 198.082C354.364 198.149 354.05 198.317 353.804 198.563C353.558 198.809 353.391 199.122 353.323 199.463C353.255 199.804 353.29 200.157 353.423 200.479C353.556 200.8 353.782 201.075 354.071 201.268C354.36 201.461 354.7 201.564 355.048 201.564C355.514 201.564 355.962 201.379 356.292 201.049C356.621 200.719 356.807 200.272 356.807 199.806Z" fill="#163560"/>
<path d="M358.197 197.91C358.046 197.91 357.902 197.852 357.792 197.749C356.866 196.87 355.907 196.451 354.943 196.489C353.439 196.547 352.369 197.705 352.357 197.716C352.253 197.833 352.106 197.903 351.95 197.912C351.793 197.92 351.64 197.866 351.523 197.762C351.407 197.657 351.337 197.511 351.328 197.354C351.32 197.198 351.373 197.045 351.478 196.928C351.534 196.867 352.876 195.399 354.876 195.314C356.171 195.261 357.423 195.791 358.596 196.893C358.652 196.946 358.698 197.009 358.729 197.08C358.761 197.151 358.779 197.227 358.781 197.304C358.783 197.382 358.77 197.459 358.742 197.531C358.714 197.603 358.672 197.669 358.619 197.725C358.565 197.783 358.499 197.829 358.427 197.861C358.354 197.892 358.276 197.909 358.197 197.91Z" fill="#163560"/>
<path d="M360.035 195.361C359.886 195.361 359.742 195.304 359.633 195.202C358.091 193.752 356.488 193.046 354.864 193.113C352.337 193.213 350.555 195.147 350.537 195.164C350.433 195.281 350.286 195.351 350.13 195.36C349.973 195.368 349.82 195.314 349.703 195.21C349.587 195.105 349.516 194.959 349.508 194.802C349.499 194.646 349.553 194.493 349.658 194.376C349.743 194.282 351.774 192.061 354.799 191.935C356.758 191.853 358.654 192.662 360.437 194.344C360.523 194.424 360.582 194.529 360.608 194.644C360.634 194.759 360.624 194.879 360.58 194.989C360.537 195.098 360.461 195.192 360.363 195.258C360.265 195.324 360.15 195.358 360.032 195.358L360.035 195.361Z" fill="#163560"/>
<path d="M361.964 192.879C361.815 192.878 361.671 192.821 361.563 192.718C359.376 190.667 357.089 189.662 354.77 189.758C351.165 189.902 348.635 192.656 348.614 192.688C348.51 192.805 348.363 192.875 348.207 192.884C348.05 192.892 347.897 192.838 347.78 192.734C347.664 192.629 347.593 192.483 347.585 192.326C347.576 192.17 347.63 192.017 347.735 191.9C347.849 191.771 350.605 188.756 354.709 188.586C357.365 188.475 359.939 189.58 362.369 191.865C362.456 191.945 362.517 192.05 362.543 192.166C362.569 192.281 362.56 192.402 362.516 192.512C362.472 192.622 362.396 192.717 362.297 192.783C362.199 192.849 362.083 192.883 361.964 192.882V192.879Z" fill="#163560"/>
<path d="M241.859 192.337H230.368C230.165 192.337 229.97 192.257 229.827 192.113C229.683 191.97 229.603 191.775 229.603 191.572C229.603 191.37 229.683 191.175 229.827 191.032C229.97 190.888 230.165 190.808 230.368 190.808H241.859C242.062 190.808 242.257 190.888 242.4 191.032C242.544 191.175 242.624 191.37 242.624 191.572C242.624 191.775 242.544 191.97 242.4 192.113C242.257 192.257 242.062 192.337 241.859 192.337Z" fill="#163560"/>
<path d="M241.859 195.718H230.368C230.267 195.718 230.168 195.699 230.075 195.661C229.982 195.623 229.898 195.567 229.827 195.496C229.756 195.425 229.699 195.341 229.661 195.248C229.622 195.156 229.603 195.056 229.603 194.956C229.603 194.753 229.683 194.559 229.827 194.415C229.97 194.272 230.165 194.191 230.368 194.191H241.859C242.062 194.191 242.257 194.272 242.4 194.415C242.544 194.559 242.624 194.753 242.624 194.956C242.624 195.056 242.604 195.156 242.566 195.248C242.527 195.341 242.471 195.425 242.4 195.496C242.329 195.567 242.244 195.623 242.152 195.661C242.059 195.699 241.959 195.718 241.859 195.718Z" fill="#163560"/>
<path d="M241.859 199.325H230.368C230.267 199.325 230.168 199.306 230.075 199.268C229.982 199.23 229.898 199.174 229.827 199.103C229.756 199.032 229.699 198.948 229.661 198.855C229.622 198.763 229.603 198.663 229.603 198.563C229.603 198.36 229.683 198.166 229.827 198.022C229.97 197.879 230.165 197.798 230.368 197.798H241.859C242.062 197.798 242.257 197.879 242.4 198.022C242.544 198.166 242.624 198.36 242.624 198.563C242.624 198.663 242.604 198.763 242.566 198.855C242.527 198.948 242.471 199.032 242.4 199.103C242.329 199.174 242.244 199.23 242.152 199.268C242.059 199.306 241.959 199.325 241.859 199.325Z" fill="#163560"/>
<path d="M104.112 92.3767C104.112 92.3767 108.325 84.8347 118.403 85.6727C118.403 85.6727 133.031 73.1026 148.632 83.9967C148.632 83.9967 165.216 81.2981 177.498 86.3407C185.686 89.6986 188.392 93.2206 188.392 93.2206L104.112 92.3767Z" fill="#F8FCFF"/>
<path d="M173.002 60.4388C173.002 60.4388 182.383 43.6406 204.829 45.4954C204.829 45.4954 237.412 17.5013 272.159 41.7624C272.159 41.7624 309.095 35.7499 336.445 46.9692C354.685 54.4468 360.706 62.2936 360.706 62.2936L173.002 60.4388Z" fill="#F8FCFF"/>
<path d="M141.562 123.811C141.562 123.811 148.704 111.293 165.788 112.676C165.788 112.676 190.588 91.8141 217.033 109.896C217.033 109.896 245.146 105.416 265.965 113.772C279.845 119.339 284.433 125.2 284.433 125.2L141.562 123.811Z" fill="#F8FCFF"/>
<path d="M303.888 397.628C314.217 397.628 322.591 389.258 322.591 378.934C322.591 368.609 314.217 360.24 303.888 360.24C293.559 360.24 285.186 368.609 285.186 378.934C285.186 389.258 293.559 397.628 303.888 397.628Z" fill="#EBF2FF"/>
<path d="M275.823 381.55C276.363 397.666 304.352 422.484 304.352 422.484C304.352 422.484 330.618 395.837 330.078 379.737C329.539 363.636 316.957 350.984 301.975 351.485C286.992 351.986 275.29 365.461 275.823 381.55ZM286.91 379.467C286.804 376.307 287.638 373.186 289.306 370.5C290.974 367.813 293.402 365.682 296.283 364.374C299.163 363.067 302.367 362.643 305.488 363.156C308.61 363.669 311.509 365.095 313.82 367.255C316.13 369.415 317.748 372.211 318.469 375.29C319.189 378.368 318.98 381.592 317.868 384.552C316.755 387.512 314.79 390.076 312.22 391.919C309.65 393.763 306.59 394.803 303.429 394.909C299.193 395.041 295.077 393.49 291.982 390.596C288.887 387.702 287.066 383.7 286.916 379.467H286.91Z" fill="#F78E48"/>
</svg>
