<svg width="30" height="30" viewBox="0 0 30 30" fill="none" xmlns="http://www.w3.org/2000/svg">
<g clip-path="url(#clip0_208_14651)">
<path d="M27.1754 2.82851C24.0365 -0.313606 18.9472 -0.313606 15.8083 2.82851L15.2894 3.34795C15.1295 3.50796 14.8702 3.50796 14.7103 3.34795L14.1914 2.82851C11.9946 0.62954 8.84265 -0.0303931 6.0725 0.848482L4.61794 1.59776C4.61794 1.59776 3.64996 2.33573 3.15987 2.82641C0.631573 5.35751 0.225384 9.03296 1.77075 12.057C2.23617 12.9674 2.97426 13.6305 3.74721 14.3006L14.2813 23.5008C14.7204 23.882 15.3729 23.882 15.812 23.5008L17.4287 22.6578L26.7614 14.566C27.5343 13.8959 28.1849 13.0923 28.6505 12.1814C30.1957 9.15763 29.7041 5.35962 27.1754 2.82851V2.82851Z" fill="#FF7E7B"/>
<path d="M17.4288 22.6581L16.2455 23.6843L15.7648 24.1003C15.3261 24.4811 14.6733 24.4811 14.234 24.1003L3.23846 14.5663C2.46545 13.896 1.81443 13.0918 1.349 12.1814C-0.196483 9.15737 0.295596 5.35918 2.82354 2.82836C3.31392 2.3374 3.85141 1.92424 4.4224 1.58654L4.42352 1.58542C4.4258 1.58431 4.42861 1.58261 4.4309 1.58144C4.43318 1.57974 4.43488 1.57863 4.4377 1.57746C4.9593 1.2704 5.50745 1.0272 6.07218 0.848389C5.95184 0.955077 5.83332 1.06721 5.71813 1.1824C3.19019 3.71322 2.69811 7.51135 4.24359 10.5354C4.70902 11.4458 5.35998 12.25 6.13305 12.9203L17.4288 22.6581Z" fill="#F46969"/>
<path d="M19.0927 10.0513H16.6175C16.5852 10.0513 16.5591 10.0251 16.5591 9.99278V7.51757C16.5591 7.19463 16.2973 6.93286 15.9743 6.93286H14.0254C13.7024 6.93286 13.4407 7.19463 13.4407 7.51757V9.99278C13.4407 10.0251 13.4145 10.0513 13.3822 10.0513H10.907C10.584 10.0513 10.3223 10.313 10.3223 10.636V12.5849C10.3223 12.9079 10.584 13.1696 10.907 13.1696H13.3822C13.4145 13.1696 13.4407 13.1958 13.4407 13.2281V15.7033C13.4407 16.0263 13.7024 16.288 14.0254 16.288H15.9743C16.2973 16.288 16.5591 16.0263 16.5591 15.7033V13.2281C16.5591 13.1958 16.5852 13.1696 16.6175 13.1696H19.0927C19.4157 13.1696 19.6774 12.9079 19.6774 12.5849V10.636C19.6774 10.313 19.4156 10.0513 19.0927 10.0513V10.0513Z" fill="#F2FBFF"/>
<path d="M29.5297 23.0997C29.5297 19.5476 26.6501 16.668 23.098 16.668C21.6909 16.668 20.3894 17.1198 19.3306 17.8862C19.3306 17.8862 18.8625 18.3646 18.6111 18.6198C17.4673 19.7809 16.8955 21.3411 16.8955 23.0997C16.8955 26.6518 19.5618 29.2311 23.1139 29.2311C25.3115 29.2311 27.2884 28.2697 28.4439 26.6757C29.1562 25.6931 29.5297 24.4543 29.5297 23.0997V23.0997Z" fill="#F2FBFF"/>
<path d="M28.4436 26.6756C27.2906 28.3976 25.3266 29.5313 23.0977 29.5313C19.5457 29.5313 16.666 26.6517 16.666 23.0996C16.666 20.9544 17.716 19.0544 19.3304 17.8862C18.5379 18.9072 18.0536 20.1589 18.0536 21.4826C18.0536 25.0347 21.0392 28.0093 24.5912 28.0093C25.9986 28.0092 27.3207 27.558 28.4436 26.6756V26.6756Z" fill="#DFEEF4"/>
<path d="M24.9474 19.3113H21.2488C21.107 19.3113 20.9855 19.413 20.9613 19.5526C20.861 20.1311 20.4063 20.5879 19.829 20.6918C19.6903 20.7167 19.5898 20.838 19.5898 20.9788V22.9692C19.5898 24.2125 20.155 25.3885 21.126 26.1652L22.3675 27.1585C22.7946 27.5002 23.4015 27.5002 23.8286 27.1585L25.0702 26.1652C26.0411 25.3885 26.6063 24.2125 26.6063 22.9692V20.9788C26.6063 20.8379 26.5058 20.7167 26.3671 20.6918C25.7898 20.5879 25.3351 20.1311 25.2348 19.5526C25.2106 19.4129 25.0891 19.3113 24.9474 19.3113Z" fill="#BBF39B"/>
<path d="M23.9275 20.9543H22.2669C22.2063 20.9543 22.1573 21.0009 22.1505 21.0612C22.1014 21.4962 21.756 21.8339 21.3318 21.8824C21.2721 21.8892 21.2266 21.9383 21.2266 21.9983V22.9527C21.2266 23.6843 21.569 24.3738 22.1518 24.8159L23.0269 25.4798C23.0687 25.5115 23.1265 25.5115 23.1683 25.4798L24.0434 24.8159C24.6263 24.3738 24.9686 23.6842 24.9686 22.9527V21.9991C24.9686 21.9386 24.9223 21.8891 24.8621 21.8831C24.4241 21.839 24.0891 21.5229 24.0439 21.0621C24.0379 21.0015 23.9885 20.9543 23.9275 20.9543Z" fill="#9AE59C"/>
<path d="M3.62326 14.3377C2.86361 13.7086 2.14854 12.8388 1.71324 11.9757C0.204191 9.02283 0.765813 5.4618 3.11079 3.11448C4.54895 1.67486 6.46108 0.881992 8.49489 0.881992C10.5287 0.881992 12.4409 1.67486 13.879 3.11448L14.6891 3.9254C14.7716 4.00789 14.8834 4.05423 15 4.05423C15.1166 4.05423 15.2284 4.00789 15.3109 3.9254L16.121 3.11448C16.7751 2.4597 17.53 1.93605 18.3647 1.5581C18.5857 1.45803 18.6838 1.19766 18.5837 0.976552C18.4836 0.7555 18.2232 0.657366 18.0021 0.757551C17.0706 1.17938 16.2285 1.76339 15.4992 2.49333L15 2.99309L14.5007 2.49333C12.8966 0.887557 10.7637 0.00317383 8.49489 0.00317383C6.22608 0.00317383 4.09325 0.887557 2.48906 2.49333C1.19368 3.79006 0.36601 5.43128 0.0955689 7.23971C-0.169482 9.01199 0.119297 10.788 0.930621 12.3757C1.40565 13.3208 2.17262 14.2683 3.0474 15.0017C3.13053 15.0738 3.23306 15.1091 3.33512 15.1091C3.4581 15.1091 3.58043 15.0578 3.66726 14.9576C3.82626 14.7742 3.80658 14.4967 3.62326 14.3377V14.3377Z" fill="black"/>
<path d="M14.024 16.7299H15.9769C16.5422 16.7299 17.0022 16.2699 17.0022 15.7046V13.6052H19.1015C19.6668 13.6052 20.1268 13.1452 20.1268 12.5799V10.627C20.1268 10.0617 19.6668 9.60171 19.1015 9.60171H17.0022V7.50234C17.0022 6.93702 16.5422 6.47705 15.9769 6.47705H14.024C13.4587 6.47705 12.9987 6.93702 12.9987 7.50234V9.60171H10.8993C10.334 9.60171 9.87402 10.0617 9.87402 10.627V12.5799C9.87402 13.1452 10.334 13.6052 10.8993 13.6052H12.9987V15.7046C12.9987 16.2699 13.4586 16.7299 14.024 16.7299V16.7299ZM10.8993 12.7264C10.8185 12.7264 10.7528 12.6606 10.7528 12.5799V10.627C10.7528 10.5463 10.8185 10.4805 10.8993 10.4805H13.438C13.6807 10.4805 13.8774 10.2838 13.8774 10.0411V7.50234C13.8774 7.4216 13.9432 7.35587 14.0239 7.35587H15.9768C16.0575 7.35587 16.1233 7.4216 16.1233 7.50234V10.0411C16.1233 10.2838 16.32 10.4805 16.5627 10.4805H19.1015C19.1822 10.4805 19.2479 10.5463 19.2479 10.627V12.5799C19.2479 12.6606 19.1822 12.7264 19.1015 12.7264H16.5627C16.32 12.7264 16.1233 12.9231 16.1233 13.1658V15.7046C16.1233 15.7853 16.0575 15.851 15.9768 15.851H14.024C13.9432 15.851 13.8775 15.7853 13.8775 15.7046V13.1658C13.8775 12.9231 13.6808 12.7264 13.4381 12.7264H10.8993Z" fill="black"/>
<path d="M29.2226 21.009C28.9883 21.0722 28.8495 21.3133 28.9126 21.5476C29.4707 23.6191 28.8761 25.8472 27.361 27.3623C25.0195 29.7038 21.2098 29.7038 18.8683 27.3623C16.5268 25.0208 16.5268 21.211 18.8683 18.8696C21.2098 16.5281 25.0195 16.5281 27.361 18.8696C27.6492 19.1578 27.9082 19.4748 28.1307 19.8117C28.2644 20.0143 28.537 20.0699 28.7395 19.9362C28.942 19.8025 28.9978 19.5299 28.864 19.3274C28.609 18.9412 28.3123 18.5781 27.9824 18.2482C27.1685 17.4342 26.1997 16.8676 25.1701 16.5473L27.0737 14.8967C27.9168 14.1657 28.5884 13.3174 29.0697 12.3756C29.881 10.7879 30.1698 9.01189 29.9047 7.23961C29.6343 5.43118 28.8066 3.78996 27.5112 2.49323C25.5674 0.547472 22.787 -0.338317 20.0733 0.124117C19.8341 0.164894 19.6732 0.391863 19.7139 0.631077C19.7547 0.870291 19.9816 1.03141 20.2209 0.990455C22.6539 0.575887 25.1468 1.36999 26.8895 3.11438C29.2345 5.4617 29.7961 9.02278 28.287 11.9757C27.8573 12.8166 27.2554 13.576 26.498 14.2327L24.1065 16.3064C22.0297 16.0065 19.8413 16.6537 18.2469 18.2482C16.9006 19.5944 16.2298 21.3641 16.234 23.1324L15.4796 23.7866C15.2063 24.0235 14.7943 24.0235 14.521 23.7866L5.155 15.6655C4.97168 15.5066 4.69415 15.5263 4.53514 15.7096C4.37619 15.893 4.39594 16.1705 4.57926 16.3295L13.9452 24.4505C14.2459 24.7113 14.623 24.8416 15.0002 24.8416C15.3774 24.8416 15.7545 24.7112 16.0553 24.4505L16.3224 24.2189C16.5445 25.5982 17.1857 26.9225 18.2469 27.9837C19.5889 29.3257 21.3518 29.9967 23.1146 29.9967C24.8775 29.9967 26.6403 29.3257 27.9824 27.9837C29.7192 26.2468 30.4008 23.6931 29.7612 21.319C29.6981 21.0847 29.4568 20.9458 29.2226 21.009V21.009Z" fill="black"/>
<path d="M20.9114 26.5691L22.1075 27.5259C22.4038 27.763 22.7589 27.8815 23.114 27.8815C23.4691 27.8815 23.8242 27.763 24.1204 27.5259L25.3645 26.5306C26.4475 25.6642 27.0686 24.372 27.0686 22.9851V20.9907C27.0686 20.6361 26.8158 20.3333 26.4674 20.2706C26.0701 20.1991 25.7568 19.884 25.6878 19.4865C25.6269 19.1353 25.3238 18.8804 24.9669 18.8804H21.2608C20.904 18.8804 20.6007 19.1353 20.5399 19.4865C20.471 19.884 20.1577 20.1991 19.7604 20.2706C19.412 20.3333 19.1592 20.6361 19.1592 20.9907V22.9851C19.1592 23.6079 19.2843 24.2135 19.5312 24.7851C19.6274 25.0079 19.886 25.1105 20.1088 25.0143C20.3316 24.9181 20.4342 24.6595 20.338 24.4367C20.1389 23.9757 20.038 23.4874 20.038 22.9851V21.1093C20.6985 20.9434 21.2182 20.4206 21.3802 19.7593H24.8475C25.0095 20.4206 25.5292 20.9434 26.1897 21.1093V22.9851C26.1897 24.1036 25.6888 25.1458 24.8154 25.8445L23.5714 26.8397C23.302 27.0552 22.9257 27.0552 22.6563 26.8397L21.4603 25.8829C21.2707 25.7313 20.9942 25.7621 20.8426 25.9515C20.6912 26.141 20.7219 26.4175 20.9114 26.5691V26.5691Z" fill="black"/>
<path d="M21.9007 25.1857L22.8484 25.9047C22.927 25.9643 23.0205 25.9941 23.114 25.9941C23.2075 25.9941 23.3011 25.9643 23.3796 25.9047L24.3273 25.1857C25.0167 24.6628 25.4282 23.834 25.4282 22.9687V21.9022C25.4282 21.6595 25.2315 21.4628 24.9888 21.4628C24.6897 21.4628 24.4964 21.2679 24.4964 20.9663C24.4964 20.7236 24.2997 20.5269 24.057 20.5269H22.1711C21.9284 20.5269 21.7316 20.7236 21.7316 20.9663C21.7316 21.24 21.5107 21.4628 21.2392 21.4628C20.9965 21.4628 20.7998 21.6595 20.7998 21.9022V22.9687C20.7998 23.834 21.2114 24.6628 21.9007 25.1857V25.1857ZM21.6786 22.2693C22.0823 22.1319 22.4022 21.8108 22.5387 21.4057H23.6837C23.8151 21.8238 24.1329 22.1428 24.5494 22.2749V22.9687C24.5494 23.5607 24.2679 24.1278 23.7962 24.4856L23.114 25.0031L22.4319 24.4856C21.9602 24.1278 21.6786 23.5607 21.6786 22.9687V22.2693Z" fill="black"/>
</g>
<defs>
<clipPath id="clip0_208_14651">
<rect width="30" height="30" fill="white"/>
</clipPath>
</defs>
</svg>
