<svg width="50" height="50" viewBox="0 0 50 50" fill="none" xmlns="http://www.w3.org/2000/svg">
<g clip-path="url(#clip0_276_19749)">
<path d="M36.5799 19.828C36.5799 29.7279 28.5553 37.7525 18.6565 37.7525C18.0019 37.7525 17.3561 37.7171 16.7198 37.6484C7.73198 36.6833 0.733154 29.073 0.733154 19.828C0.733154 9.92928 8.75775 1.9043 18.6565 1.9043C27.1232 1.9043 34.2186 7.77473 36.0935 15.6666C36.4116 17.0029 36.5799 18.396 36.5799 19.828Z" fill="#FFC843"/>
<path d="M36.0936 15.667H28.1788V18.2816L26.3218 16.436L17.4752 25.2266L19.3135 27.0539H16.7195V37.6484C17.3562 37.7171 18.0016 37.753 18.6566 37.753C28.555 37.753 36.5799 29.728 36.5799 19.8281C36.5799 18.396 36.4117 17.0029 36.0936 15.667Z" fill="#FFB400"/>
<path d="M32.104 19.8282C32.104 27.2554 26.0837 33.2769 18.6565 33.2769C17.9984 33.2769 17.3515 33.23 16.7198 33.1384C10.2092 32.1996 5.20776 26.5974 5.20776 19.8282C5.20776 12.401 11.2293 6.38062 18.6565 6.38062C24.6311 6.38062 29.6954 10.2762 31.4468 15.6667C31.8736 16.9767 32.104 18.3755 32.104 19.8282Z" fill="white"/>
<path d="M31.4467 15.667H29.3231C28.691 15.667 28.1787 16.1793 28.1787 16.8118V18.2816L27.1285 17.2379C26.6822 16.7942 25.9612 16.7942 25.5149 17.2379L18.2921 24.4149C17.8416 24.8623 17.8416 25.5909 18.2921 26.0388L19.3137 27.0539H17.8641C17.232 27.0539 16.7197 27.5662 16.7197 28.1983V33.1383C17.3514 33.2299 17.9984 33.2768 18.6564 33.2768C26.0837 33.2768 32.104 27.2553 32.104 19.8281C32.104 18.3754 31.8736 16.9766 31.4467 15.667Z" fill="#E1EAF8"/>
<path d="M49.268 36.6386V29.9152H46.4112C46.1434 28.9706 45.7658 28.0723 45.2924 27.235L47.3141 25.2269L42.5278 20.4711L40.5064 22.4788C39.663 22.0092 38.7589 21.6335 37.8091 21.368V18.5291H31.0406V21.368C30.0893 21.6335 29.1867 22.0088 28.3421 22.4788L26.3219 20.4711L21.5356 25.2269L23.557 27.235C23.0836 28.0723 22.7059 28.9706 22.437 29.9152H19.5813V36.6386H22.437C22.7059 37.5831 23.0836 38.4814 23.557 39.3192L21.5356 41.3272L26.3219 46.0819L28.3421 44.0738C29.1867 44.5449 30.0893 44.9191 31.0406 45.1869V48.0247H37.8091V45.1869C38.7589 44.9191 39.663 44.5449 40.5064 44.0738L42.5278 46.0819L47.3141 41.3272L45.2924 39.3192C45.7658 38.4814 46.1434 37.5831 46.4112 36.6386H49.268ZM34.4247 38.7939C31.3676 38.7939 28.8895 36.3239 28.8895 33.2771C28.8895 30.2299 31.3676 27.7599 34.4247 27.7599C37.4818 27.7599 39.9586 30.2299 39.9586 33.2771C39.9586 36.3239 37.4818 38.7939 34.4247 38.7939Z" fill="#76FFD9"/>
<path d="M34.4246 24.6704C29.6711 24.6704 25.8179 28.5233 25.8179 33.2771C25.8179 38.0295 29.6711 41.8827 34.4246 41.8827C39.1773 41.8827 43.0302 38.0295 43.0302 33.2771C43.0302 28.5233 39.1773 24.6704 34.4246 24.6704ZM34.4246 38.7939C31.3675 38.7939 28.8895 36.3239 28.8895 33.2771C28.8895 30.2299 31.3675 27.7599 34.4246 27.7599C37.4817 27.7599 39.9586 30.2299 39.9586 33.2771C39.9586 36.3239 37.4817 38.7939 34.4246 38.7939Z" fill="#5DE0BF"/>
<path d="M2.46162 25.6111C1.80016 23.7595 1.46484 21.814 1.46484 19.8284C1.46484 10.3489 9.17702 2.63672 18.6562 2.63672C22.551 2.63672 26.2238 3.90663 29.2778 6.30951C29.5956 6.55937 30.0564 6.50444 30.3062 6.18668C30.5565 5.86891 30.5016 5.4081 30.1834 5.15823C26.8692 2.55051 22.8828 1.17188 18.6562 1.17188C8.36907 1.17188 0 9.54132 0 19.8284C0 21.9822 0.363922 24.0936 1.08185 26.104C1.18904 26.4034 1.47095 26.5904 1.77155 26.5904C1.85356 26.5904 1.93672 26.5762 2.01798 26.5472C2.39906 26.4114 2.59743 25.9922 2.46162 25.6111Z" fill="#434C54"/>
<path d="M22.9788 19.8284C22.9788 19.4237 22.6508 19.096 22.2464 19.096H18.7957V11.4312C18.7957 11.0268 18.468 10.6987 18.0632 10.6987C17.6589 10.6987 17.3308 11.0268 17.3308 11.4312V19.8284C17.3308 20.2328 17.6589 20.5609 18.0632 20.5609H22.2464C22.6508 20.5609 22.9788 20.2328 22.9788 19.8284Z" fill="#969BA1"/>
<path d="M49.2676 29.1822H46.9521C46.7465 28.5604 46.4932 27.9538 46.1953 27.3694L47.8299 25.7459C47.9683 25.6086 48.0462 25.4216 48.0462 25.2267C48.0462 25.0314 47.9683 24.8445 47.8299 24.7068L43.044 19.9517C42.7582 19.6679 42.2974 19.6679 42.0117 19.9514L40.3721 21.5799C39.7805 21.2823 39.1678 21.0294 38.5415 20.8249V18.5292C38.5415 18.1245 38.2134 17.7968 37.809 17.7968H37.2025C36.7653 13.7941 35.0239 10.0022 32.2537 7.05425C31.9768 6.75937 31.5129 6.74488 31.2184 7.02182C30.9235 7.29915 30.909 7.76264 31.186 8.05751C33.7021 10.7351 35.2978 14.1679 35.7289 17.7968H31.0406C30.6359 17.7968 30.3082 18.1245 30.3082 18.5292V20.8245C29.6811 21.0294 29.0684 21.2819 28.4764 21.5799L26.838 19.9517C26.5523 19.6679 26.0911 19.6679 25.8057 19.9517L21.0198 24.7068C20.8813 24.8445 20.8035 25.0314 20.8035 25.2263C20.8035 25.4216 20.8813 25.6086 21.0198 25.7459L22.6532 27.369C22.3553 27.9535 22.1024 28.5604 21.8964 29.1822H19.5809C19.1765 29.1822 18.8485 29.5102 18.8485 29.9146V36.6388C18.8485 36.7768 18.8874 36.9054 18.9538 37.0156C18.855 37.0172 18.7558 37.0198 18.6566 37.0198C12.4936 37.0198 6.76656 33.69 3.7106 28.3296C3.51033 27.9782 3.06325 27.8558 2.71153 28.0561C2.3602 28.2563 2.23775 28.7038 2.43802 29.0551C5.75414 34.8714 11.9687 38.4847 18.6566 38.4847C19.8433 38.4847 21.0267 38.3714 22.184 38.1498C22.3259 38.5007 22.4812 38.8467 22.6532 39.1843L21.0198 40.8075C20.8813 40.9452 20.8035 41.1321 20.8035 41.327C20.8035 41.5219 20.8813 41.7093 21.0198 41.8466L25.8057 46.602C26.0911 46.8858 26.5526 46.8858 26.838 46.602L28.4764 44.9739C29.0665 45.271 29.6792 45.5239 30.3082 45.7296V48.0245C30.3082 48.4288 30.6363 48.7569 31.0406 48.7569H37.809C38.2138 48.7569 38.5415 48.4288 38.5415 48.0245V45.7296C39.1701 45.5239 39.7828 45.271 40.3725 44.9743L42.0117 46.6024C42.2974 46.8858 42.7586 46.8858 43.044 46.602L47.8299 41.847C47.9683 41.7093 48.0462 41.5223 48.0462 41.327C48.0462 41.1321 47.9683 40.9452 47.8299 40.8075L46.1957 39.1843C46.4936 38.5995 46.7469 37.993 46.9521 37.3712H49.2676C49.6724 37.3712 50.0001 37.0435 50.0001 36.6388V29.915C50.0001 29.5102 49.6724 29.1822 49.2676 29.1822ZM48.5352 35.9063H46.4112C46.0835 35.9063 45.7955 36.1238 45.7062 36.4389C45.4583 37.3147 45.1043 38.1627 44.6541 38.9589C44.492 39.2461 44.5416 39.6062 44.7758 39.8389L46.2746 41.3274L42.5278 45.0502L41.0222 43.5548C40.7906 43.3248 40.4343 43.2756 40.1494 43.4346C39.3494 43.881 38.4953 44.2331 37.6111 44.4814C37.2952 44.5703 37.0766 44.8583 37.0766 45.1867V47.2921H31.773V45.1867C31.773 44.8587 31.5548 44.5703 31.2386 44.4814C30.354 44.2334 29.4995 43.8813 28.6995 43.4346C28.4142 43.2756 28.0583 43.3244 27.8264 43.5548L26.3218 45.0498L22.575 41.327L24.0731 39.8385C24.3069 39.6062 24.3569 39.2457 24.1944 38.9585C23.7446 38.1623 23.3906 37.3147 23.1423 36.4389C23.053 36.1238 22.7654 35.9063 22.4377 35.9063H20.3137V30.647H22.4377C22.7654 30.647 23.053 30.4296 23.1423 30.1145C23.391 29.2375 23.745 28.3899 24.1944 27.5949C24.3569 27.3076 24.3069 26.9471 24.0731 26.7148L22.575 25.2263L26.3218 21.5036L27.8264 22.9985C28.0579 23.2286 28.4138 23.2774 28.6992 23.1187C29.5037 22.6709 30.3582 22.3191 31.2378 22.0731C31.5545 21.9846 31.773 21.6962 31.773 21.3678V19.2613H37.0766V21.3678C37.0766 21.6962 37.2952 21.9846 37.6118 22.0731C38.4911 22.3191 39.3452 22.6709 40.1501 23.1187C40.4347 23.2778 40.7906 23.2286 41.0222 22.9985L42.5278 21.5032L46.2746 25.2259L44.7758 26.7144C44.5416 26.9471 44.492 27.3072 44.6541 27.5949C45.1039 28.3899 45.4579 29.2375 45.7066 30.1145C45.7959 30.4296 46.0835 30.647 46.4112 30.647H48.5352V35.9063Z" fill="#434C54"/>
<path d="M34.4246 27.0276C30.9689 27.0276 28.1575 29.8314 28.1575 33.2772C28.1575 36.7234 30.9689 39.5268 34.4246 39.5268C35.2204 39.5268 35.9963 39.38 36.7299 39.09C37.1064 38.9413 37.291 38.5159 37.1422 38.1398C36.9938 37.7637 36.5681 37.5787 36.1924 37.7274C35.6301 37.9494 35.0358 38.062 34.4246 38.062C32.2918 38.062 30.4802 36.6689 29.8558 34.7482C32.0488 33.0987 33.8704 30.9663 35.1521 28.5474C37.4558 28.8976 39.2262 30.885 39.2262 33.2772C39.2262 34.2938 38.9107 35.2643 38.3133 36.0841C38.0753 36.411 38.1474 36.8691 38.4743 37.1072C38.8012 37.3456 39.2594 37.2735 39.4978 36.9466C40.2783 35.8746 40.691 34.6059 40.691 33.2772C40.691 29.8314 37.88 27.0276 34.4246 27.0276ZM29.6277 33.0632C29.7261 30.8541 31.334 29.0295 33.4469 28.5924C32.4414 30.2838 31.1444 31.8028 29.6277 33.0632Z" fill="#434C54"/>
<path d="M45.4312 14.1926V14.8583H44.7651C44.3608 14.8583 44.0327 15.186 44.0327 15.5907C44.0327 15.9955 44.3608 16.3231 44.7651 16.3231H45.4312V16.9888C45.4312 17.3935 45.7589 17.7216 46.1636 17.7216C46.568 17.7216 46.896 17.3935 46.896 16.9888V16.3231H47.5617C47.9664 16.3231 48.2941 15.9955 48.2941 15.5907C48.2941 15.186 47.9664 14.8583 47.5617 14.8583H46.896V14.1926C46.896 13.7879 46.568 13.4602 46.1636 13.4602C45.7589 13.4602 45.4312 13.7879 45.4312 14.1926Z" fill="#FFC843"/>
<path d="M37.4944 9.36464H38.1604V10.0307C38.1604 10.435 38.4881 10.7631 38.8929 10.7631C39.2972 10.7631 39.6253 10.435 39.6253 10.0307V9.36464H40.2909C40.6957 9.36464 41.0234 9.03696 41.0234 8.63222C41.0234 8.22786 40.6957 7.8998 40.2909 7.8998H39.6253V7.23413C39.6253 6.82939 39.2972 6.50171 38.8929 6.50171C38.4881 6.50171 38.1604 6.82939 38.1604 7.23413V7.8998H37.4944C37.0896 7.8998 36.762 8.22786 36.762 8.63222C36.762 9.03696 37.09 9.36464 37.4944 9.36464Z" fill="#FFC843"/>
<path d="M42.9009 5.6996H43.5669V6.36565C43.5669 6.77001 43.8946 7.09807 44.2993 7.09807C44.7037 7.09807 45.0318 6.77001 45.0318 6.36565V5.6996H45.6974C46.1022 5.6996 46.4299 5.37192 46.4299 4.96718C46.4299 4.56282 46.1022 4.23476 45.6974 4.23476H45.0318V3.56909C45.0318 3.16435 44.7037 2.83667 44.2993 2.83667C43.8946 2.83667 43.5669 3.16435 43.5669 3.56909V4.23476H42.9009C42.4965 4.23476 42.1685 4.56282 42.1685 4.96718C42.1685 5.37192 42.4965 5.6996 42.9009 5.6996Z" fill="#FFC843"/>
<path d="M6.60637 38.7667H5.94032V38.1011C5.94032 37.6963 5.61264 37.3687 5.2079 37.3687C4.80316 37.3687 4.47548 37.6963 4.47548 38.1011V38.7667H3.80981C3.40508 38.7667 3.07739 39.0944 3.07739 39.4992C3.07739 39.9039 3.40508 40.2316 3.80981 40.2316H4.47548V40.8972C4.47548 41.302 4.80316 41.6297 5.2079 41.6297C5.61264 41.6297 5.94032 41.302 5.94032 40.8972V40.2316H6.60637C7.01073 40.2316 7.33879 39.9039 7.33879 39.4992C7.33879 39.0944 7.01073 38.7667 6.60637 38.7667Z" fill="#FFC843"/>
</g>
<defs>
<clipPath id="clip0_276_19749">
<rect width="50" height="50" fill="white"/>
</clipPath>
</defs>
</svg>
