<svg width="50" height="50" viewBox="0 0 50 50" fill="none" xmlns="http://www.w3.org/2000/svg">
<path d="M41.4935 8.46111V39.8515C41.4935 41.5849 40.089 42.9906 38.3556 42.9906H6.29875C4.56535 42.9906 3.1604 41.5849 3.1604 39.8515V8.46111C3.1604 6.72771 4.56535 5.32275 6.29875 5.32275H38.3556C40.089 5.32275 41.4935 6.72733 41.4935 8.46111Z" fill="white"/>
<path d="M41.4935 36.9385V26.3989C35.7185 26.3989 31.0371 31.0803 31.0371 36.8554C31.0371 37.9769 31.2148 39.0572 31.5421 40.07H6.29952C4.56535 40.07 3.1604 38.6643 3.1604 36.9309V39.8515C3.1604 41.5856 4.56535 42.9906 6.29952 42.9906H38.3556C38.919 42.9906 39.4473 42.8414 39.9047 42.5812C40.8538 42.0411 41.4939 41.0218 41.4939 39.8515V36.9309C41.4939 36.9336 41.4935 36.9359 41.4935 36.9385Z" fill="#E1EAF8"/>
<path d="M3.1604 14.0708H41.4939V16.6125H3.1604V14.0708Z" fill="#E1EAF8"/>
<path d="M41.4939 8.461V14.0709H3.1604V8.461C3.1604 8.40721 3.16193 8.35342 3.16422 8.29964C3.24814 6.64063 4.61914 5.32227 6.29952 5.32227H38.3548C40.0352 5.32227 41.4062 6.64063 41.4901 8.29964C41.4924 8.35342 41.4939 8.40721 41.4939 8.461Z" fill="#FFB400"/>
<path d="M3.1604 11.3815V8.461C3.1604 6.72684 4.56535 5.32227 6.29951 5.32227H38.3548C40.0893 5.32227 41.4939 6.72684 41.4939 8.461V11.3815C41.4939 9.64813 40.0893 8.24242 38.3548 8.24242H6.29951C4.56535 8.24242 3.1604 9.64813 3.1604 11.3815Z" fill="#FFC843"/>
<path d="M6.05736 24.1562H2.491C1.51978 24.1562 0.732422 23.3688 0.732422 22.398V21.1773C0.732422 20.2061 1.51978 19.4187 2.491 19.4187H6.05736C7.02858 19.4187 7.81555 20.2061 7.81555 21.1773V22.398C7.81555 23.3688 7.02858 24.1562 6.05736 24.1562Z" fill="#FFC843"/>
<path d="M7.81555 30.8372V32.0644C7.81555 33.0337 7.02973 33.8195 6.06041 33.8195H2.48756C1.51825 33.8195 0.732422 33.0337 0.732422 32.0644V30.8372C0.732422 29.8679 1.51825 29.082 2.48756 29.082H6.06079C7.03011 29.082 7.81555 29.8679 7.81555 30.8372Z" fill="#FFC843"/>
<path d="M7.81555 31.4507V32.0645C7.81555 33.0338 7.02973 33.8196 6.06041 33.8196H2.48756C1.51825 33.8196 0.732422 33.0338 0.732422 32.0645V31.4507H7.81555Z" fill="#FFB400"/>
<path d="M7.81555 21.7876V22.401C7.81555 23.3703 7.02973 24.1561 6.06041 24.1561H2.48756C1.51825 24.1561 0.732422 23.3703 0.732422 22.401V21.7876H7.81555Z" fill="#FFB400"/>
<path d="M9.96509 35.604H13.9545V39.5934H9.96509V35.604Z" fill="#76FFD9"/>
<path d="M17.7056 35.604H21.695V39.5934H17.7056V35.604Z" fill="#76FFD9"/>
<path d="M25.4458 35.604H29.4352V39.5934H25.4458V35.604Z" fill="#76FFD9"/>
<path d="M49.2674 36.8556C49.2674 41.1487 45.7869 44.6292 41.4938 44.6292C37.2004 44.6292 33.7202 41.1487 33.7202 36.8556C33.7202 32.5622 37.2004 29.082 41.4938 29.082C45.7869 29.082 49.2674 32.5622 49.2674 36.8556Z" fill="#5DE0BF"/>
<path d="M47.3234 36.8556C47.3234 40.0752 44.7134 42.6853 41.4938 42.6853C38.2742 42.6853 35.6638 40.0752 35.6638 36.8556C35.6638 33.636 38.2742 31.0256 41.4938 31.0256C44.7134 31.0256 47.3234 33.636 47.3234 36.8556Z" fill="#76FFD9"/>
<path d="M19.249 30.8105V19.4187C19.249 19.014 18.9213 18.6863 18.5166 18.6863C18.1122 18.6863 17.7842 19.014 17.7842 19.4187V30.8105C17.7842 31.2149 18.1122 31.543 18.5166 31.543C18.9213 31.543 19.249 31.2149 19.249 30.8105Z" fill="#969BA1"/>
<path d="M27.6972 18.6863H21.6948C21.2905 18.6863 20.9624 19.014 20.9624 19.4187C20.9624 19.8234 21.2905 20.1511 21.6948 20.1511H26.6989L23.4111 30.5904C23.2897 30.9761 23.5038 31.3873 23.8898 31.509C23.963 31.5319 24.037 31.543 24.1099 31.543C24.4212 31.543 24.71 31.3431 24.8084 31.0303L28.3961 19.6388C28.4659 19.4164 28.4262 19.1734 28.2881 18.9857C28.1501 18.7973 27.9307 18.6863 27.6972 18.6863Z" fill="#969BA1"/>
<path d="M46.9459 30.3264C46.6357 30.067 46.1738 30.1082 45.9144 30.4187C45.655 30.7289 45.6962 31.1908 46.0067 31.4502C47.6134 32.7934 48.5351 34.7637 48.5351 36.8556C48.5351 40.7382 45.3765 43.8968 41.4939 43.8968C37.6113 43.8968 34.4528 40.7382 34.4528 36.8556C34.4528 32.9734 37.6105 29.8149 41.4928 29.8145H41.4939H41.4954C42.0928 29.8145 42.6864 29.8896 43.2593 30.0373C43.6511 30.1391 44.0505 29.903 44.1516 29.5112C44.2527 29.1194 44.0169 28.72 43.6256 28.619C43.1678 28.5011 42.6993 28.4221 42.2263 28.3817V8.46099C42.2263 6.32667 40.4899 4.58984 38.3552 4.58984H6.29996C4.16488 4.58984 2.42767 6.32629 2.42767 8.46099V18.6878C1.08337 18.7217 0 19.825 0 21.1773V22.3976C0 23.7503 1.08337 24.8535 2.42767 24.887V28.3512C1.08337 28.3847 0 29.4879 0 30.8402V32.0609C0 33.4133 1.08337 34.5165 2.42767 34.55V39.8517C2.42767 41.986 4.16488 43.7225 6.29996 43.7225H8.49608C8.90043 43.7225 9.2285 43.3948 9.2285 42.99C9.2285 42.5857 8.90043 42.2576 8.49608 42.2576H6.29996C4.97245 42.2576 3.89251 41.1784 3.89251 39.8517V34.5516H6.05735C7.43063 34.5516 8.54796 33.4342 8.54796 32.0609V30.8402C8.54796 29.4666 7.43063 28.3493 6.05735 28.3493H3.89251V24.8886H6.05735C7.43063 24.8886 8.54796 23.7712 8.54796 22.3976V21.1769C8.54796 19.8036 7.43063 18.6863 6.05735 18.6863H3.89251V8.46099C3.89251 7.13424 4.97245 6.05468 6.29996 6.05468H38.3556C39.6823 6.05468 40.7615 7.13424 40.7615 8.46099V28.3813C36.4127 28.754 32.9879 32.4119 32.9879 36.8556C32.9879 38.9053 33.7165 40.7878 34.9284 42.2576H11.708C11.3033 42.2576 10.9756 42.5857 10.9756 42.99C10.9756 43.3948 11.3033 43.7225 11.708 43.7225H36.4806C37.8875 44.7524 39.6209 45.3616 41.4939 45.3616C46.1841 45.3616 49.9999 41.5458 49.9999 36.8556C49.9999 34.3284 48.8868 31.9484 46.9459 30.3264ZM6.05735 29.8141C6.62306 29.8141 7.08312 30.2745 7.08312 30.8402V32.0609C7.08312 32.6267 6.62306 33.0871 6.05735 33.0871H2.49099C1.92527 33.0871 1.46484 32.6267 1.46484 32.0609V30.8402C1.46484 30.2745 1.92527 29.8141 2.49099 29.8141H6.05735ZM6.05735 20.1511C6.62306 20.1511 7.08312 20.6112 7.08312 21.1773V22.3976C7.08312 22.9637 6.62306 23.4237 6.05735 23.4237H2.49099C1.92527 23.4237 1.46484 22.9637 1.46484 22.3976V21.1773C1.46484 20.6112 1.92527 20.1511 2.49099 20.1511H6.05735Z" fill="#434C54"/>
<path d="M40.7614 31.8923V35.0875L40.1323 34.4585C39.8462 34.1724 39.3824 34.1724 39.0967 34.4585C38.8106 34.7446 38.8106 35.2084 39.0967 35.4942L40.9758 37.3737C41.1162 37.5137 41.3035 37.5881 41.4938 37.5881C41.5884 37.5881 41.6834 37.5697 41.7742 37.5324C42.0477 37.4191 42.2262 37.1517 42.2262 36.8556V31.8923C42.2262 31.4876 41.8982 31.1599 41.4938 31.1599C41.0895 31.1599 40.7614 31.4876 40.7614 31.8923Z" fill="#434C54"/>
</svg>
