<svg width="24" height="24" viewBox="0 0 24 24" fill="none" xmlns="http://www.w3.org/2000/svg">
<path d="M18.9566 5.29501C21.2154 8.63655 22.3309 12.4057 21.9139 16.7449C21.9121 16.7633 21.9026 16.7801 21.8876 16.7912C20.1771 18.0549 18.5199 18.8219 16.8859 19.3305C16.8732 19.3344 16.8596 19.3342 16.847 19.3299C16.8344 19.3256 16.8234 19.3175 16.8157 19.3066C16.4382 18.7781 16.0952 18.221 15.7947 17.6359C15.7774 17.6014 15.7932 17.5599 15.8287 17.5463C16.3734 17.3398 16.8914 17.0923 17.3896 16.7992C17.4289 16.7761 17.4314 16.7195 17.3951 16.6923C17.2894 16.6133 17.1846 16.5303 17.0844 16.4473C17.0656 16.432 17.0404 16.4289 17.0192 16.4393C13.7844 17.9422 10.2409 17.9422 6.96792 16.4393C6.94667 16.4297 6.92142 16.433 6.90317 16.4481C6.80317 16.5311 6.69817 16.6133 6.59342 16.6923C6.55717 16.7195 6.56017 16.7761 6.59967 16.7992C7.09792 17.0867 7.61592 17.3398 8.15991 17.5473C8.19516 17.5609 8.21192 17.6014 8.19442 17.6359C7.90042 18.2217 7.55742 18.7789 7.17292 19.3074C7.15617 19.3288 7.12867 19.3386 7.10267 19.3305C5.47642 18.8219 3.81917 18.0549 2.10868 16.7912C2.09443 16.7801 2.08418 16.7625 2.08268 16.7441C1.73418 12.9908 2.44442 9.19046 5.03717 5.29426C5.04342 5.28395 5.05292 5.2759 5.06392 5.27112C6.33967 4.682 7.70642 4.24858 9.13491 4.00106C9.16091 3.99704 9.18691 4.00911 9.20041 4.03225C9.37691 4.34668 9.57866 4.74991 9.71516 5.07944C11.2209 4.84802 12.7502 4.84802 14.2874 5.07944C14.4239 4.75696 14.6187 4.34668 14.7944 4.03225C14.8007 4.02077 14.8104 4.01157 14.8221 4.00597C14.8339 4.00037 14.8471 3.99865 14.8599 4.00106C16.2892 4.24934 17.6559 4.68275 18.9306 5.27112C18.9419 5.2759 18.9511 5.28395 18.9566 5.29501V5.29501ZM10.4807 12.4314C10.4964 11.3218 9.69241 10.4037 8.68316 10.4037C7.68217 10.4037 6.88592 11.3138 6.88592 12.4314C6.88592 13.5487 7.69792 14.4588 8.68316 14.4588C9.68441 14.4588 10.4807 13.5487 10.4807 12.4314V12.4314ZM17.1261 12.4314C17.1419 11.3218 16.3379 10.4037 15.3289 10.4037C14.3277 10.4037 13.5314 11.3138 13.5314 12.4314C13.5314 13.5487 14.3434 14.4588 15.3289 14.4588C16.3379 14.4588 17.1261 13.5487 17.1261 12.4314V12.4314Z" fill="#5865F2"/>
</svg>
