<svg width="24" height="24" viewBox="0 0 24 24" fill="none" xmlns="http://www.w3.org/2000/svg">
<path d="M12.0109 2.66479C17.1732 2.66479 21.35 6.84157 21.35 11.996C21.35 17.1505 17.1732 21.3351 12.0109 21.3351C6.84865 21.3351 2.67188 17.1583 2.67188 12.0039C2.67188 6.84939 6.84865 2.66479 12.0109 2.66479Z" fill="#E74D89"/>
<path d="M12.0117 22C6.48964 22 2 17.5182 2 12.0039C2 6.48182 6.48964 2 12.0117 2C17.5338 2 22.0235 6.48182 22.0235 11.9961C22.0235 17.5104 17.5338 22 12.0117 22ZM20.4513 13.3649C20.1619 13.271 17.8076 12.5749 15.1248 12.9973C16.2433 16.0634 16.6969 18.5663 16.7829 19.0825C18.7071 17.7919 20.0759 15.7427 20.4513 13.3649ZM15.3516 19.8725C15.2264 19.1216 14.7259 16.5092 13.5291 13.3962C13.5135 13.404 13.49 13.4118 13.4744 13.4118C8.64842 15.0935 6.91983 18.4333 6.76339 18.7462C8.2104 19.8725 10.0329 20.5452 12.0117 20.5452C13.1928 20.553 14.3269 20.3105 15.3516 19.8725ZM5.66054 17.7215C5.85608 17.393 8.20258 13.5135 12.614 12.0821C12.7235 12.043 12.8408 12.0117 12.9503 11.9804C12.7391 11.4955 12.5045 11.0106 12.2542 10.5334C7.98357 11.8084 3.83809 11.7536 3.46265 11.7458C3.46265 11.8318 3.45483 11.9179 3.45483 12.0039C3.46265 14.2018 4.29175 16.2041 5.66054 17.7215ZM3.64255 10.2597C4.02581 10.2675 7.54556 10.2831 11.5503 9.2194C10.1345 6.70082 8.60149 4.58897 8.38248 4.28393C5.98123 5.41025 4.19789 7.61596 3.64255 10.2597ZM10.0094 3.70512C10.244 4.01799 11.8005 6.12984 13.2006 8.70317C16.2433 7.5612 17.526 5.84044 17.6824 5.62143C16.1729 4.28393 14.1862 3.47047 12.0117 3.47047C11.3234 3.47047 10.6508 3.55651 10.0094 3.70512ZM18.6289 6.60696C18.449 6.84943 17.0176 8.68752 13.8576 9.9781C14.0532 10.3848 14.2487 10.7994 14.4286 11.2139C14.4912 11.3625 14.5538 11.5111 14.6163 11.6519C17.4634 11.2921 20.2871 11.8709 20.5686 11.9257C20.5452 9.91553 19.8256 8.06179 18.6289 6.60696Z" fill="#B2215A"/>
</svg>
