<svg width="24" height="24" viewBox="0 0 24 24" fill="none" xmlns="http://www.w3.org/2000/svg">
<path d="M2 3.43266C2 2.64187 2.66203 2 3.47812 2H20.5219C21.3383 2 22 2.64187 22 3.43266V20.5676C22 21.3586 21.3383 22 20.5219 22H3.47812C2.66211 22 2 21.3587 2 20.5678V3.43242V3.43266Z" fill="#006699"/>
<path d="M8.0776 18.7375V9.73341H5.08479V18.7375H8.07792H8.0776ZM6.58182 8.50427C7.62526 8.50427 8.27487 7.81287 8.27487 6.9488C8.25534 6.06505 7.62526 5.39294 6.60167 5.39294C5.57737 5.39294 4.90839 6.06505 4.90839 6.94873C4.90839 7.81279 5.55776 8.50419 6.56221 8.50419H6.58159L6.58182 8.50427ZM9.73417 18.7375H12.7267V13.7097C12.7267 13.441 12.7463 13.1715 12.8253 12.9796C13.0416 12.4417 13.534 11.8849 14.361 11.8849C15.4436 11.8849 15.877 12.7105 15.877 13.9211V18.7375H18.8695V13.5748C18.8695 10.8093 17.3932 9.52232 15.4242 9.52232C13.8099 9.52232 13.101 10.4246 12.7071 11.0391H12.727V9.73373H9.73432C9.77339 10.5784 9.73409 18.7378 9.73409 18.7378L9.73417 18.7375Z" fill="white"/>
</svg>
