<svg width="143" height="50" viewBox="0 0 143 50" fill="none" xmlns="http://www.w3.org/2000/svg">
<path d="M75.816 27.24H81.016C80.86 27.7773 80.6347 28.2887 80.34 28.774C80.0627 29.242 79.7073 29.658 79.274 30.022C78.8407 30.3687 78.3293 30.646 77.74 30.854C77.168 31.0447 76.5093 31.14 75.764 31.14C74.9147 31.14 74.126 30.9927 73.398 30.698C72.6873 30.4033 72.0633 29.9873 71.526 29.45C70.9887 28.8953 70.5727 28.2367 70.278 27.474C69.9833 26.7113 69.836 25.8533 69.836 24.9C69.836 23.9467 69.9833 23.0973 70.278 22.352C70.59 21.5893 71.0147 20.9393 71.552 20.402C72.1067 19.8647 72.7393 19.4573 73.45 19.18C74.178 18.9027 74.9493 18.764 75.764 18.764C76.9427 18.764 77.922 19.024 78.702 19.544C79.4993 20.0467 80.132 20.688 80.6 21.468L83.798 19.596C83.2433 18.7467 82.576 18.0187 81.796 17.412C81.016 16.788 80.1233 16.3027 79.118 15.956C78.1127 15.6093 76.9947 15.436 75.764 15.436C74.3427 15.436 73.034 15.6613 71.838 16.112C70.642 16.5627 69.602 17.204 68.718 18.036C67.834 18.868 67.1493 19.8647 66.664 21.026C66.196 22.1873 65.962 23.4787 65.962 24.9C65.962 26.304 66.196 27.5953 66.664 28.774C67.132 29.9527 67.7993 30.9667 68.666 31.816C69.5327 32.6653 70.5553 33.324 71.734 33.792C72.93 34.2427 74.2387 34.468 75.66 34.468C77.168 34.468 78.5027 34.1993 79.664 33.662C80.8253 33.1247 81.796 32.388 82.576 31.452C83.356 30.516 83.9367 29.4327 84.318 28.202C84.6993 26.9713 84.864 25.6627 84.812 24.276H75.816V27.24ZM86.7037 28.02C86.7037 29.2507 86.9897 30.3427 87.5617 31.296C88.151 32.232 88.9397 32.96 89.9277 33.48C90.933 34 92.0684 34.26 93.3337 34.26C94.599 34.26 95.7344 34 96.7397 33.48C97.745 32.96 98.5337 32.232 99.1057 31.296C99.695 30.3427 99.9897 29.2507 99.9897 28.02C99.9897 26.772 99.695 25.68 99.1057 24.744C98.5337 23.808 97.745 23.08 96.7397 22.56C95.7344 22.04 94.599 21.78 93.3337 21.78C92.0684 21.78 90.933 22.04 89.9277 22.56C88.9397 23.08 88.151 23.808 87.5617 24.744C86.9897 25.68 86.7037 26.772 86.7037 28.02ZM90.1617 28.02C90.1617 27.344 90.3004 26.7547 90.5777 26.252C90.8724 25.732 91.2537 25.3333 91.7217 25.056C92.1897 24.7787 92.727 24.64 93.3337 24.64C93.923 24.64 94.4517 24.7787 94.9197 25.056C95.405 25.3333 95.7864 25.732 96.0637 26.252C96.3584 26.772 96.5057 27.3613 96.5057 28.02C96.5057 28.696 96.3584 29.2853 96.0637 29.788C95.7864 30.2907 95.405 30.6893 94.9197 30.984C94.4517 31.2613 93.923 31.4 93.3337 31.4C92.727 31.4 92.1897 31.2613 91.7217 30.984C91.2537 30.6893 90.8724 30.2907 90.5777 29.788C90.3004 29.268 90.1617 28.6787 90.1617 28.02ZM98.4183 19.18H103.28V34H107.024V19.18H111.938V15.8H98.4183V19.18ZM114.984 22.04H111.656V34H114.984V22.04ZM118.494 25.576L120.028 22.69C119.803 22.3953 119.491 22.17 119.092 22.014C118.694 21.858 118.278 21.78 117.844 21.78C117.203 21.78 116.588 21.9967 115.998 22.43C115.426 22.8633 114.958 23.4527 114.594 24.198C114.23 24.926 114.048 25.7667 114.048 26.72L114.984 27.682C114.984 27.11 115.054 26.6247 115.192 26.226C115.348 25.81 115.574 25.4893 115.868 25.264C116.163 25.0387 116.518 24.926 116.934 24.926C117.281 24.926 117.567 24.9867 117.792 25.108C118.035 25.212 118.269 25.368 118.494 25.576ZM121.657 17.412C121.657 17.9493 121.848 18.4 122.229 18.764C122.61 19.128 123.087 19.31 123.659 19.31C124.231 19.31 124.708 19.128 125.089 18.764C125.488 18.4 125.687 17.9493 125.687 17.412C125.687 16.8573 125.488 16.398 125.089 16.034C124.708 15.67 124.231 15.488 123.659 15.488C123.087 15.488 122.61 15.67 122.229 16.034C121.848 16.398 121.657 16.8573 121.657 17.412ZM122.021 22.04V34H125.271V22.04H122.021ZM132.174 39.72V22.04H128.794V39.72H132.174ZM142.002 28.02C142.002 26.6507 141.724 25.498 141.17 24.562C140.632 23.6087 139.922 22.8893 139.038 22.404C138.171 21.9187 137.235 21.676 136.23 21.676C135.45 21.676 134.748 21.8233 134.124 22.118C133.517 22.4127 132.997 22.8373 132.564 23.392C132.13 23.9467 131.801 24.614 131.576 25.394C131.35 26.174 131.238 27.0493 131.238 28.02C131.238 28.9907 131.35 29.866 131.576 30.646C131.801 31.426 132.13 32.0933 132.564 32.648C132.997 33.2027 133.517 33.6273 134.124 33.922C134.748 34.1993 135.45 34.338 136.23 34.338C137.235 34.338 138.171 34.104 139.038 33.636C139.922 33.1507 140.632 32.44 141.17 31.504C141.724 30.5507 142.002 29.3893 142.002 28.02ZM138.466 28.02C138.466 28.7307 138.318 29.3373 138.024 29.84C137.729 30.3253 137.339 30.698 136.854 30.958C136.368 31.218 135.831 31.348 135.242 31.348C134.878 31.348 134.514 31.2787 134.15 31.14C133.786 31.0013 133.456 30.7933 133.162 30.516C132.867 30.2213 132.624 29.866 132.434 29.45C132.26 29.034 132.174 28.5573 132.174 28.02C132.174 27.4653 132.26 26.9887 132.434 26.59C132.624 26.174 132.867 25.8187 133.162 25.524C133.456 25.2293 133.786 25.0213 134.15 24.9C134.514 24.7613 134.878 24.692 135.242 24.692C135.831 24.692 136.368 24.822 136.854 25.082C137.339 25.342 137.729 25.7233 138.024 26.226C138.318 26.7113 138.466 27.3093 138.466 28.02Z" fill="#051036"/>
<rect width="50" height="50" rx="22" fill="#13357B"/>
<path d="M34.8363 21.8184C34.8363 16.4045 30.4316 12 25.0177 12C19.6037 12 15.1992 16.4045 15.1992 21.8184C15.1992 24.0649 16.7748 27.2512 19.8822 31.2891C20.8125 32.498 21.7363 33.5959 22.5085 34.4765V37.2262C22.5085 37.6535 22.8549 38 23.2824 38H26.7531C27.1806 38 27.527 37.6535 27.527 37.2262V34.4765C28.2992 33.5959 29.223 32.498 30.1533 31.2891C33.2607 27.2512 34.8363 24.0649 34.8363 21.8184ZM33.2887 21.8184C33.2887 23.9687 31.2878 27.2256 29.0968 30.1158H28.125C29.2986 26.5897 29.8932 23.8011 29.8932 21.8184C29.8932 19.2948 29.4422 16.9099 28.6229 15.1034C28.4668 14.7594 28.2998 14.4429 28.123 14.1532C31.1493 15.3835 33.2887 18.3556 33.2887 21.8184ZM25.9793 36.4524H24.0562V34.9571H25.9793V36.4524ZM26.409 33.4095H23.6329C23.1808 32.8929 22.6777 32.3032 22.1551 31.6637H22.9858C22.988 31.6637 22.9902 31.6638 22.9922 31.6638C22.9943 31.6638 27.8804 31.6637 27.8804 31.6637C27.375 32.2851 26.8773 32.8731 26.409 33.4095ZM25.0177 13.5476C25.7806 13.5476 26.5808 14.3476 27.2133 15.7425C27.9435 17.3527 28.3456 19.5105 28.3456 21.8184C28.3456 23.6971 27.7053 26.5597 26.4919 30.1158H23.5438C22.33 26.5593 21.6897 23.6977 21.6897 21.8184C21.6897 19.5105 22.092 17.3527 22.8222 15.7425C23.4547 14.3476 24.2549 13.5476 25.0177 13.5476ZM16.7469 21.8184C16.7469 18.3556 18.8862 15.3835 21.9125 14.1532C21.7357 14.4429 21.5685 14.7594 21.4126 15.1034C20.5933 16.9099 20.1423 19.2948 20.1423 21.8184C20.1423 23.8017 20.7368 26.5899 21.9103 30.1158H20.9337C18.1941 26.5159 16.7469 23.6499 16.7469 21.8184Z" fill="white"/>
</svg>
