<svg width="50" height="50" viewBox="0 0 50 50" fill="none" xmlns="http://www.w3.org/2000/svg">
<path d="M45.8769 39.1963H4.12317C2.27834 39.1963 0.782837 37.7008 0.782837 35.856V10.8037C0.782837 8.95889 2.27834 7.46338 4.12317 7.46338H45.8768C47.7216 7.46338 49.2171 8.95889 49.2171 10.8037V35.8559C49.2171 37.7007 47.7216 39.1963 45.8769 39.1963Z" fill="white"/>
<path d="M14.9791 28.3403C10.3671 28.3403 6.62842 32.0791 6.62842 36.6911C6.62842 37.5641 6.76338 38.4053 7.01191 39.1963H22.9464C23.1949 38.4053 23.3299 37.5641 23.3299 36.6911C23.3299 32.079 19.5911 28.3403 14.9791 28.3403Z" fill="#E4EAF8"/>
<path d="M25 35.8559H4.95823C4.49709 35.8559 4.12317 35.4819 4.12317 35.0208V11.6388C4.12317 11.1776 4.49709 10.8037 4.95823 10.8037H25C25.4611 10.8037 25.8351 11.1776 25.8351 11.6388V35.0208C25.8351 35.4819 25.4611 35.8559 25 35.8559Z" fill="#FFC850"/>
<path d="M6.67065 35.856H23.2876C22.8685 31.6361 19.3092 28.3403 14.979 28.3403C10.6489 28.3403 7.0897 31.6361 6.67065 35.856Z" fill="#FEA82F"/>
<path d="M21.6597 32.5155C22.1208 32.5155 22.4947 32.1416 22.4947 31.6805V29.5439C22.4947 28.8251 22.0347 28.1868 21.3527 27.9595L18.054 26.8599C17.7136 26.7464 17.4838 26.4282 17.483 26.0694L17.4799 24.5845C18.0012 24.3238 18.349 23.8103 18.3974 23.2294L18.5798 21.2409C18.9293 20.9348 19.1544 20.4905 19.1544 19.9895V14.979H13.3089C11.9253 14.979 10.8037 16.1006 10.8037 17.4842V19.9894C10.8037 20.4904 11.029 20.9348 11.3783 21.2408L11.5607 23.2293C11.6091 23.8101 11.9568 24.3237 12.4782 24.5844L12.4751 26.0693C12.4744 26.4281 12.2445 26.7464 11.9041 26.8598L8.60537 27.9594C7.92334 28.1867 7.46338 28.8249 7.46338 29.5438V31.6804C7.46338 32.1415 7.8373 32.5154 8.29844 32.5154H21.6597V32.5155Z" fill="white"/>
<path d="M8.29849 32.5157H21.6596C21.83 32.5157 21.9794 32.4521 22.1116 32.3645C20.6467 29.9551 18.0048 28.3403 14.9791 28.3403C11.9533 28.3403 9.31128 29.9551 7.84644 32.3645C7.97866 32.4521 8.12808 32.5157 8.29849 32.5157Z" fill="#E4EAF8"/>
<path d="M30.8455 23.3297C31.7679 23.3297 32.5156 22.582 32.5156 21.6596C32.5156 20.7372 31.7679 19.9895 30.8455 19.9895C29.9232 19.9895 29.1754 20.7372 29.1754 21.6596C29.1754 22.582 29.9232 23.3297 30.8455 23.3297Z" fill="#ABFFDB"/>
<path d="M37.5261 23.3297C38.4485 23.3297 39.1962 22.582 39.1962 21.6596C39.1962 20.7372 38.4485 19.9895 37.5261 19.9895C36.6037 19.9895 35.856 20.7372 35.856 21.6596C35.856 22.582 36.6037 23.3297 37.5261 23.3297Z" fill="#FFC850"/>
<path d="M44.2066 23.3297C45.129 23.3297 45.8767 22.582 45.8767 21.6596C45.8767 20.7372 45.129 19.9895 44.2066 19.9895C43.2842 19.9895 42.5365 20.7372 42.5365 21.6596C42.5365 22.582 43.2842 23.3297 44.2066 23.3297Z" fill="#FFC850"/>
<path d="M14.9791 42.5365C18.2074 42.5365 20.8246 39.9194 20.8246 36.691C20.8246 33.4626 18.2074 30.8455 14.9791 30.8455C11.7507 30.8455 9.13354 33.4626 9.13354 36.691C9.13354 39.9194 11.7507 42.5365 14.9791 42.5365Z" fill="#ABFFDB"/>
<path d="M45.8769 6.68066H4.12314C1.84971 6.68066 0 8.53037 0 10.8038V35.856C0 38.1294 1.84971 39.9791 4.12314 39.9791H9.22744C10.3716 41.9727 12.5203 43.3194 14.9791 43.3194C17.4379 43.3194 19.5866 41.9727 20.7308 39.9791H45.8768C48.1502 39.9791 49.9999 38.1294 49.9999 35.856V10.8038C50 8.53037 48.1503 6.68066 45.8769 6.68066ZM14.9791 41.7537C12.1876 41.7537 9.9165 39.4826 9.9165 36.6911C9.9165 33.8996 12.1876 31.6285 14.9791 31.6285C17.7706 31.6285 20.0417 33.8996 20.0417 36.6911C20.0418 39.4827 17.7707 41.7537 14.9791 41.7537ZM8.36748 36.6394C8.3541 37.233 8.42197 37.8303 8.5792 38.4135H4.12314C2.71299 38.4135 1.56572 37.2662 1.56572 35.8561V10.8038C1.56572 9.39365 2.71299 8.24639 4.12314 8.24639H45.8768C47.2869 8.24639 48.4342 9.39365 48.4342 10.8038V35.856C48.4342 37.2661 47.2869 38.4134 45.8768 38.4134C44.6424 38.4134 43.4082 38.4134 42.1738 38.4134C39.4394 38.4134 36.705 38.4134 33.9706 38.4134C31.1813 38.4134 28.3919 38.4134 25.6024 38.4134C24.6388 38.4134 23.6751 38.4134 22.7114 38.4134C22.4163 38.4134 22.1214 38.413 21.8263 38.4134C21.7587 38.4135 21.6147 38.4416 21.5534 38.4134C21.2934 38.2938 21.4729 38.0114 21.5189 37.7059C21.8645 35.4156 20.9316 32.9565 19.1143 31.5103C17.1081 29.9136 14.1408 29.6447 11.8775 30.8496C9.75781 31.978 8.42061 34.2797 8.36748 36.6394Z" fill="#474D54"/>
<path d="M16.9072 34.492L14.3569 37.2741L12.9832 36.0967C12.6548 35.8153 12.1608 35.8533 11.8793 36.1816C11.5979 36.5099 11.6359 37.0042 11.9642 37.2855L13.9127 38.9556C14.0601 39.0819 14.2414 39.1441 14.4219 39.1441C14.634 39.1441 14.8452 39.0584 14.9993 38.8902L18.0612 35.5499C18.3534 35.2312 18.3318 34.736 18.013 34.4438C17.6945 34.1516 17.1994 34.1732 16.9072 34.492Z" fill="#48C397"/>
<path d="M29.1754 13.2567H40.8664C41.2987 13.2567 41.6493 12.9063 41.6493 12.4738C41.6493 12.0415 41.2988 11.6909 40.8664 11.6909H29.1754C28.743 11.6909 28.3925 12.0414 28.3925 12.4738C28.3925 12.9063 28.7429 13.2567 29.1754 13.2567Z" fill="#ABB0B7"/>
<path d="M29.1754 16.5971H45.0418C45.4741 16.5971 45.8247 16.2466 45.8247 15.8142C45.8247 15.3817 45.4742 15.0312 45.0418 15.0312H29.1754C28.743 15.0312 28.3925 15.3817 28.3925 15.8142C28.3925 16.2466 28.7429 16.5971 29.1754 16.5971Z" fill="#ABB0B7"/>
<path d="M45.0418 26.7224H34.1859C33.7535 26.7224 33.403 27.0729 33.403 27.5053C33.403 27.9376 33.7534 28.2882 34.1859 28.2882H45.0418C45.4741 28.2882 45.8247 27.9377 45.8247 27.5053C45.8246 27.0729 45.4741 26.7224 45.0418 26.7224Z" fill="#ABB0B7"/>
<path d="M30.8455 26.7224H29.1754C28.743 26.7224 28.3925 27.0729 28.3925 27.5053C28.3925 27.9376 28.7429 28.2882 29.1754 28.2882H30.8455C31.2778 28.2882 31.6284 27.9377 31.6284 27.5053C31.6284 27.0729 31.2778 26.7224 30.8455 26.7224Z" fill="#ABB0B7"/>
<path d="M42.5366 30.0625H34.1859C33.7535 30.0625 33.403 30.413 33.403 30.8454C33.403 31.2777 33.7534 31.6283 34.1859 31.6283H42.5366C42.9689 31.6283 43.3195 31.2778 43.3195 30.8454C43.3195 30.4131 42.9689 30.0625 42.5366 30.0625Z" fill="#ABB0B7"/>
<path d="M30.8455 30.0625H29.1754C28.743 30.0625 28.3925 30.413 28.3925 30.8454C28.3925 31.2777 28.7429 31.6283 29.1754 31.6283H30.8455C31.2778 31.6283 31.6284 31.2778 31.6284 30.8454C31.6284 30.4131 31.2778 30.0625 30.8455 30.0625Z" fill="#ABB0B7"/>
<path d="M42.5366 33.4028H34.1859C33.7535 33.4028 33.403 33.7533 33.403 34.1857C33.403 34.6181 33.7534 34.9687 34.1859 34.9687H42.5366C42.9689 34.9687 43.3195 34.6182 43.3195 34.1857C43.3195 33.7533 42.9689 33.4028 42.5366 33.4028Z" fill="#ABB0B7"/>
<path d="M30.8455 33.4028H29.1754C28.743 33.4028 28.3925 33.7533 28.3925 34.1857C28.3925 34.6181 28.7429 34.9687 29.1754 34.9687H30.8455C31.2778 34.9687 31.6284 34.6182 31.6284 34.1857C31.6284 33.7533 31.2778 33.4028 30.8455 33.4028Z" fill="#ABB0B7"/>
</svg>
