<svg width="70" height="70" viewBox="0 0 70 70" fill="none" xmlns="http://www.w3.org/2000/svg">
<path d="M39.5011 46.2161C48.2004 46.2161 55.2526 39.1639 55.2526 30.4646C55.2526 21.7652 48.2004 14.713 39.5011 14.713C30.8017 14.713 23.7495 21.7652 23.7495 30.4646C23.7495 39.1639 30.8017 46.2161 39.5011 46.2161Z" fill="#F9BA48"/>
<path d="M62.8705 4.58709C54.9723 4.58709 47.2507 3.09966 39.9195 0.167776L39.5009 0L39.0835 0.167536C31.7512 3.09966 24.0294 4.58685 16.1312 4.58685H13.6232V28.2143H7.99777C6.13687 28.2143 4.62256 29.7286 4.62256 31.5895V50.7165C4.62256 52.5774 6.13687 54.092 7.99777 54.092H18.1236C18.1258 54.092 18.127 54.092 18.1292 54.092C20.7867 58.3144 24.4691 61.8022 28.8594 64.1955L39.5006 70L50.1418 64.1955C59.5409 59.0696 65.3781 49.2348 65.3781 38.5295V4.58709H62.8705ZM6.87254 50.7165V31.5895C6.87254 30.9695 7.37659 30.4645 7.99753 30.4645H18.1234C18.7443 30.4645 19.2484 30.9698 19.2484 31.5895V50.7165C19.2484 51.3365 18.7443 51.8417 18.1234 51.8417H7.99777C7.37659 51.8417 6.87254 51.3365 6.87254 50.7165ZM21.4991 33.8299C25.2559 33.6263 28.2498 30.5051 28.2498 26.699V20.9013C28.2498 19.3509 29.5111 18.0884 31.0626 18.0884C32.6141 18.0884 33.8754 19.3507 33.8754 20.9013V27.9827C33.8754 29.9717 35.4934 31.5897 37.4825 31.5897H45.7307C47.8784 31.5897 49.627 33.3371 49.627 35.486V47.9454C49.627 50.0944 47.8786 51.8417 45.7307 51.8417H29.1532C28.2598 51.8417 27.4318 51.3972 26.9356 50.6548C26.0221 49.2845 24.4929 48.4665 22.8459 48.4665H21.4991V33.8299ZM63.1281 38.5293C63.1281 48.4101 57.74 57.4885 49.0653 62.2196L39.5009 67.4368L29.9364 62.2196C26.0221 60.0841 22.7143 57.0092 20.2819 53.2896C20.9648 52.7157 21.4139 51.8833 21.4768 50.938C23.7472 54.8545 27.0168 58.0634 31.0144 60.2438L39.5011 64.8736L47.9879 60.2438C55.9391 55.9075 60.8783 47.5873 60.8783 38.5303V21.4636H58.6281V38.5305C58.6281 46.7628 54.1389 54.3272 46.9111 58.2684L39.5011 62.3099L32.0911 58.2684C28.9206 56.539 26.2573 54.0953 24.2558 51.1385C24.5697 51.3353 24.851 51.5851 25.0637 51.9037C25.9772 53.274 27.5064 54.092 29.1534 54.092H45.7309C49.1208 54.092 51.8774 51.3343 51.8774 47.9454V35.486C51.8774 32.0972 49.121 29.3395 45.7309 29.3395H37.4827C36.7346 29.3395 36.1259 28.7308 36.1259 27.9827V20.9013C36.1259 18.1098 33.8543 15.8382 31.0628 15.8382C28.2714 15.8382 25.9998 18.1098 25.9998 20.9013V26.6978C25.9998 29.2632 24.0095 31.349 21.4948 31.5504C21.4835 30.5728 21.0503 29.7017 20.3741 29.0921V11.2084C26.9087 10.8068 33.3366 9.47133 39.5009 7.23215C45.6654 9.47109 52.092 10.8066 58.6276 11.2084V12.463H60.8778V9.06737L59.8045 9.01793C52.9931 8.70638 46.2931 7.34712 39.8911 4.97881L39.5006 4.8336L39.1101 4.97761C32.707 7.34592 26.007 8.70518 19.1968 9.01673L18.1234 9.06737V28.2145H15.8732V6.83731H16.1307C24.1674 6.83731 32.0263 5.35205 39.5004 2.42232C46.9745 5.35205 54.8333 6.83731 62.87 6.83731H63.1276V38.5293H63.1281Z" fill="#333333"/>
<path d="M60.8777 16.9631H58.6274V19.2134H60.8777V16.9631Z" fill="#333333"/>
<path d="M16.9982 47.3413H9.12256V49.5915H16.9982V47.3413Z" fill="#333333"/>
</svg>
