<svg width="70" height="70" viewBox="0 0 70 70" fill="none" xmlns="http://www.w3.org/2000/svg">
<path d="M16.3789 18.5784H7.62891V13.125H16.3789V18.5784Z" fill="#F0BC5E"/>
<path d="M50.2852 42.6399C44.8569 42.6399 40.4414 38.2244 40.4414 32.7961C40.4414 27.3679 44.8569 22.9524 50.2852 22.9524C55.7134 22.9524 60.1289 27.369 60.1289 32.7961C60.1289 38.2233 55.7123 42.6399 50.2852 42.6399Z" fill="#F0BC5E"/>
<path d="M40.4414 15.2972H60.1289V19.6722H40.4414V15.2972Z" fill="#F0BC5E"/>
<path d="M24.8304 38.978L22.9404 38.5055V38.5044L16.3779 36.8638L14.1904 36.3169V33.8899H22.9404V12.0149H1.06543V33.8899H7.62793V40.7039C6.61402 39.876 5.33762 39.3586 3.92887 39.3586C2.35059 39.3586 1.06543 40.6438 1.06543 42.2221C1.06543 42.6618 1.17043 43.1047 1.3684 43.5039L2.67434 46.1191C3.05277 46.8738 3.25184 47.7193 3.25184 48.5636V53.4636C3.25184 55.1928 3.84684 56.8914 4.92965 58.2466L7.3709 61.296C6.1098 63.2363 5.43934 65.4796 5.43934 67.795V68.8888H25.1268V67.795C25.1268 65.4785 24.4575 63.2352 23.1964 61.2949L25.6387 58.2444C26.7193 56.8903 27.3143 55.1928 27.3143 53.4625V42.1619C27.3165 40.6547 26.295 39.3455 24.8304 38.978V38.978ZM3.25402 31.7035V14.2035H20.754V31.7035H14.1915V28.4222C14.1915 26.6132 12.7193 25.141 10.9103 25.141C9.10121 25.141 7.62902 26.6132 7.62902 28.4222V31.7035H3.25402ZM7.68918 66.7024C7.86199 65.1657 8.39793 63.6924 9.26527 62.3919L9.30793 62.3274H21.2615L21.3053 62.393C22.1715 63.6924 22.7064 65.1646 22.8792 66.7024H7.68918ZM25.129 53.4647C25.129 54.7007 24.7036 55.9136 23.9325 56.8805L21.3228 60.1399H9.24777L6.63918 56.8816C5.86699 55.9125 5.44043 54.6996 5.44043 53.4647V48.5647C5.44043 47.3824 5.16043 46.1978 4.63215 45.1413L3.3273 42.5283C3.27918 42.431 3.25402 42.326 3.25402 42.2232C3.25402 41.8502 3.55699 41.5472 3.92996 41.5472C5.96871 41.5472 7.62902 43.2075 7.62902 45.2474V47.016V50.2972H9.81652V47.016V45.2474V28.4222C9.81652 27.8196 10.3065 27.3285 10.9103 27.3285C11.514 27.3285 12.004 27.8196 12.004 28.4222V35.7711V50.2972H14.1915V38.5733L16.379 39.1202V50.2972H18.5665V39.6671L20.754 40.2139V50.2972H22.9415V40.7597L24.2989 41.0999C24.7878 41.2224 25.129 41.6599 25.129 42.163V53.4647Z" fill="black"/>
<path d="M63.4102 1.07849H37.1602C34.1447 1.07849 31.6914 3.53177 31.6914 6.54724V54.6722C31.6914 57.6877 34.1447 60.141 37.1602 60.141H63.4102C66.4256 60.141 68.8789 57.6877 68.8789 54.6722V6.54724C68.8789 3.53177 66.4245 1.07849 63.4102 1.07849V1.07849ZM44.8164 3.26599H55.7539V4.35974C55.7539 4.9624 55.2639 5.45349 54.6602 5.45349H45.9102C45.3064 5.45349 44.8164 4.9624 44.8164 4.35974V3.26599ZM66.6914 54.6711C66.6914 56.4802 65.2192 57.9524 63.4102 57.9524H37.1602C35.3511 57.9524 33.8789 56.4802 33.8789 54.6711V6.54615C33.8789 4.73708 35.3511 3.2649 37.1602 3.2649H42.6289V4.35865C42.6289 6.16771 44.1011 7.6399 45.9102 7.6399H54.6602C56.4692 7.6399 57.9414 6.16771 57.9414 4.35865V3.2649H63.4102C65.2192 3.2649 66.6914 4.73708 66.6914 6.54615V54.6711Z" fill="black"/>
<path d="M53.5664 49.2024H47.0039C45.7975 49.2024 44.8164 50.1835 44.8164 51.3899C44.8164 53.8027 46.7786 55.7649 49.1914 55.7649H51.3789C53.7917 55.7649 55.7539 53.8027 55.7539 51.3899C55.7539 50.1846 54.7717 49.2024 53.5664 49.2024ZM51.3789 53.5774H49.1914C47.985 53.5774 47.0039 52.5963 47.0039 51.3899H53.5664C53.5664 52.5963 52.5842 53.5774 51.3789 53.5774Z" fill="black"/>
<path d="M62.3164 9.82849H38.2539C37.0475 9.82849 36.0664 10.8096 36.0664 12.016V44.8285C36.0664 46.0349 37.0475 47.016 38.2539 47.016H62.3164C63.5228 47.016 64.5039 46.0349 64.5039 44.8285V12.016C64.5039 10.8096 63.5217 9.82849 62.3164 9.82849V9.82849ZM38.2539 44.8274V12.0149H62.3164L62.3186 44.8274H38.2539Z" fill="black"/>
<path d="M48.098 34.5319L46.6838 33.1177L45.1372 34.6642L48.098 37.625L55.4338 30.2892L53.8872 28.7427L48.098 34.5319Z" fill="black"/>
<path d="M40.4414 14.2035H60.1289V16.391H40.4414V14.2035Z" fill="black"/>
<path d="M40.4414 18.5785H60.1289V20.766H40.4414V18.5785Z" fill="black"/>
</svg>
