<svg width="60" height="60" viewBox="0 0 60 60" fill="none" xmlns="http://www.w3.org/2000/svg">
<path d="M42.5405 27.1388C43.1702 27.0862 43.7952 26.9864 44.41 26.8402C43.9392 26.7292 43.4753 26.5912 43.0205 26.4267C42.8679 26.6702 42.7062 26.9063 42.5405 27.1388Z" fill="#D4E1F4"/>
<path d="M11.7223 57.4323C11.7217 56.3128 12.1652 55.2388 12.9554 54.4457C13.7456 53.6527 14.818 53.2053 15.9375 53.2018V46.5498C15.9376 43.4503 16.9194 40.4304 18.742 37.9233C20.5646 35.4163 23.1344 33.5509 26.0828 32.5948C20.2148 30.7016 15.9375 25.1938 15.9375 18.7015V11.9876C14.8162 11.9805 13.7433 11.5297 12.9535 10.7338C12.1636 9.93791 11.7209 8.86167 11.7223 7.74035C11.7213 7.55362 11.7944 7.37412 11.9255 7.24119C12.0567 7.10827 12.2352 7.03277 12.4219 7.03125H6.5625C6.37578 7.03277 6.19727 7.10827 6.06613 7.24119C5.93498 7.37412 5.8619 7.55362 5.86289 7.74035C5.86154 8.86167 6.30419 9.93791 7.09408 10.7338C7.88397 11.5297 8.95684 11.9805 10.0781 11.9876V18.7015C10.0781 25.1937 14.3555 30.7015 20.2234 32.5948C17.275 33.5509 14.7052 35.4163 12.8826 37.9233C11.06 40.4304 10.0782 43.4503 10.0781 46.5498V53.2015C8.95862 53.205 7.88619 53.6523 7.096 54.4454C6.30581 55.2384 5.86236 56.3124 5.86289 57.432C5.86267 57.5236 5.88066 57.6143 5.91582 57.699C5.95098 57.7836 6.00261 57.8604 6.06771 57.9248C6.13281 57.9893 6.21007 58.0402 6.29501 58.0746C6.37996 58.109 6.47088 58.1261 6.5625 58.125H12.4219C12.3303 58.1261 12.2394 58.109 12.1545 58.0746C12.0696 58.0403 11.9923 57.9894 11.9272 57.925C11.8621 57.8605 11.8105 57.7838 11.7753 57.6992C11.7401 57.6146 11.7221 57.5239 11.7223 57.4323Z" fill="#D4E1F4"/>
<path d="M41.5078 21.1331C41.497 21.1331 41.4864 21.1315 41.4755 21.1315C41.4646 21.1315 41.4539 21.1326 41.443 21.1331C40.7168 21.1239 40.0234 20.8291 39.5128 20.3126C39.0022 19.7961 38.7154 19.0994 38.7145 18.3731C38.7157 18.2803 38.6985 18.1882 38.6638 18.1021C38.6291 18.016 38.5777 17.9376 38.5125 17.8716C38.4473 17.8055 38.3696 17.7531 38.2839 17.7173C38.1983 17.6815 38.1064 17.663 38.0136 17.663C37.9208 17.663 37.8289 17.6815 37.7432 17.7173C37.6576 17.7531 37.5799 17.8055 37.5147 17.8716C37.4495 17.9376 37.398 18.016 37.3634 18.1021C37.3287 18.1882 37.3114 18.2803 37.3126 18.3731C37.3097 19.3578 37.657 20.3115 38.2924 21.0637C38.9278 21.816 39.8099 22.3179 40.7813 22.4797V23.8977C40.7813 24.0842 40.8553 24.263 40.9872 24.3949C41.1191 24.5267 41.2979 24.6008 41.4844 24.6008C41.6709 24.6008 41.8497 24.5267 41.9816 24.3949C42.1134 24.263 42.1875 24.0842 42.1875 23.8977V22.4797C43.216 22.3022 44.1404 21.7452 44.778 20.9189C45.4156 20.0926 45.7198 19.0571 45.6307 18.0173C45.5415 16.9774 45.0653 16.0089 44.2964 15.3032C43.5274 14.5975 42.5216 14.2061 41.4779 14.2063C40.9318 14.2066 40.3979 14.045 39.9436 13.7419C39.4893 13.4388 39.1352 13.0077 38.9259 12.5033C38.7167 11.9988 38.6617 11.4437 38.7681 10.908C38.8744 10.3723 39.1372 9.88022 39.5232 9.49393C39.9092 9.10763 40.4012 8.8445 40.9368 8.73782C41.4724 8.63114 42.0276 8.68571 42.5321 8.89461C43.0367 9.10352 43.468 9.45738 43.7715 9.91143C44.0749 10.3655 44.2369 10.8993 44.2369 11.4455C44.2393 11.6309 44.3146 11.8079 44.4466 11.9382C44.5786 12.0685 44.7566 12.1416 44.9421 12.1416C45.1275 12.1416 45.3055 12.0685 45.4375 11.9382C45.5695 11.8079 45.6448 11.6309 45.6472 11.4455C45.652 10.4616 45.3066 9.50816 44.6727 8.75572C44.0388 8.00328 43.1579 7.50095 42.1875 7.33862V6.07803C42.1875 5.89155 42.1134 5.71271 41.9816 5.58085C41.8497 5.44899 41.6709 5.37491 41.4844 5.37491C41.2979 5.37491 41.1191 5.44899 40.9872 5.58085C40.8553 5.71271 40.7813 5.89155 40.7813 6.07803V7.33862C39.752 7.51379 38.8261 8.06901 38.1867 8.89436C37.5473 9.71972 37.2411 10.755 37.3287 11.7954C37.4163 12.8358 37.8913 13.8053 38.6597 14.5121C39.4281 15.2189 40.4339 15.6115 41.4779 15.6121C42.2084 15.6106 42.9096 15.8988 43.428 16.4133C43.9464 16.9279 44.2397 17.627 44.2437 18.3574C44.2477 19.0878 43.9621 19.7901 43.4493 20.3103C42.9366 20.8305 42.2386 21.1263 41.5082 21.1329L41.5078 21.1331Z" fill="#1AE5BE"/>
<path d="M10.0781 46.5498V53.2015C8.95861 53.205 7.88616 53.6523 7.09596 54.4453C6.30577 55.2384 5.86233 56.3124 5.86289 57.432C5.86267 57.5236 5.88066 57.6143 5.91582 57.699C5.95098 57.7836 6.00261 57.8604 6.06771 57.9248C6.13281 57.9893 6.21007 58.0402 6.29501 58.0746C6.37996 58.109 6.47088 58.1261 6.5625 58.125H42.8961C42.9876 58.126 43.0783 58.1089 43.1631 58.0745C43.2478 58.0401 43.3249 57.9892 43.3897 57.9247C43.4546 57.8602 43.506 57.7835 43.5408 57.6989C43.5757 57.6144 43.5934 57.5238 43.5929 57.4323C43.593 56.3124 43.1491 55.2382 42.3584 54.4451C41.5678 53.652 40.4949 53.2048 39.375 53.2015V46.4876C39.375 39.9914 35.0991 34.4814 29.2266 32.5911C32.7119 31.4688 35.6523 29.085 37.4713 25.9071L36.2514 25.2022C35.0967 27.2248 33.4288 28.9068 31.416 30.0784C29.4032 31.2501 27.1169 31.8698 24.788 31.875H24.6935C21.8966 31.8817 19.1698 31.0001 16.9062 29.3574C14.6425 27.7146 12.9589 25.3955 12.0981 22.7344H32.1094V21.3281H11.7347C11.5707 20.4603 11.487 19.5792 11.4844 18.696V11.9531H29.9568C30.1432 11.9531 30.3221 11.879 30.4539 11.7472C30.5858 11.6153 30.6599 11.4365 30.6599 11.25C30.6599 11.0635 30.5858 10.8847 30.4539 10.7528C30.3221 10.621 30.1432 10.5469 29.9568 10.5469H10.1016C8.78063 10.5469 7.6677 9.72656 7.35411 8.4375H31.6156C31.802 8.4375 31.9809 8.36342 32.1127 8.23156C32.2446 8.0997 32.3187 7.92086 32.3187 7.73438C32.3187 7.54789 32.2446 7.36905 32.1127 7.23719C31.9809 7.10533 31.802 7.03125 31.6156 7.03125H6.5625C6.37578 7.03277 6.19727 7.10827 6.06613 7.24119C5.93498 7.37412 5.8619 7.55362 5.86289 7.74035C5.86154 8.86167 6.30419 9.93791 7.09408 10.7338C7.88397 11.5297 8.95684 11.9805 10.0781 11.9876V18.7015C10.0856 21.7884 11.0683 24.794 12.8858 27.2891C14.7034 29.7841 17.2628 31.6411 20.1987 32.5949C17.2528 33.5519 14.6862 35.4182 12.8678 37.9256C11.0493 40.433 10.0727 43.4524 10.0781 46.5498ZM42.1048 56.7188H7.35387C7.52113 56.1167 7.8796 55.5854 8.37523 55.2049C8.87086 54.8244 9.47676 54.6154 10.1016 54.6094H39.3573C39.9821 54.6154 40.5879 54.8245 41.0835 55.205C41.5791 55.5855 41.9375 56.1168 42.1048 56.7188ZM15.9954 53.2031L21.7086 47.4231C22.467 46.6579 23.4978 46.2248 24.5751 46.2187C25.6524 46.2126 26.6881 46.634 27.455 47.3905L33.2013 53.2031H15.9954ZM24.6709 33.2812H24.7647C32.0391 33.2812 37.9688 39.2115 37.9688 46.4892V53.2031H35.1789L28.4875 46.4338L28.4441 46.3898C27.4115 45.3715 26.0172 44.8043 24.5669 44.8127C23.1167 44.8211 21.729 45.4045 20.7083 46.4347L14.0177 53.2031H11.4844V46.5482C11.4747 43.0406 12.8583 39.6727 15.331 37.1848C17.8037 34.697 21.1631 33.2929 24.6707 33.2812H24.6709Z" fill="#0635C9"/>
<path d="M41.4758 27.1839C43.9807 27.1839 46.4294 26.4411 48.5121 25.0494C50.5949 23.6577 52.2182 21.6797 53.1768 19.3654C54.1353 17.0512 54.3861 14.5047 53.8974 12.0479C53.4086 9.59114 52.2024 7.33447 50.4311 5.56327C48.6598 3.79207 46.4031 2.5859 43.9463 2.09729C41.4895 1.60868 38.943 1.85957 36.6288 2.81824C34.3146 3.77691 32.3366 5.40029 30.9451 7.4831C29.5535 9.56592 28.8108 12.0146 28.8109 14.5195C28.8148 17.8772 30.1504 21.0963 32.5247 23.4704C34.899 25.8446 38.1181 27.1801 41.4758 27.1839ZM41.4758 3.26038C43.7026 3.26038 45.8793 3.92067 47.7308 5.15777C49.5822 6.39487 51.0253 8.15321 51.8774 10.2104C52.7296 12.2677 52.9526 14.5314 52.5182 16.7153C52.0838 18.8993 51.0116 20.9054 49.4371 22.48C47.8626 24.0545 45.8565 25.1269 43.6726 25.5613C41.4886 25.9958 39.2249 25.7729 37.1677 24.9208C35.1104 24.0688 33.352 22.6258 32.1148 20.7744C30.8776 18.923 30.2173 16.7463 30.2172 14.5195C30.2204 11.5345 31.4076 8.67264 33.5183 6.56187C35.629 4.45109 38.4908 3.26376 41.4758 3.26038Z" fill="#1AE5BE"/>
</svg>
