<svg width="60" height="60" viewBox="0 0 60 60" fill="none" xmlns="http://www.w3.org/2000/svg">
<path d="M23.6742 57.4447L27.5706 50.0327L28.5562 30.8203H25.0406L23.6742 57.4447Z" fill="#D4E1F4"/>
<path d="M21.2308 2.57812L15.8402 30.8203H19.3558L24.7465 2.57812H21.2308Z" fill="#D4E1F4"/>
<path d="M44.1603 17.6884H35.9086L39.6436 2.74863C39.6695 2.64497 39.6715 2.53677 39.6493 2.43224C39.6271 2.32772 39.5814 2.22962 39.5157 2.1454C39.4499 2.06118 39.3658 1.99306 39.2698 1.9462C39.1738 1.89935 39.0683 1.875 38.9615 1.875H21.231C21.0674 1.87498 20.9089 1.93199 20.7829 2.03623C20.6568 2.14046 20.571 2.28539 20.5403 2.44605L15.1497 30.643C15.1302 30.7447 15.1335 30.8494 15.1592 30.9497C15.1849 31.05 15.2324 31.1434 15.2984 31.2232C15.3644 31.303 15.4472 31.3672 15.5409 31.4113C15.6346 31.4554 15.7368 31.4782 15.8404 31.4782H24.3013L22.9724 57.3858C22.964 57.5459 23.0107 57.7041 23.1046 57.8341C23.1985 57.9641 23.334 58.0581 23.4886 58.1005C23.6433 58.1429 23.8078 58.1312 23.9548 58.0672C24.1019 58.0033 24.2227 57.8911 24.2972 57.7491L44.7828 18.7187C44.839 18.6116 44.8666 18.4917 44.863 18.3707C44.8593 18.2498 44.8245 18.1318 44.7619 18.0283C44.6993 17.9247 44.611 17.8391 44.5056 17.7796C44.4002 17.7201 44.2813 17.6889 44.1603 17.6889V17.6884ZM24.5408 54.2586L25.7426 30.8111C25.7475 30.7158 25.7329 30.6206 25.6998 30.5311C25.6668 30.4417 25.6158 30.3599 25.5501 30.2908C25.4845 30.2217 25.4054 30.1666 25.3178 30.129C25.2301 30.0914 25.1358 30.072 25.0404 30.072H16.6901L21.8122 3.28125H38.0609L34.3259 18.221C34.3 18.3247 34.298 18.4329 34.3202 18.5374C34.3424 18.6419 34.3881 18.74 34.4538 18.8242C34.5196 18.9085 34.6037 18.9766 34.6997 19.0234C34.7957 19.0703 34.9012 19.0947 35.008 19.0946H42.9971L24.5408 54.2586Z" fill="#0635C9"/>
<path d="M23.3867 7.33731L23.6663 5.87697L25.0473 6.14137L24.7678 7.60171L23.3867 7.33731Z" fill="#1AE5BE"/>
<path d="M20.8061 20.8187L23.0391 9.15496L24.4201 9.41935L22.1871 21.0831L20.8061 20.8187Z" fill="#1AE5BE"/>
</svg>
