<svg width="70" height="70" viewBox="0 0 70 70" fill="none" xmlns="http://www.w3.org/2000/svg">
<path d="M38.8036 47.7687H13.2216C10.0163 47.7658 7.41815 45.1774 7.41533 41.9835V8.41117C7.41533 8.142 7.43465 7.87282 7.47237 7.60693C4.60788 8.01093 2.47742 10.4518 2.47412 13.3343V46.9076C2.47742 50.1011 5.07508 52.6885 8.27948 52.6923H40.3117L38.8036 47.7687Z" fill="#D4E1F4"/>
<path d="M55.563 13.3762V33.6362C54.8652 33.516 54.1595 33.4479 53.4514 33.4319V20.6406H4.28402V46.2302C4.28732 48.9675 6.51395 51.1853 9.26105 51.1895H38.7192C38.8729 51.9054 39.0818 52.6087 39.3439 53.2931H9.26105C5.34807 53.288 2.17761 50.1288 2.17242 46.2302V13.3762C2.17714 9.47662 5.34807 6.31744 9.26105 6.31274H48.4743C52.3873 6.31697 55.5587 9.47662 55.563 13.3762ZM53.4514 18.5365V13.3762C53.4485 10.6388 51.2219 8.41965 48.4743 8.41683H9.26105C6.51395 8.42012 4.28732 10.6388 4.28402 13.3762V18.5365H53.4514Z" fill="#0635C9"/>
<path d="M55.5629 33.636C54.8651 33.5158 54.1594 33.4477 53.4513 33.4317C53.3325 33.4279 53.2113 33.427 53.0906 33.427C52.5074 33.427 52.035 33.8977 52.035 34.4788C52.035 35.0599 52.5074 35.5311 53.0906 35.5311C53.5248 35.5311 53.9533 35.5532 54.3772 35.5954C60.6318 36.2376 65.4533 41.3783 65.6734 47.6398C65.8941 53.9013 61.4465 59.3661 55.2526 60.4442C49.0588 61.5218 43.0158 57.8835 41.0928 51.9179C40.9637 51.5163 40.8552 51.109 40.7689 50.6961H42.6792C43.0649 50.6956 43.4194 50.4866 43.6052 50.1497C43.79 49.8134 43.7763 49.4028 43.5698 49.0787L40.5186 44.3063C40.3244 44.0024 39.9887 43.8187 39.6276 43.8187C39.2669 43.8187 38.9313 44.0024 38.7375 44.3063L35.6863 49.0787C35.4789 49.4028 35.4661 49.8139 35.6514 50.1507C35.8372 50.487 36.1917 50.6961 36.5778 50.6961H38.6215C38.6512 50.861 38.6828 51.0268 38.7191 51.1893C38.8728 51.9053 39.0816 52.6085 39.3438 53.2929C41.8754 59.9251 48.8118 63.7965 55.8104 62.4844C62.808 61.1719 67.8576 55.0527 67.7968 47.9569C67.736 40.8615 62.5822 34.8288 55.5629 33.636ZM38.5018 48.592L39.629 46.8294L40.7553 48.592H38.5018Z" fill="#1AE5BE"/>
<path d="M52.3745 40.6033C51.7908 40.6033 51.3184 41.074 51.3184 41.6551V49.153C51.3184 49.7337 51.7908 50.2048 52.3745 50.2048H58.1072C58.6899 50.2048 59.1628 49.7337 59.1628 49.153C59.1628 48.5719 58.6899 48.1007 58.1072 48.1007H53.43V41.6551C53.4295 41.0744 52.9572 40.6037 52.3745 40.6033Z" fill="#1AE5BE"/>
<path d="M25.8327 10.6128H25.8242C24.1944 10.6095 22.8711 11.9239 22.8687 13.5479C22.8659 15.1724 24.185 16.4905 25.8152 16.4929H25.8242C27.4493 16.4915 28.7679 15.1817 28.7754 13.5625C28.7797 11.939 27.4629 10.6184 25.8327 10.6128ZM25.8242 14.3893H25.8223C25.3594 14.3878 24.9841 14.012 24.9855 13.5502C24.9874 13.0899 25.3622 12.7174 25.8242 12.7164H25.827C26.2905 12.7174 26.6657 13.0922 26.6648 13.5545C26.6643 14.0163 26.2876 14.3897 25.8242 14.3893Z" fill="#1AE5BE"/>
<path d="M17.3208 10.5872H17.3114C15.6821 10.5848 14.3587 11.8992 14.3564 13.5227C14.354 15.1467 15.6731 16.4649 17.3029 16.4672H17.3114C18.9369 16.4649 20.256 15.1552 20.2631 13.5359V13.5265C20.2612 11.9067 18.9464 10.5933 17.3208 10.5872ZM17.3114 14.3636H17.3086C16.8451 14.3627 16.4703 13.9878 16.4708 13.5255C16.4713 13.0638 16.848 12.6903 17.3114 12.6908H17.3147C17.7781 12.6922 18.1529 13.068 18.1515 13.5293C18.1492 13.9901 17.7739 14.3627 17.3114 14.3636Z" fill="#1AE5BE"/>
<path d="M8.80844 10.5598H8.79948C7.1697 10.5575 5.84683 11.8719 5.844 13.4959C5.84164 15.1194 7.16074 16.438 8.79005 16.4403H8.79948C10.4245 16.4385 11.7422 15.1288 11.7493 13.5099V13.4991C11.7484 11.8803 10.434 10.5664 8.80844 10.5598ZM8.79948 14.3363H8.79665C8.33322 14.3358 7.95795 13.9605 7.95842 13.4987C7.95937 13.0364 8.33605 12.6625 8.79948 12.6639H8.80278C9.26621 12.6644 9.64101 13.0397 9.64054 13.5015C9.63912 13.9637 9.26291 14.3377 8.79948 14.3363Z" fill="#1AE5BE"/>
</svg>
