<svg width="70" height="70" viewBox="0 0 70 70" fill="none" xmlns="http://www.w3.org/2000/svg">
<path d="M31.4603 41.922C30.4903 40.9538 29.7232 39.8017 29.2041 38.5333C28.6851 37.2649 28.4244 35.9055 28.4375 34.5351V29.6788C28.4309 28.525 28.7056 27.3871 29.2378 26.3634C29.772 25.3421 30.5528 24.4703 31.5093 23.8272C32.0602 23.4572 32.6386 23.1296 33.2393 22.8474C32.9837 22.4974 32.7447 22.1537 32.5277 21.8188L32.5237 21.8202C30.6878 22.1007 28.9373 22.7863 27.3991 23.8272C26.4452 24.4706 25.6674 25.3425 25.1367 26.3634C24.6042 27.387 24.3294 28.525 24.3359 29.6788V34.5351C24.332 36.079 24.6712 37.6045 25.329 39.0013C25.9868 40.398 26.9468 41.6312 28.1395 42.6115C29.3323 43.5919 30.728 44.2949 32.2257 44.6698C33.7234 45.0448 35.2857 45.0822 36.7996 44.7794C34.7763 44.3763 32.9181 43.3819 31.4603 41.922Z" fill="#D4E1F4"/>
<path d="M35.1836 14.8511C35.0823 14.8876 34.9891 14.9437 34.9094 15.0162C34.8297 15.0887 34.7651 15.1762 34.7193 15.2737C34.6734 15.3712 34.6472 15.4768 34.6421 15.5844C34.6371 15.692 34.6533 15.7996 34.6898 15.9009C34.733 16.0208 35.7779 18.8725 38.4539 22.0379C38.5948 22.2026 38.7952 22.3048 39.0112 22.3223C39.2272 22.3397 39.4413 22.271 39.6068 22.1311C39.7723 21.9912 39.8757 21.7915 39.8945 21.5756C39.9132 21.3597 39.8458 21.1451 39.7068 20.9788C37.2332 18.053 36.2427 15.3706 36.2331 15.3438C36.1591 15.1394 36.0071 14.9726 35.8103 14.8803C35.6135 14.7879 35.3881 14.7774 35.1836 14.8511Z" fill="#0635C9"/>
<path d="M51.2012 47.7148H41.4258V43.5561C42.8665 42.5347 44.0407 41.1822 44.8496 39.6124C45.6586 38.0425 46.0785 36.3014 46.0742 34.5354V33.4033C46.0742 33.458 46.3009 33.5142 46.4326 33.5688C46.5266 33.6101 46.6282 33.6315 46.7309 33.6315C46.8922 33.6314 47.0497 33.5831 47.1834 33.4928C47.3171 33.4026 47.4208 33.2745 47.4812 33.125C47.5638 32.9234 47.563 32.6974 47.4791 32.4964C47.3951 32.2955 47.2349 32.136 47.0335 32.0531C39.4957 28.9306 35.5052 24.7437 33.4868 21.7812C31.3161 18.5956 30.8923 16.1014 30.8841 16.0509C30.8511 15.8357 30.734 15.6425 30.5585 15.5137C30.3831 15.3849 30.1636 15.3311 29.9485 15.3641C29.7333 15.397 29.5401 15.5142 29.4113 15.6896C29.2825 15.8651 29.2287 16.0845 29.2617 16.2997C29.2767 16.398 29.6035 18.4369 31.2144 21.2444C29.6901 21.6239 28.2441 22.2676 26.9421 23.1464C25.9847 23.789 25.1814 24.6355 24.5897 25.6251C23.9981 26.6148 23.6327 27.7231 23.5197 28.8706C23.4481 28.877 23.37 28.8871 23.2996 28.899C22.992 28.0171 22.834 27.09 22.8321 26.156V24.3398C22.8321 20.9858 24.1644 17.7691 26.5361 15.3974C28.9078 13.0258 32.1245 11.6934 35.4785 11.6934C38.8326 11.6934 42.0493 13.0258 44.421 15.3974C46.7926 17.7691 48.125 20.9858 48.125 24.3398V25.2318C48.125 25.4494 48.2114 25.658 48.3653 25.8118C48.5191 25.9657 48.7278 26.0521 48.9453 26.0521C49.1629 26.0521 49.3715 25.9657 49.5254 25.8118C49.6792 25.658 49.7656 25.4494 49.7656 25.2318V24.3398C49.7692 21.8555 49.1249 19.4131 47.8964 17.2538C46.6679 15.0945 44.8976 13.2927 42.7602 12.0264C42.8138 11.6818 42.8432 11.3338 42.848 10.985C42.848 10.0205 42.658 9.0655 42.2889 8.17444C41.9198 7.28338 41.3788 6.47374 40.6968 5.79175C40.0148 5.10976 39.2052 4.56877 38.3141 4.19968C37.4231 3.83059 36.468 3.64063 35.5036 3.64062C34.5391 3.64063 33.584 3.83059 32.693 4.19968C31.8019 4.56877 30.9923 5.10976 30.3103 5.79175C29.6283 6.47374 29.0873 7.28338 28.7182 8.17444C28.3491 9.0655 28.1592 10.0205 28.1592 10.985C28.1582 11.3331 28.1817 11.6809 28.2296 12.0257C26.0879 13.2902 24.3126 15.0907 23.0784 17.25C21.8443 19.4093 21.194 21.8528 21.1914 24.3398V26.156C21.1924 27.383 21.4188 28.5994 21.8596 29.7445C21.7922 29.9102 21.7809 30.0934 21.8274 30.2662C21.8739 30.4389 21.9757 30.5917 22.1172 30.7011C22.2588 30.8106 22.4322 30.8707 22.6111 30.8723C22.79 30.8739 22.9645 30.8169 23.108 30.71C23.3018 30.567 23.5361 30.4894 23.7769 30.4882H24.2993C24.4068 30.4888 24.5133 30.4682 24.6127 30.4275C24.7122 30.3868 24.8026 30.3269 24.8788 30.2512C24.955 30.1754 25.0155 30.0854 25.0569 29.9862C25.0982 29.8871 25.1195 29.7807 25.1196 29.6732C25.1146 28.6535 25.3616 27.6483 25.8386 26.747C26.3157 25.8456 27.008 25.0761 27.854 24.5068C29.1601 23.6305 30.6275 23.0225 32.1706 22.7184C34.1407 25.6037 37.7344 29.5227 44.4336 32.6648V34.5351C44.4336 37.0914 43.4181 39.5431 41.6105 41.3507C39.8029 43.1583 37.3513 44.1738 34.7949 44.1738C32.2386 44.1738 29.787 43.1583 27.9794 41.3507C26.1718 39.5431 25.1563 37.0914 25.1563 34.5351V33.5958C25.1563 33.1429 24.7524 32.8124 24.2993 32.8124H23.7769C23.719 32.8063 23.6616 32.7959 23.6052 32.7813C23.4992 32.7642 23.3909 32.7682 23.2865 32.7932C23.1821 32.8182 23.0837 32.8636 22.9969 32.9268C22.9102 32.99 22.8368 33.0698 22.781 33.1615C22.7252 33.2532 22.6882 33.3551 22.672 33.4612C22.6437 33.6779 22.7021 33.897 22.8345 34.0709C22.9668 34.2448 23.1625 34.3594 23.3789 34.3898C23.4238 34.3997 23.4698 34.4032 23.5156 34.4003V34.5354C23.5156 38.4439 25.4297 41.8928 28.5742 43.9143V47.7148H18.7995C17.6933 47.7157 16.5981 47.9348 15.5766 48.3594C14.555 48.784 13.6272 49.4058 12.8462 50.1892C12.0652 50.9727 11.4464 51.9025 11.025 52.9253C10.6037 53.9482 10.3881 55.0441 10.3906 56.1503V67.6508C10.3864 67.758 10.4034 67.8649 10.4407 67.9655C10.4779 68.066 10.5347 68.1582 10.6077 68.2368C10.6807 68.3153 10.7685 68.3787 10.8661 68.4232C10.9637 68.4677 11.0691 68.4924 11.1762 68.496H58.8238C58.931 68.4924 59.0365 68.4676 59.1341 68.4231C59.2317 68.3786 59.3195 68.3152 59.3926 68.2366C59.4656 68.158 59.5223 68.0657 59.5595 67.9651C59.5968 67.8645 59.6137 67.7575 59.6094 67.6503V56.1503C59.612 55.0441 59.3964 53.9483 58.9751 52.9255C58.5538 51.9027 57.935 50.9729 57.154 50.1895C56.3731 49.406 55.4454 48.7842 54.424 48.3596C53.4025 47.9349 52.3074 47.7158 51.2012 47.7148ZM35.5116 5.27633C37.0252 5.27785 38.4764 5.87977 39.5467 6.95002C40.6171 8.02027 41.2191 9.47141 41.2207 10.985C41.2207 11.0638 41.2181 11.1425 41.2148 11.2213C39.4157 10.4383 37.4745 10.0343 35.5124 10.0343C33.5502 10.0343 31.6091 10.4383 29.8099 11.2213C29.8068 11.1427 29.8033 11.064 29.8033 10.9853C29.8049 9.47178 30.4068 8.02069 31.4769 6.95041C32.5471 5.88012 33.9981 5.27807 35.5116 5.27633ZM30.2149 44.8191C31.7244 45.5058 33.3702 45.8406 35.0281 45.7984C36.6859 45.7562 38.3125 45.338 39.7852 44.5754V48.5488L38.6641 54.0419C36.2966 54.9356 33.6848 54.9368 31.3165 54.045L30.2149 48.5495V44.8191ZM18.3203 66.8554V64.5312C18.3203 64.3136 18.2339 64.105 18.0801 63.9511C17.9262 63.7973 17.7176 63.7109 17.5 63.7109C17.2825 63.7109 17.0738 63.7973 16.92 63.9511C16.7661 64.105 16.6797 64.3136 16.6797 64.5312V66.8554H12.0313V56.1503C12.028 55.1812 12.2328 54.2226 12.6319 53.3394C13.0309 52.4562 13.6149 51.6689 14.3443 51.0308C15.8678 53.0352 16.6886 55.4857 16.6797 58.0034V59.0624C16.6797 59.28 16.7661 59.4887 16.92 59.6425C17.0738 59.7963 17.2825 59.8828 17.5 59.8828C17.7176 59.8828 17.9262 59.7963 18.0801 59.6425C18.2339 59.4887 18.3203 59.28 18.3203 59.0624V58.0033C18.3259 55.155 17.4032 52.3824 15.6919 50.1054C16.6529 49.6104 17.7186 49.3532 18.7995 49.3554H28.6433L32.2968 66.8554H18.3203ZM33.9723 66.8554L31.6875 55.909C33.8526 56.5125 36.1414 56.513 38.3067 55.9103L36.0117 66.8554H33.9723ZM51.543 66.8554H37.6882L41.3574 49.3554H51.2012C52.2226 49.3529 53.2309 49.5851 54.1483 50.0341C52.4656 52.2908 51.5523 55.0283 51.543 57.8432V66.8554ZM57.9688 66.8554H53.1836V57.8432C53.1864 55.3448 54.0033 52.9154 55.5107 50.923C56.2793 51.5602 56.898 52.359 57.3229 53.2625C57.7477 54.166 57.9682 55.152 57.9688 56.1503V66.8554Z" fill="#0635C9"/>
<path d="M21.6016 55.1055C21.8191 55.1055 22.0278 55.019 22.1816 54.8652C22.3355 54.7114 22.4219 54.5027 22.4219 54.2852V53.4238C22.4219 53.2063 22.3355 52.9976 22.1816 52.8438C22.0278 52.6899 21.8191 52.6035 21.6016 52.6035C21.384 52.6035 21.1754 52.6899 21.0215 52.8438C20.8677 52.9976 20.7812 53.2063 20.7812 53.4238V54.2852C20.7812 54.5027 20.8677 54.7114 21.0215 54.8652C21.1754 55.019 21.384 55.1055 21.6016 55.1055Z" fill="#0635C9"/>
<path d="M21.6016 63.9922C21.8191 63.9922 22.0278 63.9058 22.1816 63.7519C22.3355 63.5981 22.4219 63.3894 22.4219 63.1719V56.8828C22.4219 56.6653 22.3355 56.4566 22.1816 56.3028C22.0278 56.1489 21.8191 56.0625 21.6016 56.0625C21.384 56.0625 21.1754 56.1489 21.0215 56.3028C20.8677 56.4566 20.7812 56.6653 20.7812 56.8828V63.1719C20.7812 63.3894 20.8677 63.5981 21.0215 63.7519C21.1754 63.9058 21.384 63.9922 21.6016 63.9922Z" fill="#0635C9"/>
<path d="M53.5938 25.8472V20.064C53.5938 9.84371 45.2199 1.5293 35.0001 1.5293C24.7802 1.5293 16.4063 9.84371 16.4063 20.0634V25.8466C15.5048 26.4018 14.8041 27.2304 14.4065 28.2117C14.0089 29.193 13.9352 30.2756 14.196 31.3017L16.1684 38.7939C16.4994 40.0532 17.3167 41.1297 18.4408 41.7868C19.5649 42.444 20.9039 42.6281 22.1637 42.2987L25.5309 41.4195C25.6352 41.3923 25.7332 41.3449 25.8191 41.2799C25.9051 41.2149 25.9774 41.1336 26.032 41.0406C26.0865 40.9477 26.1222 40.8448 26.137 40.7381C26.1517 40.6313 26.1453 40.5227 26.1181 40.4184L22.0967 25.0244C22.0418 24.8139 21.9055 24.6339 21.7178 24.5239C21.5194 24.4138 21.2865 24.3832 21.0664 24.4382L18.0469 25.2194V20.0634C18.0469 10.7484 25.6849 3.16992 35.0001 3.16992C44.3153 3.16992 51.9532 10.7484 51.9532 20.0634V25.2194L48.9338 24.4382C48.7184 24.3831 48.4901 24.4139 48.2969 24.5239C48.1072 24.6334 47.9684 24.8132 47.9104 25.0244L43.8847 40.4183C43.8558 40.5214 43.8476 40.6292 43.8606 40.7355C43.8737 40.8418 43.9076 40.9445 43.9606 41.0376C44.0135 41.1306 44.0844 41.2123 44.1691 41.2778C44.2538 41.3434 44.3506 41.3915 44.454 41.4193L47.3047 42.1685V44.749C47.3067 44.9978 47.2587 45.2444 47.1635 45.4743C47.0684 45.7042 46.928 45.9126 46.7508 46.0872C46.5735 46.2618 46.363 46.399 46.1317 46.4907C45.9004 46.5825 45.6531 46.6268 45.4044 46.6211H40.7422V46.0043C40.7485 45.8532 40.7239 45.7024 40.67 45.5611C40.6161 45.4198 40.534 45.291 40.4287 45.1824C40.3234 45.0738 40.1971 44.9878 40.0576 44.9296C39.918 44.8714 39.768 44.8421 39.6168 44.8437H34.1807C33.5261 44.8437 32.9493 45.3496 32.9493 46.0043V49.0214C32.9493 49.676 33.5261 50.1758 34.1807 50.1758H39.6168C39.7677 50.1781 39.9174 50.1495 40.0569 50.092C40.1964 50.0344 40.3227 49.949 40.4281 49.8409C40.5334 49.7329 40.6156 49.6045 40.6696 49.4636C40.7237 49.3227 40.7484 49.1722 40.7422 49.0214V48.2617H45.4044C45.8685 48.2671 46.3291 48.1802 46.7593 48.0059C47.1895 47.8317 47.5808 47.5736 47.9103 47.2467C48.2398 46.9198 48.5011 46.5306 48.6788 46.1018C48.8565 45.673 48.9471 45.2131 48.9454 44.749V42.4554C48.9454 42.4554 49.0245 42.4584 49.0564 42.4584C50.1418 42.4572 51.1963 42.0973 52.056 41.4346C52.9156 40.7719 53.532 39.8437 53.8094 38.7943L55.8003 31.3021C56.0618 30.2764 55.9888 29.194 55.5919 28.2127C55.195 27.2314 54.4949 26.4026 53.5938 25.8472ZM17.7705 38.379L15.8129 30.8868C15.617 30.133 15.6967 29.3341 16.0376 28.6339C16.3785 27.9336 16.9582 27.3781 17.6723 27.0674L21.2604 40.8004C20.4855 40.8789 19.7082 40.6781 19.0683 40.2341C18.4284 39.7901 17.9682 39.1323 17.7705 38.379ZM24.3244 40.0393L22.8578 40.4221L19.2501 26.6161L20.7166 26.2333L24.3244 40.0393ZM39.1016 48.5351H34.5899V46.4843H39.1016V48.5351ZM49.2829 26.2329L50.7495 26.6157L47.1423 40.4225L45.6757 40.0397L49.2829 26.2329ZM54.1872 30.8869L52.2296 38.3791C52.0319 39.1325 51.5716 39.7905 50.9316 40.2345C50.2915 40.6785 49.514 40.8792 48.7391 40.8005L52.3271 27.0675C53.0414 27.3781 53.6212 27.9336 53.9623 28.6338C54.3033 29.3341 54.383 30.1331 54.1872 30.8869Z" fill="#1AE5BE"/>
</svg>
