<svg width="60" height="60" viewBox="0 0 60 60" fill="none" xmlns="http://www.w3.org/2000/svg">
<path d="M33.2602 41.0908H11.3328C8.5854 41.0884 6.35844 38.8619 6.35601 36.1144V7.23536C6.35601 7.00381 6.37258 6.77227 6.40491 6.54355C3.94963 6.89107 2.12353 8.99075 2.1207 11.4703V40.3501C2.12353 43.0972 4.35009 45.3229 7.09672 45.3262H34.5529L33.2602 41.0908Z" fill="#D4E1F4"/>
<path d="M47.6254 11.5062V28.934C47.0273 28.8306 46.4224 28.772 45.8154 28.7583V17.7552H3.672V39.7674C3.67483 42.1221 5.58337 44.0298 7.93803 44.0335H33.1879C33.3196 44.6493 33.4986 45.2542 33.7233 45.843H7.93803C4.58404 45.8385 1.86651 43.121 1.86206 39.7674V11.5062C1.8661 8.15185 4.58404 5.43431 7.93803 5.43027H41.5494C44.9034 5.4339 47.6217 8.15185 47.6254 11.5062ZM45.8154 15.9452V11.5062C45.813 9.15158 43.9045 7.24263 41.5494 7.24021H7.93803C5.58337 7.24304 3.67483 9.15158 3.672 11.5062V15.9452H45.8154Z" fill="#0635C9"/>
<path d="M47.6254 28.934C47.0273 28.8306 46.4224 28.772 45.8154 28.7582C45.7136 28.755 45.6097 28.7542 45.5063 28.7542C45.0064 28.7542 44.6015 29.1591 44.6015 29.6589C44.6015 30.1588 45.0064 30.5641 45.5063 30.5641C45.8785 30.5641 46.2458 30.5831 46.6091 30.6195C51.9702 31.1719 56.1029 35.5939 56.2916 40.9801C56.4807 46.3663 52.6685 51.0671 47.3595 51.9945C42.0505 52.9215 36.8708 49.7918 35.2225 44.6602C35.1118 44.3147 35.0188 43.9643 34.9449 43.6091H36.5823C36.9128 43.6087 37.2167 43.4289 37.3759 43.1392C37.5343 42.8498 37.5226 42.4966 37.3456 42.2178L34.7303 38.1126C34.5638 37.8512 34.2761 37.6932 33.9666 37.6932C33.6574 37.6932 33.3697 37.8512 33.2036 38.1126L30.5883 42.2178C30.4105 42.4966 30.3996 42.8502 30.5584 43.14C30.7176 43.4293 31.0215 43.6091 31.3525 43.6091H33.1042C33.1297 43.751 33.1568 43.8936 33.1879 44.0334C33.3196 44.6493 33.4986 45.2542 33.7233 45.843C35.8933 51.548 41.8387 54.8781 47.8375 53.7495C53.8355 52.6204 58.1638 47.3567 58.1116 41.2528C58.0595 35.1494 53.6419 29.96 47.6254 28.934ZM33.0016 41.7992L33.9678 40.283L34.9332 41.7992H33.0016Z" fill="#1AE5BE"/>
<path d="M44.8924 34.9271C44.3922 34.9271 43.9873 35.332 43.9873 35.8319V42.2816C43.9873 42.7811 44.3922 43.1864 44.8924 43.1864H49.8062C50.3057 43.1864 50.711 42.7811 50.711 42.2816C50.711 41.7818 50.3057 41.3765 49.8062 41.3765H45.7972V35.8319C45.7968 35.3324 45.3919 34.9275 44.8924 34.9271Z" fill="#1AE5BE"/>
<path d="M22.1423 9.12937H22.1351C20.7381 9.12654 19.6038 10.2572 19.6018 11.6542C19.5994 13.0515 20.73 14.1854 22.1274 14.1874H22.1351C23.528 14.1862 24.6582 13.0596 24.6647 11.6667C24.6683 10.2701 23.5397 9.13422 22.1423 9.12937ZM22.1351 12.3779H22.1334C21.7366 12.3767 21.415 12.0534 21.4162 11.6562C21.4178 11.2602 21.739 10.9397 22.1351 10.9389H22.1375C22.5347 10.9397 22.8564 11.2622 22.8556 11.6598C22.8551 12.057 22.5323 12.3783 22.1351 12.3779Z" fill="#1AE5BE"/>
<path d="M14.8464 9.10715H14.8384C13.4418 9.10513 12.3075 10.2358 12.3055 11.6323C12.3035 13.0293 13.4341 14.1632 14.8311 14.1652H14.8384C16.2317 14.1632 17.3623 13.0366 17.3684 11.6437V11.6356C17.3668 10.2423 16.2398 9.1124 14.8464 9.10715ZM14.8384 12.3557H14.8359C14.4387 12.3549 14.1174 12.0324 14.1178 11.6348C14.1183 11.2375 14.4411 10.9163 14.8384 10.9167H14.8412C15.2384 10.9179 15.5597 11.2412 15.5584 11.638C15.5564 12.0344 15.2348 12.3549 14.8384 12.3557Z" fill="#1AE5BE"/>
<path d="M7.5501 9.08371H7.54243C6.14547 9.08169 5.01158 10.2123 5.00916 11.6093C5.00714 13.0058 6.13779 14.1401 7.53435 14.1422H7.54243C8.93534 14.1405 10.0648 13.0139 10.0708 11.6214V11.6121C10.07 10.2196 8.94342 9.08937 7.5501 9.08371ZM7.54243 12.3322H7.54C7.14278 12.3318 6.82112 12.0089 6.82152 11.6117C6.82233 11.2141 7.1452 10.8924 7.54243 10.8936H7.54526C7.94248 10.8941 8.26374 11.2169 8.26333 11.6141C8.26212 12.0118 7.93965 12.3334 7.54243 12.3322Z" fill="#1AE5BE"/>
</svg>
