<svg width="30" height="30" viewBox="0 0 30 30" fill="none" xmlns="http://www.w3.org/2000/svg">
<path d="M16.9346 11.0486C16.2189 11.0486 15.5722 11.3631 15.1082 11.8699C15.05 11.9335 14.9501 11.9335 14.8919 11.8699C14.4279 11.3632 13.7813 11.0486 13.0656 11.0486C11.6533 11.0486 10.5083 12.2734 10.5083 13.7845C10.5083 16.0452 11.7119 17.2337 14.3776 18.6075C14.5398 18.6909 15 18.9497 15 18.9497C15 18.9497 15.4605 18.6909 15.6227 18.6075C18.2881 17.2338 19.4917 16.0452 19.4917 13.7845C19.4916 12.2734 18.3469 11.0486 16.9346 11.0486Z" fill="#B2F0FB"/>
<path d="M29.1525 12.1444C29.079 11.6077 28.8033 11.1311 28.3752 10.8002L25.8355 8.62657V3.63833C25.8355 3.31476 25.5731 3.05236 25.2495 3.05236H22.6755C22.3519 3.05236 22.0895 3.31476 22.0895 3.63833V5.42067L16.2668 0.437294C16.2581 0.429853 16.2492 0.422704 16.2401 0.415789C15.5098 -0.138596 14.4898 -0.138596 13.7595 0.415789C13.7504 0.422704 13.7415 0.429853 13.7328 0.437294L1.62427 10.8002C1.19622 11.1311 0.920463 11.6077 0.846982 12.1444C0.772623 12.6873 0.914134 13.2267 1.2455 13.663C1.57675 14.0994 2.05812 14.3807 2.60102 14.4551C2.69542 14.468 2.78982 14.4744 2.88352 14.4744C3.22725 14.4744 3.56254 14.3883 3.86349 14.2229V29.414C3.86349 29.7376 4.12589 30 4.44946 30H25.5501C25.8737 30 26.1361 29.7376 26.1361 29.414V14.2229C26.4362 14.3879 26.771 14.474 27.1191 14.474C27.7669 14.474 28.3629 14.1783 28.754 13.663C29.0854 13.2267 29.2269 12.6873 29.1525 12.1444ZM23.2615 4.2243H24.6636V7.62357L23.2615 6.42368V4.2243ZM12.5113 28.828V22.0794H17.4883V28.828H12.5113ZM18.6602 28.828V21.4935C18.6602 21.1699 18.3978 20.9075 18.0742 20.9075H11.9253C11.6017 20.9075 11.3393 21.1699 11.3393 21.4935V28.828H5.03543V13.2673L14.9998 4.66348L24.9641 13.2673V28.828H18.6602ZM27.8206 12.9544C27.6529 13.1754 27.3972 13.3021 27.1191 13.3021C26.9316 13.3021 26.753 13.2436 26.6015 13.1327L15.3827 3.44578C15.1627 3.25592 14.8368 3.25592 14.6168 3.44578L3.39806 13.1327C3.2133 13.2679 2.98753 13.325 2.76 13.2939C2.52731 13.2621 2.32099 13.1415 2.17895 12.9544C2.03691 12.7673 1.97626 12.5361 2.00808 12.3034C2.03996 12.0707 2.16055 11.8643 2.34765 11.7223C2.35673 11.7154 2.36564 11.7082 2.37431 11.7008L14.4801 1.34027C14.7883 1.11444 15.2113 1.11444 15.5195 1.34027L27.6252 11.7008C27.6339 11.7082 27.6428 11.7154 27.6519 11.7223C27.839 11.8643 27.9596 12.0707 27.9915 12.3034C28.0233 12.5361 27.9627 12.7673 27.8206 12.9544Z" fill="#020288"/>
</svg>
