<svg width="24" height="24" viewBox="0 0 24 24" fill="none" xmlns="http://www.w3.org/2000/svg">
<path d="M2 18.4867V4.23544C2 4.1385 2.04155 4.0831 2.1385 4.0831C2.37394 4.0831 2.59553 4.0831 2.91407 4.06925C3.24647 4.0554 3.59271 4.0554 3.96665 4.04155C4.34058 4.0277 4.74222 4.0277 5.17156 4.01385C5.6009 4 6.01639 4 6.43188 4C7.56755 4 8.50932 4.1385 9.2849 4.42934C9.97738 4.66478 10.6145 5.05257 11.1407 5.56501C11.5839 6.00819 11.9302 6.54833 12.1518 7.14386C12.3595 7.72555 12.4703 8.32108 12.4703 8.94431C12.4703 10.1354 12.1933 11.1187 11.6393 11.8943C11.0853 12.6699 10.3098 13.2515 9.40954 13.5839C8.46777 13.9302 7.42905 14.0548 6.29338 14.0548C5.96099 14.0548 5.7394 14.0548 5.6009 14.041C5.4624 14.0271 5.26851 14.0271 5.00537 14.0271V18.4728C5.01922 18.5698 4.94997 18.6529 4.85302 18.6667H2.1662C2.0554 18.6667 2 18.6113 2 18.4867ZM5.01922 6.75607V11.4095C5.21311 11.4234 5.39316 11.4372 5.55935 11.4372H6.29338C6.83352 11.4372 7.37365 11.3541 7.88609 11.188C8.32927 11.0633 8.71706 10.8002 9.02175 10.4539C9.3126 10.1077 9.45109 9.63679 9.45109 9.02741C9.46494 8.59807 9.35415 8.16873 9.13255 7.7948C8.89711 7.43471 8.56472 7.15771 8.16308 7.00537C7.65064 6.79762 7.09666 6.71452 6.52882 6.72837C6.16873 6.72837 5.85019 6.72837 5.58705 6.74222C5.31006 6.72837 5.11616 6.74222 5.01922 6.75607ZM21.1125 10.5647C20.697 10.3431 20.2538 10.1908 19.7829 10.0938C19.2705 9.98303 18.758 9.91379 18.2318 9.91379C17.9548 9.89994 17.6639 9.94149 17.4008 10.0107C17.2207 10.0523 17.0684 10.1492 16.9714 10.2877C16.9022 10.3985 16.8606 10.537 16.8606 10.6617C16.8606 10.7863 16.916 10.911 16.9991 11.0218C17.1238 11.1741 17.29 11.2987 17.47 11.3957C17.7886 11.5619 18.121 11.7142 18.4533 11.8527C19.2012 12.102 19.9214 12.4483 20.5862 12.8638C21.0432 13.1546 21.4172 13.5424 21.6803 14.0133C21.9019 14.4565 22.0127 14.9412 21.9988 15.4398C22.0127 16.0907 21.8188 16.7416 21.4587 17.2818C21.0709 17.8358 20.5308 18.2651 19.9076 18.5144C19.2289 18.8052 18.3979 18.9576 17.4008 18.9576C16.7637 18.9576 16.1405 18.9022 15.5172 18.7775C15.0325 18.6944 14.5478 18.5421 14.1046 18.3344C14.0076 18.279 13.9384 18.182 13.9522 18.0712V15.6614C13.9522 15.6198 13.9661 15.5644 14.0076 15.5367C14.0492 15.509 14.0907 15.5229 14.1323 15.5506C14.6724 15.8691 15.2402 16.0907 15.8496 16.2292C16.3759 16.3677 16.9299 16.437 17.4839 16.437C18.0102 16.437 18.3841 16.3677 18.6334 16.2431C18.855 16.1461 19.0073 15.9107 19.0073 15.6614C19.0073 15.4675 18.8965 15.2874 18.6749 15.1074C18.4533 14.9273 17.9963 14.7196 17.3177 14.4565C16.6113 14.2072 15.9604 13.8748 15.351 13.4593C14.9217 13.1546 14.5616 12.753 14.2985 12.2821C14.0769 11.8389 13.9661 11.3541 13.9799 10.8694C13.9799 10.2739 14.1461 9.70604 14.4508 9.19361C14.797 8.63962 15.3095 8.19643 15.905 7.91944C16.5559 7.58705 17.3731 7.43471 18.3564 7.43471C18.9242 7.43471 19.5059 7.47625 20.0737 7.55935C20.4892 7.61475 20.8909 7.72555 21.2648 7.87789C21.3202 7.89174 21.3756 7.94714 21.4033 8.00254C21.4172 8.05794 21.431 8.11334 21.431 8.16873V10.4262C21.431 10.4816 21.4033 10.537 21.3618 10.5647C21.2371 10.5924 21.1679 10.5924 21.1125 10.5647Z" fill="#31A8FF"/>
</svg>
