<svg width="24" height="24" viewBox="0 0 24 24" fill="none" xmlns="http://www.w3.org/2000/svg">
<path fill-rule="evenodd" clip-rule="evenodd" d="M4.86021 8.74368L11.999 22.7164L0 8.74368H4.86021Z" fill="#EA6C00"/>
<path fill-rule="evenodd" clip-rule="evenodd" d="M19.1398 8.74368L12.001 22.7164L24 8.74368H19.1398Z" fill="#EA6C00"/>
<path fill-rule="evenodd" clip-rule="evenodd" d="M4.85995 8.74368H19.1375L11.9987 22.7164L4.85995 8.74368Z" fill="#FDAD00"/>
<path fill-rule="evenodd" clip-rule="evenodd" d="M11.9987 1L5.23569 1.71489L4.85995 8.74367L11.9987 1Z" fill="#FDD231"/>
<path fill-rule="evenodd" clip-rule="evenodd" d="M11.9987 1L18.7618 1.71489L19.1375 8.74367L11.9987 1Z" fill="#FDD231"/>
<path fill-rule="evenodd" clip-rule="evenodd" d="M24 8.74365L18.7641 1.71488L19.1398 8.74365H24Z" fill="#FDAD00"/>
<path fill-rule="evenodd" clip-rule="evenodd" d="M0 8.74365L5.23595 1.71488L4.86021 8.74365H0Z" fill="#FDAD00"/>
<path fill-rule="evenodd" clip-rule="evenodd" d="M11.9987 1L4.85995 8.74367H19.1375L11.9987 1Z" fill="#FEEEB7"/>
</svg>
