<svg width="31" height="30" viewBox="0 0 31 30" fill="none" xmlns="http://www.w3.org/2000/svg">
<path d="M15.8703 8.44101L11.6385 15.4235L16.1524 22.8292C16.1806 22.8857 16.1947 22.9421 16.1806 22.9985C16.1665 23.0549 16.1101 23.0126 16.0255 23.0267H12.7952C12.5695 23.0267 12.4143 23.0126 12.3156 22.8715C12.0193 22.2791 11.709 21.7007 11.4128 21.1083C11.1165 20.5299 10.7921 19.9375 10.4536 19.3309C10.115 18.7244 9.77646 18.1178 9.43791 17.4971H9.4097C9.11347 18.1037 8.78903 18.7102 8.46459 19.3168C8.14015 19.9234 7.81571 20.5299 7.50538 21.1224C7.18094 21.7148 6.8565 22.3214 6.53206 22.8998C6.47563 23.0408 6.36278 23.0549 6.20762 23.0549H3.10428C3.04785 23.0549 3.00553 23.0831 3.00553 23.0126C2.99143 22.9562 3.00553 22.8998 3.03375 22.8574L7.42074 15.6633L3.14659 8.42691C3.10428 8.37048 3.09017 8.31406 3.11838 8.28585C3.14659 8.24353 3.20302 8.22942 3.25944 8.22942H6.46153C6.53206 8.22942 6.60259 8.24353 6.65901 8.25763C6.71544 8.28585 6.75775 8.32816 6.80007 8.38459C7.06809 8.99115 7.37842 9.59771 7.70286 10.2043C8.04141 10.8108 8.36585 11.4033 8.7185 11.9957C9.05705 12.5882 9.36738 13.1807 9.66361 13.7872H9.69182C9.98805 13.1666 10.2984 12.56 10.6087 11.9675C10.9191 11.3751 11.2435 10.7826 11.5679 10.1902C11.8924 9.59771 12.2027 8.99115 12.513 8.4128C12.5271 8.35638 12.5554 8.29995 12.5977 8.27174C12.6541 8.24353 12.7105 8.22942 12.7811 8.24353H15.7574C15.828 8.22942 15.8985 8.27174 15.9126 8.34227C15.9267 8.35638 15.8985 8.4128 15.8703 8.44101ZM22.3873 23.3229C21.3435 23.337 20.2996 23.1255 19.3545 22.6882C18.4658 22.2791 17.7323 21.602 17.2245 20.7697C16.7026 19.9093 16.4486 18.8372 16.4486 17.5535C16.4345 16.5097 16.7026 15.48 17.2245 14.5772C17.7605 13.6603 18.5363 12.8985 19.4673 12.3907C20.4548 11.8406 21.6397 11.5726 23.0362 11.5726C23.1067 11.5726 23.2055 11.5726 23.3324 11.5867C23.4594 11.6008 23.6004 11.6008 23.7697 11.6149V7.15736C23.7697 7.05862 23.812 7.00219 23.9108 7.00219H26.7743C26.8448 6.98809 26.9013 7.04451 26.9154 7.10094V20.5581C26.9154 20.8121 26.9295 21.0942 26.9436 21.4045C26.9718 21.7007 26.9859 21.9829 27 22.2227C27 22.3214 26.9577 22.406 26.8589 22.4484C26.1254 22.7587 25.3496 22.9844 24.5596 23.1255C23.8402 23.2524 23.1208 23.3229 22.3873 23.3229ZM23.7697 20.5017V14.295C23.6427 14.2668 23.5158 14.2386 23.3888 14.2245C23.2337 14.2104 23.0785 14.1963 22.9233 14.1963C22.3732 14.1963 21.8231 14.3091 21.3293 14.5631C20.8497 14.8029 20.4407 15.1555 20.1303 15.6069C19.82 16.0583 19.6648 16.6649 19.6648 17.3984C19.6507 17.8921 19.7354 18.3858 19.9046 18.8513C20.0457 19.2322 20.2573 19.5707 20.5394 19.8528C20.8074 20.1068 21.1319 20.3042 21.4986 20.4171C21.8795 20.544 22.2745 20.6005 22.6694 20.6005C22.881 20.6005 23.0785 20.5864 23.2619 20.5723C23.4453 20.5864 23.6004 20.5581 23.7697 20.5017Z" fill="#FF61F6"/>
</svg>
