<svg width="70" height="70" viewBox="0 0 70 70" fill="none" xmlns="http://www.w3.org/2000/svg">
<path d="M58.0909 11.8455V55.792C58.0909 58.2188 56.1245 60.1868 53.6978 60.1868H8.81825C6.39149 60.1868 4.42456 58.2188 4.42456 55.792V11.8455C4.42456 9.41872 6.39149 7.45178 8.81825 7.45178H53.6978C56.1245 7.45178 58.0909 9.41818 58.0909 11.8455Z" fill="white"/>
<path d="M58.091 51.7138V36.9584C50.0058 36.9584 43.4519 43.5123 43.4519 51.5974C43.4519 53.1676 43.7008 54.68 44.159 56.0979H8.81932C6.39149 56.0979 4.42456 54.1299 4.42456 51.7032V55.7919C4.42456 58.2197 6.39149 60.1867 8.81932 60.1867H53.6978C54.4866 60.1867 55.2263 59.9779 55.8666 59.6136C57.1953 58.8574 58.0915 57.4304 58.0915 55.7919V51.7032C58.0915 51.7069 58.091 51.7101 58.091 51.7138Z" fill="#E1EAF8"/>
<path d="M4.42456 19.6993H58.0915V23.2577H4.42456V19.6993Z" fill="#E1EAF8"/>
<path d="M58.0915 11.8455V19.6993H4.42456V11.8455C4.42456 11.7702 4.4267 11.6949 4.4299 11.6196C4.54739 9.29694 6.4668 7.45123 8.81932 7.45123H53.6967C56.0492 7.45123 57.9687 9.29694 58.0861 11.6196C58.0893 11.6949 58.0915 11.7702 58.0915 11.8455Z" fill="#FFB400"/>
<path d="M4.42456 15.9342V11.8455C4.42456 9.41763 6.39149 7.45123 8.81932 7.45123H53.6967C56.1251 7.45123 58.0915 9.41763 58.0915 11.8455V15.9342C58.0915 13.5074 56.1251 11.5394 53.6967 11.5394H8.81932C6.39149 11.5394 4.42456 13.5074 4.42456 15.9342Z" fill="#FFC843"/>
<path d="M8.4803 33.8187H3.4874C2.12769 33.8187 1.02539 32.7164 1.02539 31.3572V29.6482C1.02539 28.2885 2.12769 27.1862 3.4874 27.1862H8.4803C9.84001 27.1862 10.9418 28.2885 10.9418 29.6482V31.3572C10.9418 32.7164 9.84001 33.8187 8.4803 33.8187Z" fill="#FFC843"/>
<path d="M10.9418 43.1722V44.8902C10.9418 46.2473 9.84162 47.3474 8.48457 47.3474H3.48259C2.12555 47.3474 1.02539 46.2473 1.02539 44.8902V43.1722C1.02539 41.8151 2.12555 40.715 3.48259 40.715H8.48511C9.84215 40.715 10.9418 41.8151 10.9418 43.1722Z" fill="#FFC843"/>
<path d="M10.9418 44.0309V44.8902C10.9418 46.2472 9.84162 47.3474 8.48457 47.3474H3.48259C2.12555 47.3474 1.02539 46.2472 1.02539 44.8902V44.0309H10.9418Z" fill="#FFB400"/>
<path d="M10.9418 30.5027V31.3615C10.9418 32.7185 9.84162 33.8187 8.48457 33.8187H3.48259C2.12555 33.8187 1.02539 32.7185 1.02539 31.3615V30.5027H10.9418Z" fill="#FFB400"/>
<path d="M13.9512 49.8457H19.5363V55.4309H13.9512V49.8457Z" fill="#76FFD9"/>
<path d="M24.7876 49.8457H30.3728V55.4309H24.7876V49.8457Z" fill="#76FFD9"/>
<path d="M35.6243 49.8457H41.2094V55.4309H35.6243V49.8457Z" fill="#76FFD9"/>
<path d="M68.9745 51.598C68.9745 57.6083 64.1018 62.481 58.0915 62.481C52.0807 62.481 47.2085 57.6083 47.2085 51.598C47.2085 45.5872 52.0807 40.715 58.0915 40.715C64.1018 40.715 68.9745 45.5872 68.9745 51.598Z" fill="#5DE0BF"/>
<path d="M66.2529 51.598C66.2529 56.1054 62.5989 59.7594 58.0914 59.7594C53.584 59.7594 49.9294 56.1054 49.9294 51.598C49.9294 47.0905 53.584 43.436 58.0914 43.436C62.5989 43.436 66.2529 47.0905 66.2529 51.598Z" fill="#76FFD9"/>
<path d="M26.9485 43.1348V27.1862C26.9485 26.6196 26.4897 26.1608 25.9231 26.1608C25.357 26.1608 24.8977 26.6196 24.8977 27.1862V43.1348C24.8977 43.7009 25.357 44.1602 25.9231 44.1602C26.4897 44.1602 26.9485 43.7009 26.9485 43.1348Z" fill="#969BA1"/>
<path d="M38.7762 26.1608H30.3728C29.8067 26.1608 29.3474 26.6196 29.3474 27.1862C29.3474 27.7529 29.8067 28.2116 30.3728 28.2116H37.3786L32.7755 42.8266C32.6057 43.3666 32.9053 43.9423 33.4458 44.1126C33.5483 44.1447 33.6519 44.1602 33.7539 44.1602C34.1897 44.1602 34.594 43.8803 34.7318 43.4424L39.7546 27.4944C39.8523 27.183 39.7968 26.8428 39.6035 26.5801C39.4101 26.3162 39.103 26.1608 38.7762 26.1608Z" fill="#969BA1"/>
<path d="M65.7242 42.457C65.29 42.0939 64.6433 42.1516 64.2801 42.5863C63.917 43.0205 63.9746 43.6672 64.4094 44.0304C66.6588 45.9108 67.9491 48.6692 67.9491 51.5979C67.9491 57.0336 63.5271 61.4556 58.0915 61.4556C52.6558 61.4556 48.2339 57.0336 48.2339 51.5979C48.2339 46.1629 52.6548 41.7409 58.0899 41.7403H58.0915H58.0936C58.9299 41.7403 59.7609 41.8455 60.5631 42.0522C61.1116 42.1948 61.6707 41.8642 61.8122 41.3158C61.9538 40.7673 61.6237 40.2081 61.0758 40.0666C60.4349 39.9016 59.7791 39.791 59.1169 39.7344V11.8454C59.1169 8.8574 56.6858 6.42584 53.6973 6.42584H8.81994C5.83083 6.42584 3.39874 8.85687 3.39874 11.8454V26.163C1.51672 26.2105 0 27.755 0 29.6482V31.3567C0 33.2504 1.51672 34.7949 3.39874 34.8419V39.6917C1.51672 39.7387 0 41.2832 0 43.1764V44.8854C0 46.7786 1.51672 48.3231 3.39874 48.3701V55.7924C3.39874 58.7805 5.83083 61.2115 8.81994 61.2115H11.8945C12.4606 61.2115 12.9199 60.7527 12.9199 60.1861C12.9199 59.62 12.4606 59.1607 11.8945 59.1607H8.81994C6.96143 59.1607 5.44951 57.6499 5.44951 55.7924V48.3722H8.48028C10.4029 48.3722 11.9671 46.808 11.9671 44.8854V43.1764C11.9671 41.2533 10.4029 39.689 8.48028 39.689H5.44951V34.8441H8.48028C10.4029 34.8441 11.9671 33.2798 11.9671 31.3567V29.6477C11.9671 27.7251 10.4029 26.1608 8.48028 26.1608H5.44951V11.8454C5.44951 9.988 6.96143 8.47662 8.81994 8.47662H53.6978C55.5552 8.47662 57.0661 9.988 57.0661 11.8454V39.7339C50.9778 40.2557 46.1831 45.3767 46.1831 51.5979C46.1831 54.4674 47.2031 57.103 48.8998 59.1607H16.3913C15.8246 59.1607 15.3659 59.62 15.3659 60.1861C15.3659 60.7527 15.8246 61.2115 16.3913 61.2115H51.0729C53.0425 62.6535 55.4692 63.5063 58.0915 63.5063C64.6577 63.5063 69.9999 58.1642 69.9999 51.5979C69.9999 48.0598 68.4415 44.7278 65.7242 42.457ZM8.48028 41.7398C9.27229 41.7398 9.91636 42.3844 9.91636 43.1764V44.8854C9.91636 45.6774 9.27229 46.322 8.48028 46.322H3.48739C2.69538 46.322 2.05078 45.6774 2.05078 44.8854V43.1764C2.05078 42.3844 2.69538 41.7398 3.48739 41.7398H8.48028ZM8.48028 28.2116C9.27229 28.2116 9.91636 28.8557 9.91636 29.6482V31.3567C9.91636 32.1492 9.27229 32.7933 8.48028 32.7933H3.48739C2.69538 32.7933 2.05078 32.1492 2.05078 31.3567V29.6482C2.05078 28.8557 2.69538 28.2116 3.48739 28.2116H8.48028Z" fill="#434C54"/>
<path d="M57.0661 44.6494V49.1226L56.1854 48.242C55.7849 47.8414 55.1355 47.8414 54.7355 48.242C54.3349 48.6425 54.3349 49.2919 54.7355 49.6919L57.3662 52.3232C57.5628 52.5192 57.825 52.6234 58.0915 52.6234C58.2239 52.6234 58.3569 52.5977 58.484 52.5454C58.8669 52.3868 59.1169 52.0124 59.1169 51.598V44.6494C59.1169 44.0827 58.6576 43.624 58.0915 43.624C57.5254 43.624 57.0661 44.0827 57.0661 44.6494Z" fill="#434C54"/>
</svg>
