<svg width="48" height="48" viewBox="0 0 48 48" fill="none" xmlns="http://www.w3.org/2000/svg">
<path d="M30 12V22C30 25.3137 27.3137 28 24 28C20.6863 28 18 25.3137 18 22V12C18 8.68629 20.6863 6 24 6C27.3137 6 30 8.68629 30 12Z" fill="white"/>
<path d="M10 22C10 29.0529 15.2154 34.8878 22 35.8582V40C22 41.1046 22.8954 42 24 42C25.1046 42 26 41.1046 26 40V35.8582C32.7846 34.8878 38 29.0529 38 22C38 20.8954 37.1046 20 36 20C34.8954 20 34 20.8954 34 22C34 27.5228 29.5228 32 24 32C18.4772 32 14 27.5228 14 22C14 20.8954 13.1046 20 12 20C10.8954 20 10 20.8954 10 22Z" fill="white"/>
</svg>
