<svg width="26" height="26" viewBox="0 0 26 26" fill="none" xmlns="http://www.w3.org/2000/svg">
<path d="M10.4025 0.71094L10.3913 0.699768L9.81188 1.27918C9.18192 1.90867 8.60336 2.58759 8.08176 3.30942L8.08364 3.31114C3.91896 9.07847 3.91764 16.9217 8.08232 22.6893L8.08125 22.69C8.603 23.412 9.18173 24.0911 9.81188 24.7207L10.3913 25.3001L10.4025 25.289L10.4083 23.7147C10.1251 23.3812 9.85727 23.0396 9.60469 22.6898L9.60575 22.6891C9.44132 22.4614 9.28363 22.2304 9.13268 21.9961C5.59988 16.5395 5.60109 9.46111 9.13395 4.00415C9.28544 3.77022 9.44315 3.53922 9.60707 3.31114L9.6052 3.30942C9.85741 2.96001 10.1251 2.61859 10.4083 2.28516L10.4025 0.71094Z" fill="#D4E1F4"/>
<path d="M21.3281 22.3584V20.3506C21.3301 20.3123 21.3241 20.274 21.3106 20.2382C21.297 20.2023 21.2762 20.1697 21.2495 20.1423C21.2227 20.1148 21.1905 20.0932 21.155 20.0788C21.1195 20.0645 21.0814 20.0576 21.0431 20.0586H20.2109V5.9414H21.0431C21.0814 5.94244 21.1195 5.93554 21.155 5.92114C21.1905 5.90675 21.2227 5.88516 21.2495 5.85773C21.2762 5.83031 21.297 5.79765 21.3106 5.7618C21.3241 5.72595 21.3301 5.68768 21.3281 5.64941V3.64157C21.3281 3.13652 21.1275 2.65215 20.7704 2.29503C20.4132 1.9379 19.9289 1.73727 19.4238 1.73727C18.9188 1.73727 18.4344 1.9379 18.0773 2.29503C17.7202 2.65215 17.5195 3.13652 17.5195 3.64157V5.64941C17.5195 5.81765 17.6719 5.9414 17.8399 5.9414H18.6875V20.0586H17.8399C17.6719 20.0586 17.5195 20.1823 17.5195 20.3506V22.3584C17.5195 22.8635 17.7202 23.3478 18.0773 23.705C18.4344 24.0621 18.9188 24.2627 19.4238 24.2627C19.9289 24.2627 20.4132 24.0621 20.7704 23.705C21.1275 23.3478 21.3281 22.8635 21.3281 22.3584ZM18.1289 3.64157C18.1289 3.29814 18.2653 2.96877 18.5082 2.72592C18.751 2.48308 19.0804 2.34665 19.4238 2.34665C19.7673 2.34665 20.0966 2.48308 20.3395 2.72592C20.5823 2.96877 20.7188 3.29814 20.7188 3.64157V5.33203H18.1289V3.64157ZM19.2969 5.9414H19.6016V20.0586H19.2969V5.9414ZM20.7188 22.3584C20.7188 22.7019 20.5823 23.0312 20.3395 23.2741C20.0966 23.5169 19.7673 23.6533 19.4238 23.6533C19.0804 23.6533 18.751 23.5169 18.5082 23.2741C18.2653 23.0312 18.1289 22.7019 18.1289 22.3584V20.668H20.7188V22.3584Z" fill="#1AE5BE"/>
<path d="M7.27916 7.7411C7.31687 7.75448 7.35684 7.7603 7.3968 7.75822C7.43676 7.75614 7.47592 7.7462 7.51204 7.72897C7.54815 7.71174 7.58051 7.68756 7.60727 7.65781C7.63403 7.62806 7.65467 7.59332 7.66799 7.55559C7.72263 7.40142 7.78027 7.24619 7.83932 7.09425C7.85408 7.05691 7.86131 7.01702 7.8606 6.97687C7.85989 6.93672 7.85125 6.89711 7.83518 6.86032C7.81911 6.82352 7.79592 6.79026 7.76696 6.76246C7.73799 6.73465 7.70381 6.71285 7.66639 6.6983C7.62896 6.68374 7.58903 6.67673 7.54889 6.67766C7.50875 6.6786 7.46919 6.68745 7.43248 6.70373C7.39577 6.72 7.36264 6.74337 7.335 6.77249C7.30735 6.80161 7.28573 6.8359 7.27139 6.8734C7.21004 7.03082 7.15027 7.19215 7.09365 7.35217C7.08029 7.38988 7.0745 7.42986 7.07659 7.46982C7.07868 7.50978 7.08862 7.54893 7.10585 7.58505C7.12308 7.62117 7.14725 7.65354 7.17698 7.68031C7.20672 7.70708 7.24144 7.72774 7.27916 7.7411Z" fill="#0635C9"/>
<path d="M6.79168 8.29069C6.20514 10.3128 6.00213 12.4267 6.19312 14.5234C6.19994 14.5991 6.23481 14.6696 6.29089 14.7209C6.34698 14.7722 6.42022 14.8007 6.49624 14.8008C6.50538 14.8008 6.51462 14.8004 6.52391 14.7995C6.60439 14.7923 6.67869 14.7533 6.73047 14.6913C6.78224 14.6293 6.80726 14.5492 6.80001 14.4687C6.61587 12.4474 6.81157 10.4095 7.37699 8.46015C7.3886 8.42158 7.39244 8.38109 7.3883 8.34102C7.38415 8.30095 7.37211 8.26211 7.35285 8.22673C7.3336 8.19134 7.30752 8.16013 7.27613 8.13489C7.24474 8.10966 7.20865 8.09089 7.16996 8.07969C7.13127 8.06849 7.09074 8.06507 7.05072 8.06963C7.01069 8.0742 6.97197 8.08665 6.9368 8.10627C6.90162 8.12589 6.87068 8.15229 6.84577 8.18395C6.82086 8.21561 6.80248 8.25189 6.79168 8.29069Z" fill="#0635C9"/>
<path d="M10.2123 25.5507C10.2405 25.5792 10.274 25.6017 10.3109 25.6172C10.3479 25.6326 10.3875 25.6406 10.4275 25.6407C10.4675 25.6408 10.5072 25.633 10.5442 25.6178C10.5812 25.6025 10.6148 25.5801 10.6432 25.5518L11.2592 24.936C12.8337 23.3701 14.0814 21.5072 14.9302 19.4552C15.7789 17.4033 16.2116 15.2032 16.2033 12.9827C16.1988 8.47925 14.3654 4.17006 11.181 0.985616L10.6442 0.448807C10.6221 0.42608 10.5965 0.407034 10.5684 0.392389C10.5108 0.362768 10.4453 0.352174 10.3813 0.362129C10.3173 0.372084 10.2582 0.402076 10.2123 0.447792L9.59632 1.05798C7.44915 3.19658 5.92005 5.87585 5.17083 8.81227C5.1595 8.85723 5.15859 8.90419 5.16815 8.94956C5.17771 8.99493 5.1975 9.03752 5.22602 9.07408C5.25453 9.11065 5.29101 9.14022 5.33268 9.16055C5.37435 9.18088 5.42011 9.19144 5.46648 9.19141H5.46694C5.53498 9.19121 5.60102 9.16831 5.65457 9.12632C5.70811 9.08434 5.74611 9.02568 5.76254 8.95964C6.23451 7.09852 7.03658 5.33719 8.13062 3.75934C8.69699 4.21555 9.38701 4.49169 10.1117 4.55219L10.1225 7.47094L9.35729 8.23616C6.73053 10.863 6.73053 15.137 9.35729 17.7638L10.1225 18.5291L10.1117 21.4478C9.38875 21.5083 8.70028 21.7833 8.13453 22.2376C6.25563 19.522 5.25304 16.2963 5.26153 12.9941C5.26192 12.3126 5.30421 11.6318 5.38818 10.9554C5.39498 10.9149 5.39348 10.8733 5.38378 10.8333C5.37408 10.7933 5.35637 10.7557 5.33174 10.7227C5.3071 10.6897 5.27603 10.6621 5.24042 10.6415C5.20481 10.6208 5.16538 10.6076 5.12453 10.6027C5.08367 10.5977 5.04223 10.601 5.0027 10.6125C4.96318 10.624 4.92639 10.6434 4.89455 10.6694C4.86272 10.6955 4.8365 10.7278 4.81748 10.7643C4.79846 10.8008 4.78703 10.8408 4.78388 10.8818C4.69693 11.5826 4.65303 12.2881 4.65241 12.9943C4.64634 15.2124 5.08018 17.4097 5.92884 19.459C6.77749 21.5083 8.02412 23.369 9.59657 24.9334L10.2123 25.5507ZM10.8283 24.5046L10.7097 24.6238L10.7191 22.0568C11.3228 22.1133 11.8958 22.349 12.3645 22.7336C11.895 23.3597 11.3817 23.9516 10.8283 24.5049V24.5046ZM12.721 22.2376C12.1492 21.7786 11.4522 21.5027 10.7212 21.4459L10.7319 18.5299L11.4982 17.7636C12.7617 16.5001 13.4714 14.7865 13.4714 12.9997C13.4714 11.213 12.7617 9.49937 11.4982 8.23591L10.7319 7.46992L10.7212 4.55386C11.4527 4.4973 12.15 4.22119 12.722 3.76167C14.6003 6.47524 15.6026 9.69899 15.5939 12.9992C15.6026 16.3 14.6 19.5241 12.721 22.2379V22.2376ZM8.00392 12.6953H12.8547C12.8596 12.7965 12.8621 12.898 12.8621 13C12.8621 13.2049 12.8522 13.408 12.8324 13.6094H8.02662C7.99649 13.3057 7.98891 13.0001 8.00392 12.6953ZM12.3652 3.26585C11.8964 3.65092 11.323 3.88682 10.7189 3.94317L10.7097 1.37399L10.8285 1.49328C11.3821 2.04693 11.8957 2.63928 12.3652 3.26585ZM8.48792 3.26387C8.95827 2.63644 9.47266 2.04328 10.0272 1.48886L10.1002 1.41634L10.1096 3.94017C9.51416 3.87947 8.94998 3.64418 8.48786 3.26387H8.48792ZM9.78822 8.66699L10.4281 8.0274L11.0676 8.66724C11.9965 9.59102 12.6023 10.7901 12.7947 12.0859H8.0646C8.25697 10.7908 8.86132 9.59198 9.78817 8.66709L9.78822 8.66699ZM8.11808 14.2187H12.7415C12.504 15.3996 11.9213 16.4835 11.0673 17.3329L10.4278 17.9728L9.78792 17.3329C8.93586 16.4826 8.3548 15.399 8.11808 14.2187ZM10.1096 22.0597L10.1003 24.5781L10.0272 24.5051C9.4739 23.9517 8.96066 23.3596 8.49142 22.7333C8.95294 22.3548 9.51573 22.1205 10.1096 22.0597Z" fill="#0635C9"/>
</svg>
