<svg width="50" height="50" viewBox="0 0 50 50" fill="none" xmlns="http://www.w3.org/2000/svg">
<path d="M25 45C28.713 45 32.274 43.525 34.8995 40.8995C37.525 38.274 39 34.713 39 31V19C39 15.287 37.525 11.726 34.8995 9.1005C32.274 6.475 28.713 5 25 5C21.287 5 17.726 6.475 15.1005 9.1005C12.475 11.726 11 15.287 11 19V31C11 34.713 12.475 38.274 15.1005 40.8995C17.726 43.525 21.287 45 25 45ZM13 19C13 15.8174 14.2643 12.7652 16.5147 10.5147C18.7652 8.26428 21.8174 7 25 7C28.1826 7 31.2349 8.26428 33.4853 10.5147C35.7357 12.7652 37 15.8174 37 19V31C37 34.1826 35.7357 37.2348 33.4853 39.4853C31.2349 41.7357 28.1826 43 25 43C21.8174 43 18.7652 41.7357 16.5147 39.4853C14.2643 37.2348 13 34.1826 13 31V19Z" fill="white"/>
<path d="M25 21C25.7911 21 26.5645 20.7654 27.2223 20.3259C27.8801 19.8863 28.3928 19.2616 28.6955 18.5307C28.9983 17.7998 29.0775 16.9956 28.9231 16.2196C28.7688 15.4437 28.3878 14.731 27.8284 14.1716C27.269 13.6122 26.5563 13.2312 25.7804 13.0769C25.0044 12.9225 24.2002 13.0017 23.4693 13.3045C22.7384 13.6072 22.1136 14.1199 21.6741 14.7777C21.2346 15.4355 21 16.2089 21 17C21 18.0609 21.4214 19.0783 22.1716 19.8284C22.9217 20.5786 23.9391 21 25 21ZM25 15C25.3956 15 25.7822 15.1173 26.1111 15.3371C26.44 15.5568 26.6964 15.8692 26.8478 16.2346C26.9991 16.6001 27.0387 17.0022 26.9616 17.3902C26.8844 17.7781 26.6939 18.1345 26.4142 18.4142C26.1345 18.6939 25.7781 18.8844 25.3902 18.9616C25.0022 19.0387 24.6001 18.9991 24.2346 18.8478C23.8692 18.6964 23.5568 18.44 23.3371 18.1111C23.1173 17.7822 23 17.3956 23 17C23 16.4696 23.2107 15.9609 23.5858 15.5858C23.9609 15.2107 24.4696 15 25 15Z" fill="white"/>
</svg>
