<?xml version="1.0" encoding="iso-8859-1"?>
<!-- Generator: Adobe Illustrator 19.0.0, SVG Export Plug-In . SVG Version: 6.00 Build 0)  -->
<svg version="1.1" id="Capa_1" xmlns="http://www.w3.org/2000/svg" xmlns:xlink="http://www.w3.org/1999/xlink" x="0px" y="0px"
	 viewBox="0 0 512 512" style="enable-background:new 0 0 512 512;" xml:space="preserve">
<g>
	<polygon style="fill:#4398D1;" points="238.345,26.483 238.345,314.854 54.44,314.854 52.966,26.483 	"/>
	<polygon style="fill:#4398D1;" points="317.793,17.655 317.793,308.966 510.455,308.966 512,17.655 	"/>
</g>
<path style="fill:#F0E4D6;" d="M476.69,282.483V0H317.793c-19.5,0-35.31,15.81-35.31,35.31l0,0v247.172H476.69z"/>
<path style="fill:#E0D2C1;" d="M88.276,282.483V0h158.897c19.5,0,35.31,15.81,35.31,35.31l0,0v247.172H88.276z"/>
<path style="fill:#E87D9C;" d="M158.897,176.552h88.276c87.755,0,158.897,71.142,158.897,158.897v105.931l0,0H70.621
	c-39,0-70.621-31.62-70.621-70.621v-35.31C0,247.693,71.142,176.552,158.897,176.552z"/>
<path style="fill:#DE7392;" d="M406.069,335.448c-0.009-56.391-29.952-108.535-78.645-136.978
	c-61.387,126.967-164.767,201.71-244.003,242.909h322.648V335.448z"/>
<g>
	<path style="fill:#D65C7F;" d="M114.759,291.31h9.419c1.907,16.137,9.207,31.153,20.718,42.62l3.346,3.346l12.482-12.482
		l-3.346-3.346c-8.183-8.165-13.559-18.723-15.378-30.137h25.724c24.364-0.026,44.111-19.774,44.138-44.138v-70.621h-17.655v70.621
		c0,14.627-11.855,26.483-26.483,26.483h-52.966c-4.061,0.053-8.086,0.689-11.97,1.863c-9.34-10.125-14.521-23.393-14.513-37.173
		H70.621c-0.044,16.614,5.65,32.733,16.11,45.639c-10.152,8.298-16.066,20.701-16.11,33.81v44.888
		c-12.394,1.836-23.861,7.609-32.724,16.463l12.482,12.482c16.066-16.031,42.072-16.031,58.138,0L121,379.145
		c-8.863-8.854-20.33-14.627-32.724-16.463v-44.888C88.276,303.166,100.131,291.31,114.759,291.31z"/>
	<rect x="238.345" y="397.241" style="fill:#D65C7F;" width="17.655" height="44.138"/>
	<path style="fill:#D65C7F;" d="M308.966,273.655c-14.627,0-26.483-11.855-26.483-26.483v-17.655h-17.655v17.655
		c0.026,24.364,19.774,44.111,44.138,44.138h90.756c-1.686-6.003-3.734-11.9-6.118-17.655H308.966z"/>
	<path style="fill:#D65C7F;" d="M141.241,229.517v-51.933c-5.941,0.689-11.829,1.695-17.655,3.037v48.896H141.241z"/>
	<path style="fill:#D65C7F;" d="M185.379,432.552c-14.627,0-26.483-11.855-26.483-26.483v-17.655
		c0-14.627,11.855-26.483,26.483-26.483h118.546c1.827,12.394,7.601,23.861,16.455,32.724l12.482-12.482
		c-16.022-16.066-16.022-42.072,0-58.138l-12.482-12.482c-8.854,8.863-14.627,20.33-16.455,32.724h-55.614
		c-13.868-16.243-12.95-40.404,2.11-55.552l-12.518-12.482c-17.911,17.964-22.298,45.383-10.876,68.034h-41.649
		c-24.364,0.026-44.111,19.774-44.138,44.138v17.655c0.035,13.948,6.691,27.048,17.929,35.31h61.519v-8.828H185.379z"/>
	<path style="fill:#D65C7F;" d="M35.31,300.138H4.07c-1.342,5.826-2.348,11.714-3.037,17.655H35.31V300.138z"/>
	<path style="fill:#D65C7F;" d="M324.034,253.414l32.786-32.786c-4.281-4.07-8.792-7.901-13.497-11.476l-31.779,31.779
		L324.034,253.414z"/>
</g>
<path style="fill:#FDB62F;" d="M406.069,441.379H273.655L326.621,512h8.828C374.449,512,406.069,480.38,406.069,441.379z"/>
<path style="fill:#FFA719;" d="M377.097,441.379c-7.142,29.087-29.193,52.198-57.918,60.69l7.442,9.931h8.828
	c39,0,70.621-31.62,70.621-70.621H377.097z"/>
<polygon style="fill:#EBDCCA;" points="273.655,441.379 211.862,441.379 264.828,512 326.621,512 "/>
<g>
	<rect x="317.793" y="44.138" style="fill:#CCBFB0;" width="123.586" height="17.655"/>
	<rect x="317.793" y="88.276" style="fill:#CCBFB0;" width="70.621" height="17.655"/>
	<rect x="406.069" y="88.276" style="fill:#CCBFB0;" width="35.31" height="17.655"/>
	<rect x="317.793" y="132.414" style="fill:#CCBFB0;" width="123.586" height="17.655"/>
	<rect x="361.931" y="176.552" style="fill:#CCBFB0;" width="79.448" height="17.655"/>
	<rect x="406.069" y="220.69" style="fill:#CCBFB0;" width="35.31" height="17.655"/>
	<rect x="123.586" y="44.138" style="fill:#CCBFB0;" width="123.586" height="17.655"/>
	<rect x="123.586" y="88.276" style="fill:#CCBFB0;" width="88.276" height="17.655"/>
	<rect x="229.517" y="88.276" style="fill:#CCBFB0;" width="17.655" height="17.655"/>
	<rect x="123.586" y="132.414" style="fill:#CCBFB0;" width="35.31" height="17.655"/>
	<rect x="176.552" y="132.414" style="fill:#CCBFB0;" width="70.621" height="17.655"/>
</g>
<path style="fill:#FA962A;" d="M293.517,467.862l13.241,17.655h83.774c4.29-5.35,7.777-11.299,10.355-17.655H293.517z"/>
<g>
</g>
<g>
</g>
<g>
</g>
<g>
</g>
<g>
</g>
<g>
</g>
<g>
</g>
<g>
</g>
<g>
</g>
<g>
</g>
<g>
</g>
<g>
</g>
<g>
</g>
<g>
</g>
<g>
</g>
</svg>
