<svg width="20" height="20" viewBox="0 0 20 20" fill="none" xmlns="http://www.w3.org/2000/svg">
<path d="M19.1196 14.1266H3.66036C2.63685 14.1266 1.80701 13.2969 1.80701 12.2732V0.956753C1.80719 0.816847 1.82312 0.677302 1.85443 0.541016C1.01336 0.734857 0.417173 1.48362 0.416992 2.34677V13.6633C0.416992 14.6869 1.24684 15.5166 2.27035 15.5166H17.7296C18.5929 15.5164 19.3416 14.9204 19.5355 14.0792C19.399 14.1107 19.2597 14.1266 19.1196 14.1266Z" fill="#D4E1F4"/>
<path d="M13.475 6.05345H10.8803C10.7013 6.05345 10.556 5.9083 10.556 5.72912C10.556 5.55012 10.7013 5.40479 10.8803 5.40479H13.475C13.6542 5.40479 13.7994 5.55012 13.7994 5.72912C13.7994 5.9083 13.6542 6.05345 13.475 6.05345Z" fill="#1AE5BE"/>
<path d="M13.475 7.21177H10.8803C10.7013 7.21177 10.556 7.06662 10.556 6.88744C10.556 6.70844 10.7013 6.56311 10.8803 6.56311H13.475C13.6542 6.56311 13.7994 6.70844 13.7994 6.88744C13.7994 7.06662 13.6542 7.21177 13.475 7.21177Z" fill="#1AE5BE"/>
<path d="M16.2087 7.67517H15.0504C14.8714 7.67517 14.726 7.53001 14.726 7.35083C14.726 7.17183 14.8714 7.02649 15.0504 7.02649H16.2087C16.3879 7.02649 16.5331 7.17183 16.5331 7.35083C16.5331 7.53001 16.3879 7.67517 16.2087 7.67517Z" fill="#1AE5BE"/>
<path d="M16.2087 8.64812H15.0504C14.8714 8.64812 14.726 8.50296 14.726 8.32378C14.726 8.14478 14.8714 7.99945 15.0504 7.99945H16.2087C16.3879 7.99945 16.5331 8.14478 16.5331 8.32378C16.5331 8.50296 16.3879 8.64812 16.2087 8.64812Z" fill="#1AE5BE"/>
<path d="M16.2087 9.66746H15.0504C14.8714 9.66746 14.726 9.52231 14.726 9.34313C14.726 9.16413 14.8714 9.0188 15.0504 9.0188H16.2087C16.3879 9.0188 16.5331 9.16413 16.5331 9.34313C16.5331 9.52231 16.3879 9.66746 16.2087 9.66746Z" fill="#1AE5BE"/>
<path d="M5.32878 8.13993C3.91668 8.13993 2.77191 6.99534 2.77191 5.58324C2.77191 4.17096 3.91668 3.02619 5.32878 3.02637C6.74088 3.02637 7.88547 4.17114 7.88547 5.58324C7.88547 6.99516 6.74088 8.13993 5.32878 8.13993ZM5.32878 3.67504C4.27487 3.67504 3.42059 4.52932 3.42059 5.58324C3.42059 6.63697 4.27487 7.49125 5.32878 7.49125C6.38252 7.49125 7.2368 6.63697 7.2368 5.58324C7.23951 5.07628 7.03934 4.58941 6.68097 4.23105C6.32243 3.8725 5.83556 3.67233 5.32878 3.67504Z" fill="#1AE5BE"/>
<path d="M7.49796 9.34314H3.09625C2.91725 9.34314 2.77191 9.19798 2.77191 9.0188C2.77191 8.8398 2.91725 8.69446 3.09625 8.69446H7.49796C7.67714 8.69446 7.8223 8.8398 7.8223 9.0188C7.8223 9.19798 7.67714 9.34314 7.49796 9.34314Z" fill="#1AE5BE"/>
<path d="M5.69094 10.7332H3.09625C2.91725 10.7332 2.77191 10.588 2.77191 10.4088C2.77191 10.2298 2.91725 10.0845 3.09625 10.0845H5.69094C5.87013 10.0845 6.01528 10.2298 6.01528 10.4088C6.01528 10.588 5.87013 10.7332 5.69094 10.7332Z" fill="#1AE5BE"/>
<path d="M17.7296 0.076416H2.27036C1.01699 0.0778639 0.00144793 1.09359 0 2.34677V13.6633C0.00144793 14.9166 1.01699 15.9322 2.27036 15.9336H9.58296V19.0733H6.17163C5.94123 19.0733 5.75463 19.2601 5.75463 19.4903C5.75463 19.7207 5.94123 19.9073 6.17163 19.9073H14.05C14.2804 19.9073 14.467 19.7207 14.467 19.4903C14.467 19.2601 14.2804 19.0733 14.05 19.0733H10.417V15.9336H17.7296C18.9829 15.9322 19.9985 14.9166 19.9999 13.6633V2.34677C19.9985 1.09359 18.9829 0.0778639 17.7296 0.076416V0.076416ZM2.27036 0.910425H17.7296C18.5225 0.91133 19.165 1.55385 19.1659 2.34677V11.6097H0.834009V2.34677C0.834914 1.55385 1.47743 0.91133 2.27036 0.910425ZM17.7296 15.0996H2.27036C1.47743 15.0987 0.834914 14.4562 0.834009 13.6633V12.4438H19.1659V13.6633C19.165 14.4562 18.5225 15.0987 17.7296 15.0996Z" fill="#0635C9"/>
<path d="M10.0323 10.6869H16.9176C17.0968 10.6869 17.242 10.5417 17.242 10.3625V6.2401C17.242 6.06092 17.0968 5.91576 16.9176 5.91576H14.6735V4.01698C14.6735 3.83798 14.5282 3.69265 14.3492 3.69265H13.9182V3.14786C13.9182 2.96886 13.7731 2.82352 13.5939 2.82352H12.2703V2.02246C12.2703 1.84346 12.1252 1.69812 11.946 1.69812C11.767 1.69812 11.6216 1.84346 11.6216 2.02246V2.82352H10.788C10.6088 2.82352 10.4637 2.96886 10.4637 3.14786V3.69265H10.0327C9.85353 3.69265 9.70837 3.83798 9.70837 4.01698V10.3625C9.70837 10.5415 9.85335 10.6867 10.0323 10.6869V10.6869ZM16.5933 6.56444V10.0382H14.6735V6.56444H16.5933ZM12.7298 10.0382H11.6519V9.12637H12.7298V10.0382ZM11.1123 3.4722H13.2694V3.69265H11.1123V3.4722ZM10.357 4.34132H14.0248V10.0382H13.3785V8.80203C13.3785 8.62285 13.2334 8.4777 13.0542 8.4777H11.3275C11.1483 8.4777 11.0032 8.62285 11.0032 8.80203V10.0382H10.3567L10.357 4.34132Z" fill="#0635C9"/>
<path d="M4.72603 6.30141C4.84042 6.43534 5.04077 6.45344 5.17742 6.34231L6.42518 5.32713C6.56418 5.21419 6.58517 5.00985 6.47205 4.87085C6.35893 4.73185 6.15477 4.71086 6.01577 4.82397L5.01362 5.63952L4.6835 5.25292C4.5673 5.11664 4.36242 5.10053 4.22631 5.21673C4.09003 5.3331 4.07392 5.53781 4.1903 5.67409L4.72603 6.30141Z" fill="#0635C9"/>
</svg>
