<svg width="20" height="20" viewBox="0 0 20 20" fill="none" xmlns="http://www.w3.org/2000/svg">
<path d="M3 10C3 5.19551 6.5668 1.225 11.1967 0.589453C10.7996 0.539453 10.4 0.514648 10 0.514648C4.75332 0.514648 0.5 4.76797 0.5 10.0146C0.5 15.2613 4.75332 19.5146 10 19.5146C10.4359 19.5145 10.8715 19.4846 11.3033 19.4252C6.62168 18.8367 3 14.8414 3 10V10Z" fill="#D4E1F4"/>
<path d="M11.5627 12.0918C11.43 12.092 11.3027 12.0393 11.2091 11.9453L8.05465 8.79103C7.85934 8.59571 7.85934 8.27911 8.05446 8.0838C8.24977 7.88849 8.56637 7.88849 8.76168 8.0838L11.9162 11.2383C12.0592 11.3813 12.1019 11.5963 12.0246 11.7832C11.9472 11.9701 11.7648 12.0918 11.5627 12.0918Z" fill="#1AE5BE"/>
<path d="M3.31699 17.183C3.11464 17.183 2.93242 17.0613 2.85488 16.8744C2.77753 16.6877 2.82031 16.4724 2.96328 16.3295L4.76328 14.5295C4.95878 14.3357 5.27421 14.3365 5.46894 14.531C5.66347 14.7258 5.66425 15.0412 5.4705 15.2367L3.6705 17.0367C3.57675 17.1306 3.4496 17.1834 3.31699 17.183Z" fill="#1AE5BE"/>
<path d="M14.8832 5.61679C14.6809 5.61679 14.4986 5.49511 14.4213 5.30819C14.3438 5.12128 14.3865 4.90624 14.5297 4.76327L16.3297 2.96327C16.4547 2.8328 16.6402 2.78007 16.8152 2.82518C16.9901 2.87011 17.1272 3.00604 17.1737 3.18065C17.2201 3.35507 17.169 3.5412 17.0397 3.66737L17.0365 3.6703L15.2365 5.4703C15.143 5.56425 15.0156 5.61698 14.8832 5.61679Z" fill="#1AE5BE"/>
<path d="M16.683 17.183C16.5504 17.1834 16.4232 17.1306 16.3295 17.0367L14.5295 15.2367C14.3357 15.0412 14.3365 14.7258 14.531 14.531C14.7258 14.3365 15.0412 14.3357 15.2367 14.5295L17.0367 16.3295C17.1797 16.4724 17.2224 16.6877 17.1451 16.8744C17.0675 17.0613 16.8853 17.183 16.683 17.183V17.183Z" fill="#1AE5BE"/>
<path d="M5.11677 5.61678C4.98416 5.61697 4.85701 5.56424 4.76326 5.47029L2.96326 3.67029C2.76951 3.47478 2.77009 3.15955 2.96482 2.96482C3.15955 2.77009 3.47478 2.76951 3.67029 2.96326L5.47029 4.76326C5.61345 4.90623 5.65623 5.12127 5.57869 5.30818C5.50134 5.4951 5.31912 5.61678 5.11677 5.61678Z" fill="#1AE5BE"/>
<path d="M10 0C4.48594 0 0 4.48594 0 10C0 15.5141 4.48594 20 10 20C15.5141 20 20 15.5141 20 10C20 4.48594 15.5141 0 10 0ZM10.5 18.9859V16.9059C10.5 16.6297 10.2762 16.4059 10 16.4059C9.72383 16.4059 9.5 16.6297 9.5 16.9059V18.9859C4.93457 18.7346 1.26543 15.0654 1.01406 10.5H3.09414C3.37031 10.5 3.59414 10.2762 3.59414 10C3.59414 9.72383 3.37031 9.5 3.09414 9.5H1.01406C1.26543 4.93457 4.93457 1.26543 9.5 1.01406V3.09414C9.5 3.37031 9.72383 3.59414 10 3.59414C10.2762 3.59414 10.5 3.37031 10.5 3.09414V1.01406C15.0654 1.26543 18.7346 4.93457 18.9859 9.5H16.9059C16.6297 9.5 16.4059 9.72383 16.4059 10C16.4059 10.2762 16.6297 10.5 16.9059 10.5H18.9859C18.7346 15.0654 15.0654 18.7346 10.5 18.9859Z" fill="#0635C9"/>
<path d="M13.3506 6.00449L8.2371 7.94726C8.10331 7.99804 7.99784 8.10351 7.94706 8.2371L6.00449 13.3506C5.93456 13.5346 5.9791 13.7424 6.11835 13.8816C6.25761 14.0209 6.46542 14.0654 6.64941 13.9955L11.7631 12.0527C11.8967 12.0019 12.0023 11.8965 12.0529 11.7629L13.9955 6.64941C14.0654 6.46542 14.0209 6.25761 13.8816 6.11835C13.7424 5.9791 13.5346 5.93456 13.3506 6.00449V6.00449ZM11.1976 11.1978L7.33437 12.6654L8.80233 8.80214L12.6656 7.33456L11.1976 11.1978Z" fill="#0635C9"/>
</svg>
