<svg width="22" height="22" viewBox="0 0 22 22" fill="none" xmlns="http://www.w3.org/2000/svg">
<g clip-path="url(#clip0_296_20080)">
<path d="M6.74369 20.0624C6.51022 20.0624 6.3212 19.8731 6.32139 19.6397V17.9629H5.68134C4.9852 17.9629 4.42065 17.3985 4.42065 16.7022V14.9243C4.42065 14.228 4.9852 13.6636 5.68134 13.6636H5.73141L6.75436 10.2784H6.33905C5.98914 10.2784 5.67571 10.4942 5.55054 10.8209L4.24094 15.1541H4.19087C3.49473 15.1541 2.93018 15.7185 2.93018 16.4148V18.1927C2.93018 18.889 3.49473 19.4534 4.19087 19.4534H4.83072V21.1301C4.83053 21.3636 5.01975 21.5528 5.25302 21.5528H6.51624C6.74951 21.5528 6.93873 21.3636 6.93854 21.1301V20.0624H6.74369Z" fill="#D4E1F4"/>
<path d="M17.0327 20.0624C16.7995 20.0624 16.6103 19.8731 16.6104 19.6397V17.9629H6.14355V19.4534H15.12V21.1301C15.1198 21.3636 15.309 21.5528 15.5423 21.5528H16.8053C17.0388 21.5528 17.2278 21.3636 17.2276 21.1301V20.0624H17.0327Z" fill="#D4E1F4"/>
<path d="M5.66615 18.7578C4.86638 18.7531 4.2207 18.1034 4.2207 17.3038C4.2207 16.5041 4.86638 15.8543 5.66615 15.8496C6.04692 15.846 6.41294 15.9958 6.68173 16.2653C6.95071 16.5347 7.09956 16.9011 7.0951 17.2819C7.0951 18.0956 6.45428 18.7578 5.66615 18.7578ZM5.66615 16.6446C5.3044 16.6479 5.01271 16.9419 5.01271 17.3038C5.01271 17.6656 5.3044 17.9598 5.66615 17.9629C6.01567 17.9629 6.30018 17.6574 6.30018 17.2819C6.30445 17.1121 6.23924 16.9481 6.1195 16.8278C5.99976 16.7072 5.83596 16.6413 5.66615 16.6446Z" fill="#1AE5BE"/>
<path d="M16.3737 18.7578C15.5705 18.7582 14.9191 18.1073 14.9189 17.3042C14.9186 16.5011 15.5695 15.8498 16.3728 15.8496C17.1758 15.8494 17.827 16.5006 17.827 17.3036C17.8264 18.1061 17.1762 18.7566 16.3737 18.7578ZM16.3737 16.6446C16.0096 16.6442 15.7141 16.9392 15.7139 17.3032C15.7135 17.6675 16.0087 17.9627 16.3728 17.9629C16.7368 17.9631 17.0322 17.6679 17.032 17.3036C17.0318 16.9401 16.7374 16.6451 16.3737 16.6446Z" fill="#1AE5BE"/>
<path d="M16.9818 2.76863H5.41687C5.17001 2.76863 4.96973 2.56834 4.96973 2.32149C4.96973 2.07443 5.17001 1.87434 5.41687 1.87434H16.9818C17.2288 1.87434 17.4289 2.07443 17.4289 2.32149C17.4289 2.56834 17.2288 2.76863 16.9818 2.76863Z" fill="#1AE5BE"/>
<path d="M6.93232 4.64278C6.81374 4.64298 6.69982 4.59601 6.61617 4.51198L4.74184 2.63763C4.56717 2.46297 4.56717 2.17982 4.74184 2.00535L6.61617 0.130999C6.79084 -0.0436662 7.07379 -0.0436662 7.24846 0.130999C7.42312 0.305663 7.42312 0.588814 7.24846 0.763285L5.69026 2.32149L7.24846 3.8795C7.37635 4.00739 7.41458 4.19972 7.34549 4.36681C7.27621 4.53391 7.11319 4.64278 6.93232 4.64278Z" fill="#1AE5BE"/>
<path d="M16.6229 6.3576H5.05798C4.81112 6.3576 4.61084 6.15751 4.61084 5.91046C4.61084 5.6636 4.81112 5.46332 5.05798 5.46332H16.6229C16.8698 5.46332 17.0701 5.6636 17.0701 5.91046C17.0701 6.15751 16.8698 6.3576 16.6229 6.3576Z" fill="#1AE5BE"/>
<path d="M15.1078 8.23194C14.9269 8.23194 14.7639 8.12306 14.6946 7.95597C14.6255 7.78887 14.6638 7.59654 14.7917 7.46865L16.3498 5.91045L14.7917 4.35244C14.617 4.17778 14.617 3.89463 14.7917 3.71996C14.9663 3.54549 15.2495 3.5453 15.4239 3.71996L17.2983 5.59431C17.4729 5.76897 17.4729 6.05212 17.2983 6.22659L15.4239 8.10094C15.3403 8.18497 15.2264 8.23213 15.1078 8.23194Z" fill="#1AE5BE"/>
<path d="M19.1482 13.0164H18.6038C18.2865 13.0162 17.9787 13.1243 17.7311 13.3226L16.9362 10.6914C16.9331 10.6811 16.9296 10.6708 16.9257 10.6606C16.7324 10.1626 16.2538 9.83343 15.7195 9.83129H14.1821C14.1545 9.13826 13.5851 8.5902 12.8915 8.58923H9.36388C8.67027 8.5902 8.10086 9.13826 8.0733 9.83129H6.33889C5.80461 9.83343 5.32603 10.1626 5.13273 10.6606C5.12885 10.6708 5.12536 10.6811 5.12225 10.6914L4.32365 13.3341C4.07368 13.1284 3.76006 13.0162 3.43635 13.0164H2.89198C2.46968 13.017 2.12734 13.3591 2.12695 13.7816V14.4135C2.12734 14.836 2.46968 15.1782 2.89198 15.1787H3.01425C2.67501 15.5003 2.48288 15.9473 2.48288 16.4148V18.1927C2.48404 19.1355 3.2481 19.8995 4.19071 19.9005H4.38342V21.1302C4.384 21.6103 4.77292 21.9994 5.25286 22H6.51607C6.99601 21.9994 7.38493 21.6103 7.38551 21.1302V19.9005H14.6727V21.1302C14.6733 21.6103 15.0622 21.9992 15.5421 22H16.8052C17.2853 21.9992 17.6742 21.6103 17.6746 21.1302V19.9005H17.8675C18.8103 19.8995 19.5744 19.1355 19.5753 18.1927V16.4148C19.5755 15.9473 19.3834 15.5003 19.0442 15.1786H19.1484C19.5709 15.1782 19.913 14.8358 19.9136 14.4135V13.7816C19.913 13.3591 19.5707 13.0168 19.1482 13.0164ZM18.6038 13.9107H19.0189V14.2843H18.1148C18.1751 14.0638 18.3752 13.9109 18.6038 13.9107ZM9.36388 9.48332H12.8915C13.0916 9.4839 13.2603 9.63276 13.2857 9.8311H8.96972C8.99514 9.63276 9.16379 9.4839 9.36388 9.48332ZM5.97267 10.9689C6.03536 10.822 6.17917 10.7264 6.33889 10.7258H15.7193C15.8791 10.7265 16.0231 10.822 16.0855 10.9689L17.2028 14.6662V14.7072H16.2493C16.24 13.8841 15.5699 13.2217 14.7468 13.2217C13.9236 13.2217 13.2537 13.8841 13.2441 14.7072H4.84298L5.97267 10.9689ZM15.3547 14.7072H14.139C14.1474 14.3774 14.4171 14.1147 14.7468 14.1147C15.0766 14.1147 15.3463 14.3774 15.3547 14.7072ZM3.02123 13.9107H3.43635C3.66497 13.9111 3.86506 14.064 3.92522 14.2843H3.02123V13.9107ZM6.49123 21.1057H5.2777V19.9005H6.49123V21.1057ZM16.7805 21.1057H15.567V19.9005H16.7805V21.1057ZM18.6811 18.1927C18.6807 18.6418 18.3166 19.0057 17.8677 19.0062H7.02997C6.96962 18.9936 6.90732 18.9936 6.84677 19.0062H4.92216C4.86181 18.9936 4.79951 18.9936 4.73916 19.0062H4.19071C3.74163 19.0057 3.37774 18.6418 3.37716 18.1927V16.4148C3.37774 15.9657 3.74163 15.6018 4.19071 15.6012H4.24039H4.24738H17.8675C18.3166 15.6018 18.6807 15.9657 18.6811 16.4148V18.1927Z" fill="#0635C9"/>
</g>
<defs>
<clipPath id="clip0_296_20080">
<rect width="22" height="22" fill="white"/>
</clipPath>
</defs>
</svg>
