<?xml version="1.0" encoding="iso-8859-1"?>
<!-- Generator: Adobe Illustrator 19.0.0, SVG Export Plug-In . SVG Version: 6.00 Build 0)  -->
<svg version="1.1" id="Capa_1" xmlns="http://www.w3.org/2000/svg" xmlns:xlink="http://www.w3.org/1999/xlink" x="0px" y="0px"
	 viewBox="0 0 512.041 512.041" style="enable-background:new 0 0 512.041 512.041;" xml:space="preserve">
<rect x="110.252" y="178.467" style="fill:#E8594A;" width="127.213" height="118.733"/>
<polygon style="fill:#E0D2C1;" points="500.373,263.267 441.006,271.748 441.006,203.901 500.373,212.382 "/>
<rect x="59.366" y="195.428" style="fill:#C44639;" width="50.885" height="84.809"/>
<path style="fill:#FEC9A3;" d="M245.038,339.595H144.175v101.771h76.328c9.371,0,16.962-7.59,16.962-16.962v-50.885h8.481
	c9.371,0.008,16.97-7.582,16.97-16.953c0-0.958-0.076-1.917-0.237-2.858C260.991,345.354,253.562,339.408,245.038,339.595z"/>
<path style="fill:#FABD91;" d="M220.503,407.442h-76.328v33.924h76.328c9.371,0,16.962-7.59,16.962-16.962V390.48
	C237.465,399.852,229.875,407.442,220.503,407.442z"/>
<rect y="339.604" style="fill:#4398D1;" width="118.733" height="101.771"/>
<rect y="407.451" style="fill:#3E8FC9;" width="118.733" height="33.924"/>
<rect x="110.252" y="339.604" style="fill:#F0E4D6;" width="33.924" height="101.771"/>
<rect x="67.847" y="398.97" style="fill:#3685BA;" width="16.962" height="16.962"/>
<g>
	<rect x="135.694" y="229.352" style="fill:#C44639;" width="16.962" height="33.924"/>
	<rect x="169.618" y="229.352" style="fill:#C44639;" width="16.962" height="33.924"/>
</g>
<path style="fill:#F0E4D6;" d="M419.804,76.687c-11.712,0-21.202,9.49-21.202,21.202v21.202l-161.137,59.366v118.733l161.137,59.366
	v21.202c0,11.712,9.49,21.202,21.202,21.202c11.712,0,21.202-9.49,21.202-21.202V97.89
	C441.006,86.177,431.516,76.687,419.804,76.687z"/>
<path style="fill:#E8DCCF;" d="M265.961,307.69l132.641,48.867v21.202c0,11.712,9.49,21.202,21.202,21.202
	c11.712,0,21.202-9.49,21.202-21.202V126.284C397.974,221.778,311.028,281.755,265.961,307.69z"/>
<g>
	<polygon style="fill:#F0E4D6;" points="203.541,339.595 152.656,339.595 144.175,297.191 195.061,297.191 	"/>
	<polygon style="fill:#F0E4D6;" points="228.984,483.77 178.099,483.77 169.618,441.366 220.503,441.366 	"/>
</g>
<g>
	
		<rect x="464.799" y="136.044" transform="matrix(-0.9284 0.3715 -0.3715 -0.9284 994.059 97.5446)" style="fill:#E0D2C1;" width="45.668" height="16.961"/>
	
		<rect x="459.419" y="42.749" transform="matrix(-0.7071 0.7071 -0.7071 -0.7071 861.452 -254.3655)" style="fill:#E0D2C1;" width="47.976" height="16.962"/>
	
		<rect x="479.208" y="308.276" transform="matrix(-0.3714 0.9285 -0.9285 -0.3714 976.2413 1.2746)" style="fill:#E0D2C1;" width="16.962" height="45.671"/>
	
		<rect x="474.921" y="400.412" transform="matrix(-0.7071 0.7071 -0.7071 -0.7071 1125.3145 382.6793)" style="fill:#E0D2C1;" width="16.962" height="47.976"/>
	<path style="fill:#E0D2C1;" d="M398.602,331.114c-4.681,0-8.481-3.799-8.481-8.481V119.092c0-4.681,3.799-8.481,8.481-8.481
		c4.681,0,8.481,3.799,8.481,8.481v203.541C407.083,327.315,403.283,331.114,398.602,331.114z"/>
</g>
<rect x="110.252" y="263.275" style="fill:#D65245;" width="127.213" height="33.924"/>
<polygon style="fill:#E0D2C1;" points="198.453,314.152 195.061,297.191 144.175,297.191 147.568,314.152 "/>
<g>
</g>
<g>
</g>
<g>
</g>
<g>
</g>
<g>
</g>
<g>
</g>
<g>
</g>
<g>
</g>
<g>
</g>
<g>
</g>
<g>
</g>
<g>
</g>
<g>
</g>
<g>
</g>
<g>
</g>
</svg>
