<svg width="70" height="70" viewBox="0 0 70 70" fill="none" xmlns="http://www.w3.org/2000/svg">
<g clip-path="url(#clip0_78_371)">
<path d="M59.3508 1.24579C58.1716 1.24579 11.2427 1.24579 10.6344 1.24579L1.02734 10.8529V43.3453C1.02734 43.885 1.46484 44.3225 2.00461 44.3225C6.37454 44.3225 36.9434 44.3225 40.8558 44.3225H60.0687V23.971C60.0687 22.9205 60.0687 2.95327 60.0687 1.9637C60.0688 1.56721 59.7474 1.24579 59.3508 1.24579Z" fill="white"/>
<path d="M3.76951 43.3451V8.11072L1.02734 10.8527V43.3451C1.02734 43.8849 1.46484 44.3224 2.00461 44.3224C2.33424 44.3224 3.29427 44.3224 4.74677 44.3224C4.20714 44.3224 3.76951 43.8849 3.76951 43.3451Z" fill="#E4EAF8"/>
<path d="M36.2587 11.8249H24.8374C23.9529 11.8249 23.2358 12.542 23.2358 13.4264V14.4425C23.2358 15.3269 23.9529 16.044 24.8374 16.044H36.2587C37.1431 16.044 37.8602 15.3269 37.8602 14.4425V13.4264C37.8602 12.5418 37.1433 11.8249 36.2587 11.8249Z" fill="#FFC850"/>
<path d="M36.2588 13.7974H24.8375C24.1711 13.7974 23.6 13.3902 23.359 12.8112C23.28 13.0007 23.2361 13.2084 23.2361 13.4266V14.4427C23.2361 15.3271 23.9532 16.0442 24.8376 16.0442H36.2589C37.1434 16.0442 37.8605 15.3271 37.8605 14.4427V13.4266C37.8605 13.2085 37.8164 13.0007 37.7375 12.8114C37.4962 13.3902 36.9252 13.7974 36.2588 13.7974Z" fill="#FEA82F"/>
<path d="M44.0613 48.7217V68.2486C44.0613 68.6008 44.4124 68.8453 44.7427 68.7231L54.0613 65.2734C54.1745 65.2314 54.2992 65.2314 54.4125 65.2734L63.7311 68.7231C64.0616 68.8454 64.4125 68.601 64.4125 68.2486V48.7217C58.704 54.1424 49.7767 54.149 44.0613 48.7217Z" fill="#6DC296"/>
<path d="M46.8034 50.7813C45.8103 50.2014 44.8905 49.509 44.0613 48.7218V68.2488C44.0613 68.6009 44.4124 68.8454 44.7427 68.7232L46.8033 67.9603V50.7813H46.8034Z" fill="#5FA77E"/>
<path d="M60.0144 51.6096C56.3449 53.1737 52.1725 53.1924 48.4592 51.6096V67.347L54.0611 65.2731C54.1743 65.2312 54.299 65.2312 54.4124 65.2731L60.0143 67.347L60.0144 51.6096Z" fill="#ABFFDB"/>
<path d="M51.2011 52.4734C50.2508 52.2733 49.3337 51.9823 48.459 51.6094V67.3468L51.2011 66.3317V52.4734Z" fill="#92E0C0"/>
<path d="M54.2366 23.0165C45.9743 23.0165 39.2524 29.7383 39.2524 38.0006C39.2524 46.2629 45.9743 52.9848 54.2366 52.9848C62.499 52.9848 69.2209 46.2628 69.2209 38.0006C69.2209 29.7384 62.499 23.0165 54.2366 23.0165Z" fill="#FFC850"/>
<path d="M41.995 38.0006C41.995 30.2006 47.986 23.7746 55.6082 23.0798C55.1564 23.0387 54.6994 23.0165 54.2371 23.0165C45.9748 23.0165 39.2529 29.7383 39.2529 38.0006C39.2529 46.7561 46.7857 53.7257 55.6082 52.9215C47.986 52.2267 41.995 45.8008 41.995 38.0006Z" fill="#FEA82F"/>
<path d="M54.2367 28.0721C48.7621 28.0721 44.3081 32.5262 44.3081 38.0008C44.3081 43.4755 48.7621 47.9294 54.2367 47.9294C59.7114 47.9294 64.1654 43.4755 64.1654 38.0008C64.1655 32.5262 59.7115 28.0721 54.2367 28.0721Z" fill="#FF9052"/>
<path d="M47.0129 38.0008C47.0129 32.9851 50.7523 28.8287 55.5892 28.1666C55.1466 28.106 54.6957 28.0721 54.2367 28.0721C48.7621 28.0721 44.3081 32.5262 44.3081 38.0008C44.3081 43.4755 48.7621 47.9294 54.2367 47.9294C54.6956 47.9294 55.1466 47.8954 55.5892 47.8349C50.7523 47.1728 47.0129 43.0166 47.0129 38.0008Z" fill="#FF8031"/>
<path d="M59.0491 36.9285C59.3145 36.6698 59.1681 36.2189 58.8012 36.1656L56.1571 35.7814C56.0114 35.7604 55.8854 35.6688 55.8204 35.5367L54.638 33.1409C54.474 32.8084 54 32.8084 53.8358 33.1409L52.6534 35.5367C52.5883 35.6688 52.4623 35.7602 52.3167 35.7814L49.6725 36.1656C49.3056 36.2189 49.1592 36.6697 49.4247 36.9285L51.3379 38.7933C51.4433 38.896 51.4914 39.0441 51.4666 39.1891L51.015 41.8225C50.9524 42.1879 51.3359 42.4664 51.6638 42.294L54.0288 41.0507C54.1592 40.9822 54.3148 40.9822 54.4451 41.0507L56.8101 42.294C57.1382 42.4666 57.5217 42.1879 57.4589 41.8225L57.0074 39.1891C56.9825 39.0441 57.0305 38.896 57.136 38.7933L59.0491 36.9285Z" fill="#FFC850"/>
<path d="M54.2089 39.1894C54.2336 39.0443 54.1858 38.8963 54.0802 38.7936L52.167 36.9287C51.9016 36.6701 52.048 36.2192 52.4148 36.1659L55.059 35.7817C55.2046 35.7606 55.3306 35.669 55.3957 35.5371L55.6082 35.1066L54.6382 33.1411C54.4741 32.8086 54.0001 32.8086 53.8359 33.1411L52.6534 35.537C52.5883 35.669 52.4623 35.7605 52.3167 35.7815L49.6725 36.1657C49.3056 36.219 49.1592 36.6698 49.4247 36.9286L51.3379 38.7935C51.4433 38.8961 51.4914 39.0442 51.4666 39.1893L51.015 41.8226C50.9524 42.188 51.3359 42.4665 51.6638 42.2941L53.8757 41.1313L54.2089 39.1894Z" fill="#FEA82F"/>
<path d="M9.86401 10.8527H1.02734L10.6343 1.24579V10.0826C10.6343 10.5079 10.2895 10.8527 9.86401 10.8527Z" fill="#E4EAF8"/>
<path d="M10.6344 1.24579L1.02734 10.8527H3.73519L10.6344 3.95363V1.24579Z" fill="#C2C7D0"/>
<path d="M48.707 24.7748H11.2682C10.7002 24.7748 10.24 24.3145 10.24 23.7465C10.24 23.1786 10.7002 22.7183 11.2682 22.7183H48.707C49.275 22.7183 49.7352 23.1786 49.7352 23.7465C49.7352 24.3145 49.275 24.7748 48.707 24.7748Z" fill="#AFB5BC"/>
<path d="M41.6686 30.4773H11.2682C10.7002 30.4773 10.24 30.017 10.24 29.449C10.24 28.8811 10.7002 28.4208 11.2682 28.4208H41.6686C42.2366 28.4208 42.6968 28.8811 42.6968 29.449C42.6968 30.0168 42.2366 30.4773 41.6686 30.4773Z" fill="#AFB5BC"/>
<path d="M39.4766 36.1797H11.2682C10.7002 36.1797 10.24 35.7194 10.24 35.1514C10.24 34.5835 10.7002 34.1232 11.2682 34.1232H39.4766C40.0446 34.1232 40.5048 34.5835 40.5048 35.1514C40.5048 35.7195 40.0445 36.1797 39.4766 36.1797Z" fill="#AFB5BC"/>
<path d="M69.1361 39.0959C68.5757 39.0051 68.0475 39.3857 67.9565 39.9463C67.4641 42.9805 66.0301 45.641 63.9792 47.6522C63.916 47.6903 63.8561 47.7356 63.8012 47.7878C61.2268 50.2323 57.8656 51.5879 54.3276 51.6106C54.3254 51.6106 54.3232 51.6106 54.321 51.6106C54.2932 51.6107 54.2656 51.6108 54.2379 51.6108C54.209 51.6108 54.1804 51.6107 54.1517 51.6106C54.1393 51.6104 54.1267 51.6103 54.1143 51.6103C54.098 51.6102 54.0817 51.61 54.0655 51.6099C54.0515 51.6097 54.0374 51.6095 54.0236 51.6092C54.0087 51.6089 53.9938 51.6088 53.9791 51.6085C53.9652 51.6082 53.9512 51.608 53.9374 51.6077C53.9223 51.6074 53.9071 51.607 53.8921 51.6067C53.8771 51.6065 53.862 51.6059 53.847 51.6055C53.8344 51.6051 53.8217 51.6048 53.809 51.6044C53.7918 51.6039 53.7744 51.6033 53.7572 51.6028C53.7462 51.6024 53.7354 51.6021 53.7243 51.6017C53.706 51.601 53.6876 51.6003 53.6693 51.5995C53.6597 51.5991 53.65 51.5987 53.6403 51.5983C53.6213 51.5974 53.602 51.5966 53.583 51.5957C53.5745 51.5953 53.5662 51.5948 53.5575 51.5944C53.5368 51.5935 53.5159 51.5924 53.4951 51.5913C53.4888 51.591 53.4825 51.5906 53.4762 51.5902C53.4538 51.589 53.4312 51.5877 53.4087 51.5864C53.4046 51.5861 53.4005 51.5858 53.3964 51.5857C53.3716 51.5842 53.347 51.5827 53.3224 51.581C53.3213 51.581 53.3203 51.5809 53.3193 51.5808C52.8231 51.5481 52.3313 51.4893 51.8458 51.4048C51.8445 51.4045 51.8431 51.4044 51.8419 51.4041C51.816 51.3996 51.7903 51.3951 51.7646 51.3905C51.7631 51.3902 51.7618 51.3899 51.7603 51.3896C51.7351 51.3851 51.7101 51.3805 51.6849 51.3758C51.6781 51.3746 51.6714 51.3732 51.6646 51.372C51.6446 51.3683 51.6245 51.3645 51.6047 51.3606C51.5865 51.3571 51.5683 51.3535 51.5502 51.35C51.5415 51.3482 51.5327 51.3466 51.524 51.3449C49.5159 50.9458 47.662 50.1128 46.0648 48.9478C46.0592 48.9437 46.0535 48.9395 46.0479 48.9354C46.0341 48.9253 46.02 48.915 46.0062 48.9048C45.5428 48.5627 45.0981 48.19 44.6747 47.7879C44.6654 47.779 44.6559 47.7704 44.6462 47.7619C43.4881 46.6562 42.5201 45.3527 41.797 43.9066C41.791 43.8929 41.7847 43.8793 41.778 43.8657C41.587 43.4809 41.415 43.0901 41.2618 42.6941C41.2559 42.6788 41.25 42.6633 41.2441 42.648C41.2435 42.6461 41.2428 42.6442 41.242 42.6424C40.6893 41.1904 40.3732 39.6228 40.3414 37.9867C40.3412 37.9793 40.3411 37.9718 40.341 37.9644C40.3406 37.9424 40.3402 37.9204 40.3399 37.8984C40.3397 37.8838 40.3396 37.8691 40.3395 37.8545C40.3393 37.8385 40.3391 37.8224 40.3391 37.8064C40.3388 37.7749 40.3388 37.7436 40.3388 37.712C40.3388 30.048 46.5738 23.8128 54.2377 23.8128C54.2662 23.8128 54.2945 23.813 54.3229 23.8131C54.3302 23.8131 54.3374 23.8132 54.3445 23.8132C54.3656 23.8134 54.3866 23.8135 54.4077 23.8138C54.4164 23.8139 54.4252 23.8141 54.4342 23.8142C54.4542 23.8145 54.4743 23.8147 54.4942 23.8152C54.502 23.8153 54.5098 23.8154 54.5176 23.8156C54.5388 23.816 54.56 23.8164 54.5812 23.8169C54.5879 23.8171 54.5944 23.8172 54.6011 23.8175C54.6252 23.8182 54.6494 23.8187 54.6736 23.8195C54.6762 23.8197 54.6788 23.8197 54.6814 23.8198C56.4069 23.8737 58.082 24.2423 59.6667 24.9175C59.7181 24.9394 59.7707 24.9569 59.8239 24.9699C64.0361 26.8052 67.1768 30.6732 67.9562 35.4775C68.0471 36.0381 68.5753 36.4185 69.1358 36.3279C69.6965 36.2369 70.077 35.7087 69.9862 35.1483C69.3867 31.4533 67.4819 28.0653 64.6231 25.6086C63.5469 24.6837 62.36 23.9136 61.0977 23.3112V1.96358C61.0977 1.0008 60.3143 0.217407 59.3514 0.217407H32.3864C31.8184 0.217407 31.3582 0.677738 31.3582 1.24567C31.3582 1.8136 31.8184 2.27393 32.3864 2.27393H59.0409V22.494C57.5501 22.0215 56.0018 21.7742 54.4185 21.7567C54.4168 21.7567 54.4152 21.7567 54.4135 21.7567C54.3889 21.7564 54.3641 21.7563 54.3393 21.756C54.3336 21.756 54.3278 21.7559 54.3222 21.7559C54.2939 21.7558 54.2656 21.7556 54.2372 21.7556C45.4393 21.7556 38.2816 28.9134 38.2816 37.7114C38.2816 37.744 38.2817 37.7764 38.2819 37.8091C38.2819 37.8173 38.282 37.8255 38.282 37.8337C38.2821 37.8597 38.2824 37.8857 38.2827 37.9117C38.2828 37.9173 38.2828 37.9227 38.283 37.9283C38.2834 37.9585 38.2838 37.9885 38.2843 38.0187C38.2843 38.0197 38.2843 38.0208 38.2843 38.0217C38.3186 39.8442 38.6555 41.6104 39.2887 43.2941H2.05652V11.8811H9.86506C10.8567 11.8811 11.6636 11.0742 11.6636 10.0826V2.2742H27.5881C28.1562 2.2742 28.6164 1.81387 28.6164 1.24594C28.6164 0.678012 28.1562 0.217681 27.5881 0.217681H10.6353C10.6352 0.217681 10.6349 0.217681 10.6348 0.217681C10.627 0.217681 10.6193 0.217817 10.6117 0.217954C10.6106 0.217954 10.6095 0.217954 10.6083 0.218091C10.6003 0.218228 10.5925 0.218501 10.5846 0.218911C10.5768 0.219321 10.569 0.219731 10.5612 0.220415C10.5592 0.220415 10.5573 0.220688 10.5555 0.220825C10.5497 0.221235 10.5439 0.221782 10.5381 0.222329C10.5359 0.222603 10.5336 0.222739 10.5314 0.223013C10.5247 0.223696 10.5179 0.22438 10.5112 0.225337C10.5097 0.225474 10.5082 0.225747 10.5067 0.225884C10.5003 0.226704 10.4938 0.227524 10.4874 0.228481C10.4844 0.228892 10.4814 0.229438 10.4785 0.229849C10.474 0.230532 10.4695 0.231353 10.465 0.232036C10.4617 0.232446 10.4588 0.232856 10.456 0.233403C10.4487 0.234497 10.4417 0.235864 10.4348 0.237231C10.433 0.237642 10.4313 0.237915 10.4297 0.238325C10.4241 0.239419 10.4186 0.240649 10.4132 0.24188C10.4103 0.242563 10.4074 0.243247 10.4045 0.243794C10.3996 0.244888 10.3948 0.246118 10.3899 0.247349C10.3876 0.247895 10.3853 0.248442 10.3829 0.249126C10.376 0.250903 10.369 0.252681 10.3619 0.254731C10.3601 0.255278 10.3583 0.255688 10.3566 0.256235C10.351 0.257876 10.3452 0.259517 10.3396 0.261157C10.3374 0.261841 10.3354 0.262388 10.3332 0.263071C10.3276 0.264849 10.3221 0.266489 10.3165 0.268403C10.3147 0.26895 10.3131 0.269497 10.3113 0.270044C10.3041 0.272505 10.2968 0.274966 10.2896 0.277563C10.289 0.277837 10.2885 0.277974 10.2878 0.278247C10.281 0.280708 10.2741 0.283306 10.2673 0.285903C10.2662 0.286313 10.2651 0.286723 10.264 0.287134C10.2569 0.289868 10.2499 0.292739 10.2429 0.29561C10.2427 0.295747 10.2425 0.295747 10.2423 0.295884C10.2271 0.302173 10.2121 0.308735 10.1971 0.315845C10.1967 0.315981 10.1963 0.316255 10.1959 0.316391C10.1509 0.337583 10.1073 0.362329 10.0654 0.390356L10.0652 0.390493C10.0447 0.404165 10.0246 0.418657 10.0049 0.433969C10.0041 0.434653 10.0033 0.4352 10.0025 0.435883C9.99658 0.440395 9.99084 0.445044 9.9851 0.449692C9.98455 0.450102 9.98414 0.450512 9.98359 0.450922C9.97129 0.46104 9.95912 0.47143 9.94723 0.482231C9.94572 0.483598 9.94422 0.484965 9.94271 0.486332C9.93848 0.490161 9.93438 0.493989 9.93027 0.497954C9.9285 0.499594 9.92672 0.501235 9.92494 0.502875C9.91947 0.508071 9.914 0.513403 9.90854 0.518871L0.301054 10.1257C0.197695 10.229 0.119765 10.3508 0.0691795 10.4817C0.0689061 10.4822 0.0687694 10.4828 0.068496 10.4833C0.0626171 10.4985 0.0571483 10.514 0.0520897 10.5294C0.051953 10.5299 0.0518163 10.5304 0.0516796 10.5309C0.0493554 10.5379 0.0471679 10.5448 0.0449804 10.5518C0.0445702 10.5529 0.0442968 10.554 0.0438866 10.5552C0.0416991 10.5625 0.0395116 10.5699 0.0374609 10.5771C0.0374609 10.5774 0.0373241 10.5777 0.0371874 10.5779C0.0351367 10.5853 0.0332226 10.5927 0.0313085 10.6001C0.0307617 10.6021 0.0302148 10.6043 0.0298046 10.6064C0.0284374 10.6117 0.027207 10.617 0.0259765 10.6224C0.0254296 10.6247 0.0248828 10.627 0.0243359 10.6295C0.022832 10.636 0.0214648 10.6427 0.0200976 10.6493C0.0199609 10.65 0.0198242 10.6507 0.0196875 10.6514C0.0183203 10.6585 0.0169531 10.6657 0.0155859 10.673C0.0151758 10.6756 0.0146289 10.6781 0.0142187 10.6809C0.0133984 10.6859 0.0125781 10.6909 0.0117578 10.6959C0.0113476 10.6985 0.0109375 10.701 0.0105273 10.7036C0.00957029 10.7101 0.00861326 10.7168 0.00779295 10.7234C0.00765623 10.725 0.0073828 10.7265 0.00724608 10.7282C0.00642577 10.7348 0.00574218 10.7413 0.00505858 10.7479C0.00478515 10.7502 0.00464843 10.7527 0.00437499 10.755C0.00382812 10.7606 0.00341796 10.7661 0.00287109 10.7717C0.00314452 10.7736 0.00300781 10.7758 0.00287109 10.7778C0.00232421 10.7855 0.00177734 10.7931 0.0015039 10.8006C0.0015039 10.8012 0.0015039 10.8017 0.0015039 10.8024C0.00123047 10.8095 0.000957029 10.8165 0.000683592 10.8236C0.000683592 10.8255 0.000546874 10.8276 0.000546874 10.8295C0.000136719 10.837 0 10.8436 0 10.85C0 10.851 0 10.8519 0 10.8529V43.3451C0 44.451 0.899881 45.3506 2.00552 45.3506H40.2326C40.9617 46.6819 41.875 47.8987 42.9382 48.966V68.2437C42.9382 68.747 43.1849 69.2192 43.598 69.5067C44.011 69.7943 44.5396 69.8614 45.0114 69.6869L54.238 66.2714L63.4643 69.6869C63.6377 69.7511 63.8183 69.7826 63.9983 69.7826C64.3087 69.7826 64.6164 69.6889 64.8778 69.5069C65.291 69.2194 65.5376 68.7471 65.5376 68.2439V48.9657C67.8882 46.6045 69.4535 43.5615 69.9867 40.2755C70.0774 39.715 69.6968 39.187 69.1361 39.0959ZM9.60707 9.82448H3.51079L9.60707 3.7282V9.82448ZM63.4809 67.5001L54.7723 64.2763C54.5998 64.2125 54.4189 64.1805 54.2377 64.1805C54.0567 64.1805 53.8757 64.2125 53.7036 64.2762L44.9947 67.5001V50.7119C46.9958 52.1402 49.2872 53.0802 51.7079 53.4669C51.7119 53.4676 51.7157 53.4682 51.7196 53.4688C51.7467 53.4731 51.7736 53.4773 51.8009 53.4816C51.8063 53.4824 51.8118 53.4832 51.8173 53.484C51.8446 53.4881 51.8718 53.4922 51.8993 53.4963C51.9037 53.497 51.908 53.4977 51.9124 53.4982C51.9411 53.5025 51.9698 53.5066 51.9986 53.5105C52.0103 53.5122 52.0219 53.5138 52.0338 53.5155C52.0512 53.5179 52.0687 53.5203 52.086 53.5226C52.1007 53.5245 52.1154 53.5265 52.1301 53.5285C52.1432 53.5302 52.1565 53.5319 52.1697 53.5337C52.2307 53.5416 52.2918 53.5491 52.3531 53.5563C52.3626 53.5574 52.3723 53.5587 52.382 53.5598C52.4011 53.562 52.4203 53.5641 52.4395 53.5663C52.4484 53.5673 52.4571 53.5682 52.4661 53.5693C52.4864 53.5715 52.5069 53.5738 52.5271 53.576C52.5278 53.576 52.5283 53.5762 52.529 53.5762C52.5755 53.5811 52.622 53.5859 52.6685 53.5904C52.6739 53.5909 52.6793 53.5915 52.6847 53.592C52.7058 53.5941 52.727 53.596 52.748 53.598C52.7554 53.5987 52.7627 53.5994 52.7701 53.6001C52.791 53.602 52.812 53.6039 52.8331 53.6057C52.8388 53.6063 52.8447 53.6067 52.8506 53.6072C52.8957 53.611 52.9408 53.6149 52.9861 53.6183C52.9878 53.6184 52.9896 53.6186 52.9914 53.6187C53.0123 53.6203 53.0334 53.6218 53.0544 53.6235C53.0626 53.624 53.0708 53.6247 53.0793 53.6253C53.099 53.6266 53.1188 53.6281 53.1386 53.6294C53.1486 53.63 53.1586 53.6307 53.1686 53.6314C53.2018 53.6336 53.235 53.6356 53.2683 53.6377C53.2799 53.6384 53.2916 53.6391 53.3033 53.6397C53.3198 53.6407 53.3363 53.6417 53.3529 53.6425C53.3666 53.6432 53.3804 53.644 53.394 53.6447C53.4098 53.6455 53.4256 53.6463 53.4413 53.6471C53.4565 53.6478 53.4718 53.6486 53.487 53.6493C53.5022 53.65 53.5175 53.6507 53.5327 53.6514C53.5597 53.6526 53.5867 53.6537 53.6137 53.6546C53.6267 53.6552 53.6399 53.6556 53.6528 53.656C53.6708 53.6567 53.6888 53.6572 53.7068 53.6579C53.7198 53.6583 53.733 53.6587 53.746 53.6592C53.7652 53.6597 53.7846 53.6603 53.8039 53.6608C53.815 53.6611 53.8261 53.6613 53.8373 53.6616C53.8667 53.6623 53.8959 53.663 53.9253 53.6635C53.9337 53.6637 53.942 53.6638 53.9505 53.6639C53.9733 53.6644 53.9963 53.6648 54.0191 53.665C54.0302 53.6652 54.0411 53.6653 54.0523 53.6654C54.0733 53.6657 54.0943 53.6659 54.1152 53.666C54.1256 53.6661 54.1359 53.6661 54.1464 53.6663C54.1772 53.6664 54.2076 53.6665 54.2384 53.6665C54.2667 53.6665 54.2949 53.6664 54.3232 53.6663C54.3303 53.6663 54.3375 53.6661 54.3446 53.6661C54.3669 53.666 54.3892 53.6659 54.4115 53.6656C54.4166 53.6656 54.4216 53.6654 54.4268 53.6654C54.4522 53.6652 54.4775 53.6648 54.503 53.6644C54.5051 53.6644 54.5073 53.6642 54.5095 53.6642C57.7565 53.6098 60.8669 52.5776 63.4817 50.7112V67.4996H63.4809V67.5001Z" fill="#474D54"/>
</g>
<defs>
<clipPath id="clip0_78_371">
<rect width="70" height="70" fill="white"/>
</clipPath>
</defs>
</svg>
