<svg width="70" height="70" viewBox="0 0 70 70" fill="none" xmlns="http://www.w3.org/2000/svg">
<g clip-path="url(#clip0_78_413)">
<path d="M56.2187 47.1718V68.9742H14.0142V47.1718C14.0142 43.3747 17.0919 40.2969 20.8891 40.2969H49.3437C53.1409 40.2969 56.2187 43.3747 56.2187 47.1718Z" fill="white"/>
<path d="M14.0142 59.6191H56.2192V68.9742H14.0142V59.6191Z" fill="#76FFD9"/>
<path d="M47.7117 40.2969C44.3428 43.2326 39.9368 45.0105 35.1164 45.0105C30.2966 45.0105 25.89 43.2326 22.5217 40.2969H47.7117Z" fill="#E1EAF8"/>
<path d="M23.8451 25.3485C23.8451 27.9537 21.7335 30.0648 19.1289 30.0648C16.5243 30.0648 14.4126 27.9537 14.4126 25.3485C14.4126 22.7439 16.5243 20.6323 19.1289 20.6323C21.7335 20.6323 23.8451 22.7439 23.8451 25.3485Z" fill="#E1EAF8"/>
<path d="M51.1041 25.8249C51.1041 26.7462 51.0261 27.6493 50.8755 28.5267C49.5932 36.0698 43.0254 41.8125 35.1165 41.8125C26.8781 41.8125 20.0945 35.5806 19.225 27.574C19.1609 26.9998 19.1289 26.4167 19.1289 25.8249C19.1289 16.9964 26.2864 9.83734 35.1165 9.83734C36.426 9.83734 37.6987 9.99382 38.9168 10.2929C42.9201 11.2681 46.3333 13.7525 48.5208 17.1085C50.1545 19.6154 51.1041 22.6099 51.1041 25.8249Z" fill="white"/>
<path d="M39.0908 30.9434C39.784 30.9434 40.2876 31.6008 40.1098 32.2705C39.5239 34.4804 37.5105 36.1088 35.1163 36.1088C32.7222 36.1088 30.7088 34.4804 30.1229 32.2705C29.9451 31.6008 30.4487 30.9434 31.1419 30.9434H39.0908Z" fill="#FFC843"/>
<path d="M48.5208 17.1085C46.3333 13.7531 42.9201 11.2686 38.9168 10.2929C37.6987 9.99435 36.426 9.83734 35.1165 9.83734C26.2864 9.83734 19.1289 16.9969 19.1289 25.8249C19.1289 26.4167 19.1609 27.0004 19.225 27.574C19.225 27.574 20.4977 24.2313 23.4858 22.1111C24.8433 21.1482 26.3841 20.5249 29.2557 20.5249C30.154 20.5249 31.1244 20.5682 32.1525 20.613C33.3434 20.6659 34.5765 20.7204 35.8967 20.7204C38.0105 20.7204 39.8199 20.5794 41.593 20.2793C43.2347 20.001 44.6596 19.5674 45.8681 18.981C49.3855 21.4718 50.8755 28.5273 50.8755 28.5273C51.0256 27.6493 51.1041 26.7462 51.1041 25.8254C51.1041 22.6099 50.1545 19.6154 48.5208 17.1085Z" fill="#E1EAF8"/>
<path d="M47.5284 5.9537C47.5284 5.9537 53.982 8.48193 54.1417 16.4757C54.3013 24.4695 51.1039 25.826 51.1039 25.826C51.1039 25.826 50.007 16.7951 44.0805 14.8767C38.1541 12.9584 42.6743 3.90559 47.5284 5.9537Z" fill="#FFC843"/>
<path d="M41.1919 17.9145C32.7185 19.3532 26.0038 16.1558 22.0064 20.6323C18.0768 25.0319 19.092 27.1152 19.1273 27.1857C19.0408 27.0976 15.9427 23.8794 16.7304 15.9956C16.7438 15.8727 16.7561 15.7494 16.7705 15.6281C17.6389 7.90299 21.0905 4.79157 23.8452 4.0049L23.1258 1.44676C23.1258 1.44676 27.1371 2.56614 31.6056 1.44676C34.9835 0.601343 42.565 0.789865 46.2051 4.22226C47.3838 5.33043 48.148 6.7788 48.226 8.64106C48.3333 11.1773 49.6653 16.4757 41.1919 17.9145Z" fill="#FFC843"/>
<path d="M41.1919 17.9145C32.7185 19.3532 26.0038 16.1558 22.0064 20.6323C18.0768 25.0319 19.092 27.1152 19.1273 27.1857C19.0408 27.0976 15.9427 23.8794 16.7304 15.9956C16.7438 15.8728 16.7561 15.7494 16.7705 15.6282C17.1112 16.5505 17.9582 18.5217 19.1289 19.0862C19.1289 19.0862 20.9944 14.8239 25.0441 14.6097L23.8452 12.5856C23.8452 12.5856 40.605 18.6611 45.2956 11.3066C46.9469 8.71639 46.9266 6.28482 46.2051 4.22229C47.3838 5.33046 48.148 6.77883 48.226 8.64162C48.3333 11.1773 49.6653 16.4757 41.1919 17.9145Z" fill="#FFB400"/>
<path d="M53.2777 32.1076H50.0947V21.4435H53.2777C54.843 21.4435 56.112 22.7125 56.112 24.2773V29.2739C56.112 30.8387 54.843 32.1076 53.2777 32.1076Z" fill="white"/>
<path d="M38.3438 39.4098H36.7656C35.5939 39.4098 34.6438 38.4597 34.6438 37.288C34.6438 36.1162 35.5939 35.1661 36.7656 35.1661H38.3438C39.5155 35.1661 40.4656 36.1162 40.4656 37.288C40.4656 38.4597 39.5155 39.4098 38.3438 39.4098Z" fill="#5DE0BF"/>
<path d="M56.2507 51.7599C56.812 51.7428 57.2446 51.253 57.2446 50.6917V47.1734C57.2446 42.8096 53.707 39.272 49.3438 39.272H45.5386C45.8777 39.0092 46.2051 38.7352 46.5213 38.4501H49.2332C52.0333 38.4501 54.303 36.1798 54.303 33.3797V32.9936C55.9351 32.5428 57.1373 31.0464 57.1373 29.2739V24.2767C57.1373 22.721 56.2107 21.3778 54.8814 20.7679C55.1014 19.484 55.1986 18.0394 55.1666 16.4549C55.016 8.95293 49.7149 5.86607 48.2671 5.16165C47.7517 4.28419 47.0382 3.5002 46.1255 2.8182C42.1596 -0.145288 35.0006 -0.459849 31.3572 0.452323C27.2231 1.48786 23.4377 0.469413 23.4014 0.459266C22.9698 0.339103 22.5004 0.511604 22.2526 0.908409C22.0966 1.15942 22.0667 1.46917 22.1468 1.75382L22.6008 3.36828C21.4184 3.88952 19.9893 4.87059 18.6984 6.71469C17.0957 9.0042 16.0906 12.0921 15.7104 15.8936C15.5251 17.7457 15.547 19.3585 15.6938 20.7498C14.2572 21.8264 13.3872 23.5311 13.3872 25.3485C13.3872 28.4503 15.8594 30.9839 18.9366 31.0859C20.0037 34.3618 22.04 37.2036 24.7055 39.272H20.8891C16.5253 39.272 12.9883 42.8096 12.9883 47.1734V68.9747C12.9883 69.5408 13.4476 70.0001 14.0137 70.0001H56.2192C56.7853 70.0001 57.2446 69.5408 57.2446 68.9747V54.8659C57.2446 54.3041 56.812 53.8144 56.2507 53.7978C55.6697 53.7802 55.1938 54.2459 55.1938 54.8227V67.9493H49.2305V55.1479C49.2305 54.5818 48.7713 54.1225 48.2052 54.1225C47.6391 54.1225 47.1798 54.5818 47.1798 55.1479V67.9493H23.0531V55.3685C23.0531 54.8067 22.6206 54.3169 22.0593 54.3004C21.4787 54.2827 21.0024 54.7484 21.0024 55.3252V67.9493H15.0391V47.1718C15.0391 43.9418 17.6576 41.3228 20.8881 41.3228H28.0979C30.2389 42.2963 32.6155 42.8389 35.1165 42.8389C37.5715 42.8389 39.9556 42.3198 42.1479 41.3228H49.3438C52.5748 41.3228 55.1938 43.9423 55.1938 47.1734V50.735C55.1938 51.3112 55.6697 51.7769 56.2507 51.7599ZM52.2522 33.3797C52.2522 35.0449 50.8979 36.3993 49.2332 36.3993H48.4471C49.245 35.3942 49.9275 34.3004 50.4818 33.133H52.2522V33.3797ZM55.0865 24.2772V29.2739C55.0865 30.2709 54.2747 31.0822 53.2776 31.0822H51.12V27.8009H52.2976C52.8643 27.8009 53.323 27.3416 53.323 26.7755C53.323 26.2094 52.8643 25.7501 52.2976 25.7501H51.12V22.4689H53.2776C54.2747 22.4689 55.0865 23.2801 55.0865 24.2772ZM48.6004 14.6818C49.5782 12.8035 49.4191 10.8125 49.3032 9.35828C49.2807 9.08271 49.2599 8.82209 49.2508 8.59885C49.245 8.46 49.2354 8.32328 49.2231 8.18763C50.9123 9.54948 53.0282 12.1215 53.1158 16.496C53.1457 17.9513 53.0587 19.2645 52.8611 20.4181H50.6549C49.873 18.5687 48.8909 17.0706 47.7234 15.9416C48.0695 15.5539 48.3643 15.1352 48.6004 14.6818ZM15.438 25.3485C15.438 24.5715 15.6869 23.8265 16.1243 23.2107C16.7598 25.7443 17.7756 27.1723 18.2055 27.6898C18.2525 28.1203 18.316 28.5459 18.3946 28.9662C16.7101 28.625 15.438 27.1328 15.438 25.3485ZM35.1165 40.7882C26.8658 40.7882 20.1537 34.0761 20.1537 25.8254C20.1537 25.7421 20.1425 25.6615 20.1238 25.5835C20.3519 24.6954 21.0088 23.2897 22.7717 21.3153C24.909 18.9211 27.9729 19.0563 32.2133 19.2421L32.8681 19.2704C33.4374 19.2955 33.9122 18.8554 33.9362 18.2893C33.9597 17.7238 33.5207 17.2458 32.9551 17.2218L32.303 17.1935C27.8623 16.9985 24.0267 16.8298 21.2416 19.9492C19.8061 21.5572 18.9676 22.9079 18.4966 24.0086C18.2226 23.2598 17.9705 22.3247 17.8087 21.1882C17.8055 21.1369 17.7991 21.0857 17.7879 21.0344C17.6074 19.679 17.5561 18.0453 17.751 16.0981C18.6375 7.22899 22.855 5.35445 24.1266 4.99129C24.6697 4.83641 24.9848 4.27138 24.8321 3.7277L24.5629 2.77067C26.2345 3.00886 28.9433 3.17122 31.855 2.44223C35.0209 1.64968 41.4867 1.91244 44.8977 4.4615C45.6534 5.026 46.2185 5.6642 46.6008 6.38464C46.6099 6.40334 46.6195 6.42203 46.6292 6.44019C46.9763 7.11363 47.1669 7.85865 47.2017 8.68483C47.2129 8.94706 47.2348 9.22637 47.2588 9.52224C47.3603 10.7954 47.4868 12.38 46.7814 13.7349C46.5031 14.27 46.1079 14.74 45.5968 15.1501C45.5915 15.1539 45.5867 15.1582 45.5813 15.1624C44.549 15.9849 43.0408 16.5611 41.0199 16.904C39.8498 17.1027 38.6396 17.2234 37.3216 17.272C36.764 17.2928 36.2941 17.7425 36.2962 18.3006C36.2978 18.8827 36.7784 19.3436 37.3584 19.3227C38.7817 19.2715 40.0923 19.1417 41.3633 18.9259C43.3009 18.597 44.8919 18.0394 46.1325 17.2645C47.591 18.6028 48.5208 20.5025 49.0693 21.9856V31.2317C48.3045 33.2061 47.1392 34.9552 45.6881 36.4003H38.8538C38.2872 36.4003 37.8284 36.8591 37.8284 37.4257C37.8284 37.9918 38.2872 38.4511 38.8538 38.4511H43.1225C40.7727 39.9411 38.0073 40.7882 35.1165 40.7882Z" fill="#434C54"/>
<path d="M29.6267 24.6826C29.6267 24.1165 29.168 23.6572 28.6013 23.6572H28.4417C27.8755 23.6572 27.4163 24.1165 27.4163 24.6826C27.4163 25.2487 27.8755 25.708 28.4417 25.708H28.6013C29.168 25.708 29.6267 25.2487 29.6267 24.6826Z" fill="#969BA1"/>
<path d="M41.6313 25.708H41.7916C42.3577 25.708 42.817 25.2487 42.817 24.6826C42.817 24.1165 42.3577 23.6572 41.7916 23.6572H41.6313C41.0647 23.6572 40.606 24.1165 40.606 24.6826C40.606 25.2487 41.0647 25.708 41.6313 25.708Z" fill="#969BA1"/>
<path d="M37.2676 50.3724H49.3811V55.8577H37.2676V50.3724Z" fill="#76FFD9"/>
</g>
<defs>
<clipPath id="clip0_78_413">
<rect width="70" height="70" fill="white"/>
</clipPath>
</defs>
</svg>
