<svg width="30" height="30" viewBox="0 0 30 30" fill="none" xmlns="http://www.w3.org/2000/svg">
<g clip-path="url(#clip0_264_16681)">
<path d="M22.2718 24.4001L23.881 28.8254C24.011 29.1828 23.7463 29.5606 23.3661 29.5606C23.232 29.5606 23.1027 29.5115 23.0024 29.4225L19.457 26.2767L22.2718 24.4001Z" fill="#DAD8DB"/>
<path d="M7.49425 24.4001L5.88503 28.8254C5.75508 29.1828 6.01971 29.5606 6.39999 29.5606C6.53403 29.5606 6.66339 29.5115 6.76363 29.4225L10.309 26.2767L7.49425 24.4001Z" fill="#DAD8DB"/>
<path d="M6.73535 26.4879C7.30797 26.9817 7.92452 27.4253 8.57956 27.8114L10.3092 26.2767L7.49444 24.4001L6.73535 26.4879Z" fill="#C8C5C9"/>
<path d="M22.2718 24.4001L19.457 26.2767L21.2791 27.8935C21.9184 27.5278 22.5241 27.1105 23.0873 26.6428L22.2718 24.4001Z" fill="#C8C5C9"/>
<path d="M25.3815 1.23847C23.2227 -0.154106 20.3902 0.336604 18.8143 2.29423C18.6377 2.51357 18.6861 2.83855 18.9228 2.99122L26.4478 7.84536C26.6845 7.99803 27.0005 7.90816 27.1275 7.65683C28.2612 5.41384 27.5404 2.6311 25.3815 1.23847Z" fill="#FF8086"/>
<path d="M6.90723 26.016C7.53374 26.5723 8.21813 27.064 8.94997 27.4831L10.3096 26.2767L7.49484 24.4001L6.90723 26.016Z" fill="#C8C5C9"/>
<path d="M15.0004 28.1532C21.2186 28.1532 26.2595 23.1123 26.2595 16.894C26.2595 10.6758 21.2186 5.63489 15.0004 5.63489C8.7821 5.63489 3.74121 10.6758 3.74121 16.894C3.74121 23.1123 8.7821 28.1532 15.0004 28.1532Z" fill="#FF8086"/>
<path d="M15.0004 25.8075C19.9232 25.8075 23.914 21.8168 23.914 16.894C23.914 11.9712 19.9232 7.98047 15.0004 7.98047C10.0776 7.98047 6.08691 11.9712 6.08691 16.894C6.08691 21.8168 10.0776 25.8075 15.0004 25.8075Z" fill="#FAF5DC"/>
<path d="M15.0003 24.4002C19.1458 24.4002 22.5064 21.0396 22.5064 16.8941C22.5064 12.7485 19.1458 9.38794 15.0003 9.38794C10.8547 9.38794 7.49414 12.7485 7.49414 16.8941C7.49414 21.0396 10.8547 24.4002 15.0003 24.4002Z" fill="white"/>
<path d="M15.0009 19.2397C16.2964 19.2397 17.3465 18.1896 17.3465 16.8941C17.3465 15.5986 16.2964 14.5485 15.0009 14.5485C13.7055 14.5485 12.6553 15.5986 12.6553 16.8941C12.6553 18.1896 13.7055 19.2397 15.0009 19.2397Z" fill="#FAF5DC"/>
<path d="M15.0007 17.8323C15.5189 17.8323 15.939 17.4122 15.939 16.894C15.939 16.3759 15.5189 15.9558 15.0007 15.9558C14.4826 15.9558 14.0625 16.3759 14.0625 16.894C14.0625 17.4122 14.4826 17.8323 15.0007 17.8323Z" fill="#5D5360"/>
<path d="M4.5828 1.28829C2.43383 2.69609 1.73268 5.48393 2.88224 7.71879C3.01107 7.96918 3.32773 8.05682 3.56324 7.90251L11.0537 2.99529C11.2893 2.84097 11.3354 2.51565 11.1572 2.29754C9.56752 0.351098 6.73176 -0.119576 4.5828 1.28829Z" fill="#FF8086"/>
<path d="M15.4693 3.28921H14.531C14.0128 3.28921 13.5928 2.86915 13.5928 2.35096C13.5928 1.83278 14.0128 1.41272 14.531 1.41272H15.4693C15.9874 1.41272 16.4075 1.83278 16.4075 2.35096C16.4075 2.86915 15.9874 3.28921 15.4693 3.28921Z" fill="#DAD8DB"/>
<path d="M10.4324 1.58093L5.24975 4.97619C5.09485 5.07766 4.91675 5.13126 4.73461 5.13126C4.34414 5.13126 3.90223 4.87184 3.81301 4.37598C3.69953 3.7456 3.72378 3.08242 3.88319 2.45801L4.08549 1.66588C2.33461 3.15436 1.8272 5.66784 2.8822 7.71874C3.01092 7.96919 3.32763 8.05678 3.5632 7.90246L11.0537 2.99518C11.2892 2.84087 11.3354 2.51554 11.1572 2.29743C10.9382 2.02929 10.6937 1.79202 10.4324 1.58093Z" fill="#E5646E"/>
<path d="M22.2817 3.34485C22.0142 3.17231 21.8523 2.8781 21.8486 2.55799C21.8449 2.24304 21.9902 1.96241 22.2471 1.78818C22.7772 1.42864 23.3932 1.18165 24.0285 1.07397L24.8346 0.937288C22.7637 -0.0587784 20.2605 0.497664 18.8143 2.29418C18.6377 2.51352 18.6861 2.8385 18.9228 2.99117L26.4478 7.84531C26.6845 7.99798 27.0006 7.90811 27.1276 7.65678C27.2838 7.34774 27.4013 7.02798 27.4882 6.70348L22.2817 3.34485Z" fill="#E5646E"/>
<path d="M15.9386 27.2149C9.72031 27.2149 4.67946 22.1739 4.67946 15.9557C4.67946 13.0853 5.75526 10.4674 7.52348 8.47876C5.20397 10.5411 3.74121 13.5461 3.74121 16.894C3.74121 23.1122 8.78213 28.1531 15.0004 28.1531C18.3483 28.1531 21.3532 26.6903 23.4156 24.3708C21.4269 26.1391 18.8089 27.2149 15.9386 27.2149Z" fill="#E5646E"/>
<path d="M14.9999 10.7453C15.2426 10.7453 15.4393 10.5485 15.4393 10.3059V9.83624C15.4393 9.59358 15.2426 9.39685 14.9999 9.39685C14.7573 9.39685 14.5605 9.59358 14.5605 9.83624V10.3059C14.5605 10.5485 14.7573 10.7453 14.9999 10.7453Z" fill="black"/>
<path d="M14.5605 23.4555V23.9251C14.5605 24.1678 14.7573 24.3645 14.9999 24.3645C15.2426 24.3645 15.4393 24.1678 15.4393 23.9251V23.4555C15.4393 23.2128 15.2426 23.0161 14.9999 23.0161C14.7573 23.0161 14.5605 23.2128 14.5605 23.4555Z" fill="black"/>
<path d="M21.5751 17.3201H22.0448C22.2874 17.3201 22.4841 17.1233 22.4841 16.8807C22.4841 16.638 22.2874 16.4413 22.0448 16.4413H21.5751C21.3325 16.4413 21.1357 16.638 21.1357 16.8807C21.1357 17.1233 21.3325 17.3201 21.5751 17.3201Z" fill="black"/>
<path d="M8.42561 16.4413H7.95599C7.71333 16.4413 7.5166 16.638 7.5166 16.8807C7.5166 17.1233 7.71333 17.3201 7.95599 17.3201H8.42561C8.66827 17.3201 8.865 17.1233 8.865 16.8807C8.865 16.638 8.66827 16.4413 8.42561 16.4413Z" fill="black"/>
<path d="M14.5606 15.5742C14.1533 15.7116 13.8309 16.0341 13.6935 16.4413H10.3036C10.061 16.4413 9.86426 16.638 9.86426 16.8807C9.86426 17.1234 10.061 17.3201 10.3036 17.3201H13.6935C13.8774 17.8654 14.3934 18.2593 14.9999 18.2593C15.7601 18.2593 16.3786 17.6408 16.3786 16.8807C16.3786 16.2742 15.9846 15.7582 15.4393 15.5742V12.1844C15.4393 11.9417 15.2426 11.745 14.9999 11.745C14.7573 11.745 14.5606 11.9417 14.5606 12.1844V15.5742ZM14.9999 17.3805C14.7243 17.3805 14.5001 17.1563 14.5001 16.8807C14.5001 16.6051 14.7244 16.3808 14.9999 16.3808C15.2755 16.3808 15.4998 16.6051 15.4998 16.8807C15.4998 17.1563 15.2756 17.3805 14.9999 17.3805Z" fill="black"/>
<path d="M25.6697 0.890955C23.3434 -0.633081 20.2641 -0.160299 18.5071 1.99083C18.3423 2.19254 18.2706 2.45559 18.3102 2.71255C18.3495 2.9671 18.4953 3.19394 18.7103 3.33478L22.1564 5.59236L21.2472 6.98001C19.5541 5.90784 17.5686 5.25819 15.4395 5.17922V3.70088H15.4697C16.2299 3.70088 16.8484 3.08239 16.8484 2.32225C16.8484 1.56211 16.2299 0.943623 15.4697 0.943623H14.5305C13.7703 0.943623 13.1519 1.56211 13.1519 2.32225C13.1519 3.08239 13.7703 3.70088 14.5305 3.70088H14.5607V5.17934C12.4316 5.25831 10.4462 5.90796 8.75298 6.98013L7.84385 5.59248L11.29 3.3349C11.5049 3.19406 11.6507 2.96722 11.69 2.71266C11.7296 2.45571 11.6579 2.19266 11.4931 1.99095C9.73622 -0.160181 6.65692 -0.633081 4.33055 0.891072C2.00419 2.41505 1.20784 5.42686 2.47826 7.89675C2.59736 8.12834 2.80985 8.29918 3.0613 8.36549C3.1377 8.38565 3.21573 8.39555 3.29336 8.39555C3.46888 8.39555 3.64253 8.34487 3.79157 8.24721L7.10884 6.07399L8.0284 7.47758C5.15496 9.61359 3.28973 13.0333 3.28973 16.8807C3.28973 20.1686 4.6523 23.1438 6.84181 25.2728L5.68762 28.7355C5.59025 29.0276 5.63958 29.3512 5.81967 29.601C5.99971 29.8509 6.29111 30 6.59903 30C6.85564 30 7.09695 29.9001 7.27839 29.7186L9.68384 27.3132C11.2802 28.13 13.0874 28.5911 15.0003 28.5911C16.9132 28.5911 18.7204 28.13 20.3167 27.3132L22.7222 29.7186C22.9036 29.9001 23.1449 30 23.4015 30C23.7095 30 24.0009 29.8509 24.1809 29.601C24.361 29.3512 24.4103 29.0276 24.3129 28.7355L23.1588 25.2728C25.3482 23.1438 26.7108 20.1686 26.7108 16.8807C26.7108 13.0333 24.8456 9.61359 21.9722 7.47758L22.8917 6.07399L26.209 8.24727C26.358 8.34493 26.5317 8.39561 26.7071 8.39561C26.7848 8.39561 26.8629 8.3857 26.9392 8.36555C27.1907 8.29923 27.4031 8.12834 27.5222 7.89681C28.7924 5.42686 27.9961 2.41505 25.6697 0.890955ZM14.0306 2.32225C14.0306 2.04661 14.2549 1.8224 14.5305 1.8224H15.4697C15.7454 1.8224 15.9696 2.04667 15.9696 2.32225C15.9696 2.59784 15.7453 2.8221 15.4697 2.8221H14.5305C14.2548 2.8221 14.0306 2.59784 14.0306 2.32225ZM3.31 7.5122C3.30672 7.51437 3.29898 7.5194 3.28545 7.51583C3.27402 7.51278 3.26535 7.50575 3.25979 7.49486C2.19565 5.42598 2.86299 2.90301 4.81212 1.62602C5.58029 1.12278 6.44618 0.879413 7.30376 0.879413C8.62222 0.879413 9.92088 1.45501 10.8125 2.54675C10.8222 2.55858 10.8227 2.57065 10.8215 2.57868C10.8193 2.59256 10.8117 2.5976 10.8084 2.59977L3.31 7.5122ZM6.65692 29.0972C6.64168 29.1125 6.62053 29.1212 6.59898 29.1212C6.56429 29.1212 6.54373 29.1027 6.53248 29.0872C6.52129 29.0717 6.51028 29.0463 6.52123 29.0134L7.55468 25.9131C7.97555 26.2606 8.42127 26.5789 8.88831 26.8658L6.65692 29.0972ZM23.479 29.0133C23.4901 29.0462 23.479 29.0716 23.4678 29.0872C23.4566 29.1027 23.436 29.1212 23.4013 29.1212C23.3797 29.1212 23.3586 29.1125 23.3434 29.0972L21.112 26.8658C21.579 26.5788 22.0247 26.2605 22.4456 25.913L23.479 29.0133ZM25.8318 16.8807C25.8318 22.8533 20.9727 27.7123 15.0001 27.7123C9.02751 27.7123 4.16845 22.8533 4.16845 16.8807C4.16845 10.9081 9.02751 6.04903 15.0001 6.04903C20.9727 6.04903 25.8318 10.908 25.8318 16.8807ZM26.7405 7.4948C26.7349 7.5057 26.7262 7.51273 26.7148 7.51577C26.7013 7.5194 26.6936 7.51431 26.6903 7.51214L19.1919 2.59977C19.1886 2.5976 19.1809 2.59256 19.1788 2.57868C19.1775 2.57065 19.1781 2.55858 19.1877 2.54675C20.0795 1.4549 21.3779 0.879413 22.6965 0.879413C23.554 0.879413 24.4201 1.12289 25.1881 1.62602C27.1372 2.90301 27.8046 5.42598 26.7405 7.4948Z" fill="black"/>
<path d="M14.5375 7.53043C12.2135 7.64437 10.0268 8.61402 8.38022 10.2606C6.73363 11.9072 5.76398 14.0939 5.65003 16.4179C5.53685 18.7251 6.27233 20.98 7.72085 22.7672C7.80767 22.8744 7.93451 22.93 8.06246 22.93C8.15965 22.93 8.25749 22.8979 8.33886 22.8319C8.52739 22.6791 8.55633 22.4024 8.40354 22.2139C7.09135 20.5949 6.42518 18.5518 6.5277 16.4609C6.63099 14.3553 7.50953 12.374 9.00158 10.882C10.4936 9.38998 12.4749 8.51138 14.5805 8.40809C16.6717 8.30551 18.7145 8.97174 20.3335 10.2839C20.5221 10.4367 20.7987 10.4078 20.9515 10.2193C21.1043 10.0307 21.0754 9.75403 20.8868 9.60124C19.0996 8.15266 16.8447 7.41712 14.5375 7.53043Z" fill="black"/>
<path d="M23.4731 17.3006C23.3698 19.4062 22.4912 21.3875 20.9992 22.8795C19.5071 24.3716 17.5258 25.2501 15.4202 25.3534C13.3291 25.4563 11.2862 24.7898 9.66724 23.4776C9.47872 23.3248 9.20208 23.3538 9.04923 23.5422C8.89644 23.7308 8.92538 24.0075 9.11391 24.1603C10.7814 25.5118 12.8558 26.2424 15.0001 26.2424C15.1541 26.2424 15.3087 26.2387 15.4633 26.2311C17.7872 26.1171 19.9739 25.1475 21.6205 23.5009C23.2671 21.8543 24.2368 19.6676 24.3507 17.3436C24.4639 15.0364 23.7284 12.7815 22.2799 10.9943C22.1271 10.8057 21.8504 10.7768 21.6619 10.9296C21.4734 11.0824 21.4444 11.3591 21.5972 11.5476C22.9095 13.1666 23.5756 15.2097 23.4731 17.3006Z" fill="black"/>
</g>
<defs>
<clipPath id="clip0_264_16681">
<rect width="30" height="30" fill="white"/>
</clipPath>
</defs>
</svg>
