<svg width="30" height="30" viewBox="0 0 30 30" fill="none" xmlns="http://www.w3.org/2000/svg">
<g clip-path="url(#clip0_264_16729)">
<path d="M15.0008 29.5787C23.0553 29.5787 29.5847 23.0493 29.5847 14.9949C29.5847 6.94042 23.0553 0.411011 15.0008 0.411011C6.9464 0.411011 0.416992 6.94042 0.416992 14.9949C0.416992 23.0493 6.9464 29.5787 15.0008 29.5787Z" fill="#FFE177"/>
<path d="M15.0011 0.411011C14.566 0.411011 14.1354 0.430084 13.71 0.467409C21.1596 1.1209 27.0027 7.37552 27.0027 14.9949C27.0027 22.6142 21.1596 28.8688 13.71 29.5223C14.1354 29.5596 14.566 29.5787 15.0011 29.5787C23.0555 29.5787 29.5849 23.0493 29.5849 14.9949C29.5849 6.94041 23.0555 0.411011 15.0011 0.411011Z" fill="#FFD15B"/>
<path d="M12.9741 19.7647C12.7088 19.7647 12.4434 19.6635 12.241 19.4611L8.82937 16.0494C7.88731 15.1074 9.34998 13.6375 10.2956 14.5832L12.9741 17.2617L19.707 10.5288C20.641 9.59479 22.1287 11.0396 21.1732 11.9951L13.7073 19.461C13.5048 19.6635 13.2395 19.7647 12.9741 19.7647Z" fill="white"/>
<path d="M25.6247 4.37119C20.032 -1.45695 9.97004 -1.45724 4.37753 4.37137C-1.27596 9.80154 -1.4708 19.4782 3.9298 25.15C4.09419 25.3291 4.3726 25.341 4.55172 25.1767C4.73083 25.0123 4.74274 24.7339 4.57842 24.5548C-3.70896 15.5562 2.76333 0.819424 15.0013 0.851174C22.6032 0.69442 29.3022 7.39219 29.1447 14.9949C29.2011 26.7272 15.4089 33.4101 6.23875 26.0975C6.04807 25.9468 5.77124 25.9792 5.62047 26.1699C5.46977 26.3607 5.50216 26.6375 5.69289 26.7882C11.4389 31.4943 20.4651 30.9655 25.6246 25.6183C31.4528 20.0264 31.4531 9.96317 25.6247 4.37119Z" fill="black"/>
<path d="M15.0006 26.2041C12.4912 26.2041 10.2283 25.303 9.39146 24.735C9.1904 24.5985 8.91662 24.6509 8.78011 24.852C8.6436 25.0531 8.69595 25.3268 8.89713 25.4633C16.6102 30.0843 27.1616 24.3952 27.0902 14.9947C27.0903 8.32858 21.6669 2.90515 15.0007 2.90515C14.7576 2.90515 14.5605 3.10222 14.5605 3.34531C14.5605 3.58839 14.7576 3.78546 15.0007 3.78546C29.8522 4.34957 29.8457 25.6433 15.0006 26.2041Z" fill="black"/>
<path d="M8.13309 14.9984C8.0018 15.4883 8.14207 15.9848 8.51784 16.3606L11.9295 19.7722C12.494 20.3368 13.4523 20.338 14.0182 19.7722L18.981 14.8095C19.1529 14.6376 19.1529 14.3589 18.981 14.187C18.8091 14.0151 18.5304 14.0151 18.3586 14.187L13.3958 19.1497C13.1655 19.3799 12.7822 19.3799 12.552 19.1497L9.14034 15.7381C8.62806 15.2258 9.46271 14.3729 9.98409 14.8943L12.6626 17.5728C12.8345 17.7447 13.1132 17.7447 13.285 17.5728L20.0179 10.84C20.2633 10.5946 20.6076 10.635 20.8433 10.8708C20.9128 10.9402 21.2398 11.3056 20.8616 11.6838L20.0041 12.5413C19.8322 12.7132 19.8322 12.9919 20.0041 13.1637C20.176 13.3356 20.4547 13.3356 20.6265 13.1637L21.4841 12.3062C22.8142 10.9262 20.7727 8.90133 19.3954 10.2175L12.9738 16.639L10.6065 14.2718C9.79518 13.4606 8.42071 13.9249 8.13309 14.9984Z" fill="black"/>
<path d="M11.9975 3.26868C11.431 3.26868 11.4301 4.14899 11.9975 4.14899C12.5639 4.14899 12.5649 3.26868 11.9975 3.26868Z" fill="black"/>
<path d="M9.1791 4.43066C8.61264 4.43066 8.61171 5.31098 9.1791 5.31098C9.74556 5.31098 9.7465 4.43066 9.1791 4.43066Z" fill="black"/>
<path d="M6.75722 7.16291C7.32367 7.16291 7.32461 6.28259 6.75722 6.28259C6.19077 6.28259 6.18983 7.16291 6.75722 7.16291Z" fill="black"/>
<path d="M4.89687 8.69824C4.33042 8.69824 4.32948 9.57854 4.89687 9.57854C5.46332 9.57854 5.46426 8.69824 4.89687 8.69824Z" fill="black"/>
<path d="M3.725 11.5131C3.15854 11.5131 3.1576 12.3934 3.725 12.3934C4.29145 12.3934 4.29239 11.5131 3.725 11.5131Z" fill="black"/>
<path d="M3.32265 14.5352C2.7562 14.5352 2.75526 15.4155 3.32265 15.4155C3.88911 15.4155 3.89005 14.5352 3.32265 14.5352Z" fill="black"/>
<path d="M3.71523 18.4388C4.28168 18.4388 4.28262 17.5585 3.71523 17.5585C3.14878 17.5585 3.14784 18.4388 3.71523 18.4388Z" fill="black"/>
<path d="M4.87734 20.3771C4.31089 20.3771 4.30995 21.2574 4.87734 21.2574C5.44373 21.2574 5.44467 20.3771 4.87734 20.3771Z" fill="black"/>
<path d="M6.72886 23.6793C7.29531 23.6793 7.29624 22.799 6.72886 22.799C6.16247 22.799 6.16153 23.6793 6.72886 23.6793Z" fill="black"/>
</g>
<defs>
<clipPath id="clip0_264_16729">
<rect width="30" height="30" fill="white"/>
</clipPath>
</defs>
</svg>
