<svg width="24" height="24" viewBox="0 0 24 24" fill="none" xmlns="http://www.w3.org/2000/svg">
<path d="M12.0078 15.2168H6.42703L5.28688 18.7423C5.25687 18.8773 5.13686 18.9673 5.00184 18.9523H2.18146C2.01644 18.9523 1.97143 18.8623 2.01644 18.6822L6.84709 4.77537C6.89209 4.62535 6.9371 4.46033 6.99711 4.28031C7.05711 3.96526 7.08712 3.63522 7.08712 3.30518C7.07212 3.23017 7.13212 3.15516 7.20714 3.14015H11.0927C11.2127 3.14015 11.2727 3.18516 11.2877 3.26017L16.7634 18.7122C16.8084 18.8773 16.7634 18.9523 16.6134 18.9523H13.478C13.373 18.9673 13.268 18.8923 13.2379 18.7873L12.0078 15.2168ZM7.29715 12.1714H11.1077C11.0176 11.8563 10.8976 11.4813 10.7626 11.0912C10.6276 10.6862 10.4926 10.2511 10.3576 9.80105C10.2075 9.33599 10.0725 8.88593 9.9225 8.42086C9.77248 7.9558 9.63746 7.52074 9.51745 7.08568C9.39743 6.66563 9.29242 6.27558 9.1874 5.91553H9.1574C9.02238 6.56061 8.85736 7.2057 8.64733 7.85079C8.4223 8.57088 8.19727 9.32098 7.95724 10.0711C7.74721 10.8362 7.52218 11.5413 7.29715 12.1714ZM20.1089 5.76551C19.6138 5.78051 19.1337 5.58548 18.7737 5.24044C18.4286 4.86539 18.2486 4.37032 18.2636 3.86025C18.2486 3.35018 18.4437 2.87012 18.8037 2.52507C19.1637 2.18002 19.6438 2 20.1389 2C20.724 2 21.174 2.18002 21.5041 2.52507C21.8341 2.88512 22.0141 3.36518 21.9991 3.86025C22.0141 4.37032 21.8341 4.86539 21.4741 5.24044C21.129 5.60048 20.6189 5.79551 20.1089 5.76551ZM18.4286 18.7873V7.2357C18.4286 7.08568 18.4887 7.02568 18.6237 7.02568H21.5941C21.7291 7.02568 21.7891 7.10069 21.7891 7.2357V18.7873C21.7891 18.9523 21.7291 19.0273 21.5941 19.0273H18.6537C18.5037 19.0273 18.4286 18.9373 18.4286 18.7873Z" fill="#FF9A00"/>
</svg>
