<svg width="142" height="41" viewBox="0 0 142 41" fill="none" xmlns="http://www.w3.org/2000/svg">
<rect y="14" width="14" height="26" transform="rotate(-90 0 14)" fill="#994FF5"/>
<rect y="14" width="14" height="26" fill="#994FF5"/>
<rect x="26" y="14" width="14" height="26" fill="#FFC41F"/>
<path d="M51.924 40V21.02H59.854L66.172 36.152H67.082L66.562 36.62V21.02H71.086V40H63.104L56.786 24.868H55.876L56.396 24.4V40H51.924ZM75.3959 40V25.648H80.1279V40H75.3959ZM73.5759 29.08V25.648H80.1279V29.08H73.5759ZM77.3459 24.504C76.4792 24.504 75.8379 24.2873 75.4219 23.854C75.0232 23.4033 74.8239 22.8313 74.8239 22.138C74.8239 21.4447 75.0232 20.8813 75.4219 20.448C75.8379 19.9973 76.4706 19.772 77.3199 19.772C78.1866 19.772 78.8192 19.9973 79.2179 20.448C79.6166 20.8813 79.8159 21.4447 79.8159 22.138C79.8159 22.8313 79.6166 23.4033 79.2179 23.854C78.8192 24.2873 78.1952 24.504 77.3459 24.504ZM90.1586 40.52C88.9106 40.52 87.8273 40.3207 86.9086 39.922C85.99 39.506 85.2186 38.9513 84.5946 38.258C83.988 37.5647 83.5286 36.776 83.2166 35.892C82.922 35.008 82.7746 34.0893 82.7746 33.136V32.616C82.7746 31.6107 82.9306 30.6573 83.2426 29.756C83.572 28.8547 84.0486 28.0573 84.6726 27.364C85.2966 26.6707 86.068 26.1247 86.9866 25.726C87.9053 25.3273 88.9626 25.128 90.1586 25.128C91.476 25.128 92.6373 25.388 93.6426 25.908C94.648 26.428 95.4453 27.1473 96.0346 28.066C96.6413 28.9673 96.9793 30.0073 97.0486 31.186H92.4206C92.3686 30.614 92.152 30.1287 91.7706 29.73C91.4066 29.3313 90.8693 29.132 90.1586 29.132C89.552 29.132 89.0493 29.288 88.6506 29.6C88.2693 29.912 87.9833 30.3453 87.7926 30.9C87.602 31.4547 87.5066 32.1133 87.5066 32.876C87.5066 33.5867 87.5846 34.2193 87.7406 34.774C87.914 35.3287 88.1913 35.762 88.5726 36.074C88.9713 36.3687 89.5 36.516 90.1586 36.516C90.644 36.516 91.0513 36.4293 91.3806 36.256C91.71 36.0827 91.97 35.84 92.1606 35.528C92.3513 35.1987 92.4726 34.8173 92.5246 34.384H97.1526C97.0833 35.5973 96.7366 36.6633 96.1126 37.582C95.506 38.5007 94.6913 39.22 93.6686 39.74C92.646 40.26 91.476 40.52 90.1586 40.52ZM99.5519 40V21.02H104.284V31.836H103.66C103.66 30.38 103.842 29.158 104.206 28.17C104.57 27.182 105.099 26.4367 105.792 25.934C106.503 25.4313 107.378 25.18 108.418 25.18H108.626C110.186 25.18 111.373 25.7433 112.188 26.87C113.02 27.9967 113.436 29.652 113.436 31.836V40H108.704V31.654C108.704 30.9953 108.505 30.458 108.106 30.042C107.707 29.6087 107.179 29.392 106.52 29.392C105.861 29.392 105.324 29.6087 104.908 30.042C104.492 30.458 104.284 31.0127 104.284 31.706V40H99.5519ZM123.764 40.52C122.499 40.52 121.372 40.3293 120.384 39.948C119.396 39.5667 118.556 39.038 117.862 38.362C117.186 37.686 116.666 36.906 116.302 36.022C115.956 35.138 115.782 34.1933 115.782 33.188V32.564C115.782 31.524 115.964 30.5533 116.328 29.652C116.71 28.7507 117.247 27.962 117.94 27.286C118.634 26.61 119.474 26.0813 120.462 25.7C121.45 25.3187 122.551 25.128 123.764 25.128C124.995 25.128 126.096 25.3187 127.066 25.7C128.054 26.0813 128.895 26.61 129.588 27.286C130.282 27.962 130.81 28.7507 131.174 29.652C131.556 30.5533 131.746 31.524 131.746 32.564V33.188C131.746 34.1933 131.564 35.138 131.2 36.022C130.854 36.906 130.334 37.686 129.64 38.362C128.964 39.038 128.132 39.5667 127.144 39.948C126.156 40.3293 125.03 40.52 123.764 40.52ZM123.764 36.568C124.492 36.568 125.09 36.412 125.558 36.1C126.044 35.788 126.408 35.3547 126.65 34.8C126.893 34.228 127.014 33.5867 127.014 32.876C127.014 32.1307 126.884 31.4807 126.624 30.926C126.382 30.354 126.018 29.9033 125.532 29.574C125.047 29.2447 124.458 29.08 123.764 29.08C123.071 29.08 122.482 29.2447 121.996 29.574C121.511 29.9033 121.138 30.354 120.878 30.926C120.636 31.4807 120.514 32.1307 120.514 32.876C120.514 33.5867 120.636 34.228 120.878 34.8C121.121 35.3547 121.485 35.788 121.97 36.1C122.456 36.412 123.054 36.568 123.764 36.568ZM134.545 40V21.02H139.277V40H134.545ZM132.933 24.452V21.02H139.277V24.452H132.933Z" fill="white"/>
</svg>
