<svg width="30" height="30" viewBox="0 0 30 30" fill="none" xmlns="http://www.w3.org/2000/svg">
<path d="M4.7959 7.18091V19.6577H25.2039V7.18091H4.7959ZM18.9528 16.2701C16.4321 17.369 13.5677 17.369 11.0471 16.2701V12.3804L9.35015 11.7138L14.9999 9.49448L20.6497 11.7138L18.9528 12.3805V16.2701Z" fill="#E2C4FF"/>
<path d="M29.4141 21.6654H28.3681V6.11497C28.3681 4.9581 27.4269 4.01685 26.2699 4.01685H3.73008C2.57314 4.01685 1.63189 4.95804 1.63189 6.11497V21.6654H0.585938C0.262324 21.6654 0 21.9278 0 22.2513V23.4843C0 24.8623 1.12102 25.9832 2.49896 25.9832H27.501C28.879 25.9832 30 24.8622 30 23.4843V22.2513C30 21.9277 29.7377 21.6654 29.4141 21.6654ZM2.80377 6.11497C2.80377 5.60421 3.21932 5.18872 3.73008 5.18872H26.2699C26.7807 5.18872 27.1962 5.60421 27.1962 6.11497V19.0717H2.80377V6.11497ZM2.80377 20.2436H27.1962V21.6654H2.80377V20.2436ZM28.8281 23.4843C28.8281 24.216 28.2328 24.8114 27.501 24.8114H2.49896C1.76719 24.8114 1.17188 24.216 1.17188 23.4843V22.8373H14.4141V23.0212C14.4141 23.3448 14.6764 23.6071 15 23.6071C15.3236 23.6071 15.5859 23.3448 15.5859 23.0212V22.8373H28.8281V23.4843Z" fill="#020288"/>
<path d="M20.8644 11.1684L15.2146 8.94905C15.0769 8.89491 14.9239 8.89491 14.7862 8.94905L9.13637 11.1684C8.91213 11.2565 8.76465 11.4729 8.76465 11.7138C8.76465 11.9547 8.91213 12.1711 9.13637 12.2592L10.4616 12.7798V16.2701C10.4616 16.5032 10.5997 16.7141 10.8134 16.8072C12.1439 17.3873 13.5721 17.6774 15.0004 17.6774C16.4286 17.6774 17.8569 17.3873 19.1874 16.8072C19.401 16.7141 19.5391 16.5032 19.5391 16.2701V12.7798L20.8644 12.2592C21.0886 12.1711 21.2361 11.9547 21.2361 11.7138C21.2361 11.4729 21.0887 11.2565 20.8644 11.1684ZM15.0004 10.124L19.0476 11.7138L15.0004 13.3036L10.9531 11.7138L15.0004 10.124ZM18.3673 15.8777C16.2075 16.7151 13.7933 16.7151 11.6335 15.8777V13.24L14.7862 14.4785C14.855 14.5056 14.9277 14.519 15.0004 14.519C15.073 14.519 15.1457 14.5056 15.2146 14.4785L18.3673 13.24V15.8777Z" fill="#020288"/>
</svg>
