<svg width="26" height="26" viewBox="0 0 26 26" fill="none" xmlns="http://www.w3.org/2000/svg">
<path d="M14.0157 19.3571C13 19.3574 12.0112 19.0301 11.1963 18.4238C10.3813 17.8175 9.78364 16.9646 9.49194 15.9917C9.20024 15.0187 9.23009 13.9776 9.57705 13.023C9.92401 12.0684 10.5696 11.2511 11.4179 10.6925C10.7881 10.916 10.2129 11.2706 9.73031 11.7329C9.24774 12.1953 8.86879 12.7547 8.61852 13.3744C8.36825 13.9941 8.25237 14.6598 8.27852 15.3276C8.30467 15.9954 8.47227 16.65 8.77024 17.2482C9.06821 17.8464 9.48975 18.3745 10.007 18.7977C10.5243 19.2209 11.1255 19.5294 11.7708 19.703C12.4162 19.8765 13.0911 19.9111 13.7508 19.8044C14.4105 19.6977 15.0401 19.4522 15.5979 19.0842C15.09 19.2652 14.5548 19.3575 14.0157 19.3571Z" fill="#D4E1F4"/>
<path d="M15.9969 12.4399C15.9501 12.4072 15.8961 12.3861 15.8395 12.3787C15.7828 12.3712 15.7252 12.3775 15.6715 12.397C13.9456 13.0234 12.0544 13.0234 10.3285 12.397C10.2748 12.3775 10.2172 12.3712 10.1606 12.3787C10.104 12.3861 10.05 12.4071 10.0032 12.4399C9.9564 12.4726 9.91819 12.5162 9.89179 12.5668C9.8654 12.6175 9.8516 12.6737 9.85156 12.7309V14.7866C9.85157 14.8596 9.87403 14.9308 9.91589 14.9906C9.95775 15.0503 10.017 15.0958 10.0856 15.1207C11.9684 15.8041 14.0316 15.8041 15.9144 15.1207C15.983 15.0958 16.0422 15.0504 16.0841 14.9906C16.1259 14.9309 16.1484 14.8598 16.1484 14.7869V12.7309C16.1484 12.6738 16.1346 12.6175 16.1082 12.5669C16.0819 12.5162 16.0437 12.4727 15.9969 12.4399ZM15.4375 14.5336C13.8539 15.0522 12.1461 15.0522 10.5625 14.5336V13.2228C12.1531 13.696 13.8469 13.696 15.4375 13.2228V14.5336Z" fill="#1AE5BE"/>
<path d="M16.0471 7.10938H13.5918C13.4975 7.10938 13.4071 7.14683 13.3404 7.21349C13.2738 7.28015 13.2363 7.37057 13.2363 7.46484C13.2363 7.55912 13.2738 7.64954 13.3404 7.7162C13.4071 7.78286 13.4975 7.82031 13.5918 7.82031H16.0471C16.1413 7.82031 16.2318 7.78286 16.2984 7.7162C16.3651 7.64954 16.4025 7.55912 16.4025 7.46484C16.4025 7.37057 16.3651 7.28015 16.2984 7.21349C16.2318 7.14683 16.1413 7.10938 16.0471 7.10938Z" fill="#1AE5BE"/>
<path d="M12.4091 7.82031C12.5033 7.82031 12.5938 7.78286 12.6604 7.7162C12.7271 7.64954 12.7645 7.55912 12.7645 7.46484C12.7645 7.37057 12.7271 7.28015 12.6604 7.21349C12.5938 7.14683 12.5033 7.10938 12.4091 7.10938H9.95313C9.85885 7.10938 9.76843 7.14683 9.70177 7.21349C9.63511 7.28015 9.59766 7.37057 9.59766 7.46484C9.59766 7.55912 9.63511 7.64954 9.70177 7.7162C9.76843 7.78286 9.85885 7.82031 9.95313 7.82031H12.4091Z" fill="#1AE5BE"/>
<path d="M11.7305 20.6012C11.5095 20.6012 11.2935 20.6668 11.1098 20.7895C10.9261 20.9123 10.7829 21.0868 10.6983 21.2909C10.6138 21.495 10.5916 21.7197 10.6347 21.9364C10.6779 22.1531 10.7843 22.3522 10.9405 22.5084C11.0967 22.6646 11.2958 22.771 11.5125 22.8142C11.7292 22.8573 11.9539 22.8351 12.158 22.7506C12.3621 22.666 12.5366 22.5228 12.6594 22.3391C12.7821 22.1554 12.8477 21.9394 12.8477 21.7184C12.8473 21.4222 12.7295 21.1383 12.5201 20.9288C12.3106 20.7194 12.0267 20.6016 11.7305 20.6012ZM11.7305 22.1247C11.6501 22.1247 11.5716 22.1009 11.5048 22.0562C11.438 22.0116 11.3859 21.9481 11.3551 21.8739C11.3244 21.7997 11.3164 21.718 11.332 21.6392C11.3477 21.5604 11.3864 21.488 11.4432 21.4312C11.5 21.3744 11.5724 21.3357 11.6512 21.32C11.73 21.3043 11.8117 21.3124 11.8859 21.3431C11.9602 21.3739 12.0236 21.4259 12.0683 21.4927C12.1129 21.5595 12.1367 21.6381 12.1367 21.7184C12.1366 21.8261 12.0938 21.9294 12.0176 22.0056C11.9414 22.0817 11.8382 22.1246 11.7305 22.1247Z" fill="#1AE5BE"/>
<path d="M14.2695 20.6012C14.0486 20.6012 13.8326 20.6668 13.6489 20.7895C13.4651 20.9123 13.3219 21.0868 13.2374 21.2909C13.1528 21.495 13.1307 21.7197 13.1738 21.9364C13.2169 22.1531 13.3233 22.3522 13.4796 22.5084C13.6358 22.6646 13.8349 22.771 14.0516 22.8142C14.2683 22.8573 14.4929 22.8351 14.6971 22.7506C14.9012 22.666 15.0757 22.5228 15.1984 22.3391C15.3212 22.1554 15.3867 21.9394 15.3867 21.7184C15.3864 21.4222 15.2686 21.1383 15.0591 20.9288C14.8497 20.7194 14.5657 20.6016 14.2695 20.6012ZM14.2695 22.1247C14.1892 22.1247 14.1106 22.1009 14.0438 22.0562C13.977 22.0116 13.925 21.9481 13.8942 21.8739C13.8635 21.7997 13.8554 21.718 13.8711 21.6392C13.8868 21.5604 13.9255 21.488 13.9823 21.4312C14.0391 21.3744 14.1115 21.3357 14.1903 21.32C14.2691 21.3043 14.3508 21.3124 14.425 21.3431C14.4992 21.3739 14.5627 21.4259 14.6073 21.4927C14.652 21.5595 14.6758 21.6381 14.6758 21.7184C14.6757 21.8261 14.6328 21.9294 14.5567 22.0056C14.4805 22.0817 14.3772 22.1246 14.2695 22.1247Z" fill="#1AE5BE"/>
<path d="M15.9969 12.4399C15.9501 12.4072 15.8961 12.3861 15.8395 12.3787C15.7828 12.3712 15.7252 12.3775 15.6715 12.397C13.9456 13.0234 12.0544 13.0234 10.3285 12.397C10.2748 12.3775 10.2172 12.3712 10.1606 12.3787C10.104 12.3861 10.05 12.4071 10.0032 12.4399C9.9564 12.4726 9.91819 12.5162 9.89179 12.5668C9.8654 12.6175 9.8516 12.6737 9.85156 12.7309V14.7866C9.85157 14.8596 9.87403 14.9308 9.91589 14.9906C9.95775 15.0503 10.017 15.0958 10.0856 15.1207C11.9684 15.8041 14.0316 15.8041 15.9144 15.1207C15.983 15.0958 16.0422 15.0504 16.0841 14.9906C16.1259 14.9309 16.1484 14.8598 16.1484 14.7869V12.7309C16.1484 12.6738 16.1346 12.6175 16.1082 12.5669C16.0819 12.5162 16.0437 12.4727 15.9969 12.4399ZM15.4375 14.5336C13.8539 15.0522 12.1461 15.0522 10.5625 14.5336V13.2228C12.1531 13.696 13.8469 13.696 15.4375 13.2228V14.5336Z" fill="#1AE5BE"/>
<path d="M16.0471 7.10938H13.5918C13.4975 7.10938 13.4071 7.14683 13.3404 7.21349C13.2738 7.28015 13.2363 7.37057 13.2363 7.46484C13.2363 7.55912 13.2738 7.64954 13.3404 7.7162C13.4071 7.78286 13.4975 7.82031 13.5918 7.82031H16.0471C16.1413 7.82031 16.2318 7.78286 16.2984 7.7162C16.3651 7.64954 16.4025 7.55912 16.4025 7.46484C16.4025 7.37057 16.3651 7.28015 16.2984 7.21349C16.2318 7.14683 16.1413 7.10938 16.0471 7.10938Z" fill="#1AE5BE"/>
<path d="M12.4091 7.82031C12.5033 7.82031 12.5938 7.78286 12.6604 7.7162C12.7271 7.64954 12.7645 7.55912 12.7645 7.46484C12.7645 7.37057 12.7271 7.28015 12.6604 7.21349C12.5938 7.14683 12.5033 7.10938 12.4091 7.10938H9.95313C9.85885 7.10938 9.76843 7.14683 9.70177 7.21349C9.63511 7.28015 9.59766 7.37057 9.59766 7.46484C9.59766 7.55912 9.63511 7.64954 9.70177 7.7162C9.76843 7.78286 9.85885 7.82031 9.95313 7.82031H12.4091Z" fill="#1AE5BE"/>
<path d="M11.7305 20.6012C11.5095 20.6012 11.2935 20.6668 11.1098 20.7895C10.9261 20.9123 10.7829 21.0868 10.6983 21.2909C10.6138 21.495 10.5916 21.7197 10.6347 21.9364C10.6779 22.1531 10.7843 22.3522 10.9405 22.5084C11.0967 22.6646 11.2958 22.771 11.5125 22.8142C11.7292 22.8573 11.9539 22.8351 12.158 22.7506C12.3621 22.666 12.5366 22.5228 12.6594 22.3391C12.7821 22.1554 12.8477 21.9394 12.8477 21.7184C12.8473 21.4222 12.7295 21.1383 12.5201 20.9288C12.3106 20.7194 12.0267 20.6016 11.7305 20.6012ZM11.7305 22.1247C11.6501 22.1247 11.5716 22.1009 11.5048 22.0562C11.438 22.0116 11.3859 21.9481 11.3551 21.8739C11.3244 21.7997 11.3164 21.718 11.332 21.6392C11.3477 21.5604 11.3864 21.488 11.4432 21.4312C11.5 21.3744 11.5724 21.3357 11.6512 21.32C11.73 21.3043 11.8117 21.3124 11.8859 21.3431C11.9602 21.3739 12.0236 21.4259 12.0683 21.4927C12.1129 21.5595 12.1367 21.6381 12.1367 21.7184C12.1366 21.8261 12.0938 21.9294 12.0176 22.0056C11.9414 22.0817 11.8382 22.1246 11.7305 22.1247Z" fill="#1AE5BE"/>
<path d="M14.2695 20.6012C14.0486 20.6012 13.8326 20.6668 13.6489 20.7895C13.4651 20.9123 13.3219 21.0868 13.2374 21.2909C13.1528 21.495 13.1307 21.7197 13.1738 21.9364C13.2169 22.1531 13.3233 22.3522 13.4796 22.5084C13.6358 22.6646 13.8349 22.771 14.0516 22.8142C14.2683 22.8573 14.4929 22.8351 14.6971 22.7506C14.9012 22.666 15.0757 22.5228 15.1984 22.3391C15.3212 22.1554 15.3867 21.9394 15.3867 21.7184C15.3864 21.4222 15.2686 21.1383 15.0591 20.9288C14.8497 20.7194 14.5657 20.6016 14.2695 20.6012ZM14.2695 22.1247C14.1892 22.1247 14.1106 22.1009 14.0438 22.0562C13.977 22.0116 13.925 21.9481 13.8942 21.8739C13.8635 21.7997 13.8554 21.718 13.8711 21.6392C13.8868 21.5604 13.9255 21.488 13.9823 21.4312C14.0391 21.3744 14.1115 21.3357 14.1903 21.32C14.2691 21.3043 14.3508 21.3124 14.425 21.3431C14.4992 21.3739 14.5627 21.4259 14.6073 21.4927C14.652 21.5595 14.6758 21.6381 14.6758 21.7184C14.6757 21.8261 14.6328 21.9294 14.5567 22.0056C14.4805 22.0817 14.3772 22.1246 14.2695 22.1247Z" fill="#1AE5BE"/>
<path d="M25.1996 17.4254C25.1895 17.4217 25.1793 17.4185 25.1691 17.4156L18.4178 15.5602C18.4283 15.4223 18.4336 15.2829 18.4337 15.1423C18.4322 13.9291 18.0253 12.7512 17.2779 11.7957C16.5304 10.8401 15.4851 10.1617 14.308 9.86811L13.3517 3.46734C13.3392 3.38308 13.2968 3.30613 13.2322 3.25051C13.1677 3.19488 13.0853 3.16428 13.0002 3.16428C12.915 3.16428 12.8326 3.19488 12.7681 3.25051C12.7035 3.30613 12.6611 3.38308 12.6486 3.46734L11.6923 9.86811C10.5152 10.1617 9.46991 10.8401 8.72243 11.7957C7.97495 12.7512 7.56811 13.9291 7.56653 15.1423C7.56653 15.2783 7.57161 15.4131 7.58177 15.5467L0.829532 17.4155C0.819375 17.4183 0.809219 17.4216 0.799063 17.4253C0.70546 17.4605 0.623018 17.5202 0.560343 17.5981C0.497669 17.676 0.45706 17.7693 0.442756 17.8683C0.428452 17.9673 0.440978 18.0683 0.479026 18.1607C0.517074 18.2532 0.579248 18.3338 0.659059 18.394L1.38142 18.9394C1.47855 19.0126 1.59685 19.0522 1.71846 19.0522C1.74285 19.0522 1.76719 19.0501 1.79123 19.046L3.90997 18.8334V19.4492H4.62091V18.7624L8.6174 18.3643C9.12307 19.049 9.78213 19.6057 10.5418 19.9897C11.3014 20.3738 12.1404 20.5745 12.9916 20.5758C13.8428 20.5771 14.6824 20.379 15.4432 19.9973C16.204 19.6156 16.8648 19.0609 17.3726 18.3778L21.3787 18.768V19.4492H22.0897V18.8375L24.2123 19.0463C24.2373 19.0503 24.2625 19.0524 24.2877 19.0524C24.4084 19.0523 24.5257 19.0127 24.6216 18.9396L25.3421 18.3944C25.4219 18.334 25.484 18.2533 25.5219 18.1606C25.5599 18.0679 25.5722 17.9668 25.5576 17.8678C25.543 17.7687 25.5021 17.6754 25.4391 17.5976C25.3762 17.5198 25.2934 17.4603 25.1996 17.4254H25.1996ZM13.0001 5.92556L13.5698 9.73847C13.1911 9.69872 12.8092 9.69872 12.4305 9.73847L13.0001 5.92556ZM1.76147 18.3356L1.33491 18.0134L7.68185 16.2567C7.78671 16.7575 7.96228 17.2408 8.20328 17.6922L1.76147 18.3356ZM13.0001 19.8649C12.0661 19.8649 11.153 19.5879 10.3764 19.069C9.59972 18.5501 8.99441 17.8125 8.63696 16.9495C8.27951 16.0866 8.18599 15.137 8.36821 14.2209C8.55044 13.3048 9.00023 12.4633 9.6607 11.8028C10.3212 11.1424 11.1627 10.6926 12.0788 10.5103C12.9949 10.3281 13.9445 10.4216 14.8074 10.7791C15.6704 11.1365 16.4079 11.7418 16.9269 12.5185C17.4458 13.2951 17.7228 14.2082 17.7228 15.1423C17.7214 16.3943 17.2233 17.5947 16.338 18.4801C15.4526 19.3655 14.2522 19.8635 13.0001 19.8649ZM24.2384 18.3357L17.7901 17.7053C18.0326 17.2541 18.2096 16.7707 18.3158 16.2695L24.6643 18.0142L24.2384 18.3357Z" fill="#0635C9"/>
<path d="M4.28613 18.9762C4.06517 18.9762 3.84918 19.0418 3.66546 19.1645C3.48174 19.2873 3.33854 19.4618 3.25399 19.6659C3.16943 19.87 3.14731 20.0947 3.19041 20.3114C3.23352 20.5281 3.33992 20.7272 3.49616 20.8834C3.6524 21.0396 3.85147 21.146 4.06818 21.1892C4.28489 21.2323 4.50952 21.2101 4.71366 21.1256C4.9178 21.041 5.09228 20.8978 5.21504 20.7141C5.3378 20.5304 5.40332 20.3144 5.40332 20.0934C5.40298 19.7972 5.28517 19.5133 5.07573 19.3038C4.86629 19.0944 4.58233 18.9766 4.28613 18.9762ZM4.28613 20.4997C4.20578 20.4997 4.12724 20.4759 4.06043 20.4312C3.99363 20.3866 3.94155 20.3231 3.91081 20.2489C3.88006 20.1747 3.87201 20.093 3.88769 20.0142C3.90336 19.9354 3.94206 19.863 3.99887 19.8062C4.05569 19.7494 4.12807 19.7107 4.20688 19.695C4.28568 19.6793 4.36737 19.6874 4.4416 19.7181C4.51583 19.7489 4.57928 19.8009 4.62392 19.8677C4.66856 19.9345 4.69238 20.0131 4.69238 20.0934C4.69226 20.2011 4.64942 20.3044 4.57326 20.3806C4.4971 20.4567 4.39384 20.4996 4.28613 20.4997Z" fill="#1AE5BE"/>
<path d="M21.709 18.9762C21.488 18.9762 21.272 19.0418 21.0883 19.1645C20.9046 19.2873 20.7614 19.4618 20.6768 19.6659C20.5923 19.87 20.5702 20.0947 20.6133 20.3114C20.6564 20.5281 20.7628 20.7272 20.919 20.8834C21.0753 21.0396 21.2743 21.146 21.491 21.1892C21.7077 21.2323 21.9324 21.2101 22.1365 21.1256C22.3407 21.041 22.5151 20.8978 22.6379 20.7141C22.7607 20.5304 22.8262 20.3144 22.8262 20.0934C22.8258 19.7972 22.708 19.5133 22.4986 19.3038C22.2891 19.0944 22.0052 18.9766 21.709 18.9762ZM21.709 20.4997C21.6286 20.4997 21.5501 20.4759 21.4833 20.4312C21.4165 20.3866 21.3644 20.3231 21.3337 20.2489C21.3029 20.1747 21.2949 20.093 21.3105 20.0142C21.3262 19.9354 21.3649 19.863 21.4217 19.8062C21.4785 19.7494 21.5509 19.7107 21.6297 19.695C21.7085 19.6793 21.7902 19.6874 21.8645 19.7181C21.9387 19.7489 22.0021 19.8009 22.0468 19.8677C22.0914 19.9345 22.1152 20.0131 22.1152 20.0934C22.1151 20.2011 22.0723 20.3044 21.9961 20.3806C21.92 20.4567 21.8167 20.4996 21.709 20.4997Z" fill="#1AE5BE"/>
</svg>
