<svg width="20" height="20" viewBox="0 0 20 20" fill="none" xmlns="http://www.w3.org/2000/svg">
<g clip-path="url(#clip0_287_19405)">
<path d="M3.77263 2.46002C3.77323 1.38706 4.6429 0.51739 5.71586 0.516785H3.64868C2.57572 0.51739 1.70605 1.38706 1.70544 2.46002V19.2351C1.70544 19.3294 1.75894 19.4152 1.84332 19.4569C1.92791 19.4985 2.02864 19.4888 2.10334 19.4315L3.77263 17.7519V2.46002Z" fill="#D4E1F4"/>
<path d="M9.85525 13.7157L8.82166 14.7545L13.4678 19.4315C13.5423 19.4899 13.6436 19.5004 13.7284 19.4586C13.8134 19.4166 13.8667 19.3298 13.8657 19.2351V17.7519L9.85525 13.7157Z" fill="#D4E1F4"/>
<path d="M16.2996 0H3.64863C2.29063 0.00141312 1.19001 1.10203 1.1886 2.46003V19.2351C1.18779 19.5276 1.35454 19.7947 1.61758 19.9225C1.72235 19.9732 1.83702 19.9996 1.9535 20C2.12449 19.9996 2.29022 19.9413 2.42366 19.8347C2.44042 19.8224 2.45617 19.8084 2.4703 19.7933L7.783 14.4444L13.0955 19.7933C13.1098 19.8084 13.1254 19.8224 13.1421 19.8347C13.3715 20.0161 13.6846 20.0505 13.9478 19.9227C14.2111 19.7949 14.378 19.5278 14.3772 19.2351V6.86309H16.1757C17.6025 6.86248 18.7591 5.70595 18.7597 4.27911V2.46003C18.7564 1.10263 17.657 0.00322997 16.2996 0V0ZM13.3489 2.46003V18.5788L8.1498 13.3489C8.05351 13.2498 7.92108 13.1938 7.783 13.1938C7.64472 13.1938 7.51229 13.2498 7.41599 13.3489L2.22219 18.5788V2.46003C2.22381 1.67292 2.86153 1.03521 3.64863 1.03359H13.8037C13.5079 1.45046 13.3491 1.94889 13.3489 2.46003ZM17.7261 4.27911C17.7237 5.13425 17.0308 5.82687 16.1757 5.8295H14.3824V2.46003C14.3841 1.67292 15.0216 1.03521 15.8087 1.03359H16.2946C17.0817 1.03521 17.7194 1.67292 17.7208 2.46003V4.27911H17.7261Z" fill="#0635C9"/>
</g>
<defs>
<clipPath id="clip0_287_19405">
<rect width="20" height="20" fill="white"/>
</clipPath>
</defs>
</svg>
