<svg width="20" height="20" viewBox="0 0 20 20" fill="none" xmlns="http://www.w3.org/2000/svg">
<g clip-path="url(#clip0_287_19430)">
<path d="M14.6367 9.46791H1.73387L4.50512 6.27301C4.69437 6.04726 4.668 5.71138 4.44563 5.51791C4.22325 5.32443 3.88673 5.3449 3.68947 5.5639L0.196654 9.58796C0.0677437 9.69409 -0.00462324 9.8538 0.000229354 10.0205C0.00529293 10.1872 0.0869431 10.3422 0.221972 10.4405L3.71521 13.9338C3.92555 14.1448 4.26735 14.145 4.47833 13.9346C4.6891 13.7241 4.68952 13.3825 4.47896 13.1715L1.85392 10.5481H14.6367C14.935 10.5481 15.1768 10.3061 15.1768 10.008C15.1768 9.7097 14.935 9.46791 14.6367 9.46791Z" fill="#1AE5BE"/>
<path d="M17.8552 0.880088H10.6069C9.41907 0.87186 8.44961 1.82803 8.44159 3.01586V4.94635C8.44159 5.24468 8.68337 5.48647 8.9817 5.48647C9.27982 5.48647 9.52182 5.24468 9.52182 4.94635V3.02135C9.52625 2.43081 10.0088 1.95568 10.5993 1.96032H17.8552C18.436 1.95314 18.9126 2.41836 18.9198 2.9992V3.02135V16.9882C18.9253 17.572 18.4567 18.05 17.8727 18.0557H10.6069C10.0134 18.0614 9.52751 17.5848 9.52182 16.9913V15.103C9.52182 14.8047 9.27982 14.5629 8.9817 14.5629C8.68337 14.5629 8.44159 14.8047 8.44159 15.103V16.9882C8.44623 18.179 9.41527 19.1406 10.6061 19.136H17.8552C19.0363 19.1391 19.9966 18.1842 20 17.0032V3.02135C20.0044 1.84322 19.0531 0.884519 17.875 0.880088C17.8685 0.880088 17.8619 0.880088 17.8552 0.880088V0.880088Z" fill="#0635C9"/>
</g>
<defs>
<clipPath id="clip0_287_19430">
<rect width="20" height="20" fill="white"/>
</clipPath>
</defs>
</svg>
