<svg width="60" height="60" viewBox="0 0 60 60" fill="none" xmlns="http://www.w3.org/2000/svg">
<g clip-path="url(#clip0_154_3593)">
<path d="M47.4199 31.9355H49.3554V33.871H47.4199V31.9355Z" fill="black"/>
<path d="M15.4844 33.8708H17.4199V35.8063H15.4844V33.8708Z" fill="black"/>
<path d="M44.0759 13.9807L42.9919 15.5845C44.649 16.7044 46.1285 18.0194 47.4185 19.4824V23.3959C47.4185 25.5705 45.7907 27.4143 43.6326 27.6841C41.3777 27.9648 39.6766 29.8918 39.6766 32.1646C39.6766 33.5449 40.2951 34.8302 41.372 35.6921L42.3067 36.4391C43.6194 37.4891 44.2639 39.1732 43.987 40.8318C43.7635 42.1771 42.9631 43.3508 41.794 44.0525C39.9252 45.1743 38.4225 46.797 37.4467 48.7471L36.0457 51.5488C35.2561 53.1289 34.8379 54.899 34.8379 56.6663V57.5537C33.2762 57.8863 31.6587 58.0645 29.9992 58.0645C26.562 58.0645 23.2996 57.3075 20.3605 55.9617C23.3653 53.884 25.1605 50.487 25.1605 46.8239C25.1605 45.0543 24.2816 43.4118 22.8077 42.4299L22.511 42.2324C20.9757 41.2093 20.5599 39.1278 21.5839 37.594C22.7005 35.9189 22.7732 33.7925 21.7743 32.0446L20.3345 29.5237C19.4788 28.0267 17.8774 27.0967 16.1526 27.0967C14.1718 27.0967 12.4163 28.2861 11.6806 30.1247C11.2416 31.2252 10.1917 31.9354 9.00703 31.9354H6.95624C7.78459 25.3385 11.4108 19.3685 17.0074 15.5845L15.9235 13.9807C8.98198 18.6734 4.83789 26.4716 4.83789 34.8387C4.83789 48.7122 16.1257 60 29.9992 60C43.8727 60 55.1605 48.7122 55.1605 34.8387C55.1605 26.4716 51.0164 18.6734 44.0759 13.9807ZM6.77337 34.8387C6.77337 34.5145 6.78991 34.1932 6.80314 33.8709H9.00703C10.9879 33.8709 12.7433 32.6816 13.4791 30.843C13.918 29.7424 14.968 29.0322 16.1526 29.0322C17.1832 29.0322 18.1425 29.5889 18.6533 30.4838L20.0935 33.0048C20.7262 34.1119 20.6799 35.4591 19.9726 36.5204C18.3575 38.9431 19.0143 42.2286 21.4374 43.8437L21.7346 44.0407C22.6683 44.6621 23.225 45.7036 23.225 46.8239C23.225 49.9025 21.6959 52.7594 19.1343 54.4666L18.4066 54.9515C11.4613 50.9331 6.77337 43.4255 6.77337 34.8387ZM36.7734 57.0542V56.6663C36.7734 55.1972 37.1197 53.7271 37.777 52.414L39.1781 49.6123C39.988 47.992 41.2374 46.6434 42.7896 45.7111C44.4468 44.7174 45.579 43.055 45.8951 41.1493C46.2873 38.7994 45.3748 36.415 43.5145 34.9275L42.5798 34.1804C41.9655 33.689 41.6121 32.9533 41.6121 32.1646C41.6121 30.8661 42.5836 29.7646 43.8727 29.604C46.9975 29.2132 49.354 26.5443 49.354 23.3949V22.0151C51.8391 25.7651 53.225 30.2041 53.225 34.8387C53.225 45.2892 46.2854 54.1481 36.7734 57.0542Z" fill="black"/>
<path d="M11.6133 43.5483H13.5488V45.4838H11.6133V43.5483Z" fill="black"/>
<path d="M41.6133 49.3547H43.5488V51.2902H41.6133V49.3547Z" fill="black"/>
<path d="M18.3867 48.3872H20.3222V50.3227H18.3867V48.3872Z" fill="black"/>
<path d="M30.0005 38.7097C29.0649 38.7097 28.2035 38.2423 27.6936 37.4575L17.8106 22.2543C16.2886 19.9124 15.4844 17.1977 15.4844 14.4037C15.4844 6.46138 21.9458 0 29.888 0H30.113C38.0553 0 44.5166 6.46138 44.5166 14.4037C44.5166 17.1977 43.7124 19.9124 42.1904 22.2543L32.3074 37.4575C31.7975 38.2423 30.9361 38.7097 30.0005 38.7097Z" fill="#F0BC5E"/>
<path d="M30.0007 23.2257C25.1988 23.2257 21.291 19.3179 21.291 14.5161C21.291 9.71422 25.1988 5.8064 30.0007 5.8064C34.8025 5.8064 38.7104 9.71422 38.7104 14.5161C38.7104 19.3179 34.8025 23.2257 30.0007 23.2257ZM30.0007 7.74188C26.2653 7.74188 23.2265 10.7807 23.2265 14.5161C23.2265 18.2514 26.2653 21.2903 30.0007 21.2903C33.736 21.2903 36.7749 18.2514 36.7749 14.5161C36.7749 10.7807 33.736 7.74188 30.0007 7.74188Z" fill="black"/>
</g>
<defs>
<clipPath id="clip0_154_3593">
<rect width="60" height="60" fill="white"/>
</clipPath>
</defs>
</svg>
