<svg width="20" height="20" viewBox="0 0 20 20" fill="none" xmlns="http://www.w3.org/2000/svg">
<g clip-path="url(#clip0_293_20654)">
<path d="M3.79627 15.617L5.12029 14.0564C4.61443 13.2965 4.25525 12.4486 4.06131 11.5564L1.99999 11.3699V8.63811L4.06131 8.45178C4.25525 7.5596 4.61443 6.71175 5.12029 5.95179L3.79627 4.39126L5.08786 3.12622L4.26873 2.45963L2.29628 4.39106L3.62029 5.9516C3.11444 6.71155 2.75526 7.5594 2.56132 8.45158L0.5 8.63811V11.3699L2.56132 11.5563C2.75526 12.4484 3.11444 13.2963 3.62029 14.0562L2.29628 15.6168L4.26873 17.549L5.08786 16.8822L3.79627 15.617Z" fill="#D4E1F4"/>
<path d="M15.6378 3.75612L16.4121 3.12604L15.7312 2.45944L14.7404 3.26569C15.0501 3.40905 15.3499 3.57272 15.6378 3.75612V3.75612Z" fill="#D4E1F4"/>
<path d="M7.36206 3.75612C8.14312 3.25865 9.00816 2.90729 9.915 2.71901L10.1052 0.700256H8.60523L8.415 2.71901C7.8441 2.83756 7.28863 3.02096 6.75952 3.26588L7.36206 3.75612Z" fill="#D4E1F4"/>
<path d="M15.6378 16.252C15.3499 16.4353 15.0501 16.599 14.7404 16.7424L15.7312 17.549L16.4121 16.8822L15.6378 16.252Z" fill="#D4E1F4"/>
<path d="M7.36206 16.252L6.75952 16.7424C7.28862 16.9871 7.84409 17.1705 8.41499 17.2891L8.60503 19.3078H10.105L9.91499 17.2891C9.00815 17.1008 8.14312 16.7494 7.36206 16.252Z" fill="#D4E1F4"/>
<path d="M9.99998 12.8565C8.39998 12.8565 7.09802 11.5768 7.09802 10.0039C7.09802 8.43127 8.39998 7.15158 9.99998 7.15158C11.6 7.15158 12.9019 8.43127 12.9019 10.0039C12.9019 11.5768 11.6 12.8565 9.99998 12.8565ZM9.99998 8.15158C8.95115 8.15158 8.09802 8.98264 8.09802 10.0039C8.09802 11.0254 8.95115 11.8565 9.99998 11.8565C11.0488 11.8565 11.9019 11.0254 11.9019 10.0039C11.9019 8.98264 11.0488 8.15158 9.99998 8.15158Z" fill="#1AE5BE"/>
<path d="M11.3949 19.8079H8.60543C8.34742 19.8079 8.1318 19.6116 8.10758 19.3548L7.95133 17.6949C7.23434 17.5118 6.54587 17.2318 5.90505 16.862L4.58494 17.9365C4.38767 18.097 4.10115 18.0839 3.91951 17.906L1.94647 15.9742C1.75898 15.7906 1.7453 15.4935 1.91503 15.2935L3.00174 14.0127C2.62987 13.3916 2.34628 12.7214 2.15956 12.022L0.455076 11.8679C0.197265 11.8445 0 11.6287 0 11.3699V8.63808C0 8.37929 0.197265 8.16347 0.455076 8.14003L2.15956 7.98593C2.34628 7.28652 2.62987 6.61641 3.00174 5.99532L1.91503 4.71447C1.7453 4.51447 1.75898 4.2174 1.94647 4.03381L3.91893 2.10198C4.10057 1.92406 4.38709 1.91097 4.58435 2.07152L5.90427 3.14573C6.54528 2.7762 7.23395 2.49593 7.95094 2.31312L8.10719 0.653165C8.13141 0.396331 8.34703 0.200043 8.60504 0.200043H11.3951C11.6531 0.200043 11.8687 0.396331 11.8929 0.653165L12.0492 2.31312C12.7661 2.49593 13.4548 2.7762 14.0958 3.14573L15.4157 2.07152C15.613 1.91097 15.8995 1.92406 16.0814 2.10198L18.0536 4.034C18.2409 4.2176 18.2548 4.51466 18.0851 4.71466L16.9982 5.99551C17.3702 6.6168 17.6536 7.28672 17.8405 7.98632L19.545 8.14042C19.8026 8.16366 19.9999 8.37968 20.0001 8.63827V11.3701C19.9999 11.6289 19.8026 11.8449 19.545 11.8681L17.8405 12.0222C17.6536 12.7216 17.3702 13.3918 16.9982 14.0128L18.0849 15.2935C18.2546 15.4935 18.2409 15.7906 18.0534 15.9742L16.081 17.906C15.8993 18.0839 15.6128 18.097 15.4155 17.9365L14.0956 16.862C13.4546 17.2318 12.766 17.5118 12.049 17.6949L11.8927 19.3548C11.8685 19.6116 11.6529 19.8077 11.3949 19.8079V19.8079ZM9.0605 18.8079H10.94L11.0874 17.2421C11.1081 17.0238 11.2687 16.8443 11.4837 16.7995C12.3312 16.624 13.1398 16.2954 13.8697 15.8302C14.0513 15.7144 14.2866 15.7283 14.4538 15.8642L15.7009 16.8792L17.0216 15.5857L15.9987 14.38C15.8546 14.2103 15.8402 13.9656 15.9634 13.78C16.4351 13.072 16.7696 12.2818 16.9499 11.4506C16.9962 11.2369 17.1759 11.0779 17.3935 11.0582L18.9999 10.9133V9.09491L17.3935 8.94979C17.1757 8.93026 16.996 8.77128 16.9499 8.55741C16.7696 7.72617 16.4349 6.93594 15.963 6.22793C15.84 6.04239 15.8542 5.79786 15.9984 5.62794L17.0212 4.42248L15.7005 3.12893L14.4534 4.14396C14.2865 4.2799 14.0511 4.29377 13.8693 4.17795C13.1394 3.71272 12.331 3.3842 11.4833 3.20862C11.2685 3.16389 11.1078 2.9844 11.0871 2.76604L10.9396 1.20023H9.06031L8.91285 2.76604C8.89214 2.9844 8.7314 3.16389 8.51656 3.20862C7.66891 3.3842 6.86051 3.71272 6.13063 4.17795C5.9488 4.29377 5.71345 4.2799 5.54646 4.14396L4.29939 3.12893L2.9787 4.42248L4.00154 5.62813C4.14568 5.79786 4.16014 6.04258 4.03689 6.22813C3.56522 6.93594 3.23045 7.72617 3.04999 8.55741C3.0037 8.77108 2.82401 8.93007 2.60643 8.9496L0.999995 9.09491V10.9131L2.60643 11.058C2.8242 11.0777 3.00389 11.2367 3.04999 11.4506C3.23045 12.2818 3.56522 13.072 4.03689 13.78C4.16014 13.9656 4.14568 14.2101 4.00154 14.38L2.9787 15.5855L4.29939 16.879L5.54646 15.864C5.71345 15.7281 5.9488 15.7144 6.13063 15.83C6.86051 16.2955 7.66891 16.624 8.51656 16.7995C8.7314 16.8441 8.89214 17.0236 8.91285 17.2421L9.0605 18.8079Z" fill="#0635C9"/>
</g>
<defs>
<clipPath id="clip0_293_20654">
<rect width="20" height="20" fill="white"/>
</clipPath>
</defs>
</svg>
