<svg width="20" height="20" viewBox="0 0 20 20" fill="none" xmlns="http://www.w3.org/2000/svg">
<path d="M15.3452 18.0403H6.88974L6.86206 4.33246H5.38232V19.5477H18.8689V18.0403H15.3452Z" fill="#D4E1F4"/>
<path d="M12.1234 9.14499H7.09871C6.84885 9.14499 6.64648 8.94243 6.64648 8.69277C6.64648 8.4431 6.84885 8.24054 7.09871 8.24054H12.1234C12.3731 8.24054 12.5756 8.4431 12.5756 8.69277C12.5756 8.94243 12.3731 9.14499 12.1234 9.14499Z" fill="#1AE5BE"/>
<path d="M12.1234 11.4564H7.09871C6.84885 11.4564 6.64648 11.2538 6.64648 11.0042C6.64648 10.7545 6.84885 10.5519 7.09871 10.5519H12.1234C12.3731 10.5519 12.5756 10.7545 12.5756 11.0042C12.5756 11.2538 12.3731 11.4564 12.1234 11.4564Z" fill="#1AE5BE"/>
<path d="M12.1234 13.7677H7.09871C6.84885 13.7677 6.64648 13.5651 6.64648 13.3155C6.64648 13.0658 6.84885 12.8633 7.09871 12.8633H12.1234C12.3731 12.8633 12.5756 13.0658 12.5756 13.3155C12.5756 13.5651 12.3731 13.7677 12.1234 13.7677Z" fill="#1AE5BE"/>
<path d="M12.1234 6.83364H7.09871C6.84885 6.83364 6.64648 6.63109 6.64648 6.38142C6.64648 6.13176 6.84885 5.9292 7.09871 5.9292H12.1234C12.3731 5.9292 12.5756 6.13176 12.5756 6.38142C12.5756 6.63109 12.3731 6.83364 12.1234 6.83364Z" fill="#1AE5BE"/>
<path d="M17.3995 13.7175H15.2388C14.989 13.7175 14.7866 13.5149 14.7866 13.2653C14.7866 13.0156 14.989 12.813 15.2388 12.813H17.3995C17.6491 12.813 17.8517 13.0156 17.8517 13.2653C17.8517 13.5149 17.6491 13.7175 17.3995 13.7175Z" fill="#1AE5BE"/>
<path d="M17.3995 15.6269H15.2388C14.989 15.6269 14.7866 15.4243 14.7866 15.1746C14.7866 14.925 14.989 14.7224 15.2388 14.7224H17.3995C17.6491 14.7224 17.8517 14.925 17.8517 15.1746C17.8517 15.4243 17.6491 15.6269 17.3995 15.6269Z" fill="#1AE5BE"/>
<path d="M17.3995 17.687H15.2388C14.989 17.687 14.7866 17.4844 14.7866 17.2348C14.7866 16.9851 14.989 16.7826 15.2388 16.7826H17.3995C17.6491 16.7826 17.8517 16.9851 17.8517 17.2348C17.8517 17.4844 17.6491 17.687 17.3995 17.687Z" fill="#1AE5BE"/>
<path d="M17.3995 11.6574H15.2388C14.989 11.6574 14.7866 11.4548 14.7866 11.2051C14.7866 10.9555 14.989 10.7529 15.2388 10.7529H17.3995C17.6491 10.7529 17.8517 10.9555 17.8517 11.2051C17.8517 11.4548 17.6491 11.6574 17.3995 11.6574Z" fill="#1AE5BE"/>
<path d="M3.27132 9.45984C3.21323 9.45984 3.15591 9.44551 3.10468 9.41784L2.40064 9.03902L1.68933 9.4041C1.57019 9.46534 1.42671 9.45356 1.31934 9.37387C1.21178 9.29399 1.15879 9.16012 1.18273 9.02842L1.32543 8.24194L0.758381 7.67823C0.663579 7.58382 0.630408 7.44368 0.673196 7.31688C0.715788 7.18989 0.826685 7.09823 0.959369 7.08037L1.75174 6.973L2.1125 6.25953C2.17354 6.14078 2.29602 6.0662 2.42969 6.06659C2.56355 6.06777 2.68504 6.1451 2.74314 6.26562L3.08996 6.98596L3.87998 7.10863C4.01227 7.12904 4.1214 7.22306 4.16144 7.35064C4.20168 7.47842 4.16576 7.61777 4.069 7.71042L3.49116 8.26313L3.61874 9.05237C3.63522 9.15404 3.60617 9.25787 3.53924 9.33638C3.47251 9.41489 3.37457 9.46023 3.27152 9.46023L3.27132 9.45984ZM2.40456 8.29002C2.46266 8.29002 2.51997 8.30435 2.5712 8.33203L2.81046 8.46079L2.76709 8.19247C2.74864 8.07824 2.7877 7.96224 2.87131 7.88216L3.06759 7.69432L2.79928 7.65271C2.68485 7.63505 2.58651 7.56203 2.53626 7.45781L2.4183 7.21305L2.29582 7.45545C2.24361 7.55869 2.14371 7.62975 2.02908 7.64525L1.75979 7.68176L1.95253 7.87333C2.03458 7.95478 2.07128 8.07157 2.05067 8.18561L2.00219 8.45294L2.24381 8.32889C2.29367 8.30318 2.34862 8.29002 2.40456 8.29002Z" fill="#1AE5BE"/>
<path d="M3.27132 13.7057C3.21323 13.7057 3.15591 13.6914 3.10468 13.6637L2.40064 13.2849L1.68933 13.65C1.57019 13.7112 1.42671 13.6994 1.31934 13.6197C1.21178 13.5399 1.15879 13.406 1.18273 13.2743L1.32543 12.4878L0.758381 11.9241C0.663579 11.8297 0.630408 11.6895 0.673196 11.5627C0.715788 11.4358 0.826685 11.3441 0.959369 11.3262L1.75174 11.2189L2.1125 10.5054C2.17276 10.3861 2.29582 10.3111 2.42969 10.3125C2.56355 10.3138 2.68504 10.391 2.74314 10.5115L3.08996 11.2318L3.87998 11.3545C4.01227 11.3749 4.1214 11.4689 4.16144 11.5965C4.20168 11.7243 4.16576 11.8636 4.069 11.9563L3.49116 12.509L3.61874 13.2982C3.63522 13.3999 3.60617 13.5037 3.53924 13.5822C3.47251 13.6608 3.37457 13.7061 3.27152 13.7061L3.27132 13.7057ZM2.40456 12.5359C2.46266 12.5359 2.51997 12.5502 2.5712 12.5779L2.81046 12.7067L2.76709 12.4383C2.74864 12.3241 2.7877 12.2081 2.87131 12.128L3.06759 11.9402L2.79928 11.8986C2.68485 11.8809 2.58651 11.8079 2.53626 11.7037L2.4183 11.4589L2.29582 11.7013C2.24361 11.8046 2.14371 11.8756 2.02908 11.8911L1.75979 11.9276L1.95253 12.1192C2.03458 12.2006 2.07128 12.3174 2.05067 12.4315L2.00219 12.6988L2.24381 12.5748C2.29367 12.549 2.34862 12.5359 2.40456 12.5359Z" fill="#1AE5BE"/>
<path d="M3.27132 17.9516C3.21323 17.9516 3.15591 17.9373 3.10468 17.9096L2.40064 17.5308L1.68933 17.8958C1.57019 17.9571 1.42671 17.9453 1.31934 17.8656C1.21178 17.7857 1.15879 17.6519 1.18273 17.5202L1.32543 16.7337L0.758381 16.17C0.663579 16.0756 0.630408 15.9354 0.673196 15.8086C0.715788 15.6816 0.826685 15.59 0.959369 15.5721L1.75174 15.4648L2.1125 14.7513C2.17237 14.6329 2.29367 14.5583 2.42635 14.5583H2.42969C2.56355 14.5595 2.68504 14.6369 2.74314 14.7574L3.08996 15.4777L3.87998 15.6004C4.01227 15.6208 4.1214 15.7148 4.16144 15.8424C4.20168 15.9702 4.16576 16.1095 4.069 16.2022L3.49116 16.7549L3.61874 17.5441C3.63522 17.6458 3.60617 17.7496 3.53924 17.8281C3.47251 17.9066 3.37457 17.952 3.27152 17.952L3.27132 17.9516ZM2.40456 16.7818C2.46266 16.7818 2.51997 16.7961 2.5712 16.8238L2.81046 16.9525L2.76709 16.6842C2.74864 16.57 2.7877 16.454 2.87131 16.3739L3.06759 16.1861L2.79928 16.1445C2.68485 16.1268 2.58651 16.0538 2.53626 15.9496L2.4183 15.7048L2.29582 15.9472C2.24361 16.0504 2.14371 16.1215 2.02908 16.137L1.75979 16.1735L1.95253 16.3651C2.03458 16.4465 2.07128 16.5633 2.05067 16.6774L2.00219 16.9447L2.24381 16.8206C2.29367 16.7949 2.34862 16.7818 2.40456 16.7818Z" fill="#1AE5BE"/>
<path d="M3.27132 5.44006C3.21323 5.44006 3.15591 5.42573 3.10468 5.39806L2.40064 5.01924L1.68933 5.38432C1.57019 5.44555 1.42671 5.43378 1.31934 5.35409C1.21178 5.2742 1.15879 5.14034 1.18273 5.00864L1.32543 4.22216L0.758381 3.65845C0.663579 3.56404 0.630408 3.4239 0.673196 3.2971C0.715788 3.17011 0.826685 3.07845 0.959369 3.06059L1.75174 2.95322L2.1125 2.23975C2.17237 2.1214 2.29367 2.04681 2.42635 2.04681H2.42969C2.56355 2.04799 2.68504 2.12532 2.74314 2.24584L3.08996 2.96618L3.87998 3.08885C4.01227 3.10926 4.1214 3.20328 4.16144 3.33086C4.20168 3.45864 4.16576 3.59799 4.069 3.69064L3.49116 4.24336L3.61874 5.03259C3.63522 5.13426 3.60617 5.23809 3.53924 5.3166C3.47251 5.39511 3.37457 5.44045 3.27152 5.44045L3.27132 5.44006ZM2.40456 4.27025C2.46266 4.27025 2.51997 4.28457 2.5712 4.31225L2.81046 4.44101L2.76709 4.1727C2.74864 4.05846 2.7877 3.94246 2.87131 3.86238L3.06759 3.67454L2.79928 3.63293C2.68485 3.61527 2.58651 3.54225 2.53626 3.43803L2.4183 3.19327L2.29582 3.43567C2.24361 3.53892 2.14371 3.60997 2.02908 3.62547L1.75979 3.66198L1.95253 3.85355C2.03458 3.935 2.07128 4.05179 2.05067 4.16583L2.00219 4.43316L2.24381 4.30911C2.29367 4.2834 2.34862 4.27025 2.40456 4.27025Z" fill="#1AE5BE"/>
<path d="M18.869 8.95183H18.3163V7.99714C18.3163 7.74747 18.1138 7.54491 17.8641 7.54491H17.0478V7.13509C17.0478 6.88542 16.8452 6.68286 16.5955 6.68286C16.3457 6.68286 16.1433 6.88542 16.1433 7.13509V7.54491H15.3031C15.0534 7.54491 14.8508 7.74747 14.8508 7.99714V8.95183H14.2903V4.33244C14.2903 4.08258 14.0877 3.88021 13.838 3.88021H12.8105V2.62993C12.8105 2.38006 12.608 2.1777 12.3583 2.1777H10.0132V0.452224C10.0132 0.202559 9.81062 0 9.56096 0C9.31109 0 9.10873 0.202559 9.10873 0.452224V2.1777H6.86214C6.61247 2.1777 6.40991 2.38006 6.40991 2.62993V3.88021H5.3824C5.13273 3.88021 4.93018 4.08258 4.93018 4.33244V19.5477C4.93018 19.7976 5.13273 19.9999 5.3824 19.9999H18.8688C19.1185 19.9999 19.3211 19.7976 19.3211 19.5477V9.40406C19.3211 9.15439 19.1187 8.95203 18.869 8.95183ZM7.31436 3.08215H11.9061V3.88021H7.31436V3.08215ZM10.8491 19.0959H10.0132V16.633H10.8491V19.0959ZM9.10873 19.0959H8.37132V16.633H9.10873V19.0959ZM13.3858 19.0959H11.7536V16.1807C11.7536 15.9309 11.551 15.7285 11.3014 15.7285H7.91909C7.66943 15.7285 7.46687 15.9309 7.46687 16.1807V19.0955H5.83462V4.78466H13.3858V19.0959ZM15.7553 8.44975H17.4119V8.95223H15.7553V8.44975ZM18.4168 19.0959H14.2903V9.85628H18.4168V19.0959Z" fill="#0635C9"/>
</svg>
