<svg width="26" height="26" viewBox="0 0 26 26" fill="none" xmlns="http://www.w3.org/2000/svg">
<path d="M20.7482 21.5064C20.7685 21.5064 20.7892 21.5071 20.8101 21.5081C20.9929 21.1632 21.2678 20.8755 21.6041 20.6775C21.3267 20.5022 21.0084 20.4027 20.6805 20.3884C20.6509 20.3874 20.6208 20.3864 20.5901 20.3864C19.8099 20.3862 19.0939 20.8181 18.7301 21.5081C18.7092 21.5071 18.6885 21.5064 18.6682 21.5064C17.7819 21.5066 17.0635 22.2249 17.0635 23.1111H19.1435C19.1435 22.2249 19.8619 21.5066 20.7482 21.5064Z" fill="#D4E1F4"/>
<path d="M22.381 2.80783L19.2817 18.0151H21.3617L23.4208 7.91153L22.381 2.80783Z" fill="#B9F9EC"/>
<path d="M14.375 11.7055V8.58084H13.335V11.7055L15.1513 13.5218V12.4818L14.375 11.7055Z" fill="#D4E1F4"/>
<path d="M9.09697 7.53717L0.52002 16.1141H2.60002L10.137 8.57717L9.09697 7.53717Z" fill="#D4E1F4"/>
<path d="M3.03223 16.1141H5.11222V23.1581H3.03223V16.1141Z" fill="#D4E1F4"/>
<path d="M18.154 16.3131C18.2346 16.1188 18.1902 15.8951 18.0413 15.7462L15.6712 13.3762V8.58082C15.6712 8.2936 15.4384 8.06082 15.1512 8.06082H13.3349C13.0477 8.06082 12.8149 8.2936 12.8149 8.58082V10.5198L9.46456 7.16931C9.26144 6.96639 8.93217 6.96639 8.72905 7.16931L0.152343 15.7464C-0.050781 15.9496 -0.050781 16.2788 0.152343 16.4817C0.249842 16.5792 0.382076 16.6341 0.519997 16.6341H2.51203V23.158C2.51203 23.4452 2.74481 23.678 3.03203 23.678H15.1616C15.4488 23.678 15.6816 23.4452 15.6816 23.158V16.6341H17.6736C17.884 16.6341 18.0736 16.5073 18.154 16.3131ZM13.8549 10.9675H14.6312V12.2665L13.8549 11.4902V10.9675ZM14.6312 9.10082V9.92753H13.8549V9.10082H14.6312ZM10.5947 22.6378H7.59866V17.6115H10.5947V22.6378ZM15.1616 15.5939C14.8744 15.5939 14.6416 15.8267 14.6416 16.1139V22.6378H11.6347V17.0915C11.6347 16.8043 11.402 16.5715 11.1147 16.5715H7.07867C6.79145 16.5715 6.55867 16.8043 6.55867 17.0915V22.638H3.55203V16.1141C3.55203 15.8269 3.31925 15.5941 3.03203 15.5941H1.7753L9.09691 8.27248L16.4185 15.5941L15.1616 15.5939Z" fill="#0635C9"/>
<path d="M22.986 21.7825L22.9819 21.7673C22.7185 20.6948 21.7817 19.9143 20.6988 19.8688C20.6632 19.8676 20.6269 19.8664 20.5901 19.8664C19.7277 19.8654 18.92 20.2893 18.4311 20.9996C17.3568 21.1217 16.5447 22.0299 16.5435 23.1111H17.5835C17.5841 22.5125 18.0693 22.0273 18.6681 22.0264C18.6799 22.0264 18.6919 22.0269 18.7041 22.0275C18.9058 22.0376 19.0953 21.9298 19.1898 21.751C19.4634 21.2312 20.0027 20.9058 20.5901 20.9064C20.6145 20.9064 20.6387 20.9074 20.6586 20.908C21.2694 20.934 21.8026 21.376 21.9651 21.9883C21.983 22.453 21.9628 23.0878 21.9626 23.0943L23.002 23.1282C23.003 23.0985 23.0254 22.3972 23.0018 21.8881C23.0002 21.8524 22.9949 21.817 22.986 21.7825Z" fill="#0635C9"/>
<path d="M22.8907 2.70404C22.8413 2.46191 22.6283 2.28804 22.3811 2.28804C22.1341 2.28804 21.921 2.46191 21.8716 2.70404L18.7724 17.9114C18.7149 18.1929 18.8965 18.4675 19.1778 18.525C19.2121 18.5319 19.2471 18.5354 19.282 18.5354H21.962V22.6415H0.756836V23.6815H24.4846V22.6415H23.002V18.5352H25.4799C25.7671 18.5354 25.9999 18.3026 25.9999 18.0154C25.9999 17.9804 25.9965 17.9455 25.9896 17.9112L22.8907 2.70404ZM20.7516 13.4087L20.9509 12.4307H23.8113L24.0105 13.4087H20.7516ZM24.2226 14.4487L24.4219 15.4269H20.3403L20.5395 14.4489L24.2226 14.4487ZM23.5994 11.3907H21.1627L21.3622 10.4126H23.3999L23.5994 11.3907ZM22.3813 5.4121L23.1883 9.37262H21.574L22.3813 5.4121ZM19.9188 17.4952L20.1282 16.4669H24.6337L24.8433 17.4954L19.9188 17.4952Z" fill="#1AE5BE"/>
</svg>
