<svg width="20" height="20" viewBox="0 0 20 20" fill="none" xmlns="http://www.w3.org/2000/svg">
<g clip-path="url(#clip0_296_19995)">
<path d="M6.5051 13.7216C5.74781 12.9163 5.12963 11.9818 4.75108 10.9418C4.38451 9.94786 4.2295 8.88841 4.29577 7.83121C4.53541 4.232 7.20959 1.01133 10.9911 0.541611C10.6731 0.502858 10.3529 0.483762 10.0326 0.484136C5.75268 0.484136 2.64229 3.93489 2.37869 7.83607C2.31241 8.89328 2.46743 9.95273 2.834 10.9465C3.21254 11.9866 3.83073 12.9212 4.58801 13.7262L10.0326 19.5254L10.9911 18.5047L6.5051 13.7216Z" fill="#D4E1F4"/>
<path d="M15.7071 2.35329C14.203 0.846587 12.1614 0 10.0326 0C7.90359 0 5.86219 0.846587 4.35792 2.35329C2.90775 3.81151 2.03439 5.74545 1.8994 7.7977C1.82957 8.92174 1.99451 10.0478 2.38336 11.1047C2.76677 12.1544 3.38983 13.1464 4.2381 14.0475L9.6827 19.8467C9.77331 19.9437 9.89987 19.9991 10.0326 20C10.1657 20.0013 10.2932 19.9455 10.3825 19.8467L15.8269 14.0475C16.6752 13.1464 17.2982 12.1544 17.6817 11.1047C18.0754 10.0491 18.2403 8.92193 18.1658 7.7977C18.0297 5.74582 17.1565 3.81208 15.7071 2.35329ZM16.7759 10.774C16.4356 11.7038 15.8797 12.5857 15.1224 13.3908L10.0326 18.8162L4.93791 13.3908C4.18062 12.5857 3.62478 11.7038 3.28442 10.774C2.93864 9.84359 2.79336 8.8506 2.85795 7.86004C2.97645 6.039 3.75115 4.32261 5.03863 3.02895C6.36243 1.70347 8.15914 0.958542 10.0326 0.958542C11.9061 0.958542 13.7026 1.70347 15.0266 3.02895C16.3139 4.32261 17.0887 6.039 17.2073 7.86004C17.2681 8.85078 17.1211 9.8434 16.7759 10.774Z" fill="#0635C9"/>
<path d="M10.0323 3.91092C7.97139 3.91092 6.29395 5.62656 6.29395 7.73535C6.29395 9.84414 7.97139 11.56 10.0323 11.56C12.0931 11.56 13.7706 9.84414 13.7706 7.73535C13.7706 5.62656 12.0931 3.91092 10.0323 3.91092ZM10.0323 10.6014C8.49859 10.6014 7.25249 9.31694 7.25249 7.73535C7.25249 6.15376 8.49859 4.86946 10.0323 4.86946C11.5659 4.86946 12.812 6.15376 12.812 7.73535C12.812 9.31694 11.5659 10.6014 10.0323 10.6014Z" fill="#1AE5BE"/>
</g>
<defs>
<clipPath id="clip0_296_19995">
<rect width="20" height="20" fill="white"/>
</clipPath>
</defs>
</svg>
