<svg width="24" height="24" viewBox="0 0 24 24" fill="none" xmlns="http://www.w3.org/2000/svg">
<path d="M13.5835 4.97296C11.7558 7.55342 10.1194 7.42546 10.1194 7.42546C10.1026 7.58858 10.081 7.76952 10.0529 7.96499C10.0224 8.18431 9.98412 8.42155 9.93682 8.67186H9.93429C9.86913 9.04686 9.78663 9.38858 9.68257 9.76873C9.49879 10.4573 9.2497 11.1267 8.93867 11.768C8.61226 12.4316 8.19445 13.0461 7.69742 13.5937H7.69695C7.6046 13.6875 7.50882 13.7801 7.4096 13.8717C7.11285 14.1425 6.75847 14.3424 6.3732 14.4562L6.37086 14.4542C5.85034 14.61 5.29605 14.6131 4.77383 14.4631C4.76304 14.4603 4.75273 14.457 4.74195 14.4542C2.37102 15.1794 1.31867 15.9739 0.859767 16.5875C0.399924 17.2006 0.530236 17.6328 0.530236 17.6328C0.560295 17.7496 0.602559 17.8629 0.65633 17.9709V17.9714C0.843829 18.2874 1.1788 18.5548 1.62594 18.7671C1.57883 18.7086 1.53672 18.6463 1.50008 18.5808V18.5803C1.44632 18.4724 1.40405 18.3592 1.37399 18.2425C1.37399 18.2425 1.24367 17.8105 1.70352 17.1972C1.72569 17.1676 1.74969 17.1374 1.77467 17.107C2.26756 16.507 3.32923 15.7544 5.58561 15.0643C5.59639 15.0671 5.6067 15.0711 5.61748 15.0737C6.13957 15.2241 6.69386 15.2215 7.21451 15.0662C7.46208 14.9921 7.69783 14.8832 7.91468 14.7427H7.91726C8.03633 14.6652 8.14872 14.5779 8.25326 14.4817C8.35273 14.3906 8.44835 14.2969 8.5407 14.2031H8.54117C9.03819 13.6555 9.45601 13.0409 9.78241 12.3773C10.0934 11.7361 10.3425 11.0667 10.5263 10.3781C10.6304 9.99795 10.7129 9.65623 10.778 9.28123H10.7785C10.8224 9.06791 10.8585 8.83203 10.888 8.62433H10.8888C10.8914 8.60558 10.8941 8.58683 10.8966 8.56883L10.8975 8.56297C10.9167 8.42393 10.9774 8.29391 11.0716 8.18986C11.1658 8.08581 11.2892 8.01256 11.4256 7.97966C12.039 7.83561 13.1892 7.33039 14.4273 5.58243C14.9412 4.85699 15.67 4.77618 16.4523 5.0346C16.463 4.96729 16.4725 4.89899 16.4795 4.82915C15.3873 4.19296 14.2852 3.98249 13.5835 4.97296Z" fill="#D4E1F4"/>
<path d="M19.2559 3.78986H22.4036C22.4782 3.78986 22.5497 3.76022 22.6025 3.70748C22.6552 3.65474 22.6849 3.5832 22.6849 3.50861C22.6849 3.43401 22.6552 3.36248 22.6025 3.30973C22.5497 3.25699 22.4782 3.22736 22.4036 3.22736H19.2559C19.1813 3.22736 19.1097 3.25699 19.057 3.30973C19.0042 3.36248 18.9746 3.43401 18.9746 3.50861C18.9746 3.5832 19.0042 3.65474 19.057 3.70748C19.1097 3.76022 19.1813 3.78986 19.2559 3.78986Z" fill="#1AE5BE"/>
<path d="M17.7935 3.78986H18.2127C18.2873 3.78986 18.3588 3.76022 18.4116 3.70748C18.4643 3.65474 18.494 3.5832 18.494 3.50861C18.494 3.43401 18.4643 3.36248 18.4116 3.30973C18.3588 3.25699 18.2873 3.22736 18.2127 3.22736H17.7935C17.7189 3.22736 17.6473 3.25699 17.5946 3.30973C17.5418 3.36248 17.5122 3.43401 17.5122 3.50861C17.5122 3.5832 17.5418 3.65474 17.5946 3.70748C17.6473 3.76022 17.7189 3.78986 17.7935 3.78986Z" fill="#1AE5BE"/>
<path d="M17.998 20.4914C17.998 20.566 18.0277 20.6375 18.0804 20.6903C18.1332 20.743 18.2047 20.7726 18.2793 20.7726H23.1453C23.2199 20.7726 23.2915 20.743 23.3442 20.6903C23.397 20.6375 23.4266 20.566 23.4266 20.4914C23.4266 20.4168 23.397 20.3453 23.3442 20.2925C23.2915 20.2398 23.2199 20.2101 23.1453 20.2101H18.2793C18.2047 20.2101 18.1332 20.2398 18.0804 20.2925C18.0277 20.3453 17.998 20.4168 17.998 20.4914Z" fill="#1AE5BE"/>
<path d="M17.2808 20.4914C17.2808 20.4168 17.2511 20.3453 17.1984 20.2925C17.1456 20.2398 17.0741 20.2101 16.9995 20.2101H11.0464C10.9718 20.2101 10.9003 20.2398 10.8475 20.2925C10.7948 20.3453 10.7651 20.4168 10.7651 20.4914C10.7651 20.566 10.7948 20.6375 10.8475 20.6903C10.9003 20.743 10.9718 20.7726 11.0464 20.7726H16.9995C17.0741 20.7726 17.1456 20.743 17.1984 20.6903C17.2511 20.6375 17.2808 20.566 17.2808 20.4914Z" fill="#1AE5BE"/>
<path d="M22.4038 18.5048C22.4784 18.5048 22.5499 18.4752 22.6027 18.4224C22.6554 18.3697 22.685 18.2981 22.685 18.2235C22.685 18.1489 22.6554 18.0774 22.6027 18.0247C22.5499 17.9719 22.4784 17.9423 22.4038 17.9423H21.3765C21.3019 17.9423 21.2303 17.9719 21.1776 18.0247C21.1248 18.0774 21.0952 18.1489 21.0952 18.2235C21.0952 18.2981 21.1248 18.3697 21.1776 18.4224C21.2303 18.4752 21.3019 18.5048 21.3765 18.5048H22.4038Z" fill="#1AE5BE"/>
<path d="M14.6035 18.5048H20.0817C20.1563 18.5048 20.2279 18.4752 20.2806 18.4224C20.3334 18.3697 20.363 18.2981 20.363 18.2235C20.363 18.1489 20.3334 18.0774 20.2806 18.0247C20.2279 17.9719 20.1563 17.9423 20.0817 17.9423H14.6035C14.5289 17.9423 14.4574 17.9719 14.4046 18.0247C14.3519 18.0774 14.3223 18.1489 14.3223 18.2235C14.3223 18.2981 14.3519 18.3697 14.4046 18.4224C14.4574 18.4752 14.5289 18.5048 14.6035 18.5048Z" fill="#1AE5BE"/>
<path d="M23.4844 15.5421H19.1147C19.0402 15.5421 18.9686 15.5717 18.9159 15.6245C18.8631 15.6772 18.8335 15.7488 18.8335 15.8234C18.8335 15.898 18.8631 15.9695 18.9159 16.0222C18.9686 16.075 19.0402 16.1046 19.1147 16.1046H23.4844C23.559 16.1046 23.6306 16.075 23.6833 16.0222C23.7361 15.9695 23.7657 15.898 23.7657 15.8234C23.7657 15.7488 23.7361 15.6772 23.6833 15.6245C23.6306 15.5717 23.559 15.5421 23.4844 15.5421Z" fill="#1AE5BE"/>
<path d="M20.1466 7.74997C19.8044 7.3378 16.9767 4.00958 14.8522 4.00958C14.8295 4.00958 14.8067 4.00996 14.7842 4.01071C14.1966 4.03077 13.7154 4.29979 13.3537 4.8103C12.0947 6.58762 10.9405 7.01315 10.4237 7.11412C10.4135 6.86647 10.3245 6.62855 10.1697 6.43497C10.0149 6.24139 9.80243 6.10224 9.5631 6.03777C9.39048 5.98845 9.20917 5.97745 9.03184 6.00553C8.85452 6.03361 8.68548 6.10009 8.53654 6.20033C8.39718 6.29316 8.27978 6.41531 8.19256 6.55824C8.10533 6.70117 8.05038 6.86144 8.03156 7.02782C7.62693 10.7617 5.92959 13.7968 4.65927 14.1856C1.82273 15.0532 0.796868 16.0479 0.435696 16.7297C0.168508 17.2343 0.235961 17.6054 0.259492 17.6975C0.288084 17.8313 0.33601 17.9601 0.401758 18.0801C0.457727 18.2481 0.74118 18.9673 1.65562 19.5741C2.56031 20.1745 3.76499 20.4757 5.25257 20.4757C5.98676 20.4707 6.71946 20.4087 7.44407 20.2904C10.3392 19.8357 12.264 18.3757 14.3048 16.6565C15.892 15.3195 16.7543 15.0277 17.6672 14.7189C18.4888 14.441 19.3384 14.1535 20.6984 13.1055C21.723 12.316 22.2149 11.4564 22.1606 10.5506C22.0691 9.02305 20.4408 7.93452 20.1466 7.74997ZM19.7248 8.12244C19.8436 8.35363 20.7459 10.3481 17.5676 12.1521C17.411 12.2412 17.2605 12.3266 17.1149 12.4096C16.6534 11.9563 16.3621 10.7806 16.2897 9.05643C16.2772 8.75873 16.2721 8.46524 16.2719 8.18558C16.9058 7.99837 17.8133 7.46643 18.0895 6.41104C18.6693 6.94733 19.2154 7.51889 19.7248 8.12244ZM15.7899 13.175C15.5426 12.8871 15.2477 12.6438 14.9181 12.4558C14.3023 12.1117 13.3176 11.8656 12.1238 12.6473C9.38563 14.4402 7.84045 14.5645 7.10348 14.4397C7.28161 14.3356 7.44807 14.2127 7.59998 14.0731C9.11643 12.6763 9.82912 10.5727 10.1637 8.95869C10.6585 8.93966 11.8771 8.85416 13.1421 8.47026C14.2546 8.13276 15.124 7.64493 15.7337 7.0251C15.7102 7.57077 15.6952 8.30376 15.7274 9.07448C15.8019 10.8615 16.1004 12.0754 16.6158 12.6951C16.3192 12.8656 16.0458 13.0242 15.7899 13.175ZM7.17881 12.0984C7.23946 11.9759 7.29792 11.8503 7.35543 11.7234C7.68134 11.9417 8.06255 12.063 8.4547 12.0732C8.20322 12.5211 7.90219 12.9394 7.55727 13.32C7.0229 13.3907 6.76509 13.1762 6.65512 13.0319C6.8465 12.7305 7.02132 12.4188 7.17881 12.0984ZM9.44399 9.57023C8.94595 9.75083 8.42441 9.54018 8.16637 9.40434C8.26827 9.01223 8.35546 8.61215 8.42826 8.20902C8.70866 8.31786 9.00685 8.37365 9.30763 8.37355C9.44208 8.37347 9.5763 8.36249 9.70898 8.34074C9.64485 8.7164 9.55893 9.13326 9.44399 9.57004V9.57023ZM9.03187 10.2046C9.10957 10.2044 9.18717 10.1993 9.26423 10.1894C9.12248 10.6386 8.95081 11.0778 8.75038 11.5041C8.12451 11.5587 7.75049 11.3333 7.58188 11.1921C7.74065 10.7954 7.88427 10.3819 8.01149 9.95666C8.32945 10.1128 8.67773 10.1973 9.03187 10.2044V10.2046ZM16.3467 6.20586C16.5034 5.91855 16.6186 5.61047 16.6889 5.29082C17.0044 5.50297 17.3079 5.73251 17.5979 5.97838C17.4935 6.97593 16.7336 7.41276 16.2787 7.5869C16.2945 6.89713 16.3336 6.36894 16.3467 6.20568V6.20586ZM13.8127 5.13561C14.0709 4.77111 14.3949 4.58718 14.8032 4.57311C15.1901 4.55933 15.6524 4.69799 16.1754 4.98032C15.9594 6.35844 14.8892 7.34985 12.9899 7.92876C11.8914 8.26363 10.8029 8.36146 10.2705 8.39001C10.3131 8.1373 10.3463 7.90251 10.3718 7.69335C10.9451 7.62266 12.3318 7.2261 13.8127 5.13543V5.13561ZM8.59087 7.08862C8.60043 7.00342 8.62875 6.9214 8.67379 6.84846C8.71883 6.77551 8.77947 6.71345 8.85135 6.66674C8.96138 6.59264 9.09107 6.55317 9.22373 6.5534C9.2868 6.55344 9.34956 6.56218 9.41024 6.57937C9.69524 6.65985 9.8842 6.91738 9.85945 7.19174C9.8451 7.35069 9.82523 7.53819 9.79799 7.74777C9.37257 7.8623 8.92041 7.82342 8.52079 7.63794C8.54713 7.4548 8.57104 7.27166 8.59091 7.08843L8.59087 7.08862ZM6.32652 13.5047C6.50751 13.6781 6.73259 13.7986 6.97729 13.8531C6.56851 14.1358 6.08406 14.289 5.58702 14.2926C5.86348 14.0597 6.11168 13.7953 6.32652 13.5047ZM0.809055 17.5769C0.808008 17.5689 0.806155 17.5611 0.803524 17.5535C0.798086 17.5243 0.768743 17.3181 0.929524 17.0059C1.27762 17.2447 1.96293 17.5842 3.04771 17.5842C3.67771 17.5842 4.44257 17.4695 5.35359 17.154C7.8239 16.2982 9.76012 16.68 10.5895 16.9315C10.4035 17.0848 10.2082 17.2463 10.0036 17.416C9.04907 18.2066 7.64967 18.7567 6.06323 18.964C4.64676 19.1495 3.18098 19.0411 2.14227 18.6742C1.37062 18.4018 0.897274 18.0121 0.809055 17.5769ZM20.3552 12.6597C19.0694 13.6505 18.3008 13.9106 17.487 14.1859C16.5647 14.4979 15.6111 14.8205 13.9425 16.2261C11.9674 17.8901 10.1086 19.3024 7.35688 19.7344C4.79137 20.1373 3.24974 19.7791 2.35387 19.3289C3.03979 19.518 3.83713 19.6161 4.67418 19.6161C6.67659 19.6161 8.90395 19.0567 10.3618 17.8492C11.1861 17.1666 11.8435 16.6264 12.4166 16.1711C12.475 16.1246 12.5126 16.0569 12.5211 15.9827C12.5295 15.9086 12.5082 15.8341 12.4618 15.7756C12.4153 15.7172 12.3476 15.6796 12.2734 15.6711C12.1992 15.6627 12.1248 15.684 12.0663 15.7304C11.771 15.9652 11.4528 16.2226 11.1019 16.5099C10.4826 16.2689 8.22604 15.5633 5.16932 16.6221C3.65202 17.1477 2.61393 17.0554 2.01023 16.8853C1.74403 16.8134 1.4909 16.6998 1.26023 16.5488C1.74712 16.0269 2.73834 15.3701 4.74534 14.7471C5.26013 14.8855 5.80181 14.8899 6.31874 14.7596C6.50826 14.8731 6.89788 15.0409 7.54471 15.0409C7.58512 15.0409 7.62651 15.0402 7.66888 15.0389C8.94491 14.9978 10.5475 14.3513 12.4321 13.1174C13.856 12.1851 14.8923 13.0231 15.2996 13.4669C14.6888 13.8362 14.1728 14.169 13.6551 14.5327C13.6229 14.5554 13.5959 14.5845 13.5757 14.6182C13.5555 14.6519 13.5426 14.6894 13.5378 14.7284C13.533 14.7674 13.5365 14.8069 13.5479 14.8445C13.5593 14.8821 13.5785 14.9169 13.6042 14.9466L13.6046 14.947C13.6502 14.9999 13.7138 15.034 13.7831 15.0425C13.8525 15.0511 13.9225 15.0336 13.9796 14.9933C15.0131 14.2676 16.0389 13.6663 17.8456 12.6408C19.2403 11.8491 20.0948 10.9107 20.3853 9.85171C20.4896 9.47542 20.5176 9.0821 20.4678 8.69483C20.9581 9.12327 21.5532 9.79902 21.5996 10.5852C21.6411 11.2937 21.2225 11.9916 20.3552 12.6599V12.6597Z" fill="#0635C9"/>
<path d="M13.7994 8.74026C13.4961 8.74027 13.1997 8.83021 12.9475 8.9987C12.6954 9.16719 12.4989 9.40667 12.3828 9.68685C12.2668 9.96703 12.2364 10.2753 12.2956 10.5728C12.3548 10.8702 12.5008 11.1434 12.7152 11.3578C12.9297 11.5723 13.2029 11.7183 13.5003 11.7775C13.7978 11.8366 14.1061 11.8063 14.3862 11.6902C14.6664 11.5741 14.9059 11.3776 15.0744 11.1255C15.2428 10.8733 15.3328 10.5769 15.3328 10.2736C15.3323 9.86706 15.1706 9.47731 14.8831 9.18986C14.5957 8.9024 14.2059 8.74071 13.7994 8.74026ZM13.7994 11.2444C13.6074 11.2444 13.4197 11.1875 13.26 11.0808C13.1004 10.9741 12.976 10.8225 12.9025 10.6451C12.829 10.4677 12.8098 10.2725 12.8473 10.0842C12.8847 9.89585 12.9772 9.72287 13.113 9.5871C13.2488 9.45133 13.4217 9.35887 13.6101 9.32142C13.7984 9.28396 13.9936 9.30319 14.171 9.37667C14.3484 9.45015 14.5 9.57458 14.6067 9.73424C14.7133 9.89389 14.7703 10.0816 14.7703 10.2736C14.77 10.531 14.6676 10.7778 14.4856 10.9598C14.3036 11.1418 14.0568 11.2441 13.7994 11.2444Z" fill="#0635C9"/>
</svg>
