<svg width="60" height="60" viewBox="0 0 60 60" fill="none" xmlns="http://www.w3.org/2000/svg">
<path d="M15.0029 53.5547H4.90395L5.18543 55.8984H15.7065L15.0029 53.5547Z" fill="#D4E1F4"/>
<path d="M55.8102 33.1011L40.3167 44.4375C38.0689 45.6129 35.4901 45.9952 32.998 45.5224L22.6355 43.4895C22.0749 43.3421 21.4904 43.3088 20.9167 43.3915C20.343 43.4743 19.7918 43.6713 19.2956 43.971C19.2839 43.9778 19.273 43.9849 19.262 43.9923L14.4482 47.2355L11.7411 37.7742L15.174 49.7742L19.988 46.5311C19.999 46.5236 20.0101 46.5164 20.0215 46.5096C20.5177 46.21 21.0689 46.013 21.6426 45.9303C22.2163 45.8476 22.8007 45.8808 23.3613 46.0281L33.7237 48.0616C36.2159 48.5344 38.7947 48.1521 41.0426 46.9767L58.3594 34.3056C58.048 33.9311 57.6585 33.6292 57.2181 33.4212C56.7777 33.2131 56.2972 33.1039 55.8102 33.1011Z" fill="#D4E1F4"/>
<path d="M52.4163 32.8945L52.091 33.0729C50.9096 31.5894 48.8379 31.0104 47.2629 31.8218L47.2471 31.8301L46.5234 32.2256C45.7003 31.5058 44.6715 31.0632 43.5829 30.9604C42.4942 30.8576 41.4008 31.0998 40.4575 31.6528L36.6768 33.742H31.6486C30.555 33.7403 29.4761 33.489 28.4943 33.0074L27.8039 32.6675C25.8478 31.6993 23.6589 31.3001 21.487 31.5156C19.315 31.7311 17.2472 32.5525 15.5195 33.8863C15.5039 33.898 15.489 33.9103 15.475 33.9233L13.8084 35.4316C13.1662 36.0136 12.4017 36.4444 11.5712 36.6922L10.6085 33.483C10.5651 33.3382 10.4761 33.2112 10.3548 33.121C10.2334 33.0307 10.0863 32.9819 9.93504 32.9819H1.875C1.7756 32.982 1.67732 33.003 1.58666 33.0438C1.496 33.0846 1.41501 33.1441 1.34905 33.2185C1.28308 33.2928 1.23363 33.3803 1.20396 33.4752C1.17429 33.5701 1.16507 33.6702 1.17692 33.7689L3.86356 56.158C3.88405 56.3288 3.9664 56.4861 4.09504 56.6002C4.22368 56.7143 4.38968 56.7773 4.56164 56.7773H16.6516C16.7613 56.7773 16.8693 56.7517 16.9673 56.7025C17.0652 56.6533 17.1503 56.5819 17.2158 56.4939C17.2812 56.406 17.3251 56.304 17.3441 56.196C17.3631 56.0881 17.3566 55.9772 17.3251 55.8722L15.7215 50.5267L20.7076 47.3235C21.3761 46.9465 22.1644 46.8425 22.9077 47.0333C22.9225 47.0371 22.9373 47.0404 22.9523 47.0432L33.0143 48.9258C35.7427 49.4214 38.5582 49.0175 41.0372 47.7749C41.0671 47.7598 41.096 47.7425 41.1234 47.7233L58.5274 35.5796C58.6729 35.4781 58.7747 35.3253 58.8123 35.1519C58.8499 34.9785 58.8205 34.7973 58.73 34.6446C58.1138 33.587 57.1087 32.8121 55.9292 32.4852C54.7497 32.1582 53.4891 32.3051 52.4163 32.8945ZM47.9135 33.0682C48.8193 32.6066 50.0463 32.935 50.8304 33.7639L44.1516 37.4251L43.721 37.6559C43.5067 37.0154 43.1818 36.4174 42.7611 35.889L47.9135 33.0682ZM41.1456 32.8798C41.1512 32.8767 41.1573 32.8734 41.1622 32.8701C41.7733 32.5103 42.4729 32.3285 43.1819 32.3453C43.8908 32.362 44.581 32.5766 45.1745 32.9648L41.7057 34.8646C41.0246 34.3541 40.2364 34.0052 39.4005 33.8443L41.1456 32.8798ZM5.18543 55.3711L2.66754 34.3882H9.41192L15.7066 55.3711H5.18543ZM40.3608 46.5411C38.1669 47.6292 35.6805 47.9807 33.2709 47.5434L23.2323 45.6649C22.1367 45.39 20.9773 45.5496 19.9968 46.1102C19.9856 46.1166 19.9748 46.1231 19.9642 46.13L15.3012 49.125L11.9753 38.0391C13.0059 37.7313 13.9546 37.1967 14.7518 36.4745L16.3965 34.9862C17.9162 33.8196 19.7324 33.1023 21.6391 32.9156C23.5457 32.729 25.4666 33.0804 27.1836 33.9301L27.874 34.2694C29.049 34.8456 30.3399 35.1462 31.6486 35.1483H38.3423C40.4517 35.1483 42.2095 36.7134 42.5544 38.764L37.6417 38.538C35.88 38.4576 34.1147 38.5405 32.3682 38.7855C32.1836 38.8115 32.0168 38.9098 31.9046 39.0587C31.7924 39.2077 31.744 39.3951 31.7699 39.5798C31.7959 39.7644 31.8942 39.9312 32.0431 40.0434C32.1921 40.1556 32.3795 40.2041 32.5642 40.1781C34.2243 39.945 35.9025 39.8662 37.5772 39.9428L43.2868 40.2054C43.2976 40.2059 43.3084 40.2061 43.3192 40.2061C43.5057 40.2061 43.6845 40.132 43.8164 40.0002C43.9482 39.8683 44.0223 39.6894 44.0223 39.503C44.0223 39.3668 44.016 39.2321 44.0067 39.0982L44.8218 38.6614L53.0925 34.1269C53.7467 33.7675 54.5039 33.6418 55.2391 33.7706C55.9743 33.8994 56.6437 34.2749 57.1368 34.8353L40.3608 46.5411Z" fill="#0635C9"/>
<path d="M7.6582 52.1567C7.66334 52.6135 7.80348 53.0586 8.06099 53.4359C8.3185 53.8132 8.68187 54.1059 9.10537 54.2771C9.52886 54.4484 9.99355 54.4905 10.4409 54.3983C10.8883 54.306 11.2984 54.0835 11.6196 53.7587C11.9408 53.4338 12.1588 53.0213 12.246 52.5729C12.3332 52.1245 12.2859 51.6603 12.1099 51.2387C11.9339 50.8172 11.6371 50.4571 11.2569 50.2039C10.8768 49.9506 10.4302 49.8155 9.97336 49.8155C9.3561 49.8196 8.7657 50.0685 8.33168 50.5074C7.89766 50.9463 7.65546 51.5395 7.6582 52.1567ZM9.97336 51.2217C10.1594 51.2164 10.3429 51.2668 10.5002 51.3663C10.6575 51.4658 10.7815 51.6101 10.8564 51.7805C10.9313 51.9509 10.9537 52.1398 10.9206 52.323C10.8875 52.5062 10.8005 52.6754 10.6708 52.8089C10.541 52.9424 10.3744 53.0341 10.1922 53.0724C10.01 53.1106 9.82054 53.0937 9.64805 53.0236C9.47556 52.9536 9.32789 52.8337 9.22392 52.6793C9.11996 52.5248 9.06444 52.3429 9.06445 52.1567C9.06129 51.9123 9.1552 51.6766 9.32559 51.5013C9.49598 51.326 9.72893 51.2255 9.97336 51.2217Z" fill="#0635C9"/>
<path d="M33.3812 3.22266C26.3331 3.22266 20.5991 8.94973 20.5991 15.9893C20.5991 23.0289 26.3331 28.7558 33.3812 28.7558C40.4293 28.7558 46.1633 23.0287 46.1633 15.9893C46.1633 8.94984 40.4297 3.22266 33.3812 3.22266ZM33.3812 27.3496C31.135 27.3465 28.9401 26.6776 27.0739 25.4275C25.2078 24.1773 23.7541 22.402 22.8966 20.3259C22.0391 18.2498 21.8164 15.9661 22.2565 13.7634C22.6966 11.5607 23.7798 9.5379 25.3692 7.95068C26.9586 6.36345 28.9829 5.28302 31.1861 4.84594C33.3894 4.40887 35.6728 4.63476 37.7478 5.49507C39.8227 6.35538 41.596 7.8115 42.8436 9.67938C44.0912 11.5473 44.7571 13.7431 44.7571 15.9893C44.7516 19.0032 43.5508 21.8919 41.4182 24.0217C39.2855 26.1514 36.3952 27.3482 33.3812 27.3496Z" fill="#1AE5BE"/>
<path d="M33.7017 10.7861C35.5198 10.8608 35.9503 12.3571 35.9943 12.5322C36.0374 12.7136 36.1509 12.8704 36.3097 12.9682C36.4685 13.066 36.6596 13.0967 36.8411 13.0535C37.0225 13.0104 37.1794 12.8969 37.2771 12.7381C37.3749 12.5793 37.4056 12.3882 37.3624 12.2067C37.172 11.4937 36.778 10.8516 36.2286 10.3589C35.6792 9.86619 34.9981 9.54421 34.2687 9.4323V8.54297C34.2687 8.35649 34.1946 8.17765 34.0627 8.04578C33.9309 7.91392 33.752 7.83984 33.5656 7.83984C33.3791 7.83984 33.2002 7.91392 33.0684 8.04578C32.9365 8.17765 32.8624 8.35649 32.8624 8.54297V9.435C32.2299 9.53269 31.6426 9.82212 31.1798 10.2642C30.1875 11.2302 30.1288 12.5963 30.1344 12.9927C30.1561 14.5161 31.2928 15.802 32.8981 16.1201L33.0387 16.1481C33.1588 16.1715 33.3063 16.2016 33.3966 16.2192C33.4484 16.2293 33.5831 16.2704 33.641 16.2881C33.6613 16.2943 33.6811 16.3017 33.7004 16.3103C33.7098 16.3144 33.7191 16.3182 33.7286 16.322L33.9491 16.4079C33.9686 16.4155 33.9876 16.4241 34.0062 16.4337C34.1102 16.4875 34.1357 16.5026 34.2113 16.5475C34.2423 16.5657 34.2791 16.5877 34.3266 16.6154L34.35 16.6308C34.3574 16.6355 34.3655 16.6407 34.3746 16.6463C34.6022 16.7869 35.7393 17.5417 35.7845 18.6401C35.8119 19.307 35.6427 19.8136 35.2671 20.1886C34.6904 20.7643 33.7616 20.8856 33.3013 20.8649C32.8249 20.8175 32.3688 20.6479 31.9771 20.3727C31.6372 20.1375 31.2183 19.7309 31.1521 19.1289C31.1432 19.0361 31.116 18.9461 31.072 18.864C31.028 18.7818 30.9681 18.7093 30.8959 18.6505C30.8236 18.5917 30.7404 18.5479 30.651 18.5215C30.5616 18.4952 30.4679 18.4869 30.3753 18.497C30.2827 18.5072 30.1931 18.5357 30.1116 18.5808C30.0301 18.6259 29.9583 18.6868 29.9006 18.7599C29.8428 18.833 29.8001 18.9168 29.775 19.0065C29.7499 19.0962 29.7429 19.1901 29.7544 19.2825C29.94 20.9727 31.568 22.0102 32.862 22.2287V22.9812C32.862 23.1677 32.936 23.3465 33.0679 23.4784C33.1998 23.6102 33.3786 23.6843 33.5651 23.6843C33.7516 23.6843 33.9304 23.6102 34.0623 23.4784C34.1941 23.3465 34.2682 23.1677 34.2682 22.9812V22.1886C35.0169 22.0577 35.71 21.7081 36.2604 21.1839C36.9115 20.5338 37.2331 19.6342 37.1895 18.5823C37.1169 16.8227 35.5889 15.7437 35.1107 15.4482C35.1045 15.4443 35.0521 15.411 35.0463 15.4078L34.928 15.3381C34.8361 15.2836 34.7859 15.2543 34.6515 15.1847C34.5887 15.1522 34.5241 15.123 34.4582 15.0974L34.2506 15.0166C34.1856 14.9886 34.1191 14.9641 34.0514 14.9434C33.9131 14.9011 33.7794 14.8614 33.6647 14.8391C33.5762 14.8219 33.4316 14.7929 33.3142 14.7694L33.1712 14.7409C32.0589 14.5205 31.5505 13.6941 31.5401 12.9729C31.5326 12.4498 31.6917 11.7284 32.1604 11.2722C32.5205 10.9219 33.0383 10.7578 33.7017 10.7861Z" fill="#1AE5BE"/>
</svg>
