<svg width="80" height="80" viewBox="0 0 80 80" fill="none" xmlns="http://www.w3.org/2000/svg">
<g clip-path="url(#clip0_1592_202)">
<path fill-rule="evenodd" clip-rule="evenodd" d="M24 26C21.7909 26 20 27.7909 20 30V50C20 52.2091 21.7909 54 24 54H56C58.2091 54 60 52.2091 60 50V30C60 27.7909 58.2091 26 56 26H24ZM30 30H26V34H30V30ZM26 38H30V42H26V38ZM38 30H34V34H38V30ZM42 30H46V34H42V30ZM38 38H34V42H38V38ZM42 38H46V42H42V38ZM54 30H50V34H54V30ZM50 38H54V42H50V38ZM50 46H30V50H50V46Z" fill="#335FFF"/>
</g>
<defs>
<clipPath id="clip0_1592_202">
<rect width="80" height="80" rx="40" fill="white"/>
</clipPath>
</defs>
</svg>
