<svg width="24" height="24" viewBox="0 0 24 24" fill="none" xmlns="http://www.w3.org/2000/svg">
<path d="M12.1939 12.0045C12.1939 9.79962 13.9815 8.00303 16.1955 8.00303C18.4004 8.00303 20.197 9.79055 20.197 12.0045C20.197 14.2095 18.4094 16.006 16.1955 16.006C13.9905 16.006 12.1939 14.2095 12.1939 12.0045Z" fill="#1ABCFE"/>
<path d="M4.2 19.9985C4.2 17.7936 5.98752 15.997 8.20151 15.997H12.203V19.9985C12.203 22.2034 10.4155 24 8.20151 24C5.98752 24 4.2 22.2125 4.2 19.9985Z" fill="#0ACF83"/>
<path d="M12.1939 0.00907372V8.00302H16.1955C18.4004 8.00302 20.197 6.2155 20.197 4.00151C20.197 1.7966 18.4094 0 16.1955 0H12.1939V0.00907372Z" fill="#FF7262"/>
<path d="M4.2 4.01058C4.2 6.2155 5.98752 8.0121 8.20151 8.0121H12.203V0.00907135H8.20151C5.98752 0.00907135 4.2 1.79659 4.2 4.01058Z" fill="#F24E1E"/>
<path d="M4.2 12.0045C4.2 14.2095 5.98752 16.006 8.20151 16.006H12.203V8.00303H8.20151C5.98752 8.00303 4.2 9.79962 4.2 12.0045Z" fill="#A259FF"/>
</svg>
