<svg width="24" height="24" viewBox="0 0 24 24" fill="none" xmlns="http://www.w3.org/2000/svg">
<path d="M21.911 5.98049C21.2641 6.25892 20.584 6.4528 19.8874 6.55734C20.2131 6.50151 20.6922 5.91536 20.883 5.67811C21.1727 5.32024 21.3936 4.9117 21.5342 4.47325C21.5342 4.44068 21.5668 4.39416 21.5342 4.3709C21.5178 4.36195 21.4994 4.35725 21.4807 4.35725C21.462 4.35725 21.4437 4.36195 21.4272 4.3709C20.6709 4.78048 19.866 5.09307 19.0315 5.3013C19.0024 5.31019 18.9714 5.31098 18.9419 5.30361C18.9124 5.29623 18.8855 5.28096 18.864 5.25943C18.799 5.18208 18.7291 5.10905 18.6547 5.04079C18.3143 4.73583 17.9281 4.48623 17.5103 4.30112C16.9462 4.06972 16.337 3.96951 15.7286 4.00805C15.1382 4.04533 14.5618 4.20368 14.0352 4.47325C13.5167 4.75745 13.061 5.14354 12.6955 5.60833C12.311 6.08672 12.0334 6.6419 11.8814 7.23653C11.756 7.80214 11.7418 8.38672 11.8395 8.95776C11.8395 9.05545 11.8395 9.06941 11.7558 9.05545C8.4389 8.567 5.71748 7.39004 3.49383 4.86401C3.39614 4.75237 3.34497 4.75237 3.26589 4.86401C2.29827 6.33404 2.76812 8.66004 3.97764 9.80908C4.14046 9.96259 4.30793 10.1115 4.48471 10.251C3.93015 10.2116 3.38914 10.0614 2.89373 9.80908C2.80069 9.7486 2.74952 9.78116 2.74486 9.89281C2.73168 10.0476 2.73168 10.2032 2.74486 10.358C2.84193 11.0998 3.13427 11.8025 3.59199 12.3943C4.04971 12.9861 4.65639 13.4456 5.34998 13.726C5.51906 13.7985 5.69524 13.853 5.87565 13.8889C5.36227 13.9899 4.83573 14.0057 4.31724 13.9354C4.20559 13.9121 4.16372 13.9726 4.20559 14.0796C4.88943 15.9404 6.37341 16.5079 7.46198 16.8243C7.61084 16.8475 7.75971 16.8475 7.92718 16.8847C7.92718 16.8847 7.92718 16.8847 7.89926 16.9127C7.57828 17.4988 6.28037 17.8942 5.68492 18.0989C4.59806 18.4893 3.43927 18.6385 2.28897 18.5362C2.10754 18.5083 2.06567 18.5129 2.01915 18.5362C1.97263 18.5595 2.01915 18.6106 2.07033 18.6572C2.30293 18.8107 2.53552 18.9456 2.77743 19.0758C3.49758 19.4686 4.25892 19.7807 5.0476 20.0062C9.13204 21.132 13.7282 20.304 16.7939 17.2569C19.2036 14.8658 20.0503 11.5675 20.0503 8.26462C20.0503 8.13901 20.2038 8.06458 20.2922 7.99945C20.9018 7.52444 21.4393 6.96345 21.8878 6.33404C21.9655 6.24022 22.0053 6.12076 21.9994 5.9991C21.9994 5.92932 21.9994 5.94328 21.911 5.98049Z" fill="#33CCFF"/>
</svg>
