<svg width="26" height="26" viewBox="0 0 26 26" fill="none" xmlns="http://www.w3.org/2000/svg">
<g clip-path="url(#clip0_1044_6351)">
<path d="M15.922 7.3706L10.874 7.10223C10.8154 7.09909 10.7564 7.11226 10.7046 7.14021L7.92385 8.6401C7.83939 8.68568 7.77966 8.76678 7.76131 8.86101C7.74291 8.95528 7.76777 9.05287 7.8289 9.12683L9.25941 10.8573C9.2733 10.8468 9.28749 10.8367 9.30342 10.8283L15.922 7.3706Z" fill="#051036"/>
<path d="M25.883 5.57895C25.8805 5.57359 25.8779 5.56828 25.875 5.5631C25.6755 5.18942 25.2246 4.74402 24.2103 4.74402C23.1436 4.74402 21.9828 5.22842 21.9339 5.24906C19.1202 6.37003 5.87688 13.3388 5.87688 13.3388L2.70556 11.6301C2.61176 11.5796 2.49922 11.5789 2.40495 11.6281L0.172266 12.7942C0.0780794 12.8433 0.0143965 12.9359 0.0021187 13.0415C-0.0100316 13.147 0.0305827 13.2517 0.110962 13.3212L5.56717 18.0381C5.66688 18.1241 5.80882 18.1407 5.9254 18.0798L11.2535 15.2998L12.0597 20.9803C12.0744 21.0842 12.139 21.1742 12.2325 21.2215C12.2781 21.2445 12.3277 21.256 12.3773 21.256C12.4296 21.256 12.4819 21.2432 12.5293 21.2178C13.0956 20.9132 13.4491 20.7204 13.7909 20.5339C14.1391 20.3438 14.4993 20.1473 15.0819 19.8343C15.1443 19.8009 15.1937 19.7477 15.2227 19.6833L19.0147 11.248L22.9126 9.21295C24.7351 8.28753 26.4725 6.84678 25.883 5.57895Z" fill="#051036"/>
</g>
<defs>
<clipPath id="clip0_1044_6351">
<rect width="26" height="26" fill="white"/>
</clipPath>
</defs>
</svg>
