<?xml version="1.0" encoding="iso-8859-1"?>
<!-- Generator: Adobe Illustrator 19.0.0, SVG Export Plug-In . SVG Version: 6.00 Build 0)  -->
<svg version="1.1" id="Capa_1" xmlns="http://www.w3.org/2000/svg" xmlns:xlink="http://www.w3.org/1999/xlink" x="0px" y="0px"
	 viewBox="0 0 512 512" style="enable-background:new 0 0 512 512;" xml:space="preserve">
<g>
	<polygon style="fill:#3077A6;" points="79.126,512 128.885,412.377 113.352,404.61 59.722,512 	"/>
	<polygon style="fill:#3077A6;" points="400.21,512 346.034,404.61 330.509,412.377 380.807,512 	"/>
</g>
<circle style="fill:#3B86B8;" cx="229.966" cy="251.661" r="199.593"/>
<path style="fill:#3880B0;" d="M353.618,95.041c-29.93,189.752-156.785,274.823-249.084,311.834
	c84.575,70.699,210.449,59.453,281.149-25.114s59.453-210.449-25.114-281.149c-2.282-1.909-4.608-3.766-6.977-5.571L353.618,95.041z
	"/>
<circle style="fill:#4398D1;" cx="229.966" cy="251.661" r="147.525"/>
<circle style="fill:#E8594A;" cx="229.966" cy="251.661" r="95.458"/>
<circle style="fill:#FDB62F;" cx="229.966" cy="251.661" r="43.39"/>
<polygon style="fill:#E8594A;" points="386.169,95.458 386.169,43.39 429.559,0 429.559,52.068 481.627,52.068 438.237,95.458 "/>
<rect x="179.645" y="121.482" transform="matrix(-0.7071 0.7071 -0.7071 -0.7071 692.0137 -26.3207)" style="fill:#3077A6;" width="343.627" height="17.356"/>
<g>
</g>
<g>
</g>
<g>
</g>
<g>
</g>
<g>
</g>
<g>
</g>
<g>
</g>
<g>
</g>
<g>
</g>
<g>
</g>
<g>
</g>
<g>
</g>
<g>
</g>
<g>
</g>
<g>
</g>
</svg>
