<?xml version="1.0" encoding="iso-8859-1"?>
<!-- Generator: Adobe Illustrator 19.0.0, SVG Export Plug-In . SVG Version: 6.00 Build 0)  -->
<svg version="1.1" id="Capa_1" xmlns="http://www.w3.org/2000/svg" xmlns:xlink="http://www.w3.org/1999/xlink" x="0px" y="0px"
	 viewBox="0 0 512 512" style="enable-background:new 0 0 512 512;" xml:space="preserve">
<polygon style="fill:#E8594A;" points="332.371,28.588 253.652,54.828 253.652,2.349 "/>
<rect x="244.905" y="2.349" style="fill:#E0D2C1;" width="17.493" height="131.199"/>
<polygon style="fill:#3B86B8;" points="376.104,247.253 332.371,247.253 262.914,116.054 245.255,116.054 148.693,317.226 
	95.566,317.226 0,509.652 49.497,509.652 131.199,509.652 428.584,509.652 457.806,509.652 512,509.652 "/>
<g>
	<path style="fill:#F0E4D6;" d="M505.694,133.548c1.041-2.799,1.583-5.764,1.609-8.747c0-14.493-11.747-26.24-26.24-26.24
		c-3.988,0.026-7.916,0.962-11.476,2.746c-8.012-22.645-32.87-34.505-55.515-26.493c-12.376,4.382-22.111,14.117-26.493,26.493
		c-3.56-1.784-7.487-2.72-11.476-2.746c-14.493,0-26.24,11.747-26.24,26.24c0.026,2.983,0.569,5.948,1.609,8.747H505.694z"/>
	<path style="fill:#F0E4D6;" d="M87.466,54.828c-4.854,0-9.656,1.032-14.091,3.009c-17.581-16.452-45.167-15.534-61.62,2.047
		C4.172,68.001-0.035,78.698,0,89.815h122.452C122.453,70.485,106.788,54.828,87.466,54.828z"/>
	<path style="fill:#F0E4D6;" d="M104.959,186.027c0-19.321-15.665-34.986-34.986-34.986l0,0c-19.321,0-34.986,15.665-34.986,34.986
		H104.959z"/>
</g>
<polygon style="fill:#4398D1;" points="402.344,509.652 341.118,395.946 271.145,395.946 244.905,439.679 192.426,439.679 
	157.439,509.652 "/>
<path style="fill:#3B86B8;" d="M316.627,434.431l-26.24,34.986l13.995,10.496l23.616-31.488l41.634,0.472l-9.473-17.581
	l-36.535-0.385C320.869,430.932,318.28,432.227,316.627,434.431z"/>
<g>
	<polygon style="fill:#3077A6;" points="130.281,373.616 158.419,317.226 148.693,317.226 138.861,317.226 114.624,365.796 	"/>
	<polygon style="fill:#3077A6;" points="383.81,382.59 415.569,323.454 405.825,304.64 368.398,374.315 	"/>
	<polygon style="fill:#3077A6;" points="103.49,434.824 66.107,376.537 56.503,395.876 88.936,444.533 	"/>
	<polygon style="fill:#3077A6;" points="234.908,242.749 207.199,195.334 198.067,214.366 219.916,251.758 	"/>
	<path style="fill:#3077A6;" d="M263.273,243.344L239.5,290.987h-20.834v17.493h73.769l23.695,39.491l14.992-9.009l-26.24-43.733
		c-1.583-2.633-4.426-4.242-7.496-4.242h-38.328L276.55,256h55.821v-8.747l-4.627-8.747h-56.599
		C267.813,238.481,264.76,240.361,263.273,243.344z"/>
</g>
<g>
</g>
<g>
</g>
<g>
</g>
<g>
</g>
<g>
</g>
<g>
</g>
<g>
</g>
<g>
</g>
<g>
</g>
<g>
</g>
<g>
</g>
<g>
</g>
<g>
</g>
<g>
</g>
<g>
</g>
</svg>
