<svg width="37" height="25" viewBox="0 0 37 25" fill="none" xmlns="http://www.w3.org/2000/svg">
<path d="M6.50417 24.1C4.50417 24.1 2.8375 23.3333 1.50417 21.8C0.237499 20.2 -0.229167 17.9667 0.104167 15.1C0.570834 10.7 2.17083 7.1 4.90417 4.3C7.70417 1.43333 11.1708 0 15.3042 0C16.6375 0 17.6042 0.099998 18.2042 0.299995L17.4042 4.3C16.6708 4.16667 15.6375 4.1 14.3042 4.1C13.0375 4.1 11.8375 4.4 10.7042 5C9.6375 5.6 8.80417 6.4 8.20417 7.4C6.9375 8.86667 6.1375 10.5333 5.80417 12.4C6.80417 11.4 8.1375 10.9 9.80417 10.9C11.4708 10.9 12.8042 11.4 13.8042 12.4C14.8042 13.4 15.2042 14.7667 15.0042 16.5C14.8042 18.6333 13.8708 20.4333 12.2042 21.9C10.6042 23.3667 8.70417 24.1 6.50417 24.1ZM24.9042 24.1C22.9042 24.1 21.2375 23.3333 19.9042 21.8C18.6375 20.2 18.1708 17.9667 18.5042 15.1C18.9708 10.7 20.5708 7.1 23.3042 4.3C26.1042 1.43333 29.5708 0 33.7042 0C35.0375 0 36.0042 0.099998 36.6042 0.299995L35.8042 4.3C35.0708 4.16667 34.0375 4.1 32.7042 4.1C31.4375 4.1 30.2375 4.4 29.1042 5C28.0375 5.6 27.2042 6.4 26.6042 7.4C25.3375 8.86667 24.5375 10.5333 24.2042 12.4C25.2042 11.4 26.5375 10.9 28.2042 10.9C29.8708 10.9 31.2042 11.4 32.2042 12.4C33.2042 13.4 33.6042 14.7667 33.4042 16.5C33.2042 18.6333 32.2708 20.4333 30.6042 21.9C29.0042 23.3667 27.1042 24.1 24.9042 24.1Z" fill="#F5F5F5"/>
</svg>
